<?xml version="1.0" standalone="no"?>
<!DOCTYPE svg PUBLIC "-//W3C//DTD SVG 1.1//EN" "http://www.w3.org/Graphics/SVG/1.1/DTD/svg11.dtd" >
<svg xmlns="http://www.w3.org/2000/svg" xmlns:xlink="http://www.w3.org/1999/xlink" version="1.1">
<metadata>
Created by FontForge 20161013 at Sun Feb 19 17:19:41 2017
 By ,,,
Copyright (c) 2012 by atipo. All rights reserved.
</metadata>
<defs>
<font id="QXBariolRegular" horiz-adv-x="518" >
  <font-face 
    font-family="QX Bariol Regular"
    font-weight="400"
    font-stretch="normal"
    units-per-em="1000"
    panose-1="2 0 5 6 4 0 0 2 0 3"
    ascent="787"
    descent="-213"
    x-height="454"
    cap-height="681"
    bbox="-371 -241 1036 1052"
    underline-thickness="20"
    underline-position="-153"
    unicode-range="U+0020-FB06"
  />
<missing-glyph horiz-adv-x="580" 
d="M254 124v55h55v-55h-55zM258 229v39q0 60 53 116t53 90q0 32 -23 52q-21 18 -53 18q-79 0 -79 -81h-48q0 66 37 100q34 31 91 31q54 0 89 -29q36 -31 36 -87q0 -53 -54 -109q-55 -54 -55 -101v-39h-47zM492 48v603h-404v-603h404zM540 700v-700h-500v700h500z" />
    <glyph glyph-name="ellipsis" unicode="&#x2e;&#x2e;&#x2e;" horiz-adv-x="703" 
d="M80 87q47 0 47 -48q0 -47 -47 -47t-47 47q0 48 47 48zM351 87q47 0 47 -48q0 -47 -47 -47t-47 47q0 48 47 48zM623 87q47 0 47 -48q0 -47 -47 -47t-47 47q0 48 47 48z" />
    <glyph glyph-name="f_f" unicode="ff" horiz-adv-x="556" 
d="M149 394v-370q0 -32 -32 -32t-32 32v370h-34q-30 0 -30 30t30 30h34v59q0 73 41 120q46 52 132 52q30 0 30 -30t-30 -30q-109 0 -109 -112v-59h203v59q0 73 41 120q46 52 132 52q30 0 30 -30t-30 -30q-109 0 -109 -112v-59h91q30 0 30 -30t-30 -30h-91v-370
q0 -32 -32 -32t-32 32v370h-203z" />
    <glyph glyph-name="fi" unicode="fi" horiz-adv-x="472" 
d="M51 394q-30 0 -30 30t30 30h34v59q0 73 41 120q46 52 132 52q34 0 63 -7q27 -7 43 -15q18 -10 18 -28q0 -30 -30 -30q-4 0 -21 6q-39 14 -73 14q-109 0 -109 -112v-59h226q32 0 32 -32v-398q0 -32 -32 -32t-32 32v370h-194v-370q0 -32 -32 -32t-32 32v370h-34z" />
    <glyph glyph-name="fl" unicode="fl" horiz-adv-x="497" 
d="M51 394q-30 0 -30 30t30 30h34v59q0 73 41 120q46 52 132 52q36 0 76 -8q30 -7 51 -18q22 -10 22 -31v-519q0 -57 40 -57q30 0 30 -30t-30 -30q-104 0 -104 117v285h-194v-370q0 -32 -32 -32t-32 32v370h-34zM149 454h194v156q-40 15 -85 15q-109 0 -109 -112v-59z" />
    <glyph glyph-name="f_f_i" unicode="ffi" horiz-adv-x="739" 
d="M149 394v-370q0 -32 -32 -32t-32 32v370h-34q-30 0 -30 30t30 30h34v59q0 73 41 120q46 52 132 52q30 0 30 -30t-30 -30q-109 0 -109 -112v-59h203v59q0 73 41 120q46 52 132 52q34 0 63 -7q27 -7 43 -15q18 -10 18 -28q0 -30 -30 -30q-4 0 -21 6q-39 14 -73 14
q-109 0 -109 -112v-59h226q32 0 32 -32v-398q0 -32 -32 -32t-32 32v370h-194v-370q0 -32 -32 -32t-32 32v370h-203z" />
    <glyph glyph-name="f_f_l" unicode="ffl" horiz-adv-x="764" 
d="M149 394v-370q0 -32 -32 -32t-32 32v370h-34q-30 0 -30 30t30 30h34v59q0 73 41 120q46 52 132 52q30 0 30 -30t-30 -30q-109 0 -109 -112v-59h203v59q0 73 41 120q46 52 132 52q36 0 76 -8q30 -7 51 -18q22 -10 22 -31v-519q0 -57 40 -57q30 0 30 -30t-30 -30
q-104 0 -104 117v285h-194v-370q0 -32 -32 -32t-32 32v370h-203zM416 454h194v156q-40 15 -85 15q-109 0 -109 -112v-59z" />
    <glyph glyph-name="f_j" unicode="fj" horiz-adv-x="472" 
d="M343 394h-194v-370q0 -32 -32 -32t-32 32v370h-34q-30 0 -30 30t30 30h34v59q0 73 41 120q46 52 132 52q34 0 63 -7q27 -7 43 -15q18 -10 18 -28q0 -30 -30 -30q-4 0 -21 6q-39 14 -73 14q-109 0 -109 -112v-59h226q32 0 32 -32v-457q0 -63 -41 -106q-42 -44 -105 -44
q-30 0 -30 30t30 30q36 0 59 26t23 64v429z" />
    <glyph glyph-name="f_b" unicode="fb" horiz-adv-x="779" 
d="M407 184q0 -69 37 -105q34 -34 95 -34q141 0 141 183q0 182 -141 182q-59 0 -101 -44q-21 -22 -31 -44v-138zM343 610q-40 15 -85 15q-109 0 -109 -112v-59h91q30 0 30 -30t-30 -30h-91v-370q0 -32 -32 -32t-32 32v370h-34q-30 0 -30 30t30 30h34v59q0 73 41 120
q46 52 132 52q36 0 76 -8q30 -7 51 -18q22 -10 22 -31v-225q20 28 53 45q38 20 83 20q201 0 201 -240q0 -241 -205 -241q-89 0 -141 49q-55 52 -55 148v426z" />
    <glyph glyph-name="f_f_b" unicode="ffb" horiz-adv-x="1046" 
d="M610 610q-40 15 -85 15q-109 0 -109 -112v-59h91q30 0 30 -30t-30 -30h-91v-370q0 -32 -32 -32t-32 32v370h-203v-370q0 -32 -32 -32t-32 32v370h-34q-30 0 -30 30t30 30h34v59q0 73 41 120q46 52 132 52q30 0 30 -30t-30 -30q-109 0 -109 -112v-59h203v59q0 73 41 120
q46 52 132 52q36 0 76 -8q30 -7 51 -18q22 -10 22 -31v-225q20 28 53 45q38 20 83 20q201 0 201 -240q0 -241 -205 -241q-89 0 -141 49q-55 52 -55 148v426zM674 184q0 -69 37 -105q34 -34 95 -34q141 0 141 183q0 182 -141 182q-59 0 -101 -44q-21 -22 -31 -44v-138z" />
    <glyph glyph-name="f_h" unicode="fh" horiz-adv-x="779" 
d="M343 610q-40 15 -85 15q-109 0 -109 -112v-59h91q30 0 30 -30t-30 -30h-91v-370q0 -32 -32 -32t-32 32v370h-34q-30 0 -30 30t30 30h34v59q0 73 41 120q46 52 132 52q36 0 76 -8q30 -7 51 -18q22 -10 22 -31v-230q15 30 49 49q38 21 84 21q105 0 150 -57q34 -43 34 -120
v-267q0 -32 -32 -32t-32 32v254q0 65 -24 96q-28 37 -96 37q-133 0 -133 -140v-247q0 -32 -32 -32t-32 32v586z" />
    <glyph glyph-name="f_f_h" unicode="ffh" horiz-adv-x="1046" 
d="M610 610q-40 15 -85 15q-109 0 -109 -112v-59h91q30 0 30 -30t-30 -30h-91v-370q0 -32 -32 -32t-32 32v370h-203v-370q0 -32 -32 -32t-32 32v370h-34q-30 0 -30 30t30 30h34v59q0 73 41 120q46 52 132 52q30 0 30 -30t-30 -30q-109 0 -109 -112v-59h203v59q0 73 41 120
q46 52 132 52q36 0 76 -8q30 -7 51 -18q22 -10 22 -31v-230q15 30 49 49q38 21 84 21q105 0 150 -57q34 -43 34 -120v-267q0 -32 -32 -32t-32 32v254q0 65 -24 96q-28 37 -96 37q-133 0 -133 -140v-247q0 -32 -32 -32t-32 32v586z" />
    <glyph glyph-name="f_k" unicode="fk" horiz-adv-x="731" 
d="M343 610q-40 15 -85 15q-109 0 -109 -112v-59h91q30 0 30 -30t-30 -30h-91v-370q0 -32 -32 -32t-32 32v370h-34q-30 0 -30 30t30 30h34v59q0 73 41 120q46 52 132 52q36 0 76 -8q30 -7 51 -18q22 -10 22 -31v-367l236 193q6 6 12 7q3 1 10 1q32 0 32 -32q0 -16 -13 -26
l-164 -131l178 -229q7 -7 7 -20q0 -32 -32 -32q-16 0 -28 15l-177 227l-61 -49v-161q0 -32 -32 -32t-32 32v586z" />
    <glyph glyph-name="f_f_k" unicode="ffk" horiz-adv-x="998" 
d="M674 261l236 193q6 6 12 7q3 1 10 1q32 0 32 -32q0 -16 -13 -26l-164 -131l178 -229q7 -7 7 -20q0 -32 -32 -32q-16 0 -28 15l-177 227l-61 -49v-161q0 -32 -32 -32t-32 32v586q-40 15 -85 15q-109 0 -109 -112v-59h91q30 0 30 -30t-30 -30h-91v-370q0 -32 -32 -32
t-32 32v370h-203v-370q0 -32 -32 -32t-32 32v370h-34q-30 0 -30 30t30 30h34v59q0 73 41 120q46 52 132 52q30 0 30 -30t-30 -30q-109 0 -109 -112v-59h203v59q0 73 41 120q46 52 132 52q36 0 76 -8q30 -7 51 -18q22 -10 22 -31v-367z" />
    <glyph glyph-name="f_f_j" unicode="ffj" horiz-adv-x="739" 
d="M610 394h-194v-370q0 -32 -32 -32t-32 32v370h-203v-370q0 -32 -32 -32t-32 32v370h-34q-30 0 -30 30t30 30h34v59q0 73 41 120q46 52 132 52q30 0 30 -30t-30 -30q-109 0 -109 -112v-59h203v59q0 73 41 120q46 52 132 52q34 0 63 -7q27 -7 43 -15q18 -10 18 -28
q0 -30 -30 -30q-4 0 -21 6q-39 14 -73 14q-109 0 -109 -112v-59h226q32 0 32 -32v-457q0 -63 -41 -106q-42 -44 -105 -44q-30 0 -30 30t30 30q36 0 59 26t23 64v429z" />
    <glyph glyph-name=".notdef" horiz-adv-x="580" 
d="M254 124v55h55v-55h-55zM258 229v39q0 60 53 116t53 90q0 32 -23 52q-21 18 -53 18q-79 0 -79 -81h-48q0 66 37 100q34 31 91 31q54 0 89 -29q36 -31 36 -87q0 -53 -54 -109q-55 -54 -55 -101v-39h-47zM492 48v603h-404v-603h404zM540 700v-700h-500v700h500z" />
    <glyph glyph-name=".null" horiz-adv-x="0" 
 />
    <glyph glyph-name="nonmarkingreturn" horiz-adv-x="333" 
 />
    <glyph glyph-name="space" unicode=" " horiz-adv-x="238" 
 />
    <glyph glyph-name="exclam" unicode="!" horiz-adv-x="208" 
d="M124 175q0 -18 -20 -18t-20 18l-15 471q-2 35 35 35t35 -35zM104 87q47 0 47 -48q0 -47 -47 -47t-47 47q0 48 47 48z" />
    <glyph glyph-name="quotedbl" unicode="&#x22;" horiz-adv-x="280" 
d="M101 482q-2 -17 -19 -17t-19 17l-9 172q-1 27 28 27q30 0 28 -27zM213 482q-2 -17 -19 -17t-19 17l-9 172q-1 27 28 27q30 0 28 -27z" />
    <glyph glyph-name="numbersign" unicode="#" horiz-adv-x="550" 
d="M133 212h-63q-24 0 -24 24t24 24h71l21 136h-70q-24 0 -24 24t24 24h78l28 187q5 21 25 21q25 0 25 -25q0 -6 -1 -9l-26 -174h139l28 187q5 21 25 21q25 0 25 -25q0 -6 -1 -9l-26 -174h69q24 0 24 -24t-24 -24h-77l-21 -136h76q24 0 24 -24t-24 -24h-84l-31 -202
q-3 -21 -25 -21q-25 0 -25 25q0 6 1 9l29 189h-139l-31 -202q-3 -21 -25 -21q-25 0 -25 25q0 6 1 9zM192 260h139l21 136h-139z" />
    <glyph glyph-name="dollar" unicode="$" horiz-adv-x="558" 
d="M281 625q-74 0 -112 -33q-33 -28 -33 -76q0 -54 59 -89q21 -13 61 -27l34 -12l35 -12q91 -32 130 -65q59 -50 59 -131q0 -179 -209 -193v-75q0 -26 -26 -26t-26 26v75q-76 5 -133 40q-54 34 -79 82q-5 12 -5 18q0 32 32 32q18 0 28 -16q59 -95 178 -95q172 0 172 132
q0 62 -59 98q-25 15 -61 28l-34 12l-35 11q-92 30 -130 61q-59 47 -59 126q0 68 45 114q49 49 140 56v76q0 26 26 26t26 -26v-76q125 -9 190 -102q6 -9 6 -19q0 -32 -32 -32q-16 0 -26 13q-27 33 -61 53q-44 26 -101 26z" />
    <glyph glyph-name="percent" unicode="%" horiz-adv-x="746" 
d="M558 646l-326 -641q-6 -13 -22 -13q-25 0 -25 25q0 4 2 10l326 641q2 3 8 9q5 4 14 4q25 0 25 -25q0 -4 -2 -10zM188 641q-96 0 -96 -117t96 -117q97 0 97 117t-97 117zM188 361q-146 0 -146 163t146 163q147 0 147 -163t-147 -163zM558 267q-96 0 -96 -117t96 -117
q97 0 97 117t-97 117zM558 -13q-146 0 -146 163t146 163q147 0 147 -163t-147 -163z" />
    <glyph glyph-name="ampersand" unicode="&#x26;" horiz-adv-x="616" 
d="M285 468q35 47 35 85q0 36 -21 57q-19 19 -49 19q-38 0 -59 -28q-19 -25 -19 -68q0 -78 33 -141q48 31 80 76zM108 175q0 -58 45 -96q44 -35 105 -35q42 0 78 16q32 12 56 33q-151 119 -207 210q-77 -50 -77 -128zM106 34q-62 53 -62 141q0 103 110 183q-20 38 -31 73
q-15 48 -15 102q0 67 37 110q39 44 105 44q58 0 96 -35q38 -38 38 -99q0 -60 -43 -115q-32 -42 -106 -98q61 -96 199 -201q17 23 27 54q5 15 8 26q3 9 6 21q6 23 30 23q31 0 31 -31q0 -9 -3 -20q-16 -63 -48 -111q26 -17 98 -49q20 -9 20 -29q0 -31 -31 -31q-19 0 -62 22
q-40 20 -66 39q-73 -67 -186 -67q-93 0 -152 48z" />
    <glyph glyph-name="quotesingle" unicode="'" horiz-adv-x="168" 
d="M101 482q-2 -17 -19 -17t-19 17l-9 172q-1 27 28 27q30 0 28 -27z" />
    <glyph glyph-name="parenleft" unicode="(" horiz-adv-x="294" 
d="M230 735q8 3 13 3q28 0 28 -28q0 -18 -18 -26q-85 -40 -111 -137q-18 -67 -18 -251q0 -183 18 -251q26 -97 111 -137q18 -7 18 -26q0 -28 -28 -28q-5 0 -13 3q-96 42 -133 136q-37 95 -37 303t37 303q37 94 133 136z" />
    <glyph glyph-name="parenright" unicode=")" horiz-adv-x="294" 
d="M64 -143q-7 -3 -13 -3q-28 0 -28 28q0 19 18 26q85 40 111 137q18 68 18 251q0 184 -18 251q-26 97 -111 137q-18 8 -18 26q0 28 28 28q6 0 13 -3q96 -42 133 -136q37 -95 37 -303t-37 -303q-37 -94 -133 -136z" />
    <glyph glyph-name="asterisk" unicode="*" horiz-adv-x="357" 
d="M173 534l-62 -93q-12 -20 -29 -6q-18 13 -6 29l64 88l-101 23q-19 5 -15 27q5 23 26 15l105 -31l-4 106q0 20 22 20t22 -20l-4 -106l105 31q21 8 26 -15q5 -22 -15 -27l-101 -23l64 -88q12 -16 -6 -29q-17 -14 -29 6z" />
    <glyph glyph-name="plus" unicode="+" horiz-adv-x="454" 
d="M256 191v-170q0 -29 -29 -29t-29 29v170h-171q-27 0 -27 27t27 27h171v171q0 29 29 29t29 -29v-171h171q27 0 27 -27t-27 -27h-171z" />
    <glyph glyph-name="comma" unicode="," horiz-adv-x="162" 
d="M44 -162q-15 0 -15 15q0 5 3 9q37 50 37 91q0 20 -18 42q-8 10 -12 19q-6 11 -6 25q0 48 47 48q49 0 49 -64q0 -104 -72 -179q-6 -6 -13 -6z" />
    <glyph glyph-name="hyphen" unicode="-" horiz-adv-x="364" 
d="M82 225q-27 0 -27 27t27 27h200q27 0 27 -27t-27 -27h-200z" />
    <glyph glyph-name="period" unicode="." horiz-adv-x="160" 
d="M80 87q47 0 47 -48q0 -47 -47 -47t-47 47q0 48 47 48z" />
    <glyph glyph-name="slash" unicode="/" horiz-adv-x="407" 
d="M305 728q8 23 31 23q32 0 32 -32q0 -6 -3 -15l-264 -779q-8 -23 -31 -23q-32 0 -32 32q0 6 3 15z" />
    <glyph glyph-name="zero" unicode="0" horiz-adv-x="602" 
d="M482 337q0 153 -44 223q-43 67 -137 67t-137 -67q-44 -70 -44 -223t44 -223q44 -68 137 -68t137 68q44 70 44 223zM548 337q0 -179 -60 -265q-62 -86 -187 -86q-126 0 -186 86q-61 85 -61 265t61 265q60 85 186 85t187 -85q60 -85 60 -265z" />
    <glyph glyph-name="one" unicode="1" horiz-adv-x="351" 
d="M88 512q-9 -6 -19 -6q-13 0 -22 10q-10 9 -10 22q0 18 14 27l157 109q10 7 20 7q14 0 23 -10q10 -9 10 -23v-623q0 -13 -10 -23q-9 -10 -23 -10q-13 0 -23 10t-10 23v564z" />
    <glyph glyph-name="two" unicode="2" horiz-adv-x="532" 
d="M424 633q57 -52 57 -141q0 -82 -58 -152q-43 -50 -127 -108l-35 -23l-34 -21q-41 -28 -59 -42q-58 -45 -58 -84h349q31 0 31 -31t-31 -31h-386q-31 0 -31 31q0 73 58 134q31 34 128 98l35 22l33 24q36 25 60 50q58 61 58 133q0 60 -38 96q-40 39 -109 39q-100 0 -142 -92
q-9 -20 -29 -20q-31 0 -31 31v4l1 3l1 4q43 130 200 130q100 0 157 -54z" />
    <glyph glyph-name="three" unicode="3" horiz-adv-x="542" 
d="M274 408q212 0 212 -216q0 -100 -58 -152q-60 -54 -173 -54q-147 0 -215 113q-5 8 -5 17q0 30 30 30q17 0 27 -16q51 -84 163 -84q165 0 165 146q0 156 -151 156h-70q-30 0 -30 30q0 10 8 21l184 214h-258q-30 0 -30 30t30 30h326q30 0 30 -30q0 -11 -8 -21l-187 -214h10
z" />
    <glyph glyph-name="four" unicode="4" horiz-adv-x="540" 
d="M472 217q32 0 32 -30q0 -32 -32 -32h-57v-130q0 -13 -10 -23q-9 -10 -23 -10q-13 0 -23 10t-10 23v130h-292q-31 0 -31 31q0 10 7 20l322 460q11 14 27 14q14 0 23 -10q10 -9 10 -23v-430h57zM349 217v336l-234 -336h234z" />
    <glyph glyph-name="five" unicode="5" horiz-adv-x="555" 
d="M504 217q0 -116 -65 -175q-61 -56 -167 -56q-166 0 -231 135q-4 7 -4 15q0 31 31 31q17 0 28 -17q31 -53 73 -78q41 -24 103 -24q166 0 166 169q0 84 -47 128q-43 40 -119 40q-99 0 -160 -61l-5 -5l-5 -4q-7 -4 -17 -4q-31 0 -31 31q0 1 1 5v3l1 5l58 294q1 8 9 16
q10 8 21 8h304q31 0 31 -31t-31 -31h-282l-40 -205q56 40 146 40q108 0 167 -55q65 -60 65 -174z" />
    <glyph glyph-name="six" unicode="6" horiz-adv-x="566" 
d="M518 211q0 -225 -233 -225q-120 0 -181 94q-56 86 -56 241q0 366 251 366q55 0 101 -18q41 -15 60 -37q10 -10 10 -23q0 -31 -31 -31q-10 0 -21 8q-56 41 -119 41q-185 0 -185 -282q25 35 66 59q52 29 111 29q103 0 163 -54q64 -58 64 -168zM405 335q-43 38 -114 38
q-111 0 -172 -109q0 -97 42 -156q45 -62 124 -62q167 0 167 165q0 82 -47 124z" />
    <glyph glyph-name="seven" unicode="7" horiz-adv-x="483" 
d="M278 416l26 29q28 32 45 56q44 62 44 110h-337q-31 0 -31 31t31 31h373q31 0 31 -31q0 -75 -45 -146q-16 -28 -45 -63l-26 -31l-26 -31q-69 -84 -98 -144q-45 -93 -45 -203q0 -32 -32 -32t-32 32q0 188 141 360z" />
    <glyph glyph-name="eight" unicode="8" horiz-adv-x="554" 
d="M43 190q0 133 118 178q-88 46 -88 145q0 87 57 132q53 42 147 42q95 0 147 -42q57 -45 57 -132q0 -99 -88 -145q118 -45 118 -178q0 -99 -65 -153q-61 -51 -169 -51q-107 0 -169 51q-65 54 -65 153zM277 395q138 0 138 118q0 114 -138 114t-138 -114q0 -118 138 -118z
M277 46q168 0 168 144q0 145 -168 145t-168 -145q0 -144 168 -144z" />
    <glyph glyph-name="nine" unicode="9" horiz-adv-x="566" 
d="M48 462q0 225 233 225q120 0 181 -94q56 -86 56 -241q0 -366 -251 -366q-54 0 -101 18q-41 15 -60 37q-10 10 -10 23q0 31 31 31q10 0 21 -8q56 -41 119 -41q185 0 185 282q-25 -35 -66 -59q-52 -29 -111 -29q-103 0 -163 54q-64 58 -64 168zM161 338q43 -38 114 -38
q111 0 172 109q0 98 -42 156q-45 62 -124 62q-167 0 -167 -165q0 -82 47 -124z" />
    <glyph glyph-name="colon" unicode=":" horiz-adv-x="160" 
d="M80 87q47 0 47 -48q0 -47 -47 -47t-47 47q0 48 47 48zM80 456q47 0 47 -48q0 -47 -47 -47t-47 47q0 48 47 48z" />
    <glyph glyph-name="semicolon" unicode=";" horiz-adv-x="160" 
d="M44 -162q-15 0 -15 15q0 5 3 9q37 50 37 91q0 20 -18 42q-8 10 -12 19q-6 11 -6 25q0 48 47 48q49 0 49 -64q0 -104 -72 -179q-6 -6 -13 -6zM80 456q47 0 47 -48q0 -47 -47 -47t-47 47q0 48 47 48z" />
    <glyph glyph-name="less" unicode="&#x3c;" horiz-adv-x="337" 
d="M294 480q8 5 16 5q27 0 27 -27q0 -14 -11 -22l-260 -201l260 -201q11 -8 11 -22q0 -27 -27 -27q-8 0 -16 5l-281 222q-13 9 -13 23t13 23z" />
    <glyph glyph-name="equal" unicode="=" horiz-adv-x="454" 
d="M27 267q-27 0 -27 27t27 27h400q27 0 27 -27t-27 -27h-400zM27 114q-27 0 -27 27t27 27h400q27 0 27 -27t-27 -27h-400z" />
    <glyph glyph-name="greater" unicode="&#x3e;" horiz-adv-x="337" 
d="M43 -10q-8 -5 -16 -5q-27 0 -27 27q0 14 11 22l260 201l-260 201q-11 8 -11 22q0 27 27 27q8 0 16 -5l281 -222q13 -9 13 -23t-13 -23z" />
    <glyph glyph-name="question" unicode="?" horiz-adv-x="461" 
d="M186 320q11 11 33 28l19 13l20 13q52 34 71 57q33 38 33 87q0 110 -134 110q-128 0 -128 -120q0 -13 -10 -23q-9 -10 -23 -10q-13 0 -23 10t-10 23q0 85 51 131q51 48 143 48q93 0 146 -44q52 -43 52 -125q0 -100 -103 -173l-19 -13l-19 -12q-22 -15 -33 -24
q-32 -27 -32 -53q0 -18 14 -40q8 -13 8 -22q0 -15 -11 -24q-10 -9 -22 -9q-14 0 -24 10q-32 32 -32 85q0 43 33 77zM205 87q47 0 47 -48q0 -47 -47 -47t-47 47q0 48 47 48z" />
    <glyph glyph-name="at" unicode="@" horiz-adv-x="801" 
d="M280 21q-39 30 -39 81t34 79q35 29 96 29h116v25q0 37 -26 57t-67 20q-52 0 -88 -41q-9 -9 -20 -9q-24 0 -24 24q0 7 5 15q43 58 127 58q69 0 106 -36q35 -35 35 -93v-122q0 -73 65 -73q57 0 82 34q29 38 29 126q0 150 -85 225q-80 71 -227 71q-309 0 -309 -319
q0 -318 309 -318q149 0 231 55q5 4 13 4q23 0 23 -23q0 -12 -10 -19q-98 -61 -257 -61q-173 0 -264 88q-95 92 -95 274t95 275q91 88 264 88q163 0 259 -84q103 -90 103 -256q0 -83 -29 -133q-40 -69 -132 -69q-81 0 -106 61q-39 -61 -119 -61q-58 0 -95 28zM487 134v33
h-116q-80 0 -80 -65t88 -65q43 0 74 24q34 27 34 73z" />
    <glyph glyph-name="A" unicode="A" horiz-adv-x="613" 
d="M306 567l-118 -306h237zM167 199l-73 -183q-9 -24 -33 -24q-14 0 -24 10t-10 24v4l1 4l1 4l1 3l244 617q11 23 32 23q22 0 33 -23l244 -617l1 -4l1 -4q1 -3 1 -7q0 -34 -35 -34q-24 0 -33 23l-72 184h-279z" />
    <glyph glyph-name="B" unicode="B" horiz-adv-x="561" 
d="M148 379h135q66 0 101 32q35 30 35 84q0 116 -136 116h-135v-232zM148 62h165q137 0 137 130q0 61 -37 95q-35 34 -100 34h-165v-259zM114 0q-14 0 -24 10t-10 24v605q0 14 10 24t24 10h170q204 0 204 -178q0 -49 -27 -87q-27 -37 -70 -49q128 -32 128 -167
q0 -88 -53 -139q-55 -53 -152 -53h-200z" />
    <glyph glyph-name="C" unicode="C" horiz-adv-x="631" 
d="M127 600q80 87 229 87t225 -106q7 -10 7 -21q0 -32 -32 -32q-16 0 -26 13q-61 84 -174 84q-242 0 -242 -289q0 -288 242 -288q117 0 174 82q4 6 13 10q6 3 13 3q32 0 32 -32q0 -10 -6 -19q-33 -48 -95 -77q-63 -29 -131 -29q-312 0 -312 350q0 173 83 264z" />
    <glyph glyph-name="D" unicode="D" horiz-adv-x="608" 
d="M148 62h107q117 0 176 59q64 65 64 215q0 148 -64 215q-58 60 -176 60h-107v-549zM255 673q309 0 309 -337q0 -336 -309 -336h-141q-34 0 -34 34v605q0 34 34 34h141z" />
    <glyph glyph-name="E" unicode="E" 
d="M114 0q-34 0 -34 34v605q0 34 34 34h321q31 0 31 -31t-31 -31h-287v-241h220q31 0 31 -31t-31 -31h-220v-246h298q31 0 31 -31t-31 -31h-332z" />
    <glyph glyph-name="F" unicode="F" 
d="M148 26q0 -34 -34 -34t-34 34v613q0 34 34 34h321q31 0 31 -31t-31 -31h-287v-249h220q31 0 31 -31t-31 -31h-220v-274z" />
    <glyph glyph-name="G" unicode="G" horiz-adv-x="663" 
d="M542 273h-167q-31 0 -31 31t31 31h202q12 0 22 -9q9 -9 9 -22v-175q0 -17 -13 -33q-95 -110 -239 -110q-312 0 -312 350q0 173 83 264q80 87 229 87t225 -106q7 -10 7 -21q0 -32 -32 -32q-16 0 -26 13q-61 84 -174 84q-242 0 -242 -289q0 -288 242 -288q121 0 186 80v145
z" />
    <glyph glyph-name="H" unicode="H" horiz-adv-x="644" 
d="M148 314v-288q0 -14 -10 -24t-24 -10t-24 10t-10 24v621q0 14 10 24t24 10t24 -10t10 -24v-271h348v271q0 14 10 24t24 10t24 -10t10 -24v-621q0 -14 -10 -24t-24 -10t-24 10t-10 24v288h-348z" />
    <glyph glyph-name="I" unicode="I" horiz-adv-x="228" 
d="M148 26q0 -14 -10 -24t-24 -10t-24 10t-10 24v621q0 14 10 24t24 10t24 -10t10 -24v-621z" />
    <glyph glyph-name="J" unicode="J" horiz-adv-x="413" 
d="M26 63q10 10 23 10q7 0 20 -6q31 -16 74 -16q122 0 122 152v444q0 14 10 24t24 10t24 -10t10 -24v-444q0 -216 -190 -216q-67 0 -108 23q-19 10 -19 30q0 14 10 23z" />
    <glyph glyph-name="K" unicode="K" horiz-adv-x="554" 
d="M439 668q10 13 27 13q15 0 25 -10t10 -25q0 -13 -10 -24l-209 -234l242 -341q7 -10 7 -21q0 -34 -34 -34q-10 0 -18 5l-6 5q-3 3 -5 6l-232 330l-88 -99v-213q0 -34 -34 -34t-34 34v621q0 34 34 34t34 -34v-312z" />
    <glyph glyph-name="L" unicode="L" horiz-adv-x="483" 
d="M422 64q32 0 32 -32t-32 -32h-308q-34 0 -34 34v613q0 34 34 34t34 -34v-583h274z" />
    <glyph glyph-name="M" unicode="M" horiz-adv-x="761" 
d="M345 128l-209 389v-492q0 -13 -10 -23q-9 -10 -23 -10q-13 0 -23 10t-10 23v623q0 14 10 23q10 10 23 10q21 0 30 -19l242 -453l243 453l4 6q3 5 6 6q7 7 20 7q14 0 23 -10q10 -9 10 -23v-623q0 -13 -10 -23q-9 -10 -23 -10q-13 0 -23 10t-10 23v492l-210 -389
q-10 -19 -30 -19q-9 0 -16 4q-10 5 -14 15z" />
    <glyph glyph-name="N" unicode="N" horiz-adv-x="620" 
d="M550 648v-622q0 -34 -34 -34q-17 0 -28 14l-352 531v-512q0 -13 -10 -23q-9 -10 -23 -10q-13 0 -23 10t-10 23v623q0 14 10 23q10 10 23 10q16 0 27 -14l354 -532v513q0 14 10 23q10 10 23 10q14 0 23 -10q10 -9 10 -23z" />
    <glyph glyph-name="O" unicode="O" horiz-adv-x="712" 
d="M44 336q0 173 83 264q80 87 229 87q150 0 229 -87q83 -91 83 -264q0 -172 -83 -263q-81 -87 -229 -87t-229 87q-83 91 -83 263zM356 48q242 0 242 288q0 289 -242 289t-242 -289q0 -288 242 -288z" />
    <glyph glyph-name="P" unicode="P" horiz-adv-x="544" 
d="M148 344h155q62 0 96 34q36 36 36 100q0 66 -36 100q-34 33 -96 33h-155v-267zM148 26q0 -34 -34 -34t-34 34v613q0 34 34 34h199q85 0 136 -48q55 -51 55 -147q0 -95 -55 -147q-50 -49 -136 -49h-165v-256z" />
    <glyph glyph-name="Q" unicode="Q" horiz-adv-x="712" 
d="M44 336q0 173 83 264q80 87 229 87q150 0 229 -87q83 -91 83 -264q0 -250 -166 -323q45 -19 72 -52q10 -13 10 -25q0 -14 -10 -23q-10 -10 -24 -10t-25 11q-38 41 -65 54q-37 18 -104 18q-148 0 -229 87q-83 91 -83 263zM356 48q242 0 242 288q0 289 -242 289t-242 -289
q0 -288 242 -288z" />
    <glyph glyph-name="R" unicode="R" horiz-adv-x="546" 
d="M148 353h167q51 0 86 38q34 35 34 91q0 57 -34 92q-34 37 -89 37h-164v-258zM148 26q0 -34 -34 -34t-34 34v613q0 34 34 34h199q83 0 137 -55t54 -136q0 -80 -49 -132q-49 -54 -130 -59l183 -244q7 -7 7 -21q0 -34 -34 -34q-19 0 -29 16l-203 283h-101v-265z" />
    <glyph glyph-name="S" unicode="S" horiz-adv-x="558" 
d="M281 625q-74 0 -112 -33q-33 -28 -33 -76q0 -54 59 -89q21 -13 61 -27l34 -12l35 -12q91 -32 130 -65q59 -50 59 -131q0 -94 -62 -144t-178 -50q-82 0 -146 37q-61 35 -87 86q-5 12 -5 18q0 32 32 32q18 0 28 -16q59 -95 178 -95q172 0 172 132q0 62 -59 98
q-25 15 -61 28l-34 12l-35 11q-92 30 -130 61q-59 47 -59 126q0 74 52 120q57 51 161 51q145 0 214 -103q6 -9 6 -19q0 -32 -32 -32q-16 0 -26 13q-27 33 -61 53q-44 26 -101 26z" />
    <glyph glyph-name="T" unicode="T" horiz-adv-x="538" 
d="M56 609q-32 0 -32 32t32 32h425q32 0 32 -32t-32 -32h-178v-583q0 -34 -34 -34t-34 34v583h-179z" />
    <glyph glyph-name="U" unicode="U" horiz-adv-x="624" 
d="M80 647q0 34 34 34t34 -34v-442q0 -155 167 -155q166 0 166 155v442q0 34 34 34t34 -34v-442q0 -219 -234 -219q-235 0 -235 219v442z" />
    <glyph glyph-name="V" unicode="V" horiz-adv-x="576" 
d="M491 659q4 9 10 14q10 8 22 8q34 0 34 -34q0 -6 -1 -9l-1 -3l-1 -3l-234 -617q-8 -23 -32 -23t-32 23l-234 617l-1 3l-1 3q-1 3 -1 9q0 34 34 34q12 0 22 -8q5 -3 6 -7q2 -3 4 -7l203 -538z" />
    <glyph glyph-name="W" unicode="W" horiz-adv-x="818" 
d="M409 527l-144 -509q-6 -26 -33 -26q-26 0 -33 25l-177 618q-2 10 -2 12q0 34 34 34q12 0 23 -8q7 -7 10 -17l146 -517l143 517q6 25 33 25t33 -25l143 -517l146 517q2 8 11 17q10 8 22 8q34 0 34 -34q0 -2 -2 -12l-177 -618q-7 -25 -33 -25q-25 0 -33 26z" />
    <glyph glyph-name="X" unicode="X" horiz-adv-x="500" 
d="M250 284l-182 -279q-7 -13 -27 -13q-34 0 -34 34q0 10 5 18l200 301l-188 284q-5 8 -5 18q0 34 34 34q18 0 30 -17l167 -256l167 256q12 17 30 17q34 0 34 -34q0 -10 -5 -18l-188 -284l200 -301q5 -8 5 -18q0 -34 -34 -34q-20 0 -27 13z" />
    <glyph glyph-name="Y" unicode="Y" 
d="M225 313l-201 316q-5 8 -5 18q0 34 34 34q19 0 29 -16l177 -284l177 284q10 16 29 16q34 0 34 -34q0 -10 -5 -18l-201 -316v-287q0 -34 -34 -34t-34 34v287z" />
    <glyph glyph-name="Z" unicode="Z" horiz-adv-x="513" 
d="M49 0q-32 0 -32 32q0 10 6 19l372 558h-325q-32 0 -32 32t32 32h384q32 0 32 -32q0 -10 -6 -19l-369 -558h358q32 0 32 -32t-32 -32h-420z" />
    <glyph glyph-name="bracketleft" unicode="[" horiz-adv-x="259" 
d="M112 -146q-32 0 -32 32v820q0 32 32 32h101q26 0 26 -26t-26 -26h-69v-780h69q26 0 26 -26t-26 -26h-101z" />
    <glyph glyph-name="backslash" unicode="\" horiz-adv-x="407" 
d="M366 -51q3 -9 3 -15q0 -32 -32 -32q-23 0 -31 23l-264 779q-3 9 -3 15q0 32 32 32q23 0 31 -23z" />
    <glyph glyph-name="bracketright" unicode="]" horiz-adv-x="259" 
d="M115 -94v780h-69q-26 0 -26 26t26 26h101q32 0 32 -32v-820q0 -32 -32 -32h-101q-26 0 -26 26t26 26h69z" />
    <glyph glyph-name="asciicircum" unicode="^" horiz-adv-x="468" 
d="M234 614l-145 -261q-7 -13 -23 -13q-27 0 -27 27q0 7 3 13l169 298q7 13 23 13t23 -13l169 -298q3 -6 3 -13q0 -27 -27 -27q-16 0 -23 13z" />
    <glyph glyph-name="underscore" unicode="_" horiz-adv-x="406" 
d="M6 -97q-27 0 -27 27t27 27h394q27 0 27 -27t-27 -27h-394z" />
    <glyph glyph-name="grave" unicode="`" horiz-adv-x="370" 
d="M111 620q-18 18 3 38q22 19 38 0l89 -108q14 -16 -3 -30q-15 -13 -30 2z" />
    <glyph glyph-name="a" unicode="a" horiz-adv-x="467" 
d="M90 343q-29 0 -29 29q0 9 5 17q49 79 166 79q85 0 134 -47q46 -45 46 -123v-275q0 -31 -31 -31t-31 31v36q-37 -72 -143 -72q-80 0 -126 37q-47 38 -47 106q0 66 47 104q46 37 128 37h141v27q0 51 -32 81q-32 29 -86 29q-71 0 -116 -51q-14 -14 -26 -14zM350 173v42h-141
q-110 0 -110 -85t114 -85q55 0 95 32q42 36 42 96z" />
    <glyph glyph-name="b" unicode="b" horiz-adv-x="501" 
d="M129 184q0 -69 37 -105q34 -34 95 -34q141 0 141 183q0 182 -141 182q-59 0 -101 -44q-21 -22 -31 -44v-138zM261 -13q-89 0 -141 49q-55 52 -55 148v496q0 32 32 32t32 -32v-277q20 28 53 45q38 20 83 20q201 0 201 -240q0 -241 -205 -241z" />
    <glyph glyph-name="c" unicode="c" horiz-adv-x="441" 
d="M345 442q22 -13 32 -23q13 -13 18 -20q7 -10 7 -19q0 -29 -29 -29q-13 0 -24 12l-6 7l-8 8q-10 9 -21 15q-31 17 -73 17q-141 0 -141 -182q0 -183 141 -183q38 0 71 15q9 4 25 14l11 7l9 7q10 7 19 7q29 0 29 -29q0 -13 -13 -25l-4 -4l-5 -3l-12 -9q-19 -12 -32 -18
q-46 -20 -98 -20q-206 0 -206 241q0 240 206 240q57 0 104 -26z" />
    <glyph glyph-name="d" unicode="d" horiz-adv-x="501" 
d="M372 322q-9 22 -31 44q-42 44 -101 44q-141 0 -141 -182q0 -183 141 -183q61 0 95 34q37 36 37 105v138zM372 403v277q0 32 32 32t32 -32v-496q0 -96 -55 -148q-52 -49 -141 -49q-205 0 -205 241q0 240 201 240q45 0 83 -20q33 -17 53 -45z" />
    <glyph glyph-name="e" unicode="e" horiz-adv-x="466" 
d="M241 468q107 0 156 -72q19 -28 28 -64q7 -27 7 -59v-11l-1 -11q-2 -15 -4 -21q-9 -21 -35 -21h-292q0 -76 40 -119q41 -44 111 -44q38 0 71 14q20 8 49 29q9 6 18 6q29 0 29 -29q0 -12 -11 -23q-7 -7 -18 -15q-18 -13 -32 -19q-47 -22 -106 -22q-216 0 -216 241
q0 115 54 178q54 62 152 62zM369 265q0 63 -25 100q-31 45 -103 45q-131 0 -141 -145h269z" />
    <glyph glyph-name="f" unicode="f" horiz-adv-x="289" 
d="M51 394q-30 0 -30 30t30 30h34v59q0 73 41 120q46 52 132 52q30 0 30 -30t-30 -30q-109 0 -109 -112v-59h91q30 0 30 -30t-30 -30h-91v-370q0 -32 -32 -32t-32 32v370h-34z" />
    <glyph glyph-name="g" unicode="g" horiz-adv-x="478" 
d="M425 497q29 0 29 -29t-29 -29q-35 0 -48 -31q36 -43 36 -108q0 -77 -48 -122q-49 -46 -136 -46q-65 0 -108 25q-18 -15 -18 -36q0 -42 74 -42h103q78 0 124 -33q51 -36 51 -103q0 -144 -215 -144q-89 0 -145 29q-68 35 -68 111q0 70 76 101q-62 20 -62 81q0 43 40 70
q-36 45 -36 109q0 77 49 122q49 46 135 46q64 0 107 -25q30 54 89 54zM348 300q0 50 -31 80t-88 30q-56 0 -88 -30q-31 -30 -31 -80t31 -80q32 -30 88 -30q57 0 88 30t31 80zM176 19q-84 -13 -84 -80q0 -84 149 -84t149 88q0 76 -110 76h-104z" />
    <glyph glyph-name="h" unicode="h" horiz-adv-x="501" 
d="M446 291v-267q0 -32 -32 -32t-32 32v254q0 65 -24 96q-28 37 -96 37q-133 0 -133 -140v-247q0 -32 -32 -32t-32 32v656q0 32 32 32t32 -32v-282q15 30 49 49q38 21 84 21q105 0 150 -57q34 -43 34 -120z" />
    <glyph glyph-name="i" unicode="i" horiz-adv-x="193" 
d="M128 24q0 -32 -32 -32t-32 32v406q0 32 32 32t32 -32v-406zM96 634q38 0 38 -40q0 -38 -38 -38t-38 38q0 40 38 40z" />
    <glyph glyph-name="j" unicode="j" horiz-adv-x="194" 
d="M65 430q0 32 32 32t32 -32v-465q0 -63 -41 -106q-42 -44 -105 -44q-30 0 -30 30t30 30q36 0 59 26t23 64v465zM97 634q38 0 38 -40q0 -38 -38 -38t-38 38q0 40 38 40z" />
    <glyph glyph-name="k" unicode="k" horiz-adv-x="453" 
d="M190 234l-61 -49v-161q0 -32 -32 -32t-32 32v656q0 32 32 32t32 -32v-419l236 193q6 6 12 7q3 1 10 1q32 0 32 -32q0 -16 -13 -26l-164 -131l178 -229q7 -7 7 -20q0 -32 -32 -32q-16 0 -28 15z" />
    <glyph glyph-name="l" unicode="l" horiz-adv-x="219" 
d="M129 680v-571q0 -57 40 -57q30 0 30 -30t-30 -30q-104 0 -104 117v571q0 13 10 22q9 10 22 10t23 -10q9 -9 9 -22z" />
    <glyph glyph-name="m" unicode="m" horiz-adv-x="808" 
d="M753 291v-267q0 -32 -32 -32t-32 32v254q0 133 -125 133t-125 -120v-267q0 -32 -32 -32t-32 32v254q0 65 -25 96q-28 37 -98 37q-123 0 -123 -140v-247q0 -32 -32 -32t-32 32v406q0 32 32 32t32 -32v-32q13 29 47 49q38 21 83 21q117 0 159 -70q45 70 146 70
q106 0 152 -57q37 -43 37 -120z" />
    <glyph glyph-name="n" unicode="n" horiz-adv-x="501" 
d="M446 291v-267q0 -32 -32 -32t-32 32v254q0 65 -24 96q-28 37 -96 37q-133 0 -133 -140v-247q0 -32 -32 -32t-32 32v406q0 32 32 32t32 -32v-32q15 30 49 49q38 21 84 21q105 0 150 -57q34 -43 34 -120z" />
    <glyph glyph-name="o" unicode="o" horiz-adv-x="490" 
d="M245 -13q-99 0 -153 59q-57 62 -57 182q0 121 57 182q52 58 153 58q210 0 210 -240q0 -241 -210 -241zM245 410q-145 0 -145 -182q0 -183 145 -183t145 183q0 182 -145 182z" />
    <glyph glyph-name="p" unicode="p" horiz-adv-x="509" 
d="M129 430v-32q17 29 50 48q38 22 86 22q209 0 209 -240q0 -241 -209 -241q-48 0 -85 22q-33 20 -51 48v-226q0 -13 -10 -22q-9 -10 -22 -10t-22 10q-10 9 -10 22v599q0 13 10 23q9 9 22 9t22 -9q10 -10 10 -23zM265 45q144 0 144 183q0 182 -146 182q-60 0 -96 -42
q-40 -47 -40 -140t40 -140q36 -43 98 -43z" />
    <glyph glyph-name="q" unicode="q" horiz-adv-x="490" 
d="M372 271q0 69 -37 105q-34 34 -95 34q-141 0 -141 -183q0 -182 141 -182q59 0 101 44q22 22 31 44v138zM240 468q89 0 141 -49q55 -52 55 -148v-440q0 -32 -32 -32t-32 32v221q-21 -28 -53 -44q-37 -21 -83 -21q-201 0 -201 240q0 241 205 241z" />
    <glyph glyph-name="r" unicode="r" horiz-adv-x="309" 
d="M129 386q35 80 139 80q31 0 31 -31t-31 -31q-67 0 -104 -43q-35 -43 -35 -113v-224q0 -32 -32 -32t-32 32v406q0 32 32 32t32 -32v-44z" />
    <glyph glyph-name="s" unicode="s" horiz-adv-x="424" 
d="M159 289q17 -9 42 -18l24 -9l25 -8q63 -23 90 -46q41 -35 41 -88q0 -66 -49 -100q-47 -32 -121 -32q-56 0 -106 24q-42 19 -65 48q-7 10 -7 19q0 29 29 29q12 0 22 -10q49 -49 127 -49q106 0 106 71q0 33 -41 56q-16 8 -42 18l-24 8l-24 8q-64 24 -91 46q-41 35 -41 90
q0 61 45 92q41 29 108 29q104 0 152 -64l2 -3l3 -5q2 -6 2 -11q0 -29 -29 -29h-4l-5 2q-6 1 -12 7q-43 42 -109 42q-89 0 -89 -60q0 -34 41 -57z" />
    <glyph glyph-name="t" unicode="t" horiz-adv-x="279" 
d="M90 559q0 13 10 22q9 10 22 10t23 -10q9 -9 9 -22v-105h65q30 0 30 -30t-30 -30h-65v-276q0 -66 58 -66q31 0 31 -30t-31 -30q-58 0 -91 36q-31 34 -31 90v276h-39q-30 0 -30 30t30 30h39v105z" />
    <glyph glyph-name="u" unicode="u" horiz-adv-x="482" 
d="M119 430v-261q0 -121 122 -121t122 121v261q0 32 33 32q31 0 31 -32v-261q0 -182 -186 -182t-186 182v261q0 32 32 32q13 0 22 -9q10 -10 10 -23z" />
    <glyph glyph-name="v" unicode="v" horiz-adv-x="438" 
d="M19 416l-1 2l-1 4q-1 3 -1 8q0 32 32 32q13 0 20 -7q5 -4 10 -14l141 -345l141 345q5 10 10 14q7 7 20 7q32 0 32 -32q0 -5 -1 -8l-1 -4l-1 -2l-170 -404q-9 -20 -30 -20t-30 20z" />
    <glyph glyph-name="w" unicode="w" horiz-adv-x="640" 
d="M320 332l-92 -317q-8 -23 -31 -23q-22 0 -30 21l-147 403q-3 8 -3 14q0 32 32 32q23 0 30 -21l116 -331l95 331q4 9 10 14q7 7 20 7t20 -7q6 -5 10 -14l95 -331l116 331q8 21 30 21q32 0 32 -32q0 -6 -3 -14l-147 -403q-7 -21 -30 -21t-31 23z" />
    <glyph glyph-name="x" unicode="x" horiz-adv-x="412" 
d="M206 182l-125 -177q-9 -13 -26 -13q-32 0 -32 32q0 12 6 19l137 189l-133 179q-6 11 -6 19q0 32 32 32q16 0 26 -13l121 -166l121 166q10 13 26 13q32 0 32 -32q0 -8 -6 -19l-133 -179l137 -189q6 -7 6 -19q0 -32 -32 -32q-17 0 -26 13z" />
    <glyph glyph-name="y" unicode="y" horiz-adv-x="438" 
d="M186 19l-167 397l-1 2l-1 4q-1 3 -1 8q0 32 32 32q13 0 20 -7q5 -4 10 -14l141 -345l141 345q5 10 10 14q7 7 20 7q32 0 32 -32q0 -5 -1 -8l-1 -4l-1 -2l-197 -469q-31 -75 -73 -111q-44 -37 -114 -37q-30 0 -30 30t30 30q59 0 93 42q20 26 58 118z" />
    <glyph glyph-name="z" unicode="z" horiz-adv-x="405" 
d="M342 454q30 0 30 -30q0 -4 -2 -12l-2 -4l-3 -4l-249 -342h231q31 0 31 -31t-31 -31h-293q-30 0 -30 30q0 12 7 20l252 344h-215q-30 0 -30 30t30 30h274z" />
    <glyph glyph-name="braceleft" unicode="{" horiz-adv-x="338" 
d="M176 -109q-33 32 -33 80q0 26 6 104t6 106q0 53 -29 76q-22 16 -71 16h-7q-23 0 -23 23t23 23h7q48 0 71 17q29 21 29 76q0 33 -6 94q-6 62 -6 116q0 48 33 79q37 37 108 37q28 0 28 -28t-28 -28q-74 0 -74 -73q0 -13 1 -34q1 -26 3 -58q4 -61 4 -97q0 -55 -30 -88
q-33 -36 -91 -36q58 0 91 -35q30 -34 30 -89q0 -14 -1 -36q-1 -26 -3 -59q-2 -32 -3 -59q-1 -22 -1 -35q0 -73 74 -73q28 0 28 -28t-28 -28q-71 0 -108 37z" />
    <glyph glyph-name="bar" unicode="|" horiz-adv-x="216" 
d="M141 -127q0 -13 -10 -23q-9 -10 -23 -10q-13 0 -23 10t-10 23v902q0 14 10 23q10 10 23 10q14 0 23 -10q10 -9 10 -23v-902z" />
    <glyph glyph-name="braceright" unicode="}" horiz-adv-x="338" 
d="M128 -17q0 13 -1 35q-1 27 -3 59q-2 33 -3 59q-1 22 -1 36q0 55 31 89q32 35 90 35q-58 0 -90 36q-31 32 -31 88q0 36 4 97q2 32 3 58q1 21 1 34q0 73 -74 73q-28 0 -28 28t28 28q71 0 108 -37q33 -31 33 -79q0 -54 -6 -116l-2 -23l-2 -22q-2 -34 -2 -49q0 -55 29 -76
q23 -17 71 -17h7q23 0 23 -23t-23 -23h-7q-49 0 -71 -16q-29 -23 -29 -76q0 -28 6 -106t6 -104q0 -48 -33 -80q-37 -37 -108 -37q-28 0 -28 28t28 28q74 0 74 73z" />
    <glyph glyph-name="asciitilde" unicode="~" horiz-adv-x="477" 
d="M379 320l4 7l4 7q7 16 25 16q26 0 26 -26q0 -4 -2 -12q-24 -72 -107 -72q-42 0 -98 33l-21 11l-20 11q-21 10 -43 10q-24 0 -40 -14q-4 -3 -10 -13l-4 -7l-4 -7q-7 -16 -25 -16q-26 0 -26 26q0 4 2 12q24 72 107 72q41 0 97 -32q57 -33 85 -33q24 0 40 14q4 3 10 13z" />
    <glyph glyph-name="nonbreakingspace" unicode="&#xa0;" horiz-adv-x="283" 
 />
    <glyph glyph-name="exclamdown" unicode="&#xa1;" horiz-adv-x="208" 
d="M84 285q0 18 20 18t20 -18l15 -471q2 -35 -35 -35t-35 35zM104 373q-47 0 -47 48q0 47 47 47t47 -47q0 -48 -47 -48z" />
    <glyph glyph-name="cent" unicode="&#xa2;" horiz-adv-x="441" 
d="M215 523q0 26 26 26t26 -26v-57q46 -4 85 -29q13 -8 27 -20q6 -6 16 -18q7 -10 7 -19q0 -29 -29 -29q-13 0 -24 12l-6 7l-8 8q-10 9 -21 15q-31 17 -73 17q-141 0 -141 -182q0 -183 141 -183q38 0 71 15q9 4 25 14l11 7l9 7q10 7 19 7q29 0 29 -29q0 -13 -13 -25l-4 -4
l-4 -3l-11 -7l-13 -8l-14 -8q-37 -19 -79 -23v-69q0 -26 -26 -26t-26 26v70q-180 17 -180 239t180 238v57z" />
    <glyph glyph-name="sterling" unicode="&#xa3;" horiz-adv-x="591" 
d="M552 71q-44 -86 -145 -86q-31 0 -93 24l-14 5l-12 5q-13 4 -20 6q-24 7 -47 7q-33 0 -66 -14q-8 -3 -20 -12l-8 -5q-4 -2 -5 -3l-4 -2l-4 -3q-6 -2 -12 -2q-32 0 -32 32q0 13 14 27q27 21 53 66q27 48 27 83q0 38 -22 83h-48q-30 0 -30 30t30 30h19q-42 80 -42 155
q0 83 59 136q59 54 156 54q168 0 222 -133q3 -7 3 -14q0 -32 -32 -32q-20 0 -31 23q-39 95 -162 95q-67 0 -108 -34q-43 -36 -43 -95q0 -66 51 -155h175q30 0 30 -30t-30 -30h-149q15 -33 15 -83q0 -70 -59 -123q22 13 52 13q41 0 98 -21q57 -22 83 -22q67 0 94 55
q9 18 29 18q32 0 32 -32q0 -9 -4 -16z" />
    <glyph glyph-name="currency" unicode="&#xa4;" horiz-adv-x="467" 
d="M81 115q-10 -10 -22 -10q-30 0 -30 31q0 13 10 23l45 47q-31 46 -31 106q0 55 32 108l-47 48q-9 11 -9 22q0 31 30 31q12 0 22 -10l46 -48q53 35 108 35q60 0 106 -33l45 46q9 10 22 10q31 0 31 -31q0 -12 -11 -23l-45 -46q32 -47 32 -109q0 -57 -32 -107l45 -46
q11 -14 11 -23q0 -31 -31 -31q-13 0 -22 10l-44 45q-44 -34 -107 -34q-61 0 -108 35zM352 312q0 53 -32 88q-33 37 -85 37q-51 0 -85 -37q-34 -35 -34 -88t34 -88q34 -37 85 -37q52 0 85 37q32 35 32 88z" />
    <glyph glyph-name="yen" unicode="&#xa5;" 
d="M293 163v-137q0 -34 -34 -34t-34 34v137h-115q-27 0 -27 27t27 27h115v47h-115q-27 0 -27 27t27 27h112l-198 311q-5 8 -5 18q0 34 34 34q19 0 29 -16l177 -284l177 284q10 16 29 16q34 0 34 -34q0 -10 -5 -18l-198 -311h112q27 0 27 -27t-27 -27h-115v-47h115
q27 0 27 -27t-27 -27h-115z" />
    <glyph glyph-name="brokenbar" unicode="&#xa6;" horiz-adv-x="216" 
d="M141 389q0 -13 -10 -23q-9 -10 -23 -10q-13 0 -23 10t-10 23v386q0 14 10 23q10 10 23 10q14 0 23 -10q10 -9 10 -23v-386zM141 -127q0 -13 -10 -23q-9 -10 -23 -10q-13 0 -23 10t-10 23v387q0 14 10 23q10 10 23 10q14 0 23 -10q10 -9 10 -23v-387z" />
    <glyph glyph-name="section" unicode="&#xa7;" horiz-adv-x="504" 
d="M260 332l-43 14q-52 17 -75 30q-40 -34 -40 -97q0 -68 99 -109q10 -5 19 -8q12 -5 23 -8l43 -14q53 -16 75 -30q40 34 40 96q0 68 -99 110q-12 5 -42 16zM51 523q0 72 49 115q55 49 159 49q125 0 197 -90q7 -8 7 -19q0 -31 -31 -31q-13 0 -24 11q-28 28 -59 46
q-41 22 -90 22q-73 0 -110 -31q-32 -27 -32 -72q0 -57 55 -90q16 -10 56 -26l31 -11l33 -10q85 -29 120 -58q55 -45 55 -122q0 -74 -54 -133q39 -46 39 -110q0 -72 -49 -115q-55 -49 -159 -49q-125 0 -197 90q-7 8 -7 19q0 31 31 31q13 0 24 -11q28 -28 59 -46
q41 -22 90 -22q73 0 110 31q32 27 32 72q0 57 -55 90q-16 10 -56 26l-31 10l-33 11q-84 29 -120 57q-55 45 -55 122q0 76 54 134q-39 47 -39 110z" />
    <glyph glyph-name="dieresis" unicode="&#xa8;" horiz-adv-x="317" 
d="M80 609q36 0 36 -38q0 -37 -36 -37t-36 37q0 38 36 38zM237 609q36 0 36 -38q0 -37 -36 -37t-36 37q0 38 36 38z" />
    <glyph glyph-name="copyright" unicode="&#xa9;" horiz-adv-x="801" 
d="M397 520q43 0 81 -20q31 -16 43 -39q3 -6 3 -12q0 -25 -25 -25q-11 0 -20 9q-37 37 -82 37q-52 0 -76 -29q-26 -32 -26 -104q0 -132 102 -132q52 0 82 30q10 10 20 10q25 0 25 -25q0 -8 -6 -16q-39 -49 -121 -49q-157 0 -157 182q0 183 157 183zM400 -14q-167 0 -256 87
q-91 88 -91 263q0 176 91 264q89 87 256 87q348 0 348 -351q0 -350 -348 -350zM400 635q-289 0 -289 -299q0 -298 289 -298q293 0 293 298q0 299 -293 299z" />
    <glyph glyph-name="ordfeminine" unicode="&#xaa;" horiz-adv-x="342" 
d="M40 269q-19 0 -19 19t19 19h262q19 0 19 -19t-19 -19h-262zM88 608q-20 0 -20 20q0 6 5 14l2 3l2 2q4 4 6 7l10 8l10 7q30 18 72 18q128 0 128 -108v-192q0 -22 -22 -22t-22 22v19q-28 -45 -92 -45q-55 0 -89 26q-32 26 -32 72q0 97 124 97h89v24q0 68 -84 68
q-39 0 -71 -33q-7 -7 -16 -7zM259 482v37h-89q-80 0 -80 -60q0 -61 77 -61q40 0 65 21q27 23 27 63z" />
    <glyph glyph-name="guillemotleft" unicode="&#xab;" horiz-adv-x="522" 
d="M248 422q8 9 18 9q24 0 24 -24q0 -10 -7 -17l-153 -178l153 -178q7 -7 7 -17q0 -24 -24 -24q-10 0 -18 9l-163 192q-7 8 -7 18t7 18zM402 422q8 9 18 9q24 0 24 -24q0 -10 -7 -17l-153 -178l153 -178q7 -7 7 -17q0 -24 -24 -24q-10 0 -18 9l-163 192q-7 8 -7 18t7 18z
" />
    <glyph glyph-name="logicalnot" unicode="&#xac;" horiz-adv-x="563" 
d="M527 22q0 -30 -30 -30t-30 30v233h-404q-27 0 -27 27t27 27h434q30 0 30 -30v-257z" />
    <glyph glyph-name="registered" unicode="&#xae;" horiz-adv-x="377" 
d="M187 382q-147 0 -147 153q0 152 147 152q149 0 149 -152q0 -153 -149 -153zM188 663q-120 0 -120 -128q0 -129 120 -129t120 129q0 128 -120 128zM156 518v-49q0 -13 -13 -13t-13 13v131q0 13 13 13h55q23 0 37 -14q13 -13 13 -33q0 -19 -12 -33q-13 -15 -29 -15l33 -41
q3 -4 3 -8q0 -13 -12 -13q-6 0 -11 6l-41 56h-23zM198 540q24 0 24 26q0 25 -24 25h-42v-51h42z" />
    <glyph glyph-name="macron" unicode="&#xaf;" horiz-adv-x="382" 
d="M98 537q-25 0 -25 25t25 25h186q25 0 25 -25t-25 -25h-186z" />
    <glyph glyph-name="degree" unicode="&#xb0;" horiz-adv-x="358" 
d="M178 414q-56 0 -96 40t-40 96q0 57 40 97t96 40q57 0 97 -40t40 -97q0 -56 -40 -96t-97 -40zM178 649q-41 0 -70 -29q-28 -28 -28 -70q0 -41 28 -69q29 -29 70 -29q42 0 71 29q28 28 28 69q0 42 -28 70q-29 29 -71 29z" />
    <glyph glyph-name="plusminus" unicode="&#xb1;" horiz-adv-x="454" 
d="M256 280v-171q0 -29 -29 -29t-29 29v171h-171q-27 0 -27 27t27 27h171v170q0 29 29 29t29 -29v-170h171q27 0 27 -27t-27 -27h-171zM27 0q-27 0 -27 27t27 27h400q27 0 27 -27t-27 -27h-400z" />
    <glyph glyph-name="twosuperior" unicode="&#xb2;" horiz-adv-x="266" 
d="M210 707q30 -24 30 -66q0 -53 -80 -100l-16 -9l-14 -8l-8 -5l-7 -4q-8 -5 -11 -7q-25 -18 -25 -35h135q24 0 24 -24t-24 -24h-167q-24 0 -24 24q0 64 83 112l15 9l15 8q7 4 15 10l6 4l5 4q26 20 26 45q0 42 -56 42q-37 0 -57 -29q-7 -10 -19 -10q-23 0 -23 23q0 4 2 10
q23 53 97 53q49 0 78 -23z" />
    <glyph glyph-name="threesuperior" unicode="&#xb3;" horiz-adv-x="259" 
d="M144 611q46 0 70 -29q20 -26 20 -63q0 -100 -116 -100q-70 0 -101 58q-4 7 -4 14q0 23 23 23q14 0 21 -13q19 -34 61 -34q63 0 63 52q0 48 -60 48h-22q-24 0 -24 24q0 9 6 16l62 67h-93q-25 0 -25 25t25 25h144q25 0 25 -25q0 -12 -7 -18z" />
    <glyph glyph-name="acute" unicode="&#xb4;" horiz-adv-x="370" 
d="M200 658q16 19 38 0q21 -20 3 -38l-97 -98q-15 -15 -30 -2q-16 14 -3 30z" />
    <glyph glyph-name="mu" unicode="&#xb5;" horiz-adv-x="482" 
d="M119 169q0 -121 122 -121t122 121v261q0 32 33 32q31 0 31 -32v-261q0 -182 -186 -182q-79 0 -122 46v-206q0 -32 -32 -32t-32 32v603q0 32 32 32q13 0 22 -9q10 -10 10 -23v-261z" />
    <glyph glyph-name="paragraph" unicode="&#xb6;" horiz-adv-x="513" 
d="M408 613v-314q0 -332 -281 -332q-45 0 -65 9q-20 8 -20 29q0 31 31 31q3 0 11 -2q24 -7 43 -7q111 0 111 169v152h-33q-67 0 -114 48q-47 47 -47 115q0 67 47 114q47 48 114 48h230q30 0 30 -30t-30 -30h-27zM302 613v-402q0 -107 -65 -172q57 31 83 96q24 62 24 164v314
h-42z" />
    <glyph glyph-name="periodcentered" unicode="&#xb7;" horiz-adv-x="164" 
d="M81 348q47 0 47 -48q0 -47 -47 -47t-47 47q0 48 47 48z" />
    <glyph glyph-name="cedilla" unicode="&#xb8;" horiz-adv-x="315" 
d="M83 -206q-6 4 -7 8q-1 2 -1 7q0 19 18 19q6 0 12 -3q19 -10 42 -10q28 0 40 9q13 10 13 37q0 46 -44 46q-5 0 -23 -2l-9 -1l-9 -1q-8 0 -13 5q-6 7 -5 17l3 75h35l-5 -59q24 2 27 2q87 0 87 -82q0 -85 -97 -85q-38 0 -64 18z" />
    <glyph glyph-name="onesuperior" unicode="&#xb9;" horiz-adv-x="196" 
d="M69 635q-8 -7 -18 -7q-25 0 -25 25q0 14 12 21l72 48q8 5 15 5q26 0 26 -26v-253q0 -26 -26 -26t-26 26v208z" />
    <glyph glyph-name="ordmasculine" unicode="&#xba;" horiz-adv-x="348" 
d="M174 648q-98 0 -98 -124t98 -124t98 124t-98 124zM38 269q-19 0 -19 19t19 19h272q19 0 19 -19t-19 -19h-272zM174 361q-143 0 -143 163t143 163t143 -163t-143 -163z" />
    <glyph glyph-name="guillemotright" unicode="&#xbb;" horiz-adv-x="522" 
d="M274 2q-7 -9 -18 -9q-24 0 -24 24q0 10 7 17l153 178l-153 178q-7 7 -7 17q0 24 24 24q11 0 18 -9l163 -192q7 -8 7 -18t-7 -18zM120 2q-7 -9 -18 -9q-24 0 -24 24q0 10 7 17l153 178l-153 178q-7 7 -7 17q0 24 24 24q11 0 18 -9l163 -192q7 -8 7 -18t-7 -18z" />
    <glyph glyph-name="onequarter" unicode="&#xbc;" horiz-adv-x="492" 
d="M71 592q-8 -7 -18 -7q-25 0 -25 25q0 14 12 21l72 48q8 5 15 5q26 0 26 -26v-253q0 -26 -26 -26t-26 26v208zM440 107q24 0 24 -24t-24 -24h-16v-41q0 -26 -26 -26t-26 26v41h-111q-24 0 -24 24q0 9 6 16l134 187q9 11 21 11q26 0 26 -26v-164h16zM372 107v96l-67 -96h67
zM335 665q1 5 7 11q8 5 17 5q27 0 27 -27v-2l-1 -3q0 -4 -1 -5l-245 -634q0 -1 -2 -5l-2 -3l-2 -3q-7 -7 -19 -7q-27 0 -27 27v4l1 3l1 3z" />
    <glyph glyph-name="onehalf" unicode="&#xbd;" horiz-adv-x="527" 
d="M71 592q-8 -7 -18 -7q-25 0 -25 25q0 14 12 21l72 48q8 5 15 5q26 0 26 -26v-253q0 -26 -26 -26t-26 26v208zM471 282q30 -24 30 -66q0 -53 -80 -100l-16 -9l-14 -8l-8 -5l-7 -4q-8 -5 -11 -7q-25 -18 -25 -35h135q24 0 24 -24t-24 -24h-167q-24 0 -24 24q0 64 83 112
l15 9l15 8q7 4 15 10l6 4l5 4q26 20 26 45q0 42 -56 42q-37 0 -57 -29q-7 -10 -19 -10q-23 0 -23 23q0 4 2 10q23 53 97 53q49 0 78 -23zM335 665q2 5 8 11q7 5 16 5q27 0 27 -27v-2l-1 -3q0 -4 -1 -5l-245 -634l-1 -2l-1 -3q-1 -2 -5 -6q-7 -7 -18 -7q-27 0 -27 27v4l1 3
l1 3z" />
    <glyph glyph-name="threequarters" unicode="&#xbe;" horiz-adv-x="579" 
d="M496 107q24 0 24 -24t-24 -24h-16v-41q0 -26 -26 -26t-26 26v41h-111q-24 0 -24 24q0 9 6 16l134 187q9 11 21 11q26 0 26 -26v-164h16zM428 107v96l-67 -96h67zM154 568q46 0 70 -29q20 -26 20 -63q0 -100 -116 -100q-70 0 -101 58q-4 7 -4 14q0 23 23 23q14 0 21 -13
q19 -34 61 -34q63 0 63 52q0 48 -60 48h-22q-24 0 -24 24q0 9 6 16l62 67h-93q-25 0 -25 25t25 25h144q25 0 25 -25q0 -12 -7 -18zM391 665q1 5 7 11q8 5 17 5q27 0 27 -27v-2l-1 -3q0 -4 -1 -5l-245 -634q0 -1 -2 -5l-2 -3l-2 -3q-7 -7 -19 -7q-27 0 -27 27v4l1 3l1 3z" />
    <glyph glyph-name="questiondown" unicode="&#xbf;" horiz-adv-x="461" 
d="M275 140q-11 -11 -33 -28l-19 -13l-19 -13q-52 -33 -72 -57q-33 -37 -33 -87q0 -110 134 -110q128 0 128 120q0 14 10 23q10 10 23 10q14 0 23 -10q10 -9 10 -23q0 -84 -51 -131q-51 -48 -143 -48t-145 44t-53 125q0 100 103 173l19 13l19 12q23 15 33 24q32 27 32 53
q0 18 -14 40q-8 13 -8 22q0 15 11 24t22 9q14 0 24 -10q32 -32 32 -85q0 -42 -33 -77zM256 373q-47 0 -47 48q0 47 47 47t47 -47q0 -48 -47 -48z" />
    <glyph glyph-name="Agrave" unicode="&#xc0;" horiz-adv-x="613" 
d="M306 567l-118 -306h237zM167 199l-73 -183q-9 -24 -33 -24q-14 0 -24 10t-10 24v4l1 4l1 4l1 3l244 617q11 23 32 23q22 0 33 -23l244 -617l1 -4l1 -4q1 -3 1 -7q0 -34 -35 -34q-24 0 -33 23l-72 184h-279zM231 824q-18 18 3 38q22 19 38 0l89 -108q14 -16 -3 -30
q-15 -13 -30 2z" />
    <glyph glyph-name="Aacute" unicode="&#xc1;" horiz-adv-x="613" 
d="M306 567l-118 -306h237zM167 199l-73 -183q-9 -24 -33 -24q-14 0 -24 10t-10 24v4l1 4l1 4l1 3l244 617q11 23 32 23q22 0 33 -23l244 -617l1 -4l1 -4q1 -3 1 -7q0 -34 -35 -34q-24 0 -33 23l-72 184h-279zM340 862q16 19 38 0q21 -20 3 -38l-97 -98q-15 -15 -30 -2
q-16 14 -3 30z" />
    <glyph glyph-name="Acircumflex" unicode="&#xc2;" horiz-adv-x="613" 
d="M306 567l-118 -306h237zM167 199l-73 -183q-9 -24 -33 -24q-14 0 -24 10t-10 24v4l1 4l1 4l1 3l244 617q11 23 32 23q22 0 33 -23l244 -617l1 -4l1 -4q1 -3 1 -7q0 -34 -35 -34q-24 0 -33 23l-72 184h-279zM306 793l-81 -68l-2 -2l-3 -2q-6 -2 -11 -2q-24 0 -24 24
q0 12 9 19l96 79q8 6 16 6q9 0 16 -6l96 -79q9 -7 9 -19q0 -24 -24 -24q-5 0 -11 2l-3 2l-2 2z" />
    <glyph glyph-name="Atilde" unicode="&#xc3;" horiz-adv-x="613" 
d="M306 567l-118 -306h237zM167 199l-73 -183q-9 -24 -33 -24q-14 0 -24 10t-10 24v4l1 4l1 4l1 3l244 617q11 23 32 23q22 0 33 -23l244 -617l1 -4l1 -4q1 -3 1 -7q0 -34 -35 -34q-24 0 -33 23l-72 184h-279zM366 780q25 0 46 28l3 3l4 4q5 4 13 4q24 0 24 -24q0 -6 -3 -12
q-25 -52 -87 -52q-25 0 -62 20l-13 7l-14 6q-15 6 -29 6q-25 0 -46 -28l-3 -3l-4 -4q-5 -4 -13 -4q-24 0 -24 24q0 6 3 12q25 52 87 52q27 0 62 -19q38 -20 56 -20z" />
    <glyph glyph-name="Adieresis" unicode="&#xc4;" horiz-adv-x="613" 
d="M306 567l-118 -306h237zM167 199l-73 -183q-9 -24 -33 -24q-14 0 -24 10t-10 24v4l1 4l1 4l1 3l244 617q11 23 32 23q22 0 33 -23l244 -617l1 -4l1 -4q1 -3 1 -7q0 -34 -35 -34q-24 0 -33 23l-72 184h-279zM228 816q36 0 36 -38q0 -37 -36 -37t-36 37q0 38 36 38z
M385 816q36 0 36 -38q0 -37 -36 -37t-36 37q0 38 36 38z" />
    <glyph glyph-name="Aring" unicode="&#xc5;" horiz-adv-x="613" 
d="M306 567l-118 -306h237zM167 199l-73 -183q-9 -24 -33 -24q-14 0 -24 10t-10 24v4l1 4l1 4l1 3l244 617q11 23 32 23q22 0 33 -23l244 -617l1 -4l1 -4q1 -3 1 -7q0 -34 -35 -34q-24 0 -33 23l-72 184h-279zM306 899q104 0 104 -98t-104 -98t-104 98t104 98zM306 741
q62 0 62 60t-62 60t-62 -60t62 -60z" />
    <glyph glyph-name="AE" unicode="&#xc6;" horiz-adv-x="841" 
d="M437 0q-34 0 -34 34v165h-211l-119 -191q-9 -16 -29 -16q-15 0 -25 10t-10 25q0 10 7 20l392 610q10 16 29 16h321q31 0 31 -31t-31 -31h-287v-241h220q31 0 31 -31t-31 -31h-220v-246h298q31 0 31 -31t-31 -31h-332zM403 261v280l-175 -280h175z" />
    <glyph glyph-name="Ccedilla" unicode="&#xc7;" horiz-adv-x="631" 
d="M280 -206q-6 4 -7 8q-1 2 -1 7q0 19 18 19q6 0 12 -3q19 -10 42 -10q28 0 40 9q13 10 13 37q0 46 -44 46q-5 0 -23 -2l-6 -1h-5q-5 -1 -7 -1q-8 0 -13 5q-6 7 -5 17l2 65q-252 30 -252 346q0 173 83 264q80 87 229 87t225 -106q7 -10 7 -21q0 -32 -32 -32q-16 0 -26 13
q-61 84 -174 84q-242 0 -242 -289q0 -288 242 -288q117 0 174 82q4 6 13 10q6 3 13 3q32 0 32 -32q0 -10 -6 -19q-33 -48 -95 -77q-63 -29 -131 -29h-11q-7 0 -14 1l-4 -46q24 2 27 2q87 0 87 -82q0 -85 -97 -85q-38 0 -64 18z" />
    <glyph glyph-name="Egrave" unicode="&#xc8;" 
d="M114 0q-34 0 -34 34v605q0 34 34 34h321q31 0 31 -31t-31 -31h-287v-241h220q31 0 31 -31t-31 -31h-220v-246h298q31 0 31 -31t-31 -31h-332zM210 824q-18 18 3 38q22 19 38 0l89 -108q14 -16 -3 -30q-15 -13 -30 2z" />
    <glyph glyph-name="Eacute" unicode="&#xc9;" 
d="M114 0q-34 0 -34 34v605q0 34 34 34h321q31 0 31 -31t-31 -31h-287v-241h220q31 0 31 -31t-31 -31h-220v-246h298q31 0 31 -31t-31 -31h-332zM313 862q16 19 38 0q21 -20 3 -38l-97 -98q-15 -15 -30 -2q-16 14 -3 30z" />
    <glyph glyph-name="Ecircumflex" unicode="&#xca;" 
d="M114 0q-34 0 -34 34v605q0 34 34 34h321q31 0 31 -31t-31 -31h-287v-241h220q31 0 31 -31t-31 -31h-220v-246h298q31 0 31 -31t-31 -31h-332zM286 793l-81 -68l-2 -2l-3 -2l-5 -1l-6 -1q-24 0 -24 24q0 12 9 19l96 79q8 6 16 6q9 0 16 -6l96 -79q9 -7 9 -19
q0 -24 -24 -24q-5 0 -11 2l-3 2l-2 2z" />
    <glyph glyph-name="Edieresis" unicode="&#xcb;" 
d="M114 0q-34 0 -34 34v605q0 34 34 34h321q31 0 31 -31t-31 -31h-287v-241h220q31 0 31 -31t-31 -31h-220v-246h298q31 0 31 -31t-31 -31h-332zM205 816q36 0 36 -38q0 -37 -36 -37t-36 37q0 38 36 38zM362 816q36 0 36 -38q0 -37 -36 -37t-36 37q0 38 36 38z" />
    <glyph glyph-name="Igrave" unicode="&#xcc;" horiz-adv-x="228" 
d="M137 26q0 -14 -10 -24t-24 -10t-24 10t-10 24v621q0 14 10 24t24 10t24 -10t10 -24v-621zM28 824q-18 18 3 38q22 19 38 0l89 -108q14 -16 -3 -30q-15 -13 -30 2z" />
    <glyph glyph-name="Iacute" unicode="&#xcd;" horiz-adv-x="228" 
d="M141 26q0 -14 -10 -24t-24 -10t-24 10t-10 24v621q0 14 10 24t24 10t24 -10t10 -24v-621zM141 862q16 19 38 0q21 -20 3 -38l-97 -98q-15 -15 -30 -2q-16 14 -3 30z" />
    <glyph glyph-name="Icircumflex" unicode="&#xce;" horiz-adv-x="228" 
d="M148 26q0 -14 -10 -24t-24 -10t-24 10t-10 24v621q0 14 10 24t24 10t24 -10t10 -24v-621zM115 793l-81 -68l-2 -2l-3 -2l-5 -1l-6 -1q-24 0 -24 24q0 12 9 19l96 79q8 6 16 6q9 0 16 -6l96 -79q9 -7 9 -19q0 -24 -24 -24q-5 0 -11 2l-3 2l-2 2z" />
    <glyph glyph-name="Idieresis" unicode="&#xcf;" horiz-adv-x="228" 
d="M148 26q0 -14 -10 -24t-24 -10t-24 10t-10 24v621q0 14 10 24t24 10t24 -10t10 -24v-621zM36 816q36 0 36 -38q0 -37 -36 -37t-36 37q0 38 36 38zM193 816q36 0 36 -38q0 -37 -36 -37t-36 37q0 38 36 38z" />
    <glyph glyph-name="Eth" unicode="&#xd0;" horiz-adv-x="609" 
d="M255 673q310 0 310 -337q0 -178 -83 -261q-76 -75 -227 -75h-141q-34 0 -34 34v283h-31q-31 0 -31 31t31 31h31v260q0 34 34 34h141zM341 317h-193v-253h107q119 0 177 58q65 65 65 214q0 147 -65 214q-59 59 -177 59h-107v-230h193q13 0 22 -9q10 -9 10 -22t-10 -22
q-9 -9 -22 -9z" />
    <glyph glyph-name="Ntilde" unicode="&#xd1;" horiz-adv-x="620" 
d="M550 648v-622q0 -34 -34 -34q-17 0 -28 14l-352 531v-512q0 -13 -10 -23q-9 -10 -23 -10q-13 0 -23 10t-10 23v623q0 14 10 23q10 10 23 10q16 0 27 -14l354 -532v513q0 14 10 23q10 10 23 10q14 0 23 -10q10 -9 10 -23zM336 792l13 -6q15 -6 29 -6q25 0 46 28l3 3l4 4
q5 4 13 4q24 0 24 -24q0 -6 -3 -12q-25 -52 -87 -52q-25 0 -62 20l-13 7l-14 6q-15 6 -29 6q-25 0 -46 -28l-3 -3l-4 -4q-5 -4 -13 -4q-24 0 -24 24q0 6 3 12q25 52 87 52q27 0 62 -19z" />
    <glyph glyph-name="Ograve" unicode="&#xd2;" horiz-adv-x="712" 
d="M668 336q0 173 -83 264q-79 87 -229 87q-149 0 -229 -87q-83 -91 -83 -264q0 -172 83 -263q81 -87 229 -87t229 87q83 91 83 263zM356 48q-242 0 -242 288q0 289 242 289t242 -289q0 -288 -242 -288zM293 824q-18 18 3 38q22 19 38 0l89 -108q14 -16 -3 -30
q-15 -13 -30 2z" />
    <glyph glyph-name="Oacute" unicode="&#xd3;" horiz-adv-x="712" 
d="M668 336q0 173 -83 264q-79 87 -229 87q-149 0 -229 -87q-83 -91 -83 -264q0 -172 83 -263q81 -87 229 -87t229 87q83 91 83 263zM356 48q-242 0 -242 288q0 289 242 289t242 -289q0 -288 -242 -288zM387 862q16 19 38 0q21 -20 3 -38l-97 -98q-15 -15 -30 -2
q-16 14 -3 30z" />
    <glyph glyph-name="Ocircumflex" unicode="&#xd4;" horiz-adv-x="712" 
d="M668 336q0 173 -83 264q-79 87 -229 87q-149 0 -229 -87q-83 -91 -83 -264q0 -172 83 -263q81 -87 229 -87t229 87q83 91 83 263zM356 48q-242 0 -242 288q0 289 242 289t242 -289q0 -288 -242 -288zM359 793l-81 -68l-2 -2l-3 -2q-6 -2 -11 -2q-24 0 -24 24q0 12 9 19
l96 79q8 6 16 6q9 0 16 -6l96 -79q9 -7 9 -19q0 -24 -24 -24l-6 1l-5 1l-3 2l-2 2z" />
    <glyph glyph-name="Otilde" unicode="&#xd5;" horiz-adv-x="712" 
d="M668 336q0 173 -83 264q-79 87 -229 87q-149 0 -229 -87q-83 -91 -83 -264q0 -172 83 -263q81 -87 229 -87t229 87q83 91 83 263zM356 48q-242 0 -242 288q0 289 242 289t242 -289q0 -288 -242 -288zM373 792l13 -6q15 -6 29 -6q25 0 46 28l3 3l4 4q5 4 13 4q24 0 24 -24
q0 -6 -3 -12q-25 -52 -87 -52q-17 0 -34 6q-7 3 -12 6q-8 3 -16 8q-35 19 -56 19q-25 0 -46 -28l-3 -3l-4 -4q-5 -4 -13 -4q-24 0 -24 24q0 6 3 12q25 52 87 52q27 0 62 -19z" />
    <glyph glyph-name="Odieresis" unicode="&#xd6;" horiz-adv-x="713" 
d="M668 336q0 173 -83 264q-79 87 -229 87q-149 0 -229 -87q-83 -91 -83 -264q0 -172 83 -263q81 -87 229 -87t229 87q83 91 83 263zM356 48q-242 0 -242 288q0 289 242 289t242 -289q0 -288 -242 -288zM278 816q36 0 36 -38q0 -37 -36 -37t-36 37q0 38 36 38zM435 816
q36 0 36 -38q0 -37 -36 -37t-36 37q0 38 36 38z" />
    <glyph glyph-name="multiply" unicode="&#xd7;" horiz-adv-x="354" 
d="M305 382q10 10 21 10q28 0 28 -28q0 -11 -8 -19l-131 -127l131 -127q8 -8 8 -19q0 -28 -28 -28q-11 0 -21 10l-128 125l-128 -125q-10 -10 -21 -10q-28 0 -28 28q0 11 8 19l131 127l-131 127q-8 8 -8 19q0 28 28 28q11 0 21 -10l128 -125z" />
    <glyph glyph-name="Oslash" unicode="&#xd8;" horiz-adv-x="712" 
d="M113 -16q-7 -10 -20 -10q-27 0 -27 27q0 5 1 7q2 6 4 8l50 64q-77 89 -77 256q0 173 83 264q80 87 229 87q120 0 197 -59l46 58q7 10 20 10q27 0 27 -27q0 -5 -1 -7q-2 -6 -4 -8l-49 -62q76 -89 76 -256q0 -172 -83 -263q-81 -87 -229 -87q-119 0 -196 57zM165 135
l347 441q-58 49 -156 49q-242 0 -242 -289q0 -127 51 -201zM548 536l-347 -440q57 -48 155 -48q242 0 242 288q0 126 -50 200z" />
    <glyph glyph-name="Ugrave" unicode="&#xd9;" horiz-adv-x="624" 
d="M80 647q0 34 34 34t34 -34v-442q0 -155 167 -155q166 0 166 155v442q0 34 34 34t34 -34v-442q0 -219 -234 -219q-235 0 -235 219v442zM248 824q-18 18 3 38q22 19 38 0l89 -108q14 -16 -3 -30q-15 -13 -30 2z" />
    <glyph glyph-name="Uacute" unicode="&#xda;" horiz-adv-x="624" 
d="M80 647q0 34 34 34t34 -34v-442q0 -155 167 -155q166 0 166 155v442q0 34 34 34t34 -34v-442q0 -219 -234 -219q-235 0 -235 219v442zM354 862q16 19 38 0q21 -20 3 -38l-97 -98q-15 -15 -30 -2q-16 14 -3 30z" />
    <glyph glyph-name="Ucircumflex" unicode="&#xdb;" horiz-adv-x="624" 
d="M80 647q0 34 34 34t34 -34v-442q0 -155 167 -155q166 0 166 155v442q0 34 34 34t34 -34v-442q0 -219 -234 -219q-235 0 -235 219v442zM315 793l-81 -68l-2 -2l-3 -2q-6 -2 -11 -2q-24 0 -24 24q0 12 9 19l96 79q8 6 16 6q9 0 16 -6l96 -79q9 -7 9 -19q0 -24 -24 -24
q-5 0 -11 2l-3 2l-2 2z" />
    <glyph glyph-name="Udieresis" unicode="&#xdc;" horiz-adv-x="624" 
d="M80 647q0 34 34 34t34 -34v-442q0 -155 167 -155q166 0 166 155v442q0 34 34 34t34 -34v-442q0 -219 -234 -219q-235 0 -235 219v442zM237 816q36 0 36 -38q0 -37 -36 -37t-36 37q0 38 36 38zM394 816q36 0 36 -38q0 -37 -36 -37t-36 37q0 38 36 38z" />
    <glyph glyph-name="Yacute" unicode="&#xdd;" 
d="M225 313l-201 316q-5 8 -5 18q0 34 34 34q19 0 29 -16l177 -284l177 284q10 16 29 16q34 0 34 -34q0 -10 -5 -18l-201 -316v-287q0 -34 -34 -34t-34 34v287zM302 862q16 19 38 0q21 -20 3 -38l-97 -98q-15 -15 -30 -2q-16 14 -3 30z" />
    <glyph glyph-name="Thorn" unicode="&#xde;" horiz-adv-x="544" 
d="M148 26q0 -34 -34 -34t-34 34v621q0 14 10 24t24 10t24 -10t10 -24v-102h165q85 0 136 -48q55 -51 55 -147q0 -95 -55 -147q-50 -49 -136 -49h-165v-128zM148 216h155q62 0 96 34q36 36 36 100q0 66 -36 100q-34 33 -96 33h-155v-267z" />
    <glyph glyph-name="germandbls" unicode="&#xdf;" horiz-adv-x="547" 
d="M389 554q0 -64 -74 -120l-27 -21q-13 -9 -24 -20q-23 -23 -23 -47q0 -34 41 -57q17 -9 42 -18l24 -9l25 -8q63 -23 90 -46q41 -35 41 -88q0 -66 -49 -100q-47 -32 -121 -32q-56 0 -106 24q-42 19 -65 48q-7 10 -7 19q0 29 29 29q12 0 22 -10q49 -49 127 -49q106 0 106 71
q0 33 -41 56q-16 8 -42 18l-24 8l-24 8q-64 24 -91 46q-41 35 -41 90q0 35 23 64q15 20 51 45l27 20q16 13 24 22q23 26 23 57q0 29 -25 50t-66 21q-105 0 -105 -112v-489q0 -32 -32 -32t-32 32v489q0 74 39 120q43 52 130 52q65 0 109 -37q46 -37 46 -94z" />
    <glyph glyph-name="agrave" unicode="&#xe0;" horiz-adv-x="467" 
d="M90 343q-29 0 -29 29q0 9 5 17q49 79 166 79q85 0 134 -47q46 -45 46 -123v-275q0 -31 -31 -31t-31 31v36q-37 -72 -143 -72q-80 0 -126 37q-47 38 -47 106q0 66 47 104q46 37 128 37h141v27q0 51 -32 81q-32 29 -86 29q-71 0 -116 -51q-14 -14 -26 -14zM350 173v42h-141
q-110 0 -110 -85t114 -85q55 0 95 32q42 36 42 96zM170 620q-18 18 3 38q22 19 38 0l89 -108q14 -16 -3 -30q-15 -13 -30 2z" />
    <glyph glyph-name="aacute" unicode="&#xe1;" horiz-adv-x="467" 
d="M90 343q-29 0 -29 29q0 9 5 17q49 79 166 79q85 0 134 -47q46 -45 46 -123v-275q0 -31 -31 -31t-31 31v36q-37 -72 -143 -72q-80 0 -126 37q-47 38 -47 106q0 66 47 104q46 37 128 37h141v27q0 51 -32 81q-32 29 -86 29q-71 0 -116 -51q-14 -14 -26 -14zM350 173v42h-141
q-110 0 -110 -85t114 -85q55 0 95 32q42 36 42 96zM263 658q16 19 38 0q21 -20 3 -38l-97 -98q-15 -15 -30 -2q-16 14 -3 30z" />
    <glyph glyph-name="acircumflex" unicode="&#xe2;" horiz-adv-x="467" 
d="M90 343q-29 0 -29 29q0 9 5 17q49 79 166 79q85 0 134 -47q46 -45 46 -123v-275q0 -31 -31 -31t-31 31v36q-37 -72 -143 -72q-80 0 -126 37q-47 38 -47 106q0 66 47 104q46 37 128 37h141v27q0 51 -32 81q-32 29 -86 29q-71 0 -116 -51q-14 -14 -26 -14zM350 173v42h-141
q-110 0 -110 -85t114 -85q55 0 95 32q42 36 42 96zM233 596l-81 -68l-2 -2l-3 -2q-6 -2 -11 -2q-24 0 -24 24q0 12 9 19l96 79q8 6 16 6q9 0 16 -6l96 -79q9 -7 9 -19q0 -24 -24 -24l-6 1l-5 1l-3 2l-2 2z" />
    <glyph glyph-name="atilde" unicode="&#xe3;" horiz-adv-x="467" 
d="M90 343q-29 0 -29 29q0 9 5 17q49 79 166 79q85 0 134 -47q46 -45 46 -123v-275q0 -31 -31 -31t-31 31v36q-37 -72 -143 -72q-80 0 -126 37q-47 38 -47 106q0 66 47 104q46 37 128 37h141v27q0 51 -32 81q-32 29 -86 29q-71 0 -116 -51q-14 -14 -26 -14zM350 173v42h-141
q-110 0 -110 -85t114 -85q55 0 95 32q42 36 42 96zM253 590l13 -6q15 -6 29 -6q25 0 46 28l3 3l4 4q5 4 13 4q24 0 24 -24q0 -6 -3 -12q-25 -52 -87 -52q-17 0 -34 6q-7 3 -12 6q-8 3 -16 8q-35 19 -56 19q-25 0 -46 -28l-3 -3l-4 -4q-5 -4 -13 -4q-24 0 -24 24q0 6 3 12
q25 52 87 52q27 0 62 -19z" />
    <glyph glyph-name="adieresis" unicode="&#xe4;" horiz-adv-x="467" 
d="M90 343q-29 0 -29 29q0 9 5 17q49 79 166 79q85 0 134 -47q46 -45 46 -123v-275q0 -31 -31 -31t-31 31v36q-37 -72 -143 -72q-80 0 -126 37q-47 38 -47 106q0 66 47 104q46 37 128 37h141v27q0 51 -32 81q-32 29 -86 29q-71 0 -116 -51q-14 -14 -26 -14zM350 173v42h-141
q-110 0 -110 -85t114 -85q55 0 95 32q42 36 42 96zM162 609q36 0 36 -38q0 -37 -36 -37t-36 37q0 38 36 38zM319 609q36 0 36 -38q0 -37 -36 -37t-36 37q0 38 36 38z" />
    <glyph glyph-name="aring" unicode="&#xe5;" horiz-adv-x="467" 
d="M90 343q-29 0 -29 29q0 9 5 17q49 79 166 79q85 0 134 -47q46 -45 46 -123v-275q0 -31 -31 -31t-31 31v36q-37 -72 -143 -72q-80 0 -126 37q-47 38 -47 106q0 66 47 104q46 37 128 37h141v27q0 51 -32 81q-32 29 -86 29q-71 0 -116 -51q-14 -14 -26 -14zM350 173v42h-141
q-110 0 -110 -85t114 -85q55 0 95 32q42 36 42 96zM241 698q104 0 104 -98t-104 -98t-104 98t104 98zM241 540q62 0 62 60t-62 60t-62 -60t62 -60z" />
    <glyph glyph-name="ae" unicode="&#xe6;" horiz-adv-x="778" 
d="M90 343q-29 0 -29 29q0 9 5 17q49 79 166 79q114 0 158 -80q53 80 163 80q106 0 156 -71q19 -26 28 -63q7 -27 7 -59v-11l-1 -11q-2 -15 -4 -21q-9 -21 -35 -21h-292q0 -76 40 -120q41 -45 111 -45q38 0 71 14q20 8 49 29q9 6 18 6q29 0 29 -29q0 -12 -11 -23
q-7 -7 -18 -15q-18 -13 -32 -19q-47 -22 -106 -22q-141 0 -179 99q-49 -99 -177 -99q-80 0 -126 37q-47 38 -47 106q0 64 47 102q47 35 128 35h141v31q0 51 -32 81q-32 29 -86 29q-68 0 -116 -51q-14 -14 -26 -14zM350 173v38h-141q-110 0 -110 -81q0 -85 114 -85
q55 0 95 32q42 36 42 96zM681 267q0 143 -128 143q-130 0 -141 -143h269z" />
    <glyph glyph-name="ccedilla" unicode="&#xe7;" horiz-adv-x="441" 
d="M183 -206q-6 4 -7 8q-1 2 -1 7q0 19 18 19q6 0 12 -3q19 -10 42 -10q28 0 40 9q13 10 13 37q0 46 -44 46q-5 0 -23 -2l-9 -1l-9 -1q-8 0 -13 5q-6 7 -5 17l2 65q-164 24 -164 238q0 240 206 240q57 0 104 -26q22 -13 32 -23q13 -13 18 -20q7 -10 7 -19q0 -29 -29 -29
q-13 0 -24 12l-6 7l-8 8q-10 9 -21 15q-31 17 -73 17q-141 0 -141 -182q0 -183 141 -183q38 0 71 15q9 4 25 14l11 7l9 7q10 7 19 7q29 0 29 -29q0 -13 -13 -25l-4 -4l-5 -3l-12 -9q-14 -10 -32 -18q-48 -20 -105 -20l-4 -46l8 1h8q7 1 11 1q87 0 87 -82q0 -85 -97 -85
q-38 0 -64 18z" />
    <glyph glyph-name="egrave" unicode="&#xe8;" horiz-adv-x="466" 
d="M241 468q107 0 156 -72q19 -28 28 -64q7 -27 7 -59v-11l-1 -11q-2 -15 -4 -21q-9 -21 -35 -21h-292q0 -76 40 -119q41 -44 111 -44q38 0 71 14q20 8 49 29q9 6 18 6q29 0 29 -29q0 -12 -11 -23q-7 -7 -18 -15q-18 -13 -32 -19q-47 -22 -106 -22q-216 0 -216 241
q0 115 54 178q54 62 152 62zM369 265q0 63 -25 100q-31 45 -103 45q-131 0 -141 -145h269zM176 620q-18 18 3 38q22 19 38 0l89 -108q14 -16 -3 -30q-15 -13 -30 2z" />
    <glyph glyph-name="eacute" unicode="&#xe9;" horiz-adv-x="466" 
d="M241 468q107 0 156 -72q19 -28 28 -64q7 -27 7 -59v-11l-1 -11q-2 -15 -4 -21q-9 -21 -35 -21h-292q0 -76 40 -119q41 -44 111 -44q38 0 71 14q20 8 49 29q9 6 18 6q29 0 29 -29q0 -12 -11 -23q-7 -7 -18 -15q-18 -13 -32 -19q-47 -22 -106 -22q-216 0 -216 241
q0 115 54 178q54 62 152 62zM369 265q0 63 -25 100q-31 45 -103 45q-131 0 -141 -145h269zM277 658q16 19 38 0q21 -20 3 -38l-97 -98q-15 -15 -30 -2q-16 14 -3 30z" />
    <glyph glyph-name="ecircumflex" unicode="&#xea;" horiz-adv-x="466" 
d="M241 468q107 0 156 -72q19 -28 28 -64q7 -27 7 -59v-11l-1 -11q-2 -15 -4 -21q-9 -21 -35 -21h-292q0 -76 40 -119q41 -44 111 -44q38 0 71 14q20 8 49 29q9 6 18 6q29 0 29 -29q0 -12 -11 -23q-7 -7 -18 -15q-18 -13 -32 -19q-47 -22 -106 -22q-216 0 -216 241
q0 115 54 178q54 62 152 62zM369 265q0 63 -25 100q-31 45 -103 45q-131 0 -141 -145h269zM245 596l-81 -68l-2 -2l-3 -2q-6 -2 -11 -2q-24 0 -24 24q0 12 9 19l96 79q8 6 16 6q9 0 16 -6l96 -79q9 -7 9 -19q0 -24 -24 -24l-6 1l-5 1l-3 2l-2 2z" />
    <glyph glyph-name="edieresis" unicode="&#xeb;" horiz-adv-x="466" 
d="M241 468q107 0 156 -72q19 -28 28 -64q7 -27 7 -59v-11l-1 -11q-2 -15 -4 -21q-9 -21 -35 -21h-292q0 -76 40 -119q41 -44 111 -44q38 0 71 14q20 8 49 29q9 6 18 6q29 0 29 -29q0 -12 -11 -23q-7 -7 -18 -15q-18 -13 -32 -19q-47 -22 -106 -22q-216 0 -216 241
q0 115 54 178q54 62 152 62zM369 265q0 63 -25 100q-31 45 -103 45q-131 0 -141 -145h269zM166 609q36 0 36 -38q0 -37 -36 -37t-36 37q0 38 36 38zM323 609q36 0 36 -38q0 -37 -36 -37t-36 37q0 38 36 38z" />
    <glyph glyph-name="igrave" unicode="&#xec;" horiz-adv-x="193" 
d="M117 24q0 -32 -32 -32t-32 32v406q0 32 32 32t32 -32v-406zM11 620q-18 18 3 38q22 19 38 0l89 -108q14 -16 -3 -30q-15 -13 -30 2z" />
    <glyph glyph-name="iacute" unicode="&#xed;" horiz-adv-x="193" 
d="M121 24q0 -32 -32 -32t-32 32v406q0 32 32 32t32 -32v-406zM132 658q16 19 38 0q21 -20 3 -38l-97 -98q-15 -15 -30 -2q-16 14 -3 30z" />
    <glyph glyph-name="icircumflex" unicode="&#xee;" horiz-adv-x="193" 
d="M128 24q0 -32 -32 -32t-32 32v406q0 32 32 32t32 -32v-406zM96 596l-81 -68l-2 -2l-3 -2q-6 -2 -11 -2q-24 0 -24 24q0 12 9 19l96 79q8 6 16 6q9 0 16 -6l96 -79q9 -7 9 -19q0 -24 -24 -24q-5 0 -11 2l-3 2l-2 2z" />
    <glyph glyph-name="idieresis" unicode="&#xef;" horiz-adv-x="193" 
d="M128 24q0 -32 -32 -32t-32 32v406q0 32 32 32t32 -32v-406zM18 609q36 0 36 -38q0 -37 -36 -37t-36 37q0 38 36 38zM175 609q36 0 36 -38q0 -37 -36 -37t-36 37q0 38 36 38z" />
    <glyph glyph-name="eth" unicode="&#xf0;" horiz-adv-x="492" 
d="M295 559l-56 -38q-8 -5 -17 -5q-30 0 -30 30q0 18 13 25l49 32q-25 22 -79 54q-16 9 -16 27q0 28 29 28q9 0 16 -4q48 -23 101 -72l44 28l5 2l4 2q3 1 8 1q30 0 30 -30q0 -16 -13 -25l-37 -24q109 -137 109 -362q0 -241 -210 -241q-99 0 -153 59q-57 62 -57 182
q0 121 57 182q52 58 153 58q70 0 116 -31q-19 72 -66 122zM245 410q-145 0 -145 -182q0 -183 145 -183t145 183q0 182 -145 182z" />
    <glyph glyph-name="ntilde" unicode="&#xf1;" horiz-adv-x="501" 
d="M446 291v-267q0 -32 -32 -32t-32 32v254q0 65 -24 96q-28 37 -96 37q-133 0 -133 -140v-247q0 -32 -32 -32t-32 32v406q0 32 32 32t32 -32v-32q15 30 49 49q38 21 84 21q105 0 150 -57q34 -43 34 -120zM314 578q25 0 46 28l3 3l4 4q5 4 13 4q24 0 24 -24q0 -6 -3 -12
q-25 -52 -87 -52q-25 0 -62 20q-35 19 -56 19q-25 0 -46 -28l-3 -3l-4 -4q-5 -4 -13 -4q-24 0 -24 24q0 6 3 12q25 52 87 52q27 0 62 -19q38 -20 56 -20z" />
    <glyph glyph-name="ograve" unicode="&#xf2;" horiz-adv-x="490" 
d="M245 -13q-99 0 -153 59q-57 62 -57 182q0 121 57 182q52 58 153 58q210 0 210 -240q0 -241 -210 -241zM245 410q-145 0 -145 -182q0 -183 145 -183t145 183q0 182 -145 182zM190 620q-18 18 3 38q22 19 38 0l89 -108q14 -16 -3 -30q-15 -13 -30 2z" />
    <glyph glyph-name="oacute" unicode="&#xf3;" horiz-adv-x="490" 
d="M245 -13q-99 0 -153 59q-57 62 -57 182q0 121 57 182q52 58 153 58q210 0 210 -240q0 -241 -210 -241zM245 410q-145 0 -145 -182q0 -183 145 -183t145 183q0 182 -145 182zM286 658q16 19 38 0q21 -20 3 -38l-97 -98q-15 -15 -30 -2q-16 14 -3 30z" />
    <glyph glyph-name="ocircumflex" unicode="&#xf4;" horiz-adv-x="490" 
d="M245 -13q-99 0 -153 59q-57 62 -57 182q0 121 57 182q52 58 153 58q210 0 210 -240q0 -241 -210 -241zM245 410q-145 0 -145 -182q0 -183 145 -183t145 183q0 182 -145 182zM249 596l-81 -68l-2 -2l-3 -2l-5 -1l-6 -1q-24 0 -24 24q0 12 9 19l96 79q8 6 16 6q9 0 16 -6
l96 -79q9 -7 9 -19q0 -24 -24 -24q-5 0 -11 2l-3 2l-2 2z" />
    <glyph glyph-name="otilde" unicode="&#xf5;" horiz-adv-x="490" 
d="M245 -13q-99 0 -153 59q-57 62 -57 182q0 121 57 182q52 58 153 58q210 0 210 -240q0 -241 -210 -241zM245 410q-145 0 -145 -182q0 -183 145 -183t145 183q0 182 -145 182zM306 578q25 0 46 28l3 3l4 4q5 4 13 4q24 0 24 -24q0 -6 -3 -12q-25 -52 -87 -52q-25 0 -62 20
l-13 7l-14 6q-15 6 -29 6q-25 0 -46 -28l-3 -3l-4 -4q-5 -4 -13 -4q-24 0 -24 24q0 6 3 12q25 52 87 52q27 0 62 -19q38 -20 56 -20z" />
    <glyph glyph-name="odieresis" unicode="&#xf6;" horiz-adv-x="490" 
d="M245 -13q-99 0 -153 59q-57 62 -57 182q0 121 57 182q52 58 153 58q210 0 210 -240q0 -241 -210 -241zM245 410q-145 0 -145 -182q0 -183 145 -183t145 183q0 182 -145 182zM171 609q36 0 36 -38q0 -37 -36 -37t-36 37q0 38 36 38zM328 609q36 0 36 -38q0 -37 -36 -37
t-36 37q0 38 36 38z" />
    <glyph glyph-name="divide" unicode="&#xf7;" horiz-adv-x="454" 
d="M251 120q10 -9 10 -23q0 -34 -34 -34q-33 0 -33 34q0 33 33 33q14 0 24 -10zM261 340q0 -33 -34 -33q-33 0 -33 33q0 34 33 34q34 0 34 -34zM27 192q-27 0 -27 27t27 27h400q27 0 27 -27t-27 -27h-400z" />
    <glyph glyph-name="oslash" unicode="&#xf8;" horiz-adv-x="490" 
d="M424 460q8 8 19 8q26 0 26 -26q0 -11 -8 -19l-41 -43q35 -59 35 -152q0 -241 -210 -241q-92 0 -145 50l-36 -38q-7 -7 -18 -7q-26 0 -26 26q0 11 8 19l39 42q-32 59 -32 149q0 121 57 182q52 58 153 58q90 0 142 -48zM373 329l-230 -246q35 -38 102 -38q145 0 145 183
q0 59 -17 101zM344 374q-37 36 -99 36q-145 0 -145 -182q0 -59 15 -98z" />
    <glyph glyph-name="ugrave" unicode="&#xf9;" horiz-adv-x="482" 
d="M119 430v-261q0 -121 122 -121t122 121v261q0 32 33 32q31 0 31 -32v-261q0 -182 -186 -182t-186 182v261q0 32 32 32q13 0 22 -9q10 -10 10 -23zM165 620q-18 18 3 38q22 19 38 0l89 -108q14 -16 -3 -30q-15 -13 -30 2z" />
    <glyph glyph-name="uacute" unicode="&#xfa;" horiz-adv-x="482" 
d="M119 430v-261q0 -121 122 -121t122 121v261q0 32 33 32q31 0 31 -32v-261q0 -182 -186 -182t-186 182v261q0 32 32 32q13 0 22 -9q10 -10 10 -23zM288 658q16 19 38 0q21 -20 3 -38l-97 -98q-15 -15 -30 -2q-16 14 -3 30z" />
    <glyph glyph-name="ucircumflex" unicode="&#xfb;" horiz-adv-x="482" 
d="M119 430v-261q0 -121 122 -121t122 121v261q0 32 33 32q31 0 31 -32v-261q0 -182 -186 -182t-186 182v261q0 32 32 32q13 0 22 -9q10 -10 10 -23zM245 596l-81 -68l-2 -2l-3 -2q-6 -2 -11 -2q-24 0 -24 24q0 12 9 19l96 79q8 6 16 6q9 0 16 -6l96 -79q9 -7 9 -19
q0 -24 -24 -24l-6 1l-5 1l-3 2l-2 2z" />
    <glyph glyph-name="udieresis" unicode="&#xfc;" horiz-adv-x="482" 
d="M119 430v-261q0 -121 122 -121t122 121v261q0 32 33 32q31 0 31 -32v-261q0 -182 -186 -182t-186 182v261q0 32 32 32q13 0 22 -9q10 -10 10 -23zM169 609q36 0 36 -38q0 -37 -36 -37t-36 37q0 38 36 38zM326 609q36 0 36 -38q0 -37 -36 -37t-36 37q0 38 36 38z" />
    <glyph glyph-name="yacute" unicode="&#xfd;" horiz-adv-x="438" 
d="M186 19l-167 397l-1 2l-1 4q-1 3 -1 8q0 32 32 32q13 0 20 -7q5 -4 10 -14l141 -345l141 345q5 10 10 14q7 7 20 7q32 0 32 -32q0 -5 -1 -8l-1 -4l-1 -2l-197 -469q-31 -75 -73 -111q-44 -37 -114 -37q-30 0 -30 30t30 30q59 0 93 42q20 26 58 118zM264 658q16 19 38 0
q21 -20 3 -38l-97 -98q-15 -15 -30 -2q-16 14 -3 30z" />
    <glyph glyph-name="thorn" unicode="&#xfe;" horiz-adv-x="509" 
d="M129 398q17 29 50 48q38 22 86 22q209 0 209 -240q0 -241 -209 -241q-48 0 -85 22q-33 20 -51 48v-226q0 -13 -10 -22q-9 -10 -22 -10t-22 10q-10 9 -10 22v849q0 32 32 32t32 -32v-282zM265 45q144 0 144 183q0 182 -146 182q-60 0 -96 -42q-40 -47 -40 -140t40 -140
q36 -43 98 -43z" />
    <glyph glyph-name="ydieresis" unicode="&#xff;" horiz-adv-x="438" 
d="M186 19l-167 397l-1 2l-1 4q-1 3 -1 8q0 32 32 32q13 0 20 -7q5 -4 10 -14l141 -345l141 345q5 10 10 14q7 7 20 7q32 0 32 -32q0 -5 -1 -8l-1 -4l-1 -2l-197 -469q-31 -75 -73 -111q-44 -37 -114 -37q-30 0 -30 30t30 30q59 0 93 42q20 26 58 118zM140 609q36 0 36 -38
q0 -37 -36 -37t-36 37q0 38 36 38zM297 609q36 0 36 -38q0 -37 -36 -37t-36 37q0 38 36 38z" />
    <glyph glyph-name="Amacron" unicode="&#x100;" horiz-adv-x="613" 
d="M306 567l-118 -306h237zM167 199l-73 -183q-9 -24 -33 -24q-14 0 -24 10t-10 24v4l1 4l1 4l1 3l244 617q11 23 32 23q22 0 33 -23l244 -617l1 -4l1 -4q1 -3 1 -7q0 -34 -35 -34q-24 0 -33 23l-72 184h-279zM213 733q-25 0 -25 25t25 25h186q25 0 25 -25t-25 -25h-186z
" />
    <glyph glyph-name="amacron" unicode="&#x101;" horiz-adv-x="467" 
d="M90 343q-29 0 -29 29q0 9 5 17q49 79 166 79q85 0 134 -47q46 -45 46 -123v-275q0 -31 -31 -31t-31 31v36q-37 -72 -143 -72q-80 0 -126 37q-47 38 -47 106q0 66 47 104q46 37 128 37h141v27q0 51 -32 81q-32 29 -86 29q-71 0 -116 -51q-14 -14 -26 -14zM350 173v42h-141
q-110 0 -110 -85t114 -85q55 0 95 32q42 36 42 96zM145 537q-25 0 -25 25t25 25h186q25 0 25 -25t-25 -25h-186z" />
    <glyph glyph-name="Abreve" unicode="&#x102;" horiz-adv-x="613" 
d="M306 567l-118 -306h237zM167 199l-73 -183q-9 -24 -33 -24q-14 0 -24 10t-10 24v4l1 4l1 4l1 3l244 617q11 23 32 23q22 0 33 -23l244 -617l1 -4l1 -4q1 -3 1 -7q0 -34 -35 -34q-24 0 -33 23l-72 184h-279zM193 831q0 24 24 24t24 -24q0 -55 65 -55t65 55q0 24 24 24
t24 -24q0 -52 -34 -77q-30 -24 -79 -24t-79 24q-34 25 -34 77z" />
    <glyph glyph-name="abreve" unicode="&#x103;" horiz-adv-x="467" 
d="M90 343q-29 0 -29 29q0 9 5 17q49 79 166 79q85 0 134 -47q46 -45 46 -123v-275q0 -31 -31 -31t-31 31v36q-37 -72 -143 -72q-80 0 -126 37q-47 38 -47 106q0 66 47 104q46 37 128 37h141v27q0 51 -32 81q-32 29 -86 29q-71 0 -116 -51q-14 -14 -26 -14zM350 173v42h-141
q-110 0 -110 -85t114 -85q55 0 95 32q42 36 42 96zM122 630q0 24 24 24t24 -24q0 -55 65 -55t65 55q0 24 24 24t24 -24q0 -52 -34 -77q-30 -24 -79 -24t-79 24q-34 25 -34 77z" />
    <glyph glyph-name="Aogonek" unicode="&#x104;" horiz-adv-x="613" 
d="M573 -172q-24 -11 -55 -11q-89 0 -89 75q0 31 26 62q25 30 71 48q-3 2 -8 13l-72 184h-279l-73 -183q-9 -24 -33 -24q-14 0 -24 10t-10 24v4l1 4l1 4l1 3l244 617q11 23 32 23q22 0 33 -23l244 -617l1 -4l1 -4q1 -3 1 -7q0 -22 -18 -30q-89 -41 -89 -96q0 -37 41 -37
q13 0 26 3q7 2 13 3l3 1h2q22 0 22 -22q0 -14 -13 -20zM306 567l-118 -306h237z" />
    <glyph glyph-name="aogonek" unicode="&#x105;" horiz-adv-x="467" 
d="M399 -172q-24 -11 -55 -11q-89 0 -89 75q0 71 102 111q-7 7 -7 20v36q-37 -72 -143 -72q-80 0 -126 37q-47 38 -47 106q0 66 47 104q46 37 128 37h141v27q0 51 -32 81q-32 29 -86 29q-71 0 -116 -51q-14 -14 -26 -14q-29 0 -29 29q0 9 5 17q49 79 166 79q85 0 134 -47
q46 -45 46 -123v-275q0 -21 -23 -30q-84 -40 -84 -93q0 -37 41 -37q13 0 26 3q7 2 13 3l3 1h2q22 0 22 -22q0 -14 -13 -20zM350 173v42h-141q-110 0 -110 -85t114 -85q55 0 95 32q42 36 42 96z" />
    <glyph glyph-name="Cacute" unicode="&#x106;" horiz-adv-x="631" 
d="M127 600q80 87 229 87t225 -106q7 -10 7 -21q0 -32 -32 -32q-16 0 -26 13q-61 84 -174 84q-242 0 -242 -289q0 -288 242 -288q117 0 174 82q4 6 13 10q6 3 13 3q32 0 32 -32q0 -10 -6 -19q-33 -48 -95 -77q-63 -29 -131 -29q-312 0 -312 350q0 173 83 264zM385 862
q16 19 38 0q21 -20 3 -38l-97 -98q-15 -15 -30 -2q-16 14 -3 30z" />
    <glyph glyph-name="cacute" unicode="&#x107;" horiz-adv-x="441" 
d="M345 442q22 -13 32 -23q13 -13 18 -20q7 -10 7 -19q0 -29 -29 -29q-13 0 -24 12l-6 7l-8 8q-10 9 -21 15q-31 17 -73 17q-141 0 -141 -182q0 -183 141 -183q38 0 71 15q9 4 25 14l11 7l9 7q10 7 19 7q29 0 29 -29q0 -13 -13 -25l-4 -4l-5 -3l-12 -9q-19 -12 -32 -18
q-46 -20 -98 -20q-206 0 -206 241q0 240 206 240q57 0 104 -26zM271 658q16 19 38 0q21 -20 3 -38l-97 -98q-15 -15 -30 -2q-16 14 -3 30z" />
    <glyph glyph-name="Ccircumflex" unicode="&#x108;" horiz-adv-x="631" 
d="M127 600q80 87 229 87t225 -106q7 -10 7 -21q0 -32 -32 -32q-16 0 -26 13q-61 84 -174 84q-242 0 -242 -289q0 -288 242 -288q117 0 174 82q4 6 13 10q6 3 13 3q32 0 32 -32q0 -10 -6 -19q-33 -48 -95 -77q-63 -29 -131 -29q-312 0 -312 350q0 173 83 264zM357 793
l-81 -68l-2 -2l-3 -2q-6 -2 -11 -2q-24 0 -24 24q0 12 9 19l96 79q8 6 16 6q9 0 16 -6l96 -79q9 -7 9 -19q0 -24 -24 -24q-5 0 -11 2l-3 2l-2 2z" />
    <glyph glyph-name="ccircumflex" unicode="&#x109;" horiz-adv-x="441" 
d="M345 442q22 -13 32 -23q13 -13 18 -20q7 -10 7 -19q0 -29 -29 -29q-13 0 -24 12l-6 7l-8 8q-10 9 -21 15q-31 17 -73 17q-141 0 -141 -182q0 -183 141 -183q38 0 71 15q9 4 25 14l11 7l9 7q10 7 19 7q29 0 29 -29q0 -13 -13 -25l-4 -4l-5 -3l-12 -9q-19 -12 -32 -18
q-46 -20 -98 -20q-206 0 -206 241q0 240 206 240q57 0 104 -26zM240 596l-81 -68l-2 -2l-3 -2l-5 -1l-6 -1q-24 0 -24 24q0 12 9 19l96 79q8 6 16 6q9 0 16 -6l96 -79q9 -7 9 -19q0 -24 -24 -24q-5 0 -11 2l-3 2l-2 2z" />
    <glyph glyph-name="Cdotaccent" unicode="&#x10a;" horiz-adv-x="631" 
d="M127 600q80 87 229 87t225 -106q7 -10 7 -21q0 -32 -32 -32q-16 0 -26 13q-61 84 -174 84q-242 0 -242 -289q0 -288 242 -288q117 0 174 82q4 6 13 10q6 3 13 3q32 0 32 -32q0 -10 -6 -19q-33 -48 -95 -77q-63 -29 -131 -29q-312 0 -312 350q0 173 83 264zM353 815
q38 0 38 -40q0 -39 -38 -39t-38 39q0 40 38 40z" />
    <glyph glyph-name="cdotaccent" unicode="&#x10b;" horiz-adv-x="441" 
d="M345 442q22 -13 32 -23q13 -13 18 -20q7 -10 7 -19q0 -29 -29 -29q-13 0 -24 12l-6 7l-8 8q-10 9 -21 15q-31 17 -73 17q-141 0 -141 -182q0 -183 141 -183q38 0 71 15q9 4 25 14l11 7l9 7q10 7 19 7q29 0 29 -29q0 -13 -13 -25l-4 -4l-5 -3l-12 -9q-19 -12 -32 -18
q-46 -20 -98 -20q-206 0 -206 241q0 240 206 240q57 0 104 -26zM244 623q38 0 38 -40q0 -39 -38 -39t-38 39q0 40 38 40z" />
    <glyph glyph-name="Ccaron" unicode="&#x10c;" horiz-adv-x="631" 
d="M127 600q80 87 229 87t225 -106q7 -10 7 -21q0 -32 -32 -32q-16 0 -26 13q-61 84 -174 84q-242 0 -242 -289q0 -288 242 -288q117 0 174 82q4 6 13 10q6 3 13 3q32 0 32 -32q0 -10 -6 -19q-33 -48 -95 -77q-63 -29 -131 -29q-312 0 -312 350q0 173 83 264zM433 841l2 2
l3 2q6 2 11 2q24 0 24 -24q0 -11 -9 -19l-96 -79q-7 -6 -16 -6q-8 0 -16 6l-96 79q-9 8 -9 19q0 24 24 24l6 -1l5 -1l3 -2l2 -2l81 -68z" />
    <glyph glyph-name="ccaron" unicode="&#x10d;" horiz-adv-x="441" 
d="M345 442q22 -13 32 -23q13 -13 18 -20q7 -10 7 -19q0 -29 -29 -29q-13 0 -24 12l-6 7l-8 8q-10 9 -21 15q-31 17 -73 17q-141 0 -141 -182q0 -183 141 -183q38 0 71 15q9 4 25 14l11 7l9 7q10 7 19 7q29 0 29 -29q0 -13 -13 -25l-4 -4l-5 -3l-12 -9q-19 -12 -32 -18
q-46 -20 -98 -20q-206 0 -206 241q0 240 206 240q57 0 104 -26zM329 621l2 2l3 2l5 1l6 1q24 0 24 -24q0 -11 -9 -19l-96 -79q-7 -6 -16 -6q-8 0 -16 6l-96 79q-9 8 -9 19q0 24 24 24q5 0 11 -2l3 -2l2 -2l81 -68z" />
    <glyph glyph-name="Dcaron" unicode="&#x10e;" horiz-adv-x="608" 
d="M148 62h107q117 0 176 59q64 65 64 215q0 148 -64 215q-58 60 -176 60h-107v-549zM255 673q309 0 309 -337q0 -336 -309 -336h-141q-34 0 -34 34v605q0 34 34 34h141zM359 841l2 2l3 2l5 1l6 1q24 0 24 -24q0 -11 -9 -19l-96 -79q-7 -6 -16 -6q-8 0 -16 6l-96 79
q-9 8 -9 19q0 24 24 24q5 0 11 -2l3 -2l2 -2l81 -68z" />
    <glyph glyph-name="dcaron" unicode="&#x10f;" horiz-adv-x="536" 
d="M504 519q-6 -6 -13 -6q-6 0 -11 5q-4 5 -2 14q11 36 11 55q0 21 -9 43q-9 23 -9 35q0 47 39 47q40 0 40 -58q0 -29 -12 -67q-13 -41 -34 -68zM372 322q-9 22 -31 44q-42 44 -101 44q-141 0 -141 -182q0 -183 141 -183q61 0 95 34q37 36 37 105v138zM372 403v277
q0 32 32 32t32 -32v-496q0 -96 -55 -148q-52 -49 -141 -49q-205 0 -205 241q0 240 201 240q45 0 83 -20q33 -17 53 -45z" />
    <glyph glyph-name="Dcroat" unicode="&#x110;" horiz-adv-x="609" 
d="M255 673q310 0 310 -337q0 -178 -83 -261q-76 -75 -227 -75h-141q-34 0 -34 34v283h-31q-31 0 -31 31t31 31h31v260q0 34 34 34h141zM341 317h-193v-253h107q119 0 177 58q65 65 65 214q0 147 -65 214q-59 59 -177 59h-107v-230h193q13 0 22 -9q10 -9 10 -22t-10 -22
q-9 -9 -22 -9z" />
    <glyph glyph-name="dcroat" unicode="&#x111;" horiz-adv-x="501" 
d="M436 531v-347q0 -96 -55 -148q-52 -49 -141 -49q-205 0 -205 241q0 240 201 240q45 0 83 -20q33 -17 53 -45v128h-95q-27 0 -27 27t27 27h95v95q0 32 32 32t32 -32v-95h25q27 0 27 -27t-27 -27h-25zM372 322q-9 22 -31 44q-42 44 -101 44q-141 0 -141 -182
q0 -183 141 -183q61 0 95 34q37 36 37 105v138z" />
    <glyph glyph-name="Emacron" unicode="&#x112;" 
d="M114 0q-34 0 -34 34v605q0 34 34 34h321q31 0 31 -31t-31 -31h-287v-241h220q31 0 31 -31t-31 -31h-220v-246h298q31 0 31 -31t-31 -31h-332zM187 733q-25 0 -25 25t25 25h186q25 0 25 -25t-25 -25h-186z" />
    <glyph glyph-name="emacron" unicode="&#x113;" horiz-adv-x="466" 
d="M241 468q107 0 156 -72q19 -28 28 -64q7 -27 7 -59v-11l-1 -11q-2 -15 -4 -21q-9 -21 -35 -21h-292q0 -76 40 -119q41 -44 111 -44q38 0 71 14q20 8 49 29q9 6 18 6q29 0 29 -29q0 -12 -11 -23q-7 -7 -18 -15q-18 -13 -32 -19q-47 -22 -106 -22q-216 0 -216 241
q0 115 54 178q54 62 152 62zM369 265q0 63 -25 100q-31 45 -103 45q-131 0 -141 -145h269zM149 537q-25 0 -25 25t25 25h186q25 0 25 -25t-25 -25h-186z" />
    <glyph glyph-name="Ebreve" unicode="&#x114;" 
d="M114 0q-34 0 -34 34v605q0 34 34 34h321q31 0 31 -31t-31 -31h-287v-241h220q31 0 31 -31t-31 -31h-220v-246h298q31 0 31 -31t-31 -31h-332zM166 831q0 24 24 24t24 -24q0 -55 65 -55t65 55q0 24 24 24t24 -24q0 -52 -34 -77q-30 -24 -79 -24t-79 24q-34 25 -34 77z" />
    <glyph glyph-name="ebreve" unicode="&#x115;" horiz-adv-x="466" 
d="M241 468q107 0 156 -72q19 -28 28 -64q7 -27 7 -59v-11l-1 -11q-2 -15 -4 -21q-9 -21 -35 -21h-292q0 -76 40 -119q41 -44 111 -44q38 0 71 14q20 8 49 29q9 6 18 6q29 0 29 -29q0 -12 -11 -23q-7 -7 -18 -15q-18 -13 -32 -19q-47 -22 -106 -22q-216 0 -216 241
q0 115 54 178q54 62 152 62zM369 265q0 63 -25 100q-31 45 -103 45q-131 0 -141 -145h269zM129 630q0 24 24 24t24 -24q0 -55 65 -55t65 55q0 24 24 24t24 -24q0 -52 -34 -77q-30 -24 -79 -24t-79 24q-34 25 -34 77z" />
    <glyph glyph-name="Edotaccent" unicode="&#x116;" 
d="M114 0q-34 0 -34 34v605q0 34 34 34h321q31 0 31 -31t-31 -31h-287v-241h220q31 0 31 -31t-31 -31h-220v-246h298q31 0 31 -31t-31 -31h-332zM282 815q38 0 38 -40q0 -39 -38 -39t-38 39q0 40 38 40z" />
    <glyph glyph-name="edotaccent" unicode="&#x117;" horiz-adv-x="466" 
d="M241 468q107 0 156 -72q19 -28 28 -64q7 -27 7 -59v-11l-1 -11q-2 -15 -4 -21q-9 -21 -35 -21h-292q0 -76 40 -119q41 -44 111 -44q38 0 71 14q20 8 49 29q9 6 18 6q29 0 29 -29q0 -12 -11 -23q-7 -7 -18 -15q-18 -13 -32 -19q-47 -22 -106 -22q-216 0 -216 241
q0 115 54 178q54 62 152 62zM369 265q0 63 -25 100q-31 45 -103 45q-131 0 -141 -145h269zM244 623q38 0 38 -40q0 -39 -38 -39t-38 39q0 40 38 40z" />
    <glyph glyph-name="Eogonek" unicode="&#x118;" 
d="M447 -172q-24 -11 -55 -11q-89 0 -89 75q0 72 94 108h-283q-34 0 -34 34v605q0 34 34 34h321q31 0 31 -31t-31 -31h-287v-241h220q31 0 31 -31t-31 -31h-220v-246h298q31 0 31 -31t-31 -31q-93 -43 -93 -100q0 -37 41 -37q13 0 26 3q7 2 13 3l3 1h2q22 0 22 -22
q0 -14 -13 -20z" />
    <glyph glyph-name="eogonek" unicode="&#x119;" horiz-adv-x="466" 
d="M376 -172q-24 -11 -55 -11q-89 0 -89 75q0 57 51 97q-26 -2 -32 -2q-216 0 -216 241q0 115 54 178q54 62 152 62q107 0 156 -72q19 -28 28 -64q7 -27 7 -59v-11l-1 -11q-2 -15 -4 -21q-9 -21 -35 -21h-292q0 -76 40 -119q41 -44 111 -44q38 0 71 14q20 8 49 29q9 6 18 6
q29 0 29 -29q0 -12 -11 -23q-3 -3 -15 -13q-10 -7 -24 -15q-86 -48 -86 -110q0 -42 41 -42q13 0 26 3q7 2 13 3l3 1h2q22 0 22 -22q0 -14 -13 -20zM369 265q0 63 -25 100q-31 45 -103 45q-131 0 -141 -145h269z" />
    <glyph glyph-name="Ecaron" unicode="&#x11a;" 
d="M114 0q-34 0 -34 34v605q0 34 34 34h321q31 0 31 -31t-31 -31h-287v-241h220q31 0 31 -31t-31 -31h-220v-246h298q31 0 31 -31t-31 -31h-332zM370 841l2 2l3 2q6 2 11 2q24 0 24 -24q0 -11 -9 -19l-96 -79q-7 -6 -16 -6q-8 0 -16 6l-96 79q-9 8 -9 19q0 24 24 24l6 -1
l5 -1l3 -2l2 -2l81 -68z" />
    <glyph glyph-name="ecaron" unicode="&#x11b;" horiz-adv-x="466" 
d="M241 468q107 0 156 -72q19 -28 28 -64q7 -27 7 -59v-11l-1 -11q-2 -15 -4 -21q-9 -21 -35 -21h-292q0 -76 40 -119q41 -44 111 -44q38 0 71 14q20 8 49 29q9 6 18 6q29 0 29 -29q0 -12 -11 -23q-7 -7 -18 -15q-18 -13 -32 -19q-47 -22 -106 -22q-216 0 -216 241
q0 115 54 178q54 62 152 62zM369 265q0 63 -25 100q-31 45 -103 45q-131 0 -141 -145h269zM323 621l2 2l3 2l5 1l6 1q24 0 24 -24q0 -11 -9 -19l-96 -79q-7 -6 -16 -6q-8 0 -16 6l-96 79q-9 8 -9 19q0 24 24 24q5 0 11 -2l3 -2l2 -2l81 -68z" />
    <glyph glyph-name="Gcircumflex" unicode="&#x11c;" horiz-adv-x="663" 
d="M542 273h-167q-31 0 -31 31t31 31h202q12 0 22 -9q9 -9 9 -22v-175q0 -17 -13 -33q-95 -110 -239 -110q-312 0 -312 350q0 173 83 264q80 87 229 87t225 -106q7 -10 7 -21q0 -32 -32 -32q-16 0 -26 13q-61 84 -174 84q-242 0 -242 -289q0 -288 242 -288q121 0 186 80v145
zM357 793l-81 -68l-2 -2l-3 -2q-6 -2 -11 -2q-24 0 -24 24q0 12 9 19l96 79q8 6 16 6q9 0 16 -6l96 -79q9 -7 9 -19q0 -24 -24 -24q-5 0 -11 2l-3 2l-2 2z" />
    <glyph glyph-name="gcircumflex" unicode="&#x11d;" horiz-adv-x="478" 
d="M425 497q29 0 29 -29t-29 -29q-35 0 -48 -31q36 -43 36 -108q0 -77 -48 -122q-49 -46 -136 -46q-65 0 -108 25q-18 -15 -18 -36q0 -42 74 -42h103q78 0 124 -33q51 -36 51 -103q0 -144 -215 -144q-89 0 -145 29q-68 35 -68 111q0 70 76 101q-62 20 -62 81q0 43 40 70
q-36 45 -36 109q0 77 49 122q49 46 135 46q64 0 107 -25q30 54 89 54zM348 300q0 50 -31 80t-88 30q-56 0 -88 -30q-31 -30 -31 -80t31 -80q32 -30 88 -30q57 0 88 30t31 80zM176 19q-84 -13 -84 -80q0 -84 149 -84t149 88q0 76 -110 76h-104zM230 596l-81 -68l-2 -2l-3 -2
q-6 -2 -11 -2q-24 0 -24 24q0 12 9 19l96 79q8 6 16 6q9 0 16 -6l96 -79q9 -7 9 -19q0 -24 -24 -24l-6 1l-5 1l-3 2l-2 2z" />
    <glyph glyph-name="Gbreve" unicode="&#x11e;" horiz-adv-x="663" 
d="M542 273h-167q-31 0 -31 31t31 31h202q12 0 22 -9q9 -9 9 -22v-175q0 -17 -13 -33q-95 -110 -239 -110q-312 0 -312 350q0 173 83 264q80 87 229 87t225 -106q7 -10 7 -21q0 -32 -32 -32q-16 0 -26 13q-61 84 -174 84q-242 0 -242 -289q0 -288 242 -288q121 0 186 80v145
zM235 831q0 24 24 24t24 -24q0 -55 65 -55t65 55q0 24 24 24t24 -24q0 -52 -34 -77q-30 -24 -79 -24t-79 24q-34 25 -34 77z" />
    <glyph glyph-name="gbreve" unicode="&#x11f;" horiz-adv-x="478" 
d="M425 497q29 0 29 -29t-29 -29q-35 0 -48 -31q36 -43 36 -108q0 -77 -48 -122q-49 -46 -136 -46q-65 0 -108 25q-18 -15 -18 -36q0 -42 74 -42h103q78 0 124 -33q51 -36 51 -103q0 -144 -215 -144q-89 0 -145 29q-68 35 -68 111q0 70 76 101q-62 20 -62 81q0 43 40 70
q-36 45 -36 109q0 77 49 122q49 46 135 46q64 0 107 -25q30 54 89 54zM348 300q0 50 -31 80t-88 30q-56 0 -88 -30q-31 -30 -31 -80t31 -80q32 -30 88 -30q57 0 88 30t31 80zM176 19q-84 -13 -84 -80q0 -84 149 -84t149 88q0 76 -110 76h-104zM117 630q0 24 24 24t24 -24
q0 -55 65 -55t65 55q0 24 24 24t24 -24q0 -52 -34 -77q-30 -24 -79 -24t-79 24q-34 25 -34 77z" />
    <glyph glyph-name="Gdotaccent" unicode="&#x120;" horiz-adv-x="663" 
d="M542 273h-167q-31 0 -31 31t31 31h202q12 0 22 -9q9 -9 9 -22v-175q0 -17 -13 -33q-95 -110 -239 -110q-312 0 -312 350q0 173 83 264q80 87 229 87t225 -106q7 -10 7 -21q0 -32 -32 -32q-16 0 -26 13q-61 84 -174 84q-242 0 -242 -289q0 -288 242 -288q121 0 186 80v145
zM348 815q38 0 38 -40q0 -39 -38 -39t-38 39q0 40 38 40z" />
    <glyph glyph-name="gdotaccent" unicode="&#x121;" horiz-adv-x="478" 
d="M425 497q29 0 29 -29t-29 -29q-35 0 -48 -31q36 -43 36 -108q0 -77 -48 -122q-49 -46 -136 -46q-65 0 -108 25q-18 -15 -18 -36q0 -42 74 -42h103q78 0 124 -33q51 -36 51 -103q0 -144 -215 -144q-89 0 -145 29q-68 35 -68 111q0 70 76 101q-62 20 -62 81q0 43 40 70
q-36 45 -36 109q0 77 49 122q49 46 135 46q64 0 107 -25q30 54 89 54zM348 300q0 50 -31 80t-88 30q-56 0 -88 -30q-31 -30 -31 -80t31 -80q32 -30 88 -30q57 0 88 30t31 80zM176 19q-84 -13 -84 -80q0 -84 149 -84t149 88q0 76 -110 76h-104zM232 623q38 0 38 -40
q0 -39 -38 -39t-38 39q0 40 38 40z" />
    <glyph glyph-name="Gcommaaccent" unicode="&#x122;" horiz-adv-x="663" 
d="M542 273h-167q-31 0 -31 31t31 31h202q12 0 22 -9q9 -9 9 -22v-175q0 -17 -13 -33q-95 -110 -239 -110q-312 0 -312 350q0 173 83 264q80 87 229 87t225 -106q7 -10 7 -21q0 -32 -32 -32q-16 0 -26 13q-61 84 -174 84q-242 0 -242 -289q0 -288 242 -288q121 0 186 80v145
zM354 -235q-6 -6 -13 -6q-6 0 -11 5q-4 5 -2 14q11 36 11 55q0 21 -9 43q-9 23 -9 35q0 47 39 47q40 0 40 -58q0 -29 -12 -67q-13 -41 -34 -68z" />
    <glyph glyph-name="gcommaaccent" unicode="&#x123;" horiz-adv-x="478" 
d="M240 711q6 6 13 6q6 0 11 -5q4 -5 2 -14q-11 -36 -11 -55q0 -20 9 -43l3 -8l3 -9q3 -9 3 -18q0 -47 -39 -47q-40 0 -40 58q0 30 13 68q14 42 33 67zM425 497q29 0 29 -29t-29 -29q-35 0 -48 -31q36 -43 36 -108q0 -77 -48 -122q-49 -46 -136 -46q-65 0 -108 25
q-18 -15 -18 -36q0 -42 74 -42h103q78 0 124 -33q51 -36 51 -103q0 -144 -215 -144q-89 0 -145 29q-68 35 -68 111q0 70 76 101q-62 20 -62 81q0 43 40 70q-36 45 -36 109q0 77 49 122q49 46 135 46q64 0 107 -25q30 54 89 54zM348 300q0 50 -31 80t-88 30q-56 0 -88 -30
q-31 -30 -31 -80t31 -80q32 -30 88 -30q57 0 88 30t31 80zM176 19q-84 -13 -84 -80q0 -84 149 -84t149 88q0 76 -110 76h-104z" />
    <glyph glyph-name="Hcircumflex" unicode="&#x124;" horiz-adv-x="644" 
d="M148 314v-288q0 -14 -10 -24t-24 -10t-24 10t-10 24v621q0 14 10 24t24 10t24 -10t10 -24v-271h348v271q0 14 10 24t24 10t24 -10t10 -24v-621q0 -14 -10 -24t-24 -10t-24 10t-10 24v288h-348zM324 793l-81 -68l-2 -2l-3 -2q-6 -2 -11 -2q-24 0 -24 24q0 12 9 19l96 79
q8 6 16 6q9 0 16 -6l96 -79q9 -7 9 -19q0 -24 -24 -24q-5 0 -11 2l-3 2l-2 2z" />
    <glyph glyph-name="hcircumflex" unicode="&#x125;" horiz-adv-x="501" 
d="M446 291v-267q0 -32 -32 -32t-32 32v254q0 65 -24 96q-28 37 -96 37q-133 0 -133 -140v-247q0 -32 -32 -32t-32 32v656q0 32 32 32t32 -32v-282q15 30 49 49q38 21 84 21q105 0 150 -57q34 -43 34 -120zM97 793l-81 -68l-2 -2l-3 -2l-5 -1l-6 -1q-24 0 -24 24q0 12 9 19
l96 79q8 6 16 6q9 0 16 -6l96 -79q9 -7 9 -19q0 -24 -24 -24q-5 0 -11 2l-3 2l-2 2z" />
    <glyph glyph-name="Hbar" unicode="&#x126;" horiz-adv-x="644" 
d="M148 314v-288q0 -14 -10 -24t-24 -10t-24 10t-10 24v437h-30q-25 0 -25 25t25 25h30v134q0 14 10 24t24 10t24 -10t10 -24v-134h348v134q0 14 10 24t24 10t24 -10t10 -24v-134h30q25 0 25 -25t-25 -25h-30v-437q0 -14 -10 -24t-24 -10t-24 10t-10 24v288h-348zM496 376
v87h-348v-87h348z" />
    <glyph glyph-name="hbar" unicode="&#x127;" horiz-adv-x="501" 
d="M446 291v-267q0 -32 -32 -32t-32 32v254q0 65 -24 96q-28 37 -96 37q-133 0 -133 -140v-247q0 -32 -32 -32t-32 32v537h-29q-25 0 -25 25t25 25h29v69q0 32 32 32t32 -32v-69h111q25 0 25 -25t-25 -25h-111v-163q15 30 49 49q38 21 84 21q105 0 150 -57q34 -43 34 -120z
" />
    <glyph glyph-name="Itilde" unicode="&#x128;" horiz-adv-x="228" 
d="M148 26q0 -14 -10 -24t-24 -10t-24 10t-10 24v621q0 14 10 24t24 10t24 -10t10 -24v-621zM95 811l7 -3l16 -8q38 -20 56 -20q25 0 46 28l3 3l4 4q5 4 13 4q24 0 24 -24q0 -6 -3 -12q-25 -52 -87 -52q-25 0 -62 20l-13 7l-14 6q-15 6 -29 6q-25 0 -46 -28l-3 -3l-4 -4
q-5 -4 -13 -4q-24 0 -24 24q0 6 3 12q25 52 87 52q17 0 33 -6z" />
    <glyph glyph-name="itilde" unicode="&#x129;" horiz-adv-x="193" 
d="M112 590l13 -6q15 -6 29 -6q25 0 46 28l3 3l4 4q5 4 13 4q24 0 24 -24q0 -6 -3 -12q-25 -52 -87 -52q-17 0 -34 6q-7 3 -12 6q-8 3 -16 8q-35 19 -56 19q-25 0 -46 -28l-3 -3l-4 -4q-5 -4 -13 -4q-24 0 -24 24q0 6 3 12q25 52 87 52q27 0 62 -19zM128 24q0 -32 -32 -32
t-32 32v406q0 32 32 32t32 -32v-406z" />
    <glyph glyph-name="Imacron" unicode="&#x12a;" horiz-adv-x="228" 
d="M148 26q0 -14 -10 -24t-24 -10t-24 10t-10 24v621q0 14 10 24t24 10t24 -10t10 -24v-621zM22 733q-25 0 -25 25t25 25h186q25 0 25 -25t-25 -25h-186z" />
    <glyph glyph-name="imacron" unicode="&#x12b;" horiz-adv-x="193" 
d="M3 537q-25 0 -25 25t25 25h186q25 0 25 -25t-25 -25h-186zM128 24q0 -32 -32 -32t-32 32v406q0 32 32 32t32 -32v-406z" />
    <glyph glyph-name="Ibreve" unicode="&#x12c;" horiz-adv-x="228" 
d="M148 26q0 -14 -10 -24t-24 -10t-24 10t-10 24v621q0 14 10 24t24 10t24 -10t10 -24v-621zM1 831q0 24 24 24t24 -24q0 -55 65 -55t65 55q0 24 24 24t24 -24q0 -52 -34 -77q-30 -24 -79 -24t-79 24q-34 25 -34 77z" />
    <glyph glyph-name="ibreve" unicode="&#x12d;" horiz-adv-x="193" 
d="M-17 630q0 24 24 24t24 -24q0 -55 65 -55t65 55q0 24 24 24t24 -24q0 -52 -34 -77q-30 -24 -79 -24t-79 24q-34 25 -34 77zM128 24q0 -32 -32 -32t-32 32v406q0 32 32 32t32 -32v-406z" />
    <glyph glyph-name="Iogonek" unicode="&#x12e;" horiz-adv-x="228" 
d="M134 -172q-24 -11 -55 -11q-89 0 -89 75q0 72 100 109q-10 11 -10 25v621q0 14 10 24t24 10t24 -10t10 -24v-621q0 -26 -25 -33q-83 -41 -83 -93q0 -37 41 -37q13 0 26 3q7 2 13 3l3 1h2q22 0 22 -22q0 -14 -13 -20z" />
    <glyph glyph-name="iogonek" unicode="&#x12f;" horiz-adv-x="193" 
d="M113 -172q-24 -11 -55 -11q-89 0 -89 75q0 30 29 62q29 31 75 47q-9 9 -9 23v406q0 32 32 32t32 -32v-406q0 -21 -18 -29q-91 -42 -91 -95q0 -37 41 -37q13 0 26 3q7 2 13 3l3 1h2q22 0 22 -22q0 -14 -13 -20zM96 634q38 0 38 -40q0 -38 -38 -38t-38 38q0 40 38 40z" />
    <glyph glyph-name="Idotaccent" unicode="&#x130;" horiz-adv-x="228" 
d="M148 26q0 -14 -10 -24t-24 -10t-24 10t-10 24v621q0 14 10 24t24 10t24 -10t10 -24v-621zM115 815q38 0 38 -40q0 -39 -38 -39t-38 39q0 40 38 40z" />
    <glyph glyph-name="dotlessi" unicode="&#x131;" horiz-adv-x="193" 
d="M128 24q0 -32 -32 -32t-32 32v406q0 32 32 32t32 -32v-406z" />
    <glyph glyph-name="IJ" unicode="&#x132;" horiz-adv-x="616" 
d="M148 26q0 -14 -10 -24t-24 -10t-24 10t-10 24v621q0 14 10 24t24 10t24 -10t10 -24v-621zM229 63q10 10 23 10q7 0 20 -6q31 -16 74 -16q122 0 122 152v444q0 14 10 24t24 10t24 -10t10 -24v-444q0 -216 -190 -216q-67 0 -108 23q-19 10 -19 30q0 14 10 23z" />
    <glyph glyph-name="ij" unicode="&#x133;" horiz-adv-x="378" 
d="M129 24q0 -32 -32 -32t-32 32v406q0 32 32 32t32 -32v-406zM97 634q38 0 38 -40q0 -38 -38 -38t-38 38q0 40 38 40zM249 430q0 32 32 32t32 -32v-465q0 -63 -41 -106q-42 -44 -105 -44q-30 0 -30 30t30 30q36 0 59 26t23 64v465zM281 634q38 0 38 -40q0 -38 -38 -38
t-38 38q0 40 38 40z" />
    <glyph glyph-name="Jcircumflex" unicode="&#x134;" horiz-adv-x="413" 
d="M26 63q10 10 23 10q7 0 20 -6q31 -16 74 -16q122 0 122 152v444q0 14 10 24t24 10t24 -10t10 -24v-444q0 -216 -190 -216q-67 0 -108 23q-19 10 -19 30q0 14 10 23zM296 793l-81 -68l-2 -2l-3 -2q-6 -2 -11 -2q-24 0 -24 24q0 12 9 19l96 79q8 6 16 6q9 0 16 -6l96 -79
q9 -7 9 -19q0 -24 -24 -24l-6 1l-5 1l-3 2l-2 2z" />
    <glyph glyph-name="jcircumflex" unicode="&#x135;" horiz-adv-x="194" 
d="M65 430q0 32 32 32t32 -32v-465q0 -63 -41 -106q-42 -44 -105 -44q-30 0 -30 30t30 30q36 0 59 26t23 64v465zM94 596l-81 -68l-2 -2l-3 -2l-5 -1l-6 -1q-24 0 -24 24q0 12 9 19l96 79q8 6 16 6q9 0 16 -6l96 -79q9 -7 9 -19q0 -24 -24 -24q-5 0 -11 2l-3 2l-2 2z" />
    <glyph glyph-name="Kcommaaccent" unicode="&#x136;" horiz-adv-x="554" 
d="M439 668q10 13 27 13q15 0 25 -10t10 -25q0 -13 -10 -24l-209 -234l242 -341q7 -10 7 -21q0 -34 -34 -34q-10 0 -18 5l-6 5q-3 3 -5 6l-232 330l-88 -99v-213q0 -34 -34 -34t-34 34v621q0 34 34 34t34 -34v-312zM290 -235q-6 -6 -13 -6q-6 0 -11 5q-4 5 -2 14
q11 36 11 55q0 21 -9 43q-9 23 -9 35q0 47 39 47q40 0 40 -58q0 -29 -12 -67q-13 -41 -34 -68z" />
    <glyph glyph-name="kcommaaccent" unicode="&#x137;" horiz-adv-x="453" 
d="M190 234l-61 -49v-161q0 -32 -32 -32t-32 32v656q0 32 32 32t32 -32v-419l236 193q6 6 12 7q3 1 10 1q32 0 32 -32q0 -16 -13 -26l-164 -131l178 -229q7 -7 7 -20q0 -32 -32 -32q-16 0 -28 15zM242 -235q-6 -6 -13 -6q-6 0 -11 5q-4 5 -2 14q11 36 11 55q0 21 -9 43l-3 8
l-3 9q-3 9 -3 18q0 47 39 47q40 0 40 -58q0 -29 -12 -67q-13 -41 -34 -68z" />
    <glyph glyph-name="kgreenlandic" unicode="&#x138;" horiz-adv-x="453" 
d="M190 234l-61 -49v-161q0 -32 -32 -32t-32 32v406q0 32 32 32t32 -32v-169l236 193q6 6 12 7q3 1 10 1q32 0 32 -32q0 -16 -13 -26l-164 -131l178 -229q7 -7 7 -20q0 -32 -32 -32q-16 0 -28 15z" />
    <glyph glyph-name="Lacute" unicode="&#x139;" horiz-adv-x="483" 
d="M415 64q32 0 32 -32t-32 -32h-308q-34 0 -34 34v613q0 34 34 34t34 -34v-583h274zM153 862q16 19 38 0q21 -20 3 -38l-97 -98q-15 -15 -30 -2q-16 14 -3 30z" />
    <glyph glyph-name="lacute" unicode="&#x13a;" horiz-adv-x="219" 
d="M122 680v-571q0 -57 40 -57q30 0 30 -30t-30 -30q-104 0 -104 117v571q0 13 10 22q9 10 22 10t23 -10q9 -9 9 -22zM130 880q16 19 38 0q21 -20 3 -38l-97 -98q-15 -15 -30 -2q-16 14 -3 30z" />
    <glyph glyph-name="Lcommaaccent" unicode="&#x13b;" horiz-adv-x="483" 
d="M422 64q32 0 32 -32t-32 -32h-308q-34 0 -34 34v613q0 34 34 34t34 -34v-583h274zM273 -235q-6 -6 -13 -6q-6 0 -11 5q-4 5 -2 14q11 36 11 55q0 12 -3 24q-2 9 -6 19q-9 23 -9 35q0 47 39 47q40 0 40 -58q0 -29 -12 -67q-13 -41 -34 -68z" />
    <glyph glyph-name="lcommaaccent" unicode="&#x13c;" horiz-adv-x="219" 
d="M129 680v-571q0 -57 40 -57q30 0 30 -30t-30 -30q-104 0 -104 117v571q0 13 10 22q9 10 22 10t23 -10q9 -9 9 -22zM123 -235q-6 -6 -13 -6q-6 0 -11 5q-4 5 -2 14q11 36 11 55q0 21 -9 43q-9 23 -9 35q0 47 39 47q40 0 40 -58q0 -29 -12 -67q-13 -41 -34 -68z" />
    <glyph glyph-name="Lcaron" unicode="&#x13d;" horiz-adv-x="483" 
d="M315 488q-6 -6 -13 -6q-6 0 -11 5q-4 5 -2 14q11 36 11 55q0 12 -3 24q-2 9 -6 19q-9 23 -9 35q0 47 39 47q40 0 40 -58q0 -29 -12 -67q-13 -41 -34 -68zM422 64q32 0 32 -32t-32 -32h-308q-34 0 -34 34v613q0 34 34 34t34 -34v-583h274z" />
    <glyph glyph-name="lcaron" unicode="&#x13e;" horiz-adv-x="234" 
d="M197 519q-6 -6 -13 -6q-6 0 -11 5q-4 5 -2 14q11 36 11 55q0 21 -9 43q-9 23 -9 35q0 47 39 47q40 0 40 -58q0 -29 -12 -67q-13 -41 -34 -68zM129 680v-571q0 -57 40 -57q30 0 30 -30t-30 -30q-104 0 -104 117v571q0 13 10 22q9 10 22 10t23 -10q9 -9 9 -22z" />
    <glyph glyph-name="Ldot" unicode="&#x13f;" horiz-adv-x="483" 
d="M422 64q32 0 32 -32t-32 -32h-308q-34 0 -34 34v613q0 34 34 34t34 -34v-583h274zM378 392q47 0 47 -48q0 -47 -47 -47t-47 47q0 48 47 48z" />
    <glyph glyph-name="ldot" unicode="&#x140;" horiz-adv-x="279" 
d="M129 680v-571q0 -57 40 -57q30 0 30 -30t-30 -30q-104 0 -104 117v571q0 13 10 22q9 10 22 10t23 -10q9 -9 9 -22zM217 423q47 0 47 -48q0 -47 -47 -47t-47 47q0 48 47 48z" />
    <glyph glyph-name="Lslash" unicode="&#x141;" horiz-adv-x="503" 
d="M441 64q32 0 32 -32t-32 -32h-308q-34 0 -34 34v220l-45 -21q-6 -3 -13 -3q-29 0 -29 29q0 20 18 27l69 32v329q0 34 34 34t34 -34v-298l172 81q6 3 13 3q29 0 29 -29q0 -19 -18 -27l-196 -92v-221h274z" />
    <glyph glyph-name="lslash" unicode="&#x142;" horiz-adv-x="254" 
d="M129 680v-262l78 45q6 3 12 3q27 0 27 -27q0 -16 -14 -24l-103 -59v-247q0 -57 40 -57q30 0 30 -30t-30 -30q-104 0 -104 117v210l-24 -14q-7 -4 -14 -4q-27 0 -27 27q0 16 14 24l51 29v299q0 13 10 22q9 10 22 10t23 -10q9 -9 9 -22z" />
    <glyph glyph-name="Nacute" unicode="&#x143;" horiz-adv-x="620" 
d="M550 648v-622q0 -34 -34 -34q-17 0 -28 14l-352 531v-512q0 -13 -10 -23q-9 -10 -23 -10q-13 0 -23 10t-10 23v623q0 14 10 23q10 10 23 10q16 0 27 -14l354 -532v513q0 14 10 23q10 10 23 10q14 0 23 -10q10 -9 10 -23zM360 861q16 19 38 0q21 -20 3 -38l-97 -98
q-15 -15 -30 -2q-16 14 -3 30z" />
    <glyph glyph-name="nacute" unicode="&#x144;" horiz-adv-x="501" 
d="M446 291v-267q0 -32 -32 -32t-32 32v254q0 65 -24 96q-28 37 -96 37q-133 0 -133 -140v-247q0 -32 -32 -32t-32 32v406q0 32 32 32t32 -32v-32q15 30 49 49q38 21 84 21q105 0 150 -57q34 -43 34 -120zM282 658q16 19 38 0q21 -20 3 -38l-97 -98q-15 -15 -30 -2
q-16 14 -3 30z" />
    <glyph glyph-name="Ncommaaccent" unicode="&#x145;" horiz-adv-x="620" 
d="M550 648v-622q0 -34 -34 -34q-17 0 -28 14l-352 531v-512q0 -13 -10 -23q-9 -10 -23 -10q-13 0 -23 10t-10 23v623q0 14 10 23q10 10 23 10q16 0 27 -14l354 -532v513q0 14 10 23q10 10 23 10q14 0 23 -10q10 -9 10 -23zM300 -235q-6 -6 -13 -6q-6 0 -11 5q-4 5 -2 14
q11 36 11 55q0 12 -3 24q-2 9 -6 19q-9 23 -9 35q0 47 39 47q40 0 40 -58q0 -29 -12 -67q-13 -41 -34 -68z" />
    <glyph glyph-name="ncommaaccent" unicode="&#x146;" horiz-adv-x="501" 
d="M446 291v-267q0 -32 -32 -32t-32 32v254q0 65 -24 96q-28 37 -96 37q-133 0 -133 -140v-247q0 -32 -32 -32t-32 32v406q0 32 32 32t32 -32v-32q15 30 49 49q38 21 84 21q105 0 150 -57q34 -43 34 -120zM253 -235q-6 -6 -13 -6q-6 0 -11 5q-4 5 -2 14q11 36 11 55
q0 21 -9 43q-9 23 -9 35q0 47 39 47q40 0 40 -58q0 -29 -12 -67q-13 -41 -34 -68z" />
    <glyph glyph-name="Ncaron" unicode="&#x147;" horiz-adv-x="620" 
d="M550 648v-622q0 -34 -34 -34q-17 0 -28 14l-352 531v-512q0 -13 -10 -23q-9 -10 -23 -10q-13 0 -23 10t-10 23v623q0 14 10 23q10 10 23 10q16 0 27 -14l354 -532v513q0 14 10 23q10 10 23 10q14 0 23 -10q10 -9 10 -23zM402 841l2 2l3 2q6 2 11 2q24 0 24 -24
q0 -11 -9 -19l-96 -79q-7 -6 -16 -6q-8 0 -16 6l-96 79q-9 8 -9 19q0 24 24 24q5 0 11 -2l3 -2l2 -2l81 -68z" />
    <glyph glyph-name="ncaron" unicode="&#x148;" horiz-adv-x="501" 
d="M446 291v-267q0 -32 -32 -32t-32 32v254q0 65 -24 96q-28 37 -96 37q-133 0 -133 -140v-247q0 -32 -32 -32t-32 32v406q0 32 32 32t32 -32v-32q15 30 49 49q38 21 84 21q105 0 150 -57q34 -43 34 -120zM346 621l2 2l3 2q6 2 11 2q24 0 24 -24q0 -11 -9 -19l-96 -79
q-7 -6 -16 -6q-8 0 -16 6l-96 79q-9 8 -9 19q0 24 24 24l6 -1l5 -1l3 -2l2 -2l81 -68z" />
    <glyph glyph-name="napostrophe" unicode="&#x149;" horiz-adv-x="501" 
d="M446 291v-267q0 -32 -32 -32t-32 32v254q0 65 -24 96q-28 37 -96 37q-133 0 -133 -140v-247q0 -32 -32 -32t-32 32v406q0 32 32 32t32 -32v-32q15 30 49 49q38 21 84 21q105 0 150 -57q34 -43 34 -120zM42 482q-6 -6 -13 -6q-6 0 -11 5q-4 5 -2 14q11 36 11 55
q0 21 -9 43q-9 23 -9 35q0 47 39 47q40 0 40 -58q0 -29 -12 -67q-13 -41 -34 -68z" />
    <glyph glyph-name="Eng" unicode="&#x14a;" horiz-adv-x="620" 
d="M136 537v-512q0 -13 -10 -23q-9 -10 -23 -10q-13 0 -23 10t-10 23v623q0 14 10 23q10 10 23 10q16 0 27 -14l354 -532v513q0 14 10 23q10 10 23 10q14 0 23 -10q10 -9 10 -23v-633q0 -216 -190 -216q-32 0 -32 32t32 32q122 0 124 149z" />
    <glyph glyph-name="eng" unicode="&#x14b;" horiz-adv-x="501" 
d="M382 278q0 65 -24 96q-28 37 -96 37q-133 0 -133 -140v-247q0 -32 -32 -32t-32 32v406q0 32 32 32t32 -32v-32q15 30 49 49q38 21 84 21q105 0 150 -57q34 -43 34 -120v-342q0 -63 -41 -106q-42 -44 -105 -44q-30 0 -30 30t30 30q36 0 59 26t23 64v329z" />
    <glyph glyph-name="Omacron" unicode="&#x14c;" horiz-adv-x="712" 
d="M668 336q0 173 -83 264q-79 87 -229 87q-149 0 -229 -87q-83 -91 -83 -264q0 -172 83 -263q81 -87 229 -87t229 87q83 91 83 263zM356 48q-242 0 -242 288q0 289 242 289t242 -289q0 -288 -242 -288zM266 733q-25 0 -25 25t25 25h186q25 0 25 -25t-25 -25h-186z" />
    <glyph glyph-name="omacron" unicode="&#x14d;" horiz-adv-x="490" 
d="M245 -13q-99 0 -153 59q-57 62 -57 182q0 121 57 182q52 58 153 58q210 0 210 -240q0 -241 -210 -241zM245 410q-145 0 -145 -182q0 -183 145 -183t145 183q0 182 -145 182zM152 537q-25 0 -25 25t25 25h186q25 0 25 -25t-25 -25h-186z" />
    <glyph glyph-name="Obreve" unicode="&#x14e;" horiz-adv-x="712" 
d="M668 336q0 173 -83 264q-79 87 -229 87q-149 0 -229 -87q-83 -91 -83 -264q0 -172 83 -263q81 -87 229 -87t229 87q83 91 83 263zM356 48q-242 0 -242 288q0 289 242 289t242 -289q0 -288 -242 -288zM245 831q0 24 24 24t24 -24q0 -55 65 -55t65 55q0 24 24 24t24 -24
q0 -52 -34 -77q-30 -24 -79 -24t-79 24q-34 25 -34 77z" />
    <glyph glyph-name="obreve" unicode="&#x14f;" horiz-adv-x="490" 
d="M245 -13q-99 0 -153 59q-57 62 -57 182q0 121 57 182q52 58 153 58q210 0 210 -240q0 -241 -210 -241zM245 410q-145 0 -145 -182q0 -183 145 -183t145 183q0 182 -145 182zM131 630q0 24 24 24t24 -24q0 -55 65 -55t65 55q0 24 24 24t24 -24q0 -52 -34 -77
q-30 -24 -79 -24t-79 24q-34 25 -34 77z" />
    <glyph glyph-name="Ohungarumlaut" unicode="&#x150;" horiz-adv-x="712" 
d="M668 336q0 173 -83 264q-79 87 -229 87q-149 0 -229 -87q-83 -91 -83 -264q0 -172 83 -263q81 -87 229 -87t229 87q83 91 83 263zM356 48q-242 0 -242 288q0 289 242 289t242 -289q0 -288 -242 -288zM375 861q16 19 38 0q21 -20 3 -38l-97 -98q-15 -15 -30 -2
q-16 14 -3 30zM484 861q16 19 38 0q21 -20 3 -38l-97 -98q-15 -15 -30 -2q-16 14 -3 30z" />
    <glyph glyph-name="ohungarumlaut" unicode="&#x151;" horiz-adv-x="490" 
d="M245 -13q-99 0 -153 59q-57 62 -57 182q0 121 57 182q52 58 153 58q210 0 210 -240q0 -241 -210 -241zM245 410q-145 0 -145 -182q0 -183 145 -183t145 183q0 182 -145 182zM242 658q16 19 38 0q21 -20 3 -38l-97 -98q-15 -15 -30 -2q-16 14 -3 30zM351 658q16 19 38 0
q21 -20 3 -38l-97 -98q-15 -15 -30 -2q-16 14 -3 30z" />
    <glyph glyph-name="OE" unicode="&#x152;" horiz-adv-x="923" 
d="M519 0q-16 0 -25 11q-63 -25 -140 -25q-148 0 -228 87q-82 89 -82 263q0 176 82 264q80 87 228 87q75 0 139 -26q11 12 26 12h321q31 0 31 -31t-31 -31h-287v-241h220q31 0 31 -31t-31 -31h-220v-246h298q31 0 31 -31t-31 -31h-332zM354 48q79 0 131 31v514
q-56 32 -131 32q-240 0 -240 -289q0 -288 240 -288z" />
    <glyph glyph-name="oe" unicode="&#x153;" horiz-adv-x="821" 
d="M596 468q107 0 156 -72q19 -28 28 -64q7 -27 7 -59v-11l-1 -11q-2 -15 -4 -21q-9 -21 -35 -21h-292q0 -76 40 -119q41 -44 111 -44q38 0 71 14q20 8 49 29q9 6 18 6q29 0 29 -29q0 -12 -11 -23q-7 -7 -18 -15q-18 -13 -32 -19q-47 -22 -106 -22q-131 0 -184 92
q-53 -92 -177 -92q-99 0 -153 59q-57 62 -57 182q0 121 57 182q52 58 153 58q126 0 178 -93q53 93 173 93zM100 228q0 -183 145 -183q141 0 145 183q-5 182 -145 182q-145 0 -145 -182zM724 265q0 63 -25 100q-31 45 -103 45q-131 0 -141 -145h269z" />
    <glyph glyph-name="Racute" unicode="&#x154;" horiz-adv-x="546" 
d="M148 353h167q51 0 86 38q34 35 34 91q0 57 -34 92q-34 37 -89 37h-164v-258zM148 26q0 -34 -34 -34t-34 34v613q0 34 34 34h199q83 0 137 -55t54 -136q0 -80 -49 -132q-49 -54 -130 -59l183 -244q7 -7 7 -21q0 -34 -34 -34q-19 0 -29 16l-203 283h-101v-265zM312 862
q16 19 38 0q21 -20 3 -38l-97 -98q-15 -15 -30 -2q-16 14 -3 30z" />
    <glyph glyph-name="racute" unicode="&#x155;" horiz-adv-x="309" 
d="M129 386q35 80 139 80q31 0 31 -31t-31 -31q-67 0 -104 -43q-35 -43 -35 -113v-224q0 -32 -32 -32t-32 32v406q0 32 32 32t32 -32v-44zM223 658q16 19 38 0q21 -20 3 -38l-97 -98q-15 -15 -30 -2q-16 14 -3 30z" />
    <glyph glyph-name="Rcommaaccent" unicode="&#x156;" horiz-adv-x="546" 
d="M148 353h167q51 0 86 38q34 35 34 91q0 57 -34 92q-34 37 -89 37h-164v-258zM148 26q0 -34 -34 -34t-34 34v613q0 34 34 34h199q83 0 137 -55t54 -136q0 -80 -49 -132q-49 -54 -130 -59l183 -244q7 -7 7 -21q0 -34 -34 -34q-19 0 -29 16l-203 283h-101v-265zM281 -235
q-6 -6 -13 -6q-6 0 -11 5q-4 5 -2 14q11 36 11 55q0 21 -9 43q-9 23 -9 35q0 47 39 47q40 0 40 -58q0 -29 -12 -67q-13 -41 -34 -68z" />
    <glyph glyph-name="rcommaaccent" unicode="&#x157;" horiz-adv-x="309" 
d="M129 386q35 80 139 80q31 0 31 -31t-31 -31q-67 0 -104 -43q-35 -43 -35 -113v-224q0 -32 -32 -32t-32 32v406q0 32 32 32t32 -32v-44zM88 -235q-6 -6 -13 -6q-6 0 -11 5q-4 5 -2 14q11 36 11 55q0 21 -9 43q-9 23 -9 35q0 47 39 47q40 0 40 -58q0 -29 -12 -67
q-13 -41 -34 -68z" />
    <glyph glyph-name="Rcaron" unicode="&#x158;" horiz-adv-x="546" 
d="M148 353h167q51 0 86 38q34 35 34 91q0 57 -34 92q-34 37 -89 37h-164v-258zM148 26q0 -34 -34 -34t-34 34v613q0 34 34 34h199q83 0 137 -55t54 -136q0 -80 -49 -132q-49 -54 -130 -59l183 -244q7 -7 7 -21q0 -34 -34 -34q-19 0 -29 16l-203 283h-101v-265zM354 841l2 2
l3 2q6 2 11 2q24 0 24 -24q0 -11 -9 -19l-96 -79q-7 -6 -16 -6q-8 0 -16 6l-96 79q-9 8 -9 19q0 24 24 24q5 0 11 -2l3 -2l2 -2l81 -68z" />
    <glyph glyph-name="rcaron" unicode="&#x159;" horiz-adv-x="309" 
d="M129 386q35 80 139 80q31 0 31 -31t-31 -31q-67 0 -104 -43q-35 -43 -35 -113v-224q0 -32 -32 -32t-32 32v406q0 32 32 32t32 -32v-44zM249 621l2 2l3 2q6 2 11 2q24 0 24 -24q0 -11 -9 -19l-96 -79q-7 -6 -16 -6q-8 0 -16 6l-96 79q-9 8 -9 19q0 24 24 24q5 0 11 -2
l3 -2l2 -2l81 -68z" />
    <glyph glyph-name="Sacute" unicode="&#x15a;" horiz-adv-x="558" 
d="M281 625q-74 0 -112 -33q-33 -28 -33 -76q0 -54 59 -89q21 -13 61 -27l34 -12l35 -12q91 -32 130 -65q59 -50 59 -131q0 -94 -62 -144t-178 -50q-82 0 -146 37q-61 35 -87 86q-5 12 -5 18q0 32 32 32q18 0 28 -16q59 -95 178 -95q172 0 172 132q0 62 -59 98
q-25 15 -61 28l-34 12l-35 11q-92 30 -130 61q-59 47 -59 126q0 74 52 120q57 51 161 51q145 0 214 -103q6 -9 6 -19q0 -32 -32 -32q-16 0 -26 13q-27 33 -61 53q-44 26 -101 26zM338 862q16 19 38 0q21 -20 3 -38l-97 -98q-15 -15 -30 -2q-16 14 -3 30z" />
    <glyph glyph-name="sacute" unicode="&#x15b;" horiz-adv-x="424" 
d="M159 289q17 -9 42 -18l24 -9l25 -8q63 -23 90 -46q41 -35 41 -88q0 -66 -49 -100q-47 -32 -121 -32q-56 0 -106 24q-42 19 -65 48q-7 10 -7 19q0 29 29 29q12 0 22 -10q49 -49 127 -49q106 0 106 71q0 33 -41 56q-16 8 -42 18l-24 8l-24 8q-64 24 -91 46q-41 35 -41 90
q0 61 45 92q41 29 108 29q104 0 152 -64l2 -3l3 -5q2 -6 2 -11q0 -29 -29 -29h-4l-5 2q-6 1 -12 7q-43 42 -109 42q-89 0 -89 -60q0 -34 41 -57zM254 658q16 19 38 0q21 -20 3 -38l-97 -98q-15 -15 -30 -2q-16 14 -3 30z" />
    <glyph glyph-name="Scircumflex" unicode="&#x15c;" horiz-adv-x="558" 
d="M281 625q-74 0 -112 -33q-33 -28 -33 -76q0 -54 59 -89q21 -13 61 -27l34 -12l35 -12q91 -32 130 -65q59 -50 59 -131q0 -94 -62 -144t-178 -50q-82 0 -146 37q-61 35 -87 86q-5 12 -5 18q0 32 32 32q18 0 28 -16q59 -95 178 -95q172 0 172 132q0 62 -59 98
q-25 15 -61 28l-34 12l-35 11q-92 30 -130 61q-59 47 -59 126q0 74 52 120q57 51 161 51q145 0 214 -103q6 -9 6 -19q0 -32 -32 -32q-16 0 -26 13q-27 33 -61 53q-44 26 -101 26zM283 793l-81 -68l-2 -2l-3 -2l-5 -1l-6 -1q-24 0 -24 24q0 12 9 19l96 79q8 6 16 6q9 0 16 -6
l96 -79q9 -7 9 -19q0 -24 -24 -24q-5 0 -11 2l-3 2l-2 2z" />
    <glyph glyph-name="scircumflex" unicode="&#x15d;" horiz-adv-x="424" 
d="M159 289q17 -9 42 -18l24 -9l25 -8q63 -23 90 -46q41 -35 41 -88q0 -66 -49 -100q-47 -32 -121 -32q-56 0 -106 24q-42 19 -65 48q-7 10 -7 19q0 29 29 29q12 0 22 -10q49 -49 127 -49q106 0 106 71q0 33 -41 56q-16 8 -42 18l-24 8l-24 8q-64 24 -91 46q-41 35 -41 90
q0 61 45 92q41 29 108 29q104 0 152 -64l2 -3l3 -5q2 -6 2 -11q0 -29 -29 -29h-4l-5 2q-6 1 -12 7q-43 42 -109 42q-89 0 -89 -60q0 -34 41 -57zM216 596l-81 -68l-2 -2l-3 -2l-5 -1l-6 -1q-24 0 -24 24q0 12 9 19l96 79q8 6 16 6q9 0 16 -6l96 -79q9 -7 9 -19
q0 -24 -24 -24q-5 0 -11 2l-3 2l-2 2z" />
    <glyph glyph-name="Scedilla" unicode="&#x15e;" horiz-adv-x="558" 
d="M220 -206q-6 4 -7 8q-1 2 -1 7q0 19 18 19q6 0 12 -3q19 -10 42 -10q28 0 40 9q13 10 13 37q0 46 -44 46q-5 0 -23 -2l-18 -2q-8 0 -13 5q-6 7 -5 17l2 63q-66 7 -122 43q-49 31 -73 78q-5 12 -5 18q0 32 32 32q18 0 28 -16q59 -95 178 -95q172 0 172 132q0 62 -59 98
q-25 15 -61 28l-34 12l-35 11q-92 30 -130 61q-59 47 -59 126q0 74 52 120q57 51 161 51q145 0 214 -103q6 -9 6 -19q0 -32 -32 -32q-16 0 -26 13q-27 33 -61 53q-44 26 -101 26q-74 0 -112 -33q-33 -28 -33 -76q0 -54 59 -89q21 -13 61 -27l34 -12l35 -12q91 -32 130 -65
q59 -50 59 -131q0 -94 -63 -144q-62 -50 -180 -50l-4 -45q24 2 27 2q87 0 87 -82q0 -85 -97 -85q-38 0 -64 18z" />
    <glyph glyph-name="scedilla" unicode="&#x15f;" horiz-adv-x="424" 
d="M151 -206q-6 4 -7 8q-1 2 -1 7q0 19 18 19q6 0 12 -3q19 -10 42 -10q28 0 40 9q13 10 13 37q0 46 -44 46q-5 0 -23 -2l-9 -1l-9 -1q-8 0 -13 5q-6 7 -5 17l2 67q-84 13 -127 68q-7 10 -7 19q0 29 29 29q12 0 22 -10q49 -49 127 -49q106 0 106 71q0 33 -41 56
q-16 8 -42 18l-24 8l-24 8q-64 24 -91 46q-41 35 -41 90q0 61 45 92q41 29 108 29q104 0 152 -64l2 -3l3 -5q2 -6 2 -11q0 -29 -29 -29h-4l-5 2q-6 1 -12 7q-43 42 -109 42q-89 0 -89 -60q0 -34 41 -57q17 -9 42 -18l24 -9l25 -8q63 -23 90 -46q41 -35 41 -88
q0 -65 -50 -100q-47 -32 -129 -32l-4 -47q24 2 27 2q87 0 87 -82q0 -85 -97 -85q-38 0 -64 18z" />
    <glyph glyph-name="Scaron" unicode="&#x160;" horiz-adv-x="558" 
d="M281 625q-74 0 -112 -33q-33 -28 -33 -76q0 -54 59 -89q21 -13 61 -27l34 -12l35 -12q91 -32 130 -65q59 -50 59 -131q0 -94 -62 -144t-178 -50q-82 0 -146 37q-61 35 -87 86q-5 12 -5 18q0 32 32 32q18 0 28 -16q59 -95 178 -95q172 0 172 132q0 62 -59 98
q-25 15 -61 28l-34 12l-35 11q-92 30 -130 61q-59 47 -59 126q0 74 52 120q57 51 161 51q145 0 214 -103q6 -9 6 -19q0 -32 -32 -32q-16 0 -26 13q-27 33 -61 53q-44 26 -101 26zM367 841l2 2l3 2q6 2 11 2q24 0 24 -24q0 -11 -9 -19l-96 -79q-7 -6 -16 -6q-8 0 -16 6
l-96 79q-9 8 -9 19q0 24 24 24l6 -1l5 -1l3 -2l2 -2l81 -68z" />
    <glyph glyph-name="scaron" unicode="&#x161;" horiz-adv-x="424" 
d="M159 289q17 -9 42 -18l24 -9l25 -8q63 -23 90 -46q41 -35 41 -88q0 -66 -49 -100q-47 -32 -121 -32q-56 0 -106 24q-42 19 -65 48q-7 10 -7 19q0 29 29 29q12 0 22 -10q49 -49 127 -49q106 0 106 71q0 33 -41 56q-16 8 -42 18l-24 8l-24 8q-64 24 -91 46q-41 35 -41 90
q0 61 45 92q41 29 108 29q104 0 152 -64l2 -3l3 -5q2 -6 2 -11q0 -29 -29 -29h-4l-5 2q-6 1 -12 7q-43 42 -109 42q-89 0 -89 -60q0 -34 41 -57zM293 621l2 2l3 2l5 1l6 1q24 0 24 -24q0 -11 -9 -19l-96 -79q-7 -6 -16 -6q-8 0 -16 6l-96 79q-9 8 -9 19q0 24 24 24
q5 0 11 -2l3 -2l2 -2l81 -68z" />
    <glyph glyph-name="Tcedilla" unicode="&#x162;" horiz-adv-x="538" 
d="M56 609q-32 0 -32 32t32 32h425q32 0 32 -32t-32 -32h-178v-583q0 -29 -28 -33l-11 -52q24 2 27 2q87 0 87 -82q0 -85 -97 -85q-38 0 -64 18q-6 4 -7 8q-1 2 -1 7q0 19 18 19q6 0 12 -3q19 -10 42 -10q28 0 40 9q13 10 13 37q0 46 -44 46q-4 0 -10 -1l-13 -1l-9 -1l-9 -1
q-8 0 -13 5q-6 7 -5 17l12 79q-8 11 -8 22v583h-179z" />
    <glyph glyph-name="tcedilla" unicode="&#x163;" horiz-adv-x="279" 
d="M90 559q0 13 10 22q9 10 22 10t23 -10q9 -9 9 -22v-105h65q30 0 30 -30t-30 -30h-65v-276q0 -66 58 -66q31 0 31 -30t-31 -30q-17 0 -39 5l-12 -56l8 1h8q7 1 11 1q87 0 87 -82q0 -85 -97 -85q-38 0 -64 18q-6 4 -7 8q-1 2 -1 7q0 19 18 19q6 0 12 -3q19 -10 42 -10
q28 0 40 9q13 10 13 37q0 46 -44 46q-5 0 -23 -2l-9 -1l-9 -1q-8 0 -13 5q-6 7 -5 17l11 87q-49 34 -49 106v276h-39q-30 0 -30 30t30 30h39v105z" />
    <glyph glyph-name="Tcaron" unicode="&#x164;" horiz-adv-x="538" 
d="M56 609q-32 0 -32 32t32 32h425q32 0 32 -32t-32 -32h-178v-583q0 -34 -34 -34t-34 34v583h-179zM351 841l2 2l3 2q6 2 11 2q24 0 24 -24q0 -11 -9 -19l-96 -79q-7 -6 -16 -6q-8 0 -16 6l-96 79q-9 8 -9 19q0 24 24 24q5 0 11 -2l3 -2l2 -2l81 -68z" />
    <glyph glyph-name="tcaron" unicode="&#x165;" horiz-adv-x="279" 
d="M240 526q-6 -6 -13 -6q-6 0 -11 5q-4 5 -2 14q11 36 11 55q0 21 -9 43q-9 23 -9 35q0 47 39 47q40 0 40 -58q0 -29 -12 -67q-13 -41 -34 -68zM90 559q0 13 10 22q9 10 22 10t23 -10q9 -9 9 -22v-105h65q30 0 30 -30t-30 -30h-65v-276q0 -66 58 -66q31 0 31 -30t-31 -30
q-58 0 -91 36q-31 34 -31 90v276h-39q-30 0 -30 30t30 30h39v105z" />
    <glyph glyph-name="Tbar" unicode="&#x166;" horiz-adv-x="538" 
d="M56 609q-32 0 -32 32t32 32h425q32 0 32 -32t-32 -32h-178v-243h81q25 0 25 -25t-25 -25h-81v-290q0 -34 -34 -34t-34 34v290h-87q-25 0 -25 25t25 25h87v243h-179z" />
    <glyph glyph-name="tbar" unicode="&#x167;" horiz-adv-x="279" 
d="M154 275v-157q0 -66 58 -66q31 0 31 -30t-31 -30q-58 0 -91 36q-31 34 -31 90v157h-44q-25 0 -25 25t25 25h44v69h-39q-30 0 -30 30t30 30h39v105q0 13 10 22q9 10 22 10t23 -10q9 -9 9 -22v-105h65q30 0 30 -30t-30 -30h-65v-69h70q25 0 25 -25t-25 -25h-70z" />
    <glyph glyph-name="Utilde" unicode="&#x168;" horiz-adv-x="625" 
d="M81 647q0 34 34 34t34 -34v-442q0 -155 167 -155q166 0 166 155v442q0 34 34 34t34 -34v-442q0 -219 -234 -219q-235 0 -235 219v442zM339 792l13 -6q15 -6 29 -6q25 0 46 28l3 3l4 4q5 4 13 4q24 0 24 -24q0 -6 -3 -12q-25 -52 -87 -52q-25 0 -62 20l-13 7l-14 6
q-15 6 -29 6q-25 0 -46 -28l-3 -3l-4 -4q-5 -4 -13 -4q-24 0 -24 24q0 6 3 12q25 52 87 52q27 0 62 -19z" />
    <glyph glyph-name="utilde" unicode="&#x169;" horiz-adv-x="486" 
d="M119 430v-261q0 -121 122 -121t122 121v261q0 32 33 32q31 0 31 -32v-261q0 -182 -186 -182t-186 182v261q0 32 32 32q13 0 22 -9q10 -10 10 -23zM228 609l7 -3l16 -8q38 -20 56 -20q25 0 46 28l3 3l4 4q5 4 13 4q24 0 24 -24q0 -6 -3 -12q-25 -52 -87 -52q-17 0 -34 6
q-7 3 -12 6q-8 3 -16 8q-35 19 -56 19q-25 0 -46 -28l-3 -3l-4 -4q-5 -4 -13 -4q-24 0 -24 24q0 6 3 12q25 52 87 52q17 0 33 -6z" />
    <glyph glyph-name="Umacron" unicode="&#x16a;" horiz-adv-x="624" 
d="M80 647q0 34 34 34t34 -34v-442q0 -155 167 -155q166 0 166 155v442q0 34 34 34t34 -34v-442q0 -219 -234 -219q-235 0 -235 219v442zM227 733q-25 0 -25 25t25 25h186q25 0 25 -25t-25 -25h-186z" />
    <glyph glyph-name="umacron" unicode="&#x16b;" horiz-adv-x="486" 
d="M119 430v-261q0 -121 122 -121t122 121v261q0 32 33 32q31 0 31 -32v-261q0 -182 -186 -182t-186 182v261q0 32 32 32q13 0 22 -9q10 -10 10 -23zM156 537q-25 0 -25 25t25 25h186q25 0 25 -25t-25 -25h-186z" />
    <glyph glyph-name="Ubreve" unicode="&#x16c;" horiz-adv-x="624" 
d="M80 647q0 34 34 34t34 -34v-442q0 -155 167 -155q166 0 166 155v442q0 34 34 34t34 -34v-442q0 -219 -234 -219q-235 0 -235 219v442zM203 831q0 24 24 24t24 -24q0 -55 65 -55t65 55q0 24 24 24t24 -24q0 -52 -34 -77q-30 -24 -79 -24t-79 24q-34 25 -34 77z" />
    <glyph glyph-name="ubreve" unicode="&#x16d;" horiz-adv-x="486" 
d="M119 430v-261q0 -121 122 -121t122 121v261q0 32 33 32q31 0 31 -32v-261q0 -182 -186 -182t-186 182v261q0 32 32 32q13 0 22 -9q10 -10 10 -23zM128 630q0 24 24 24t24 -24q0 -55 65 -55t65 55q0 24 24 24t24 -24q0 -52 -34 -77q-30 -24 -79 -24t-79 24q-34 25 -34 77z
" />
    <glyph glyph-name="Uring" unicode="&#x16e;" horiz-adv-x="624" 
d="M80 647q0 34 34 34t34 -34v-442q0 -155 167 -155q166 0 166 155v442q0 34 34 34t34 -34v-442q0 -219 -234 -219q-235 0 -235 219v442zM322 899q104 0 104 -98t-104 -98t-104 98t104 98zM322 741q62 0 62 60t-62 60t-62 -60t62 -60z" />
    <glyph glyph-name="uring" unicode="&#x16f;" horiz-adv-x="486" 
d="M119 430v-261q0 -121 122 -121t122 121v261q0 32 33 32q31 0 31 -32v-261q0 -182 -186 -182t-186 182v261q0 32 32 32q13 0 22 -9q10 -10 10 -23zM245 698q104 0 104 -98t-104 -98t-104 98t104 98zM245 540q62 0 62 60t-62 60t-62 -60t62 -60z" />
    <glyph glyph-name="Uhungarumlaut" unicode="&#x170;" horiz-adv-x="624" 
d="M75 647q0 34 34 34t34 -34v-442q0 -155 167 -155q166 0 166 155v442q0 34 34 34t34 -34v-442q0 -219 -234 -219q-235 0 -235 219v442zM308 862q16 19 38 0q21 -20 3 -38l-97 -98q-15 -15 -30 -2q-16 14 -3 30zM417 862q16 19 38 0q21 -20 3 -38l-97 -98q-15 -15 -30 -2
q-16 14 -3 30z" />
    <glyph glyph-name="uhungarumlaut" unicode="&#x171;" horiz-adv-x="486" 
d="M119 430v-261q0 -121 122 -121t122 121v261q0 32 33 32q31 0 31 -32v-261q0 -182 -186 -182t-186 182v261q0 32 32 32q13 0 22 -9q10 -10 10 -23zM242 658q16 19 38 0q21 -20 3 -38l-97 -98q-15 -15 -30 -2q-16 14 -3 30zM351 658q16 19 38 0q21 -20 3 -38l-97 -98
q-15 -15 -30 -2q-16 14 -3 30z" />
    <glyph glyph-name="Uogonek" unicode="&#x172;" horiz-adv-x="624" 
d="M470 -172q-24 -11 -55 -11q-89 0 -89 75q0 48 55 100q-30 -6 -66 -6q-235 0 -235 219v442q0 34 34 34t34 -34v-442q0 -155 167 -155q166 0 166 155v442q0 34 34 34t34 -34v-442q0 -127 -81 -181q-92 -71 -92 -124q0 -37 41 -37q13 0 26 3q7 2 13 3l3 1h2q22 0 22 -22
q0 -14 -13 -20z" />
    <glyph glyph-name="uogonek" unicode="&#x173;" horiz-adv-x="482" 
d="M379 -172q-24 -11 -55 -11q-89 0 -89 75q0 47 55 99q-27 -4 -49 -4q-186 0 -186 182v261q0 32 32 32q13 0 22 -9q10 -10 10 -23v-261q0 -121 122 -121t122 121v261q0 32 33 32q31 0 31 -32v-261q0 -101 -57 -148q-85 -67 -85 -121q0 -37 41 -37q13 0 26 3q7 2 13 3l3 1h2
q22 0 22 -22q0 -14 -13 -20z" />
    <glyph glyph-name="Wcircumflex" unicode="&#x174;" horiz-adv-x="818" 
d="M409 527l-144 -509q-6 -26 -33 -26q-26 0 -33 25l-177 618q-2 10 -2 12q0 34 34 34q12 0 23 -8q7 -7 10 -17l146 -517l143 517q6 25 33 25t33 -25l143 -517l146 517q2 8 11 17q10 8 22 8q34 0 34 -34q0 -2 -2 -12l-177 -618q-7 -25 -33 -25q-25 0 -33 26zM409 793
l-81 -68l-2 -2l-3 -2l-5 -1l-6 -1q-24 0 -24 24q0 12 9 19l96 79q8 6 16 6q9 0 16 -6l96 -79q9 -7 9 -19q0 -24 -24 -24q-5 0 -11 2l-3 2l-2 2z" />
    <glyph glyph-name="wcircumflex" unicode="&#x175;" horiz-adv-x="640" 
d="M320 332l-92 -317q-8 -23 -31 -23q-22 0 -30 21l-147 403q-3 8 -3 14q0 32 32 32q23 0 30 -21l116 -331l95 331q4 9 10 14q7 7 20 7t20 -7q6 -5 10 -14l95 -331l116 331q8 21 30 21q32 0 32 -32q0 -6 -3 -14l-147 -403q-7 -21 -30 -21t-31 23zM320 596l-81 -68l-2 -2
l-3 -2q-6 -2 -11 -2q-24 0 -24 24q0 12 9 19l96 79q8 6 16 6q9 0 16 -6l96 -79q9 -7 9 -19q0 -24 -24 -24l-6 1l-5 1l-3 2l-2 2z" />
    <glyph glyph-name="Ycircumflex" unicode="&#x176;" 
d="M225 313l-201 316q-5 8 -5 18q0 34 34 34q19 0 29 -16l177 -284l177 284q10 16 29 16q34 0 34 -34q0 -10 -5 -18l-201 -316v-287q0 -34 -34 -34t-34 34v287zM259 793l-81 -68l-2 -2l-3 -2l-5 -1l-6 -1q-24 0 -24 24q0 12 9 19l96 79q8 6 16 6q9 0 16 -6l96 -79
q9 -7 9 -19q0 -24 -24 -24q-5 0 -11 2l-3 2l-2 2z" />
    <glyph glyph-name="ycircumflex" unicode="&#x177;" horiz-adv-x="438" 
d="M186 19l-167 397l-1 2l-1 4q-1 3 -1 8q0 32 32 32q13 0 20 -7q5 -4 10 -14l141 -345l141 345q5 10 10 14q7 7 20 7q32 0 32 -32q0 -5 -1 -8l-1 -4l-1 -2l-197 -469q-31 -75 -73 -111q-44 -37 -114 -37q-30 0 -30 30t30 30q59 0 93 42q20 26 58 118zM219 596l-81 -68
l-2 -2l-3 -2l-5 -1l-6 -1q-24 0 -24 24q0 12 9 19l96 79q8 6 16 6q9 0 16 -6l96 -79q9 -7 9 -19q0 -24 -24 -24q-5 0 -11 2l-3 2l-2 2z" />
    <glyph glyph-name="Ydieresis" unicode="&#x178;" 
d="M225 313l-201 316q-5 8 -5 18q0 34 34 34q19 0 29 -16l177 -284l177 284q10 16 29 16q34 0 34 -34q0 -10 -5 -18l-201 -316v-287q0 -34 -34 -34t-34 34v287zM180 816q36 0 36 -38q0 -37 -36 -37t-36 37q0 38 36 38zM337 816q36 0 36 -38q0 -37 -36 -37t-36 37q0 38 36 38
z" />
    <glyph glyph-name="Zacute" unicode="&#x179;" horiz-adv-x="513" 
d="M49 0q-32 0 -32 32q0 10 6 19l372 558h-325q-32 0 -32 32t32 32h384q32 0 32 -32q0 -10 -6 -19l-369 -558h358q32 0 32 -32t-32 -32h-420zM307 862q16 19 38 0q21 -20 3 -38l-97 -98q-15 -15 -30 -2q-16 14 -3 30z" />
    <glyph glyph-name="zacute" unicode="&#x17a;" horiz-adv-x="405" 
d="M342 454q30 0 30 -30q0 -4 -2 -12l-2 -4l-3 -4l-249 -342h231q31 0 31 -31t-31 -31h-293q-30 0 -30 30q0 12 7 20l252 344h-215q-30 0 -30 30t30 30h274zM237 658q16 19 38 0q21 -20 3 -38l-97 -98q-15 -15 -30 -2q-16 14 -3 30z" />
    <glyph glyph-name="Zdotaccent" unicode="&#x17b;" horiz-adv-x="513" 
d="M49 0q-32 0 -32 32q0 10 6 19l372 558h-325q-32 0 -32 32t32 32h384q32 0 32 -32q0 -10 -6 -19l-369 -558h358q32 0 32 -32t-32 -32h-420zM260 815q38 0 38 -40q0 -39 -38 -39t-38 39q0 40 38 40z" />
    <glyph glyph-name="zdotaccent" unicode="&#x17c;" horiz-adv-x="405" 
d="M342 454q30 0 30 -30q0 -4 -2 -12l-2 -4l-3 -4l-249 -342h231q31 0 31 -31t-31 -31h-293q-30 0 -30 30q0 12 7 20l252 344h-215q-30 0 -30 30t30 30h274zM209 623q38 0 38 -40q0 -39 -38 -39t-38 39q0 40 38 40z" />
    <glyph glyph-name="Zcaron" unicode="&#x17d;" horiz-adv-x="513" 
d="M49 0q-32 0 -32 32q0 10 6 19l372 558h-325q-32 0 -32 32t32 32h384q32 0 32 -32q0 -10 -6 -19l-369 -558h358q32 0 32 -32t-32 -32h-420zM351 841l2 2l3 2q6 2 11 2q24 0 24 -24q0 -11 -9 -19l-96 -79q-7 -6 -16 -6q-8 0 -16 6l-96 79q-9 8 -9 19q0 24 24 24q5 0 11 -2
l3 -2l2 -2l81 -68z" />
    <glyph glyph-name="zcaron" unicode="&#x17e;" horiz-adv-x="405" 
d="M342 454q30 0 30 -30q0 -4 -2 -12l-2 -4l-3 -4l-249 -342h231q31 0 31 -31t-31 -31h-293q-30 0 -30 30q0 12 7 20l252 344h-215q-30 0 -30 30t30 30h274zM293 621l2 2l3 2l5 1l6 1q24 0 24 -24q0 -11 -9 -19l-96 -79q-7 -6 -16 -6q-8 0 -16 6l-96 79q-9 8 -9 19
q0 24 24 24q5 0 11 -2l3 -2l2 -2l81 -68z" />
    <glyph glyph-name="longs" unicode="&#x17f;" horiz-adv-x="224" 
d="M51 394q-30 0 -30 30t30 30h34v59q0 73 41 120q46 52 132 52q30 0 30 -30t-30 -30q-109 0 -109 -112v-489q0 -32 -32 -32t-32 32v370h-34z" />
    <glyph glyph-name="florin" unicode="&#x192;" horiz-adv-x="410" 
d="M382 620q-30 13 -59 13q-80 0 -101 -112l-22 -123h97q27 0 27 -27t-27 -27h-106l-62 -344q-36 -201 -208 -201q-35 0 -65 11q-22 7 -22 27q0 27 27 27q3 0 11 -2q32 -9 54 -9q114 0 139 138l63 353h-65q-27 0 -27 27t27 27h74l21 115q32 174 165 174q31 0 52 -7
q19 -4 34 -15q15 -10 15 -25q0 -25 -25 -25q-4 0 -17 5z" />
    <glyph glyph-name="Ohorn" unicode="&#x1a0;" horiz-adv-x="701" 
d="M356 48q242 0 242 288q0 289 -242 289t-242 -289q0 -288 242 -288zM668 336q0 -172 -83 -263q-81 -87 -229 -87t-229 87q-83 91 -83 263q0 173 83 264q80 87 229 87q150 0 229 -87l10 -12l10 -13q9 23 9 41q0 20 -18 42q-18 23 -18 44q0 48 47 48q49 0 49 -64
q0 -84 -46 -148q40 -80 40 -202z" />
    <glyph glyph-name="ohorn" unicode="&#x1a1;" horiz-adv-x="499" 
d="M245 410q-145 0 -145 -182q0 -183 145 -183t145 183q0 182 -145 182zM455 228q0 -241 -210 -241q-99 0 -153 59q-57 62 -57 182q0 121 57 182q52 58 153 58q133 0 183 -98q9 20 9 38q0 14 -14 33q-15 20 -15 36q0 38 38 38q39 0 39 -51q0 -71 -44 -127q14 -48 14 -109z
" />
    <glyph glyph-name="Uhorn" unicode="&#x1af;" horiz-adv-x="637" 
d="M549 205q0 -219 -234 -219q-235 0 -235 219v442q0 34 34 34t34 -34v-442q0 -155 167 -155q166 0 166 155v442q0 34 34 34t34 -34v-30q9 23 9 42q0 20 -18 42q-18 23 -18 44q0 48 47 48q49 0 49 -64q0 -102 -69 -176v-348z" />
    <glyph glyph-name="uhorn" unicode="&#x1b0;" horiz-adv-x="510" 
d="M427 169q0 -182 -186 -182t-186 182v261q0 32 32 32q13 0 22 -9q10 -10 10 -23v-261q0 -121 122 -121t122 121v261q0 32 33 32q31 0 31 -32q4 12 4 25q0 14 -14 33q-15 20 -15 36q0 38 38 38q39 0 39 -51q0 -79 -52 -137v-205z" />
    <glyph glyph-name="AEmacron" unicode="&#x1e2;" horiz-adv-x="841" 
d="M437 0q-34 0 -34 34v165h-211l-119 -191q-9 -16 -29 -16q-15 0 -25 10t-10 25q0 10 7 20l392 610q10 16 29 16h321q31 0 31 -31t-31 -31h-287v-241h220q31 0 31 -31t-31 -31h-220v-246h298q31 0 31 -31t-31 -31h-332zM403 261v280l-175 -280h175zM442 741q-25 0 -25 25
t25 25h186q25 0 25 -25t-25 -25h-186z" />
    <glyph glyph-name="aemacron" unicode="&#x1e3;" horiz-adv-x="778" 
d="M90 343q-29 0 -29 29q0 9 5 17q49 79 166 79q114 0 158 -80q53 80 163 80q106 0 156 -71q19 -26 28 -63q7 -27 7 -59v-11l-1 -11q-2 -15 -4 -21q-9 -21 -35 -21h-292q0 -76 40 -120q41 -45 111 -45q38 0 71 14q20 8 49 29q9 6 18 6q29 0 29 -29q0 -12 -11 -23
q-7 -7 -18 -15q-18 -13 -32 -19q-47 -22 -106 -22q-141 0 -179 99q-49 -99 -177 -99q-80 0 -126 37q-47 38 -47 106q0 64 47 102q47 35 128 35h141v31q0 51 -32 81q-32 29 -86 29q-68 0 -116 -51q-14 -14 -26 -14zM350 173v38h-141q-110 0 -110 -81q0 -85 114 -85
q55 0 95 32q42 36 42 96zM681 267q0 143 -128 143q-130 0 -141 -143h269zM297 555q-25 0 -25 25t25 25h186q25 0 25 -25t-25 -25h-186z" />
    <glyph glyph-name="Aringacute" unicode="&#x1fa;" horiz-adv-x="616" 
d="M168 199l-73 -183q-9 -24 -33 -24q-14 0 -24 10t-10 24v4l1 4l1 4l1 3l239 606q-67 16 -67 94q0 98 104 98t104 -98q0 -78 -67 -94l240 -606l1 -4l1 -4q1 -3 1 -7q0 -34 -35 -34q-24 0 -33 23l-72 184h-279zM307 567l-118 -306h237zM307 681q62 0 62 60t-62 60t-62 -60
t62 -60zM330 1006q16 19 38 0q21 -20 3 -38l-97 -98q-15 -15 -30 -2q-16 14 -3 30z" />
    <glyph glyph-name="aringacute" unicode="&#x1fb;" horiz-adv-x="467" 
d="M90 343q-29 0 -29 29q0 9 5 17q49 79 166 79q85 0 134 -47q46 -45 46 -123v-275q0 -31 -31 -31t-31 31v36q-37 -72 -143 -72q-80 0 -126 37q-47 38 -47 106q0 66 47 104q46 37 128 37h141v27q0 51 -32 81q-32 29 -86 29q-71 0 -116 -51q-14 -14 -26 -14zM350 173v42h-141
q-110 0 -110 -85t114 -85q55 0 95 32q42 36 42 96zM231 685q104 0 104 -98t-104 -98t-104 98t104 98zM231 527q62 0 62 60t-62 60t-62 -60t62 -60zM251 847q16 19 38 0q21 -20 3 -38l-97 -98q-15 -15 -30 -2q-16 14 -3 30z" />
    <glyph glyph-name="AEacute" unicode="&#x1fc;" horiz-adv-x="841" 
d="M437 0q-34 0 -34 34v165h-211l-119 -191q-9 -16 -29 -16q-15 0 -25 10t-10 25q0 10 7 20l392 610q10 16 29 16h321q31 0 31 -31t-31 -31h-287v-241h220q31 0 31 -31t-31 -31h-220v-246h298q31 0 31 -31t-31 -31h-332zM403 261v280l-175 -280h175zM605 862q16 19 38 0
q21 -20 3 -38l-97 -98q-15 -15 -30 -2q-16 14 -3 30z" />
    <glyph glyph-name="aeacute" unicode="&#x1fd;" horiz-adv-x="778" 
d="M90 343q-29 0 -29 29q0 9 5 17q49 79 166 79q114 0 158 -80q53 80 163 80q106 0 156 -71q19 -26 28 -63q7 -27 7 -59v-11l-1 -11q-2 -15 -4 -21q-9 -21 -35 -21h-292q0 -76 40 -120q41 -45 111 -45q38 0 71 14q20 8 49 29q9 6 18 6q29 0 29 -29q0 -12 -11 -23
q-7 -7 -18 -15q-18 -13 -32 -19q-47 -22 -106 -22q-141 0 -179 99q-49 -99 -177 -99q-80 0 -126 37q-47 38 -47 106q0 64 47 102q47 35 128 35h141v31q0 51 -32 81q-32 29 -86 29q-68 0 -116 -51q-14 -14 -26 -14zM350 173v38h-141q-110 0 -110 -81q0 -85 114 -85
q55 0 95 32q42 36 42 96zM681 267q0 143 -128 143q-130 0 -141 -143h269zM426 676q16 19 38 0q21 -20 3 -38l-97 -98q-15 -15 -30 -2q-16 14 -3 30z" />
    <glyph glyph-name="Oslashacute" unicode="&#x1fe;" horiz-adv-x="709" 
d="M111 -16q-7 -10 -20 -10q-27 0 -27 27q0 5 1 7q2 6 4 8l51 64q-76 89 -76 256q0 176 82 264q80 87 228 87q120 0 197 -59l46 58q7 10 20 10q27 0 27 -27q0 -5 -1 -7q-2 -6 -4 -8l-49 -62q75 -91 75 -256q0 -174 -82 -263q-79 -87 -229 -87q-123 0 -196 58zM163 136
l347 439q-62 50 -156 50q-240 0 -240 -289q0 -129 49 -200zM199 96q59 -48 155 -48q241 0 241 288q0 128 -49 199zM385 862q16 19 38 0q21 -20 3 -38l-97 -98q-15 -15 -30 -2q-16 14 -3 30z" />
    <glyph glyph-name="oslashacute" unicode="&#x1ff;" horiz-adv-x="490" 
d="M424 460q8 8 19 8q26 0 26 -26q0 -11 -8 -19l-41 -43q35 -59 35 -152q0 -241 -210 -241q-92 0 -145 50l-36 -38q-7 -7 -18 -7q-26 0 -26 26q0 11 8 19l39 42q-32 59 -32 149q0 121 57 182q52 58 153 58q90 0 142 -48zM373 329l-230 -246q35 -38 102 -38q145 0 145 183
q0 59 -17 101zM344 374q-37 36 -99 36q-145 0 -145 -182q0 -59 15 -98zM286 658q16 19 38 0q21 -20 3 -38l-97 -98q-15 -15 -30 -2q-16 14 -3 30z" />
    <glyph glyph-name="Scommaaccent" unicode="&#x218;" horiz-adv-x="558" 
d="M281 625q-74 0 -112 -33q-33 -28 -33 -76q0 -54 59 -89q21 -13 61 -27l34 -12l35 -12q91 -32 130 -65q59 -50 59 -131q0 -94 -62 -144t-178 -50q-82 0 -146 37q-61 35 -87 86q-5 12 -5 18q0 32 32 32q18 0 28 -16q59 -95 178 -95q172 0 172 132q0 62 -59 98
q-25 15 -61 28l-34 12l-35 11q-92 30 -130 61q-59 47 -59 126q0 74 52 120q57 51 161 51q145 0 214 -103q6 -9 6 -19q0 -32 -32 -32q-16 0 -26 13q-27 33 -61 53q-44 26 -101 26zM281 -235q-6 -6 -13 -6q-6 0 -11 5q-4 5 -2 14q11 36 11 55q0 21 -9 43q-9 23 -9 35
q0 47 39 47q40 0 40 -58q0 -29 -12 -67q-13 -41 -34 -68z" />
    <glyph glyph-name="scommaaccent" unicode="&#x219;" horiz-adv-x="424" 
d="M159 289q17 -9 42 -18l24 -9l25 -8q63 -23 90 -46q41 -35 41 -88q0 -66 -49 -100q-47 -32 -121 -32q-56 0 -106 24q-42 19 -65 48q-7 10 -7 19q0 29 29 29q12 0 22 -10q49 -49 127 -49q106 0 106 71q0 33 -41 56q-16 8 -42 18l-24 8l-24 8q-64 24 -91 46q-41 35 -41 90
q0 61 45 92q41 29 108 29q104 0 152 -64l2 -3l3 -5q2 -6 2 -11q0 -29 -29 -29h-4l-5 2q-6 1 -12 7q-43 42 -109 42q-89 0 -89 -60q0 -34 41 -57zM203 -235q-6 -6 -13 -6q-6 0 -11 5q-4 5 -2 14q11 36 11 55q0 21 -9 43q-9 23 -9 35q0 47 39 47q40 0 40 -58q0 -29 -12 -67
q-13 -41 -34 -68z" />
    <glyph glyph-name="Tcommaaccent" unicode="&#x21a;" horiz-adv-x="538" 
d="M56 609q-32 0 -32 32t32 32h425q32 0 32 -32t-32 -32h-178v-583q0 -34 -34 -34t-34 34v583h-179zM259 -235q-6 -6 -13 -6q-6 0 -11 5q-4 5 -2 14q11 36 11 55q0 12 -3 24q-2 9 -6 19q-9 23 -9 35q0 47 39 47q40 0 40 -58q0 -29 -12 -67q-13 -41 -34 -68z" />
    <glyph glyph-name="tcommaaccent" unicode="&#x21b;" horiz-adv-x="279" 
d="M90 559q0 13 10 22q9 10 22 10t23 -10q9 -9 9 -22v-105h65q30 0 30 -30t-30 -30h-65v-276q0 -66 58 -66q31 0 31 -30t-31 -30q-58 0 -91 36q-31 34 -31 90v276h-39q-30 0 -30 30t30 30h39v105zM153 -235q-6 -6 -13 -6q-6 0 -11 5q-4 5 -2 14q11 36 11 55q0 21 -9 43
q-9 23 -9 35q0 47 39 47q40 0 40 -58q0 -29 -12 -67q-13 -41 -34 -68z" />
    <glyph glyph-name="uni0237" unicode="&#x237;" horiz-adv-x="194" 
d="M65 430q0 32 32 32t32 -32v-465q0 -63 -41 -106q-42 -44 -105 -44q-30 0 -30 30t30 30q36 0 59 26t23 64v465z" />
    <glyph glyph-name="circumflex" unicode="&#x2c6;" horiz-adv-x="334" 
d="M167 596l-81 -68l-2 -2l-3 -2q-6 -2 -11 -2q-24 0 -24 24q0 12 9 19l96 79q8 6 16 6q9 0 16 -6l96 -79q9 -7 9 -19q0 -24 -24 -24l-6 1l-5 1l-3 2l-2 2z" />
    <glyph glyph-name="caron" unicode="&#x2c7;" horiz-adv-x="330" 
d="M248 621l2 2l3 2l5 1l6 1q24 0 24 -24q0 -11 -9 -19l-96 -79q-7 -6 -16 -6q-8 0 -16 6l-96 79q-9 8 -9 19q0 24 24 24q5 0 11 -2l3 -2l2 -2l81 -68z" />
    <glyph glyph-name="breve" unicode="&#x2d8;" horiz-adv-x="315" 
d="M44 630q0 24 24 24t24 -24q0 -55 65 -55t65 55q0 24 24 24t24 -24q0 -52 -34 -77q-30 -24 -79 -24t-79 24q-34 25 -34 77z" />
    <glyph glyph-name="dotaccent" unicode="&#x2d9;" horiz-adv-x="277" 
d="M138 623q38 0 38 -40q0 -39 -38 -39t-38 39q0 40 38 40z" />
    <glyph glyph-name="ring" unicode="&#x2da;" horiz-adv-x="267" 
d="M133 698q104 0 104 -98t-104 -98t-104 98t104 98zM133 540q62 0 62 60t-62 60t-62 -60t62 -60z" />
    <glyph glyph-name="ogonek" unicode="&#x2db;" horiz-adv-x="308" 
d="M213 -172q-24 -11 -55 -11q-89 0 -89 75q0 72 94 108h49q-93 -43 -93 -100q0 -37 41 -37q13 0 26 3q7 2 13 3l3 1h2q22 0 22 -22q0 -14 -13 -20z" />
    <glyph glyph-name="tilde" unicode="&#x2dc;" horiz-adv-x="378" 
d="M206 590l13 -6q15 -6 29 -6q25 0 46 28l3 3l4 4q5 4 13 4q24 0 24 -24q0 -6 -3 -12q-25 -52 -87 -52q-17 0 -34 6q-7 3 -12 6q-8 3 -16 8q-35 19 -56 19q-25 0 -46 -28l-3 -3l-4 -4q-5 -4 -13 -4q-24 0 -24 24q0 6 3 12q25 52 87 52q27 0 62 -19z" />
    <glyph glyph-name="hungarumlaut" unicode="&#x2dd;" horiz-adv-x="489" 
d="M205 658q16 19 38 0q21 -20 3 -38l-97 -98q-15 -15 -30 -2q-16 14 -3 30zM314 658q16 19 38 0q21 -20 3 -38l-97 -98q-15 -15 -30 -2q-16 14 -3 30z" />
    <glyph glyph-name="gravecomb" unicode="&#x300;" horiz-adv-x="0" 
d="M-334 620q-18 18 3 38q22 19 38 0l89 -108q14 -16 -3 -30q-15 -13 -30 2z" />
    <glyph glyph-name="acutecomb" unicode="&#x301;" horiz-adv-x="0" 
d="M-232 658q16 19 38 0q21 -20 3 -38l-97 -98q-15 -15 -30 -2q-16 14 -3 30z" />
    <glyph glyph-name="tildecomb" unicode="&#x303;" horiz-adv-x="0" 
d="M-205 590l13 -6q15 -6 29 -6q25 0 46 28l3 3l4 4q5 4 13 4q24 0 24 -24q0 -6 -3 -12q-25 -52 -87 -52q-17 0 -34 6q-7 3 -12 6q-8 3 -16 8q-35 19 -56 19q-25 0 -46 -28l-3 -3l-4 -4q-5 -4 -13 -4q-24 0 -24 24q0 6 3 12q25 52 87 52q27 0 62 -19z" />
    <glyph glyph-name="hookabovecomb" unicode="&#x309;" horiz-adv-x="0" 
d="M-210 603q3 4 13 12l7 4l7 5q17 10 24 19q10 10 10 26q0 31 -40 31q-37 0 -37 -35q0 -8 -6 -14t-15 -6q-8 0 -14 6t-6 14q0 35 21 54q20 19 57 19t58 -18q22 -18 22 -51q0 -41 -41 -70l-7 -4l-6 -5l-7 -4l-5 -4q-8 -8 -8 -12q0 -6 4 -10q4 -5 4 -13q0 -9 -7 -15
q-7 -5 -14 -5q-8 0 -14 6q-14 14 -14 37q0 19 14 33z" />
    <glyph glyph-name="uni031B" unicode="&#x31b;" horiz-adv-x="0" 
d="M-88 330q-15 0 -15 15q0 5 3 9q37 50 37 91q0 20 -18 42q-18 23 -18 44q0 48 47 48q49 0 49 -64q0 -104 -72 -179q-6 -6 -13 -6z" />
    <glyph glyph-name="dotbelowcomb" unicode="&#x323;" horiz-adv-x="0" 
d="M-226 -79q47 0 47 -48q0 -47 -47 -47t-47 47q0 48 47 48z" />
    <glyph glyph-name="Wgrave" unicode="&#x1e80;" horiz-adv-x="818" 
d="M409 527l-144 -509q-6 -26 -33 -26q-26 0 -33 25l-177 618q-2 10 -2 12q0 34 34 34q12 0 23 -8q7 -7 10 -17l146 -517l143 517q6 25 33 25t33 -25l143 -517l146 517q2 8 11 17q10 8 22 8q34 0 34 -34q0 -2 -2 -12l-177 -618q-7 -25 -33 -25q-25 0 -33 26zM349 824
q-18 18 3 38q22 19 38 0l89 -108q14 -16 -3 -30q-15 -13 -30 2z" />
    <glyph glyph-name="wgrave" unicode="&#x1e81;" horiz-adv-x="640" 
d="M320 332l-92 -317q-8 -23 -31 -23q-22 0 -30 21l-147 403q-3 8 -3 14q0 32 32 32q23 0 30 -21l116 -331l95 331q4 9 10 14q7 7 20 7t20 -7q6 -5 10 -14l95 -331l116 331q8 21 30 21q32 0 32 -32q0 -6 -3 -14l-147 -403q-7 -21 -30 -21t-31 23zM265 620q-18 18 3 38
q22 19 38 0l89 -108q14 -16 -3 -30q-15 -13 -30 2z" />
    <glyph glyph-name="Wacute" unicode="&#x1e82;" horiz-adv-x="818" 
d="M409 527l-144 -509q-6 -26 -33 -26q-26 0 -33 25l-177 618q-2 10 -2 12q0 34 34 34q12 0 23 -8q7 -7 10 -17l146 -517l143 517q6 25 33 25t33 -25l143 -517l146 517q2 8 11 17q10 8 22 8q34 0 34 -34q0 -2 -2 -12l-177 -618q-7 -25 -33 -25q-25 0 -33 26zM436 862
q16 19 38 0q21 -20 3 -38l-97 -98q-15 -15 -30 -2q-16 14 -3 30z" />
    <glyph glyph-name="wacute" unicode="&#x1e83;" horiz-adv-x="640" 
d="M320 332l-92 -317q-8 -23 -31 -23q-22 0 -30 21l-147 403q-3 8 -3 14q0 32 32 32q23 0 30 -21l116 -331l95 331q4 9 10 14q7 7 20 7t20 -7q6 -5 10 -14l95 -331l116 331q8 21 30 21q32 0 32 -32q0 -6 -3 -14l-147 -403q-7 -21 -30 -21t-31 23zM355 658q16 19 38 0
q21 -20 3 -38l-97 -98q-15 -15 -30 -2q-16 14 -3 30z" />
    <glyph glyph-name="Wdieresis" unicode="&#x1e84;" horiz-adv-x="818" 
d="M409 527l-144 -509q-6 -26 -33 -26q-26 0 -33 25l-177 618q-2 10 -2 12q0 34 34 34q12 0 23 -8q7 -7 10 -17l146 -517l143 517q6 25 33 25t33 -25l143 -517l146 517q2 8 11 17q10 8 22 8q34 0 34 -34q0 -2 -2 -12l-177 -618q-7 -25 -33 -25q-25 0 -33 26zM331 816
q36 0 36 -38q0 -37 -36 -37t-36 37q0 38 36 38zM488 816q36 0 36 -38q0 -37 -36 -37t-36 37q0 38 36 38z" />
    <glyph glyph-name="wdieresis" unicode="&#x1e85;" horiz-adv-x="640" 
d="M320 332l-92 -317q-8 -23 -31 -23q-22 0 -30 21l-147 403q-3 8 -3 14q0 32 32 32q23 0 30 -21l116 -331l95 331q4 9 10 14q7 7 20 7t20 -7q6 -5 10 -14l95 -331l116 331q8 21 30 21q32 0 32 -32q0 -6 -3 -14l-147 -403q-7 -21 -30 -21t-31 23zM242 609q36 0 36 -38
q0 -37 -36 -37t-36 37q0 38 36 38zM399 609q36 0 36 -38q0 -37 -36 -37t-36 37q0 38 36 38z" />
    <glyph glyph-name="uni1EA0" unicode="&#x1ea0;" horiz-adv-x="613" 
d="M306 567l-118 -306h237zM167 199l-73 -183q-9 -24 -33 -24q-14 0 -24 10t-10 24v4l1 4l1 4l1 3l244 617q11 23 32 23q22 0 33 -23l244 -617l1 -4l1 -4q1 -3 1 -7q0 -34 -35 -34q-24 0 -33 23l-72 184h-279zM307 -79q47 0 47 -48q0 -47 -47 -47t-47 47q0 48 47 48z" />
    <glyph glyph-name="uni1EA1" unicode="&#x1ea1;" horiz-adv-x="467" 
d="M90 343q-29 0 -29 29q0 9 5 17q49 79 166 79q85 0 134 -47q46 -45 46 -123v-275q0 -31 -31 -31t-31 31v36q-37 -72 -143 -72q-80 0 -126 37q-47 38 -47 106q0 66 47 104q46 37 128 37h141v27q0 51 -32 81q-32 29 -86 29q-71 0 -116 -51q-14 -14 -26 -14zM350 173v42h-141
q-110 0 -110 -85t114 -85q55 0 95 32q42 36 42 96zM223 -79q47 0 47 -48q0 -47 -47 -47t-47 47q0 48 47 48z" />
    <glyph glyph-name="uni1EA2" unicode="&#x1ea2;" horiz-adv-x="613" 
d="M306 567l-118 -306h237zM167 199l-73 -183q-9 -24 -33 -24q-14 0 -24 10t-10 24v4l1 4l1 4l1 3l244 617q11 23 32 23q22 0 33 -23l244 -617l1 -4l1 -4q1 -3 1 -7q0 -34 -35 -34q-24 0 -33 23l-72 184h-279zM304 822q3 4 13 12l7 4l7 5q17 10 24 19q10 10 10 26
q0 31 -40 31q-37 0 -37 -35q0 -8 -6 -14t-15 -6q-8 0 -14 6t-6 14q0 35 21 54q20 19 57 19t58 -18q22 -18 22 -51q0 -41 -41 -70l-7 -4l-6 -5l-7 -4l-5 -4q-8 -8 -8 -12q0 -6 4 -10q4 -5 4 -13q0 -9 -7 -15q-7 -5 -14 -5q-8 0 -14 6q-14 14 -14 37q0 19 14 33z" />
    <glyph glyph-name="uni1EA3" unicode="&#x1ea3;" horiz-adv-x="467" 
d="M90 343q-29 0 -29 29q0 9 5 17q49 79 166 79q85 0 134 -47q46 -45 46 -123v-275q0 -31 -31 -31t-31 31v36q-37 -72 -143 -72q-80 0 -126 37q-47 38 -47 106q0 66 47 104q46 37 128 37h141v27q0 51 -32 81q-32 29 -86 29q-71 0 -116 -51q-14 -14 -26 -14zM350 173v42h-141
q-110 0 -110 -85t114 -85q55 0 95 32q42 36 42 96zM220 603l6 6l7 6l7 4l7 5q17 10 24 19q10 10 10 26q0 31 -40 31q-37 0 -37 -35q0 -8 -6 -14t-15 -6q-8 0 -14 6t-6 14q0 35 21 54q20 19 57 19t58 -18q22 -18 22 -51q0 -41 -41 -70l-7 -4l-6 -5l-7 -4l-5 -4q-8 -8 -8 -12
q0 -6 4 -10q4 -5 4 -13q0 -9 -7 -15q-7 -5 -14 -5q-8 0 -14 6q-14 14 -14 37q0 19 14 33z" />
    <glyph glyph-name="uni1EA4" unicode="&#x1ea4;" horiz-adv-x="641" 
d="M306 567l-118 -306h237zM167 199l-73 -183q-9 -24 -33 -24q-14 0 -24 10t-10 24v4l1 4l1 4l1 3l244 617q11 23 32 23q22 0 33 -23l244 -617l1 -4l1 -4q1 -3 1 -7q0 -34 -35 -34q-24 0 -33 23l-72 184h-279zM515 947q16 19 38 0q21 -20 3 -38l-97 -98q-15 -15 -30 -2
q-16 14 -3 30zM306 793l-81 -68l-2 -2l-3 -2q-6 -2 -11 -2q-24 0 -24 24q0 12 9 19l96 79q8 6 16 6q9 0 16 -6l96 -79q9 -7 9 -19q0 -24 -24 -24q-5 0 -11 2l-3 2l-2 2z" />
    <glyph glyph-name="uni1EA5" unicode="&#x1ea5;" horiz-adv-x="467" 
d="M350 173v42h-141q-110 0 -110 -85t114 -85q55 0 95 32q42 36 42 96zM90 343q-29 0 -29 29q0 9 5 17q49 79 166 79q85 0 134 -47q46 -45 46 -123v-275q0 -31 -31 -31t-31 31v36q-37 -72 -143 -72q-80 0 -126 37q-47 38 -47 106q0 66 47 104q46 37 128 37h141v27
q0 51 -32 81q-32 29 -86 29q-71 0 -116 -51q-14 -14 -26 -14zM444 744q16 19 38 0q21 -20 3 -38l-97 -98q-15 -15 -30 -2q-16 14 -3 30zM233 596l-81 -68l-2 -2l-3 -2q-6 -2 -11 -2q-24 0 -24 24q0 12 9 19l96 79q8 6 16 6q9 0 16 -6l96 -79q9 -7 9 -19q0 -24 -24 -24l-6 1
l-5 1l-3 2l-2 2z" />
    <glyph glyph-name="uni1EA6" unicode="&#x1ea6;" horiz-adv-x="641" 
d="M306 567l-118 -306h237zM167 199l-73 -183q-9 -24 -33 -24q-14 0 -24 10t-10 24v4l1 4l1 4l1 3l244 617q11 23 32 23q22 0 33 -23l244 -617l1 -4l1 -4q1 -3 1 -7q0 -34 -35 -34q-24 0 -33 23l-72 184h-279zM57 909q-18 18 3 38q23 20 38 0l89 -108q14 -16 -3 -30
q-15 -13 -30 2zM306 793l-81 -68l-2 -2l-3 -2q-6 -2 -11 -2q-24 0 -24 24q0 12 9 19l96 79q8 6 16 6q9 0 16 -6l96 -79q9 -7 9 -19q0 -24 -24 -24q-5 0 -11 2l-3 2l-2 2z" />
    <glyph glyph-name="uni1EA7" unicode="&#x1ea7;" horiz-adv-x="467" 
d="M340 173v42h-141q-110 0 -110 -85t114 -85q55 0 95 32q42 36 42 96zM80 343q-29 0 -29 29q0 9 5 17q49 79 166 79q85 0 134 -47q46 -45 46 -123v-275q0 -31 -31 -31t-31 31v36q-37 -72 -143 -72q-80 0 -126 37q-47 38 -47 106q0 66 47 104q46 37 128 37h141v27
q0 51 -32 81q-32 29 -86 29q-71 0 -116 -51q-14 -14 -26 -14zM-29 706q-18 18 3 38q23 20 38 0l89 -108q14 -16 -3 -30q-15 -13 -30 2zM223 596l-81 -68l-2 -2l-3 -2q-6 -2 -11 -2q-24 0 -24 24q0 12 9 19l96 79q8 6 16 6q9 0 16 -6l96 -79q9 -7 9 -19q0 -24 -24 -24l-6 1
l-5 1l-3 2l-2 2z" />
    <glyph glyph-name="uni1EA8" unicode="&#x1ea8;" horiz-adv-x="641" 
d="M306 567l-118 -306h237zM167 199l-73 -183q-9 -24 -33 -24q-14 0 -24 10t-10 24v4l1 4l1 4l1 3l244 617q11 23 32 23q22 0 33 -23l244 -617l1 -4l1 -4q1 -3 1 -7q0 -34 -35 -34q-24 0 -33 23l-72 184h-279zM442 868q3 4 13 12l7 4l7 5q17 10 24 19q10 10 10 26
q0 31 -40 31q-37 0 -37 -35q0 -8 -6 -14t-15 -6q-8 0 -14 6t-6 14q0 35 21 54q20 19 57 19t58 -18q22 -18 22 -51q0 -41 -41 -70l-7 -4l-6 -5l-7 -4l-5 -4q-8 -8 -8 -12q0 -6 4 -10q4 -5 4 -13q0 -9 -7 -15q-7 -5 -14 -5q-8 0 -14 6q-14 14 -14 37q0 19 14 33zM306 793
l-81 -68l-2 -2l-3 -2q-6 -2 -11 -2q-24 0 -24 24q0 12 9 19l96 79q8 6 16 6q9 0 16 -6l96 -79q9 -7 9 -19q0 -24 -24 -24q-5 0 -11 2l-3 2l-2 2z" />
    <glyph glyph-name="uni1EA9" unicode="&#x1ea9;" horiz-adv-x="499" 
d="M350 173v42h-141q-110 0 -110 -85t114 -85q55 0 95 32q42 36 42 96zM90 343q-29 0 -29 29q0 9 5 17q49 79 166 79q85 0 134 -47q46 -45 46 -123v-275q0 -31 -31 -31t-31 31v36q-37 -72 -143 -72q-80 0 -126 37q-47 38 -47 106q0 66 47 104q46 37 128 37h141v27
q0 51 -32 81q-32 29 -86 29q-71 0 -116 -51q-14 -14 -26 -14zM359 681l6 6l7 6l7 4l7 5q17 10 24 19q10 10 10 26q0 31 -40 31q-37 0 -37 -35q0 -8 -6 -14t-15 -6q-8 0 -14 6t-6 14q0 35 21 54q20 19 57 19t58 -18q22 -18 22 -51q0 -41 -41 -70l-7 -4l-6 -5l-7 -4l-5 -4
q-8 -8 -8 -12q0 -6 4 -10q4 -5 4 -13q0 -9 -7 -15q-7 -5 -14 -5q-8 0 -14 6q-14 14 -14 37q0 19 14 33zM233 596l-81 -68l-2 -2l-3 -2q-6 -2 -11 -2q-24 0 -24 24q0 12 9 19l96 79q8 6 16 6q9 0 16 -6l96 -79q9 -7 9 -19q0 -24 -24 -24l-6 1l-5 1l-3 2l-2 2z" />
    <glyph glyph-name="uni1EAA" unicode="&#x1eaa;" horiz-adv-x="641" 
d="M306 567l-118 -306h237zM167 199l-73 -183q-9 -24 -33 -24q-14 0 -24 10t-10 24v4l1 4l1 4l1 3l244 617q11 23 32 23q22 0 33 -23l244 -617l1 -4l1 -4q1 -3 1 -7q0 -34 -35 -34q-24 0 -33 23l-72 184h-279zM342 928l13 -6q15 -6 29 -6q25 0 46 28l3 3l4 4q5 4 13 4
q24 0 24 -24q0 -6 -3 -12q-25 -52 -87 -52q-17 0 -34 6q-7 3 -12 6q-8 3 -16 8q-35 19 -56 19q-25 0 -46 -28l-3 -3l-4 -4q-5 -4 -13 -4q-24 0 -24 24q0 6 3 12q25 52 87 52q27 0 62 -19zM306 793l-81 -68l-2 -2l-3 -2q-6 -2 -11 -2q-24 0 -24 24q0 12 9 19l96 79q8 6 16 6
q9 0 16 -6l96 -79q9 -7 9 -19q0 -24 -24 -24q-5 0 -11 2l-3 2l-2 2z" />
    <glyph glyph-name="uni1EAB" unicode="&#x1eab;" horiz-adv-x="467" 
d="M350 173v42h-141q-110 0 -110 -85t114 -85q55 0 95 32q42 36 42 96zM90 343q-29 0 -29 29q0 9 5 17q49 79 166 79q85 0 134 -47q46 -45 46 -123v-275q0 -31 -31 -31t-31 31v36q-37 -72 -143 -72q-80 0 -126 37q-47 38 -47 106q0 66 47 104q46 37 128 37h141v27
q0 51 -32 81q-32 29 -86 29q-71 0 -116 -51q-14 -14 -26 -14zM273 733l13 -6q15 -6 29 -6q25 0 46 28l3 3l4 4q5 4 13 4q24 0 24 -24q0 -6 -3 -12q-25 -52 -87 -52q-17 0 -34 6q-7 3 -12 6q-8 3 -16 8q-35 19 -56 19q-25 0 -46 -28l-3 -3l-4 -4q-5 -4 -13 -4q-24 0 -24 24
q0 6 3 12q25 52 87 52q27 0 62 -19zM233 596l-81 -68l-2 -2l-3 -2q-6 -2 -11 -2q-24 0 -24 24q0 12 9 19l96 79q8 6 16 6q9 0 16 -6l96 -79q9 -7 9 -19q0 -24 -24 -24l-6 1l-5 1l-3 2l-2 2z" />
    <glyph glyph-name="uni1EAC" unicode="&#x1eac;" horiz-adv-x="613" 
d="M306 567l-118 -306h237zM167 199l-73 -183q-9 -24 -33 -24q-14 0 -24 10t-10 24v4l1 4l1 4l1 3l244 617q11 23 32 23q22 0 33 -23l244 -617l1 -4l1 -4q1 -3 1 -7q0 -34 -35 -34q-24 0 -33 23l-72 184h-279zM307 -79q47 0 47 -48q0 -47 -47 -47t-47 47q0 48 47 48z
M307 815l-81 -68l-3 -2l-3 -2q-6 -2 -10 -2q-24 0 -24 24q0 12 9 19l96 79q8 6 16 6q9 0 16 -6l96 -79q9 -7 9 -19q0 -24 -24 -24q-5 0 -11 2l-3 2l-2 2z" />
    <glyph glyph-name="uni1EAD" unicode="&#x1ead;" horiz-adv-x="467" 
d="M350 173v42h-141q-110 0 -110 -85t114 -85q55 0 95 32q42 36 42 96zM223 -79q47 0 47 -48q0 -47 -47 -47t-47 47q0 48 47 48zM233 596l-81 -68l-2 -2l-3 -2q-6 -2 -11 -2q-24 0 -24 24q0 12 9 19l96 79q8 6 16 6q9 0 16 -6l96 -79q9 -7 9 -19q0 -24 -24 -24l-6 1l-5 1
l-3 2l-2 2zM90 343q-29 0 -29 29q0 9 5 17q49 79 166 79q85 0 134 -47q46 -45 46 -123v-275q0 -31 -31 -31t-31 31v36q-37 -72 -143 -72q-80 0 -126 37q-47 38 -47 106q0 66 47 104q46 37 128 37h141v27q0 51 -32 81q-32 29 -86 29q-71 0 -116 -51q-14 -14 -26 -14z" />
    <glyph glyph-name="uni1EAE" unicode="&#x1eae;" horiz-adv-x="641" 
d="M306 567l-118 -306h237zM167 199l-73 -183q-9 -24 -33 -24q-14 0 -24 10t-10 24v4l1 4l1 4l1 3l244 617q11 23 32 23q22 0 33 -23l244 -617l1 -4l1 -4q1 -3 1 -7q0 -34 -35 -34q-24 0 -33 23l-72 184h-279zM376 992q16 19 38 0q21 -20 3 -38l-97 -98q-15 -15 -30 -2
q-16 14 -3 30zM193 831q0 24 24 24t24 -24q0 -55 65 -55t65 55q0 24 24 24t24 -24q0 -52 -34 -77q-30 -24 -79 -24t-79 24q-34 25 -34 77z" />
    <glyph glyph-name="uni1EAF" unicode="&#x1eaf;" horiz-adv-x="467" 
d="M350 173v42h-141q-110 0 -110 -85t114 -85q55 0 95 32q42 36 42 96zM90 343q-29 0 -29 29q0 9 5 17q49 79 166 79q85 0 134 -47q46 -45 46 -123v-275q0 -31 -31 -31t-31 31v36q-37 -72 -143 -72q-80 0 -126 37q-47 38 -47 106q0 66 47 104q46 37 128 37h141v27
q0 51 -32 81q-32 29 -86 29q-71 0 -116 -51q-14 -14 -26 -14zM309 793q16 19 38 0q21 -20 3 -38l-97 -98q-15 -15 -30 -2q-16 14 -3 30zM122 630q0 24 24 24t24 -24q0 -55 65 -55t65 55q0 24 24 24t24 -24q0 -52 -34 -77q-30 -24 -79 -24t-79 24q-34 25 -34 77z" />
    <glyph glyph-name="uni1EB0" unicode="&#x1eb0;" horiz-adv-x="641" 
d="M306 567l-118 -306h237zM167 199l-73 -183q-9 -24 -33 -24q-14 0 -24 10t-10 24v4l1 4l1 4l1 3l244 617q11 23 32 23q22 0 33 -23l244 -617l1 -4l1 -4q1 -3 1 -7q0 -34 -35 -34q-24 0 -33 23l-72 184h-279zM196 952q-18 18 3 38q23 20 38 0l89 -108q14 -16 -3 -30
q-15 -13 -30 2zM193 831q0 24 24 24t24 -24q0 -55 65 -55t65 55q0 24 24 24t24 -24q0 -52 -34 -77q-30 -24 -79 -24t-79 24q-34 25 -34 77z" />
    <glyph glyph-name="uni1EB1" unicode="&#x1eb1;" horiz-adv-x="467" 
d="M350 173v42h-141q-110 0 -110 -85t114 -85q55 0 95 32q42 36 42 96zM90 343q-29 0 -29 29q0 9 5 17q49 79 166 79q85 0 134 -47q46 -45 46 -123v-275q0 -31 -31 -31t-31 31v36q-37 -72 -143 -72q-80 0 -126 37q-47 38 -47 106q0 66 47 104q46 37 128 37h141v27
q0 51 -32 81q-32 29 -86 29q-71 0 -116 -51q-14 -14 -26 -14zM123 757q-18 18 3 38q23 20 38 0l89 -108q14 -16 -3 -30q-15 -13 -30 2zM122 630q0 24 24 24t24 -24q0 -55 65 -55t65 55q0 24 24 24t24 -24q0 -52 -34 -77q-30 -24 -79 -24t-79 24q-34 25 -34 77z" />
    <glyph glyph-name="uni1EB2" unicode="&#x1eb2;" horiz-adv-x="641" 
d="M306 567l-118 -306h237zM167 199l-73 -183q-9 -24 -33 -24q-14 0 -24 10t-10 24v4l1 4l1 4l1 3l244 617q11 23 32 23q22 0 33 -23l244 -617l1 -4l1 -4q1 -3 1 -7q0 -34 -35 -34q-24 0 -33 23l-72 184h-279zM297 917q3 4 13 12l7 4l7 5q17 10 24 19q10 10 10 26
q0 31 -40 31q-37 0 -37 -35q0 -8 -6 -14t-15 -6q-8 0 -14 6t-6 14q0 35 21 54q20 19 57 19t58 -18q22 -18 22 -51q0 -41 -41 -70l-7 -4l-6 -5l-7 -4l-5 -4q-8 -8 -8 -12q0 -6 4 -10q4 -5 4 -13q0 -9 -7 -15q-7 -5 -14 -5q-8 0 -14 6q-14 14 -14 37q0 19 14 33zM193 831
q0 24 24 24t24 -24q0 -55 65 -55t65 55q0 24 24 24t24 -24q0 -52 -34 -77q-30 -24 -79 -24t-79 24q-34 25 -34 77z" />
    <glyph glyph-name="uni1EB3" unicode="&#x1eb3;" horiz-adv-x="499" 
d="M350 173v42h-141q-110 0 -110 -85t114 -85q55 0 95 32q42 36 42 96zM90 343q-29 0 -29 29q0 9 5 17q49 79 166 79q85 0 134 -47q46 -45 46 -123v-275q0 -31 -31 -31t-31 31v36q-37 -72 -143 -72q-80 0 -126 37q-47 38 -47 106q0 66 47 104q46 37 128 37h141v27
q0 51 -32 81q-32 29 -86 29q-71 0 -116 -51q-14 -14 -26 -14zM222 722q3 4 13 12l7 4l7 5q17 10 24 19q10 10 10 26q0 31 -40 31q-37 0 -37 -35q0 -8 -6 -14t-15 -6q-8 0 -14 6t-6 14q0 35 21 54q20 19 57 19t58 -18q22 -18 22 -51q0 -41 -41 -70l-7 -4l-6 -5l-7 -4l-5 -4
q-8 -8 -8 -12q0 -6 4 -10q4 -5 4 -13q0 -9 -7 -15q-7 -5 -14 -5q-8 0 -14 6q-14 14 -14 37q0 19 14 33zM122 630q0 24 24 24t24 -24q0 -55 65 -55t65 55q0 24 24 24t24 -24q0 -52 -34 -77q-30 -24 -79 -24t-79 24q-34 25 -34 77z" />
    <glyph glyph-name="uni1EB4" unicode="&#x1eb4;" horiz-adv-x="641" 
d="M306 567l-118 -306h237zM167 199l-73 -183q-9 -24 -33 -24q-14 0 -24 10t-10 24v4l1 4l1 4l1 3l244 617q11 23 32 23q22 0 33 -23l244 -617l1 -4l1 -4q1 -3 1 -7q0 -34 -35 -34q-24 0 -33 23l-72 184h-279zM336 953l13 -6q15 -6 29 -6q25 0 46 28l3 3l4 4q5 4 13 4
q24 0 24 -24q0 -6 -3 -12q-25 -52 -87 -52q-17 0 -34 6q-7 3 -12 6q-8 3 -16 8q-35 19 -56 19q-25 0 -46 -28l-3 -3l-4 -4q-5 -4 -13 -4q-24 0 -24 24q0 6 3 12q25 52 87 52q27 0 62 -19zM193 831q0 24 24 24t24 -24q0 -55 65 -55t65 55q0 24 24 24t24 -24q0 -52 -34 -77
q-30 -24 -79 -24t-79 24q-34 25 -34 77z" />
    <glyph glyph-name="uni1EB5" unicode="&#x1eb5;" horiz-adv-x="467" 
d="M350 173v42h-141q-110 0 -110 -85t114 -85q55 0 95 32q42 36 42 96zM90 343q-29 0 -29 29q0 9 5 17q49 79 166 79q85 0 134 -47q46 -45 46 -123v-275q0 -31 -31 -31t-31 31v36q-37 -72 -143 -72q-80 0 -126 37q-47 38 -47 106q0 66 47 104q46 37 128 37h141v27
q0 51 -32 81q-32 29 -86 29q-71 0 -116 -51q-14 -14 -26 -14zM264 757l13 -6q15 -6 29 -6q25 0 46 28l3 3l4 4q5 4 13 4q24 0 24 -24q0 -6 -3 -12q-25 -52 -87 -52q-17 0 -34 6q-7 3 -12 6q-8 3 -16 8q-35 19 -56 19q-25 0 -46 -28l-3 -3l-4 -4q-5 -4 -13 -4q-24 0 -24 24
q0 6 3 12q25 52 87 52q27 0 62 -19zM122 630q0 24 24 24t24 -24q0 -55 65 -55t65 55q0 24 24 24t24 -24q0 -52 -34 -77q-30 -24 -79 -24t-79 24q-34 25 -34 77z" />
    <glyph glyph-name="uni1EB6" unicode="&#x1eb6;" horiz-adv-x="613" 
d="M306 567l-118 -306h237zM167 199l-73 -183q-9 -24 -33 -24q-14 0 -24 10t-10 24v4l1 4l1 4l1 3l244 617q11 23 32 23q22 0 33 -23l244 -617l1 -4l1 -4q1 -3 1 -7q0 -34 -35 -34q-24 0 -33 23l-72 184h-279zM307 -79q47 0 47 -48q0 -47 -47 -47t-47 47q0 48 47 48z
M194 849q0 24 24 24t24 -24q0 -55 65 -55t65 55q0 24 24 24t24 -24q0 -52 -34 -77q-31 -24 -79 -24q-49 0 -79 24q-34 25 -34 77z" />
    <glyph glyph-name="uni1EB7" unicode="&#x1eb7;" horiz-adv-x="467" 
d="M350 173v42h-141q-110 0 -110 -85t114 -85q55 0 95 32q42 36 42 96zM223 -79q47 0 47 -48q0 -47 -47 -47t-47 47q0 48 47 48zM122 630q0 24 24 24t24 -24q0 -55 65 -55t65 55q0 24 24 24t24 -24q0 -52 -34 -77q-30 -24 -79 -24t-79 24q-34 25 -34 77zM90 343
q-29 0 -29 29q0 9 5 17q49 79 166 79q85 0 134 -47q46 -45 46 -123v-275q0 -31 -31 -31t-31 31v36q-37 -72 -143 -72q-80 0 -126 37q-47 38 -47 106q0 66 47 104q46 37 128 37h141v27q0 51 -32 81q-32 29 -86 29q-71 0 -116 -51q-14 -14 -26 -14z" />
    <glyph glyph-name="uni1EB8" unicode="&#x1eb8;" 
d="M114 0q-34 0 -34 34v605q0 34 34 34h321q31 0 31 -31t-31 -31h-287v-241h220q31 0 31 -31t-31 -31h-220v-246h298q31 0 31 -31t-31 -31h-332zM279 -79q47 0 47 -48q0 -47 -47 -47t-47 47q0 48 47 48z" />
    <glyph glyph-name="uni1EB9" unicode="&#x1eb9;" horiz-adv-x="466" 
d="M369 265q0 63 -25 100q-31 45 -103 45q-131 0 -141 -145h269zM241 468q107 0 156 -72q19 -28 28 -64q7 -27 7 -59v-11l-1 -11q-2 -15 -4 -21q-9 -21 -35 -21h-292q0 -76 40 -119q41 -44 111 -44q38 0 71 14q20 8 49 29q9 6 18 6q29 0 29 -29q0 -12 -11 -23q-7 -7 -18 -15
q-18 -13 -32 -19q-47 -22 -106 -22q-216 0 -216 241q0 115 54 178q54 62 152 62zM242 -79q47 0 47 -48q0 -47 -47 -47t-47 47q0 48 47 48z" />
    <glyph glyph-name="uni1EBA" unicode="&#x1eba;" 
d="M114 0q-34 0 -34 34v605q0 34 34 34h321q31 0 31 -31t-31 -31h-287v-241h220q31 0 31 -31t-31 -31h-220v-246h298q31 0 31 -31t-31 -31h-332zM276 822q3 4 13 12l7 4l7 5q17 10 24 19q10 10 10 26q0 31 -40 31q-37 0 -37 -35q0 -8 -6 -14t-15 -6q-8 0 -14 6t-6 14
q0 35 21 54q20 19 57 19t58 -18q22 -18 22 -51q0 -41 -41 -70l-7 -4l-6 -5l-7 -4l-5 -4q-8 -8 -8 -12q0 -6 4 -10q4 -5 4 -13q0 -9 -7 -15q-7 -5 -14 -5q-8 0 -14 6q-14 14 -14 37q0 19 14 33z" />
    <glyph glyph-name="uni1EBB" unicode="&#x1ebb;" horiz-adv-x="466" 
d="M241 468q107 0 156 -72q19 -28 28 -64q7 -27 7 -59v-11l-1 -11q-2 -15 -4 -21q-9 -21 -35 -21h-292q0 -76 40 -119q41 -44 111 -44q38 0 71 14q20 8 49 29q9 6 18 6q29 0 29 -29q0 -12 -11 -23q-7 -7 -18 -15q-18 -13 -32 -19q-47 -22 -106 -22q-216 0 -216 241
q0 115 54 178q54 62 152 62zM369 265q0 63 -25 100q-31 45 -103 45q-131 0 -141 -145h269zM231 603q3 4 13 12l7 4l7 5q17 10 24 19q10 10 10 26q0 31 -40 31q-37 0 -37 -35q0 -8 -6 -14t-15 -6q-8 0 -14 6t-6 14q0 35 21 54q20 19 57 19t58 -18q22 -18 22 -51
q0 -41 -41 -70l-7 -4l-6 -5l-7 -4l-5 -4q-8 -8 -8 -12q0 -6 4 -10q4 -5 4 -13q0 -9 -7 -15q-7 -5 -14 -5q-8 0 -14 6q-14 14 -14 37q0 19 14 33z" />
    <glyph glyph-name="uni1EBC" unicode="&#x1ebc;" 
d="M114 0q-34 0 -34 34v605q0 34 34 34h321q31 0 31 -31t-31 -31h-287v-241h220q31 0 31 -31t-31 -31h-220v-246h298q31 0 31 -31t-31 -31h-332zM296 809l13 -6q15 -6 29 -6q25 0 46 28l3 3l4 4q5 4 13 4q24 0 24 -24q0 -6 -3 -12q-25 -52 -87 -52q-17 0 -34 6q-7 3 -12 6
q-8 3 -16 8q-35 19 -56 19q-25 0 -46 -28l-3 -3l-4 -4q-5 -4 -13 -4q-24 0 -24 24q0 6 3 12q25 52 87 52q27 0 62 -19z" />
    <glyph glyph-name="uni1EBD" unicode="&#x1ebd;" horiz-adv-x="466" 
d="M241 468q107 0 156 -72q19 -28 28 -64q7 -27 7 -59v-11l-1 -11q-2 -15 -4 -21q-9 -21 -35 -21h-292q0 -76 40 -119q41 -44 111 -44q38 0 71 14q20 8 49 29q9 6 18 6q29 0 29 -29q0 -12 -11 -23q-7 -7 -18 -15q-18 -13 -32 -19q-47 -22 -106 -22q-216 0 -216 241
q0 115 54 178q54 62 152 62zM369 265q0 63 -25 100q-31 45 -103 45q-131 0 -141 -145h269zM251 590l13 -6q15 -6 29 -6q25 0 46 28l3 3l4 4q5 4 13 4q24 0 24 -24q0 -6 -3 -12q-25 -52 -87 -52q-17 0 -34 6q-7 3 -12 6q-8 3 -16 8q-35 19 -56 19q-25 0 -46 -28l-3 -3l-4 -4
q-5 -4 -13 -4q-24 0 -24 24q0 6 3 12q25 52 87 52q27 0 62 -19z" />
    <glyph glyph-name="uni1EBE" unicode="&#x1ebe;" horiz-adv-x="564" 
d="M114 0q-34 0 -34 34v605q0 34 34 34h321q31 0 31 -31t-31 -31h-287v-241h220q31 0 31 -31t-31 -31h-220v-246h298q31 0 31 -31t-31 -31h-332zM501 948q16 19 38 0q21 -20 3 -38l-97 -98q-15 -15 -30 -2q-16 14 -3 30zM286 793l-81 -68l-2 -2l-3 -2l-5 -1l-6 -1
q-24 0 -24 24q0 12 9 19l96 79q8 6 16 6q9 0 16 -6l96 -79q9 -7 9 -19q0 -24 -24 -24q-5 0 -11 2l-3 2l-2 2z" />
    <glyph glyph-name="uni1EBF" unicode="&#x1ebf;" horiz-adv-x="466" 
d="M369 265q0 63 -25 100q-31 45 -103 45q-131 0 -141 -145h269zM241 468q107 0 156 -72q19 -28 28 -64q7 -27 7 -59v-11l-1 -11q-2 -15 -4 -21q-9 -21 -35 -21h-292q0 -76 40 -119q41 -44 111 -44q38 0 71 14q20 8 49 29q9 6 18 6q29 0 29 -29q0 -12 -11 -23q-7 -7 -18 -15
q-18 -13 -32 -19q-47 -22 -106 -22q-216 0 -216 241q0 115 54 178q54 62 152 62zM449 746q15 20 38 0q21 -20 3 -38l-97 -98q-15 -15 -30 -2q-16 14 -3 30zM234 596l-81 -68l-3 -2l-3 -2q-6 -2 -10 -2q-24 0 -24 24q0 12 9 19l96 79q8 6 16 6q9 0 16 -6l96 -79q9 -7 9 -19
q0 -24 -24 -24q-5 0 -11 2l-3 2l-2 2z" />
    <glyph glyph-name="uni1EC0" unicode="&#x1ec0;" horiz-adv-x="564" 
d="M104 0q-34 0 -34 34v605q0 34 34 34h321q31 0 31 -31t-31 -31h-287v-241h220q31 0 31 -31t-31 -31h-220v-246h298q31 0 31 -31t-31 -31h-332zM40 915q-18 18 3 38q23 20 38 0l89 -108q14 -16 -3 -30q-15 -13 -30 2zM276 793l-81 -68l-2 -2l-3 -2l-5 -1l-6 -1
q-24 0 -24 24q0 12 9 19l96 79q8 6 16 6q9 0 16 -6l96 -79q9 -7 9 -19q0 -24 -24 -24q-5 0 -11 2l-3 2l-2 2z" />
    <glyph glyph-name="uni1EC1" unicode="&#x1ec1;" horiz-adv-x="466" 
d="M359 265q0 63 -25 100q-31 45 -103 45q-131 0 -141 -145h269zM231 468q107 0 156 -72q19 -28 28 -64q7 -27 7 -59v-11l-1 -11q-2 -15 -4 -21q-9 -21 -35 -21h-292q0 -76 40 -119q41 -44 111 -44q38 0 71 14q20 8 49 29q9 6 18 6q29 0 29 -29q0 -12 -11 -23q-7 -7 -18 -15
q-18 -13 -32 -19q-47 -22 -106 -22q-216 0 -216 241q0 115 54 178q54 62 152 62zM-24 711q-18 18 3 38q22 19 38 0l89 -108q14 -16 -3 -30q-15 -13 -30 2zM224 596l-81 -68l-3 -2l-3 -2q-6 -2 -10 -2q-24 0 -24 24q0 12 9 19l96 79q8 6 16 6q9 0 16 -6l96 -79q9 -7 9 -19
q0 -24 -24 -24q-5 0 -11 2l-3 2l-2 2z" />
    <glyph glyph-name="uni1EC2" unicode="&#x1ec2;" horiz-adv-x="564" 
d="M114 0q-34 0 -34 34v605q0 34 34 34h321q31 0 31 -31t-31 -31h-287v-241h220q31 0 31 -31t-31 -31h-220v-246h298q31 0 31 -31t-31 -31h-332zM413 876l6 6l7 6l7 4l7 5q17 10 24 19q10 10 10 26q0 31 -40 31q-37 0 -37 -35q0 -8 -6 -14t-15 -6q-8 0 -14 6t-6 14
q0 35 21 54q20 19 57 19t58 -18q22 -18 22 -51q0 -41 -41 -70l-7 -4l-6 -5l-7 -4l-5 -4q-8 -8 -8 -12q0 -6 4 -10q4 -5 4 -13q0 -9 -7 -15q-7 -5 -14 -5q-8 0 -14 6q-14 14 -14 37q0 19 14 33zM286 793l-81 -68l-2 -2l-3 -2l-5 -1l-6 -1q-24 0 -24 24q0 12 9 19l96 79
q8 6 16 6q9 0 16 -6l96 -79q9 -7 9 -19q0 -24 -24 -24q-5 0 -11 2l-3 2l-2 2z" />
    <glyph glyph-name="uni1EC3" unicode="&#x1ec3;" horiz-adv-x="536" 
d="M369 265q0 63 -25 100q-31 45 -103 45q-131 0 -141 -145h269zM241 468q107 0 156 -72q19 -28 28 -64q7 -27 7 -59v-11l-1 -11q-2 -15 -4 -21q-9 -21 -35 -21h-292q0 -76 40 -119q41 -44 111 -44q38 0 71 14q20 8 49 29q9 6 18 6q29 0 29 -29q0 -12 -11 -23q-7 -7 -18 -15
q-18 -13 -32 -19q-47 -22 -106 -22q-216 0 -216 241q0 115 54 178q54 62 152 62zM375 670l6 6l7 6l7 4l7 5q17 10 24 19q10 10 10 26q0 31 -40 31q-37 0 -37 -35q0 -8 -6 -14t-15 -6q-8 0 -14 6t-6 14q0 35 21 54q20 19 57 19t58 -18q22 -18 22 -51q0 -41 -41 -70l-7 -4
l-6 -5l-7 -4l-5 -4q-8 -8 -8 -12q0 -6 4 -10q4 -5 4 -13q0 -9 -7 -15q-7 -5 -14 -5q-8 0 -14 6q-14 14 -14 37q0 19 14 33zM245 596l-81 -68l-2 -2l-3 -2q-6 -2 -11 -2q-24 0 -24 24q0 12 9 19l96 79q8 6 16 6q9 0 16 -6l96 -79q9 -7 9 -19q0 -24 -24 -24l-6 1l-5 1l-3 2
l-2 2z" />
    <glyph glyph-name="uni1EC4" unicode="&#x1ec4;" horiz-adv-x="564" 
d="M114 0q-34 0 -34 34v605q0 34 34 34h321q31 0 31 -31t-31 -31h-287v-241h220q31 0 31 -31t-31 -31h-220v-246h298q31 0 31 -31t-31 -31h-332zM327 931l13 -6q15 -6 29 -6q25 0 46 28l3 3l4 4q5 4 13 4q24 0 24 -24q0 -6 -3 -12q-25 -52 -87 -52q-17 0 -34 6q-7 3 -12 6
q-8 3 -16 8q-35 19 -56 19q-25 0 -46 -28l-3 -3l-4 -4q-5 -4 -13 -4q-24 0 -24 24q0 6 3 12q25 52 87 52q27 0 62 -19zM286 793l-81 -68l-2 -2l-3 -2l-5 -1l-6 -1q-24 0 -24 24q0 12 9 19l96 79q8 6 16 6q9 0 16 -6l96 -79q9 -7 9 -19q0 -24 -24 -24q-5 0 -11 2l-3 2l-2 2z
" />
    <glyph glyph-name="uni1EC5" unicode="&#x1ec5;" horiz-adv-x="466" 
d="M369 265q0 63 -25 100q-31 45 -103 45q-131 0 -141 -145h269zM241 468q107 0 156 -72q19 -28 28 -64q7 -27 7 -59v-11l-1 -11q-2 -15 -4 -21q-9 -21 -35 -21h-292q0 -76 40 -119q41 -44 111 -44q38 0 71 14q20 8 49 29q9 6 18 6q29 0 29 -29q0 -12 -11 -23q-7 -7 -18 -15
q-18 -13 -32 -19q-47 -22 -106 -22q-216 0 -216 241q0 115 54 178q54 62 152 62zM272 738l14 -6q15 -6 29 -6q25 0 46 28l2 3l5 4q4 4 13 4q24 0 24 -24q0 -6 -3 -12q-25 -52 -87 -52q-17 0 -34 6l-6 2l-6 4q-9 3 -16 8q-35 19 -56 19q-27 0 -46 -28l-3 -3l-4 -4
q-5 -4 -13 -4q-24 0 -24 24q0 6 3 12q25 52 87 52q25 0 62 -19zM234 596l-81 -68l-3 -2l-3 -2q-6 -2 -10 -2q-24 0 -24 24q0 12 9 19l96 79q8 6 16 6q9 0 16 -6l96 -79q9 -7 9 -19q0 -24 -24 -24q-5 0 -11 2l-3 2l-2 2z" />
    <glyph glyph-name="uni1EC6" unicode="&#x1ec6;" 
d="M114 0q-34 0 -34 34v605q0 34 34 34h321q31 0 31 -31t-31 -31h-287v-241h220q31 0 31 -31t-31 -31h-220v-246h298q31 0 31 -31t-31 -31h-332zM279 -79q47 0 47 -48q0 -47 -47 -47t-47 47q0 48 47 48zM279 815l-81 -68l-3 -2l-3 -2q-6 -2 -10 -2q-24 0 -24 24q0 12 9 19
l96 79q8 6 16 6q9 0 16 -6l96 -79q9 -7 9 -19q0 -24 -24 -24q-5 0 -11 2l-3 2l-2 2z" />
    <glyph glyph-name="uni1EC7" unicode="&#x1ec7;" horiz-adv-x="466" 
d="M369 265q0 63 -25 100q-31 45 -103 45q-131 0 -141 -145h269zM241 468q107 0 156 -72q19 -28 28 -64q7 -27 7 -59v-11l-1 -11q-2 -15 -4 -21q-9 -21 -35 -21h-292q0 -76 40 -119q41 -44 111 -44q38 0 71 14q20 8 49 29q9 6 18 6q29 0 29 -29q0 -12 -11 -23q-7 -7 -18 -15
q-18 -13 -32 -19q-47 -22 -106 -22q-216 0 -216 241q0 115 54 178q54 62 152 62zM242 -79q47 0 47 -48q0 -47 -47 -47t-47 47q0 48 47 48zM234 596l-81 -68l-3 -2l-3 -2q-6 -2 -10 -2q-24 0 -24 24q0 12 9 19l96 79q8 6 16 6q9 0 16 -6l96 -79q9 -7 9 -19q0 -24 -24 -24
q-5 0 -11 2l-3 2l-2 2z" />
    <glyph glyph-name="uni1EC8" unicode="&#x1ec8;" horiz-adv-x="228" 
d="M217 26q0 -14 -10 -24t-24 -10t-24 10t-10 24v621q0 14 10 24t24 10t24 -10t10 -24v-621zM180 822l6 6l7 6l7 4l7 5q17 10 24 19q10 10 10 26q0 31 -40 31q-37 0 -37 -35q0 -8 -6 -14t-15 -6q-8 0 -14 6t-6 14q0 35 21 54q20 19 57 19t58 -18q22 -18 22 -51
q0 -41 -41 -70l-7 -4l-6 -5l-7 -4l-5 -4q-8 -8 -8 -12q0 -6 4 -10q4 -5 4 -13q0 -9 -7 -15q-7 -5 -14 -5q-8 0 -14 6q-14 14 -14 37q0 19 14 33z" />
    <glyph glyph-name="uni1EC9" unicode="&#x1ec9;" horiz-adv-x="193" 
d="M199 24q0 -32 -32 -32t-32 32v406q0 32 32 32t32 -32v-406zM164 603q3 4 13 12l7 4l7 5q17 10 24 19q10 10 10 26q0 31 -40 31q-37 0 -37 -35q0 -8 -6 -14t-15 -6q-8 0 -14 6t-6 14q0 35 21 54q20 19 57 19t58 -18q22 -18 22 -51q0 -41 -41 -70l-7 -4l-6 -5l-7 -4l-5 -4
q-8 -8 -8 -12q0 -6 4 -10q4 -5 4 -13q0 -9 -7 -15q-7 -5 -14 -5q-8 0 -14 6q-14 14 -14 37q0 19 14 33z" />
    <glyph glyph-name="uni1ECA" unicode="&#x1eca;" horiz-adv-x="228" 
d="M161 26q0 -14 -10 -24t-24 -10t-24 10t-10 24v621q0 14 10 24t24 10t24 -10t10 -24v-621zM127 -79q47 0 47 -48q0 -47 -47 -47t-47 47q0 48 47 48z" />
    <glyph glyph-name="uni1ECB" unicode="&#x1ecb;" horiz-adv-x="193" 
d="M137 24q0 -32 -32 -32t-32 32v406q0 32 32 32t32 -32v-406zM105 634q38 0 38 -40q0 -38 -38 -38t-38 38q0 40 38 40zM105 -79q47 0 47 -48q0 -47 -47 -47t-47 47q0 48 47 48z" />
    <glyph glyph-name="uni1ECC" unicode="&#x1ecc;" horiz-adv-x="712" 
d="M44 336q0 173 83 264q80 87 229 87q150 0 229 -87q83 -91 83 -264q0 -172 -83 -263q-81 -87 -229 -87t-229 87q-83 91 -83 263zM356 48q242 0 242 288q0 289 -242 289t-242 -289q0 -288 242 -288zM356 -79q47 0 47 -48q0 -47 -47 -47t-47 47q0 48 47 48z" />
    <glyph glyph-name="uni1ECD" unicode="&#x1ecd;" horiz-adv-x="490" 
d="M245 -13q-99 0 -153 59q-57 62 -57 182q0 121 57 182q52 58 153 58q210 0 210 -240q0 -241 -210 -241zM245 410q-145 0 -145 -182q0 -183 145 -183t145 183q0 182 -145 182zM245 -79q47 0 47 -48q0 -47 -47 -47t-47 47q0 48 47 48z" />
    <glyph glyph-name="uni1ECE" unicode="&#x1ece;" horiz-adv-x="712" 
d="M44 336q0 173 83 264q80 87 229 87q150 0 229 -87q83 -91 83 -264q0 -172 -83 -263q-81 -87 -229 -87t-229 87q-83 91 -83 263zM356 48q242 0 242 288q0 289 -242 289t-242 -289q0 -288 242 -288zM353 822l6 6l7 6l7 4l7 5q17 10 24 19q10 10 10 26q0 31 -40 31
q-37 0 -37 -35q0 -8 -6 -14t-15 -6q-8 0 -14 6t-6 14q0 35 21 54q20 19 57 19t58 -18q22 -18 22 -51q0 -41 -41 -70l-7 -4l-6 -5l-7 -4l-5 -4q-8 -8 -8 -12q0 -6 4 -10q4 -5 4 -13q0 -9 -7 -15q-7 -5 -14 -5q-8 0 -14 6q-14 14 -14 37q0 19 14 33z" />
    <glyph glyph-name="uni1ECF" unicode="&#x1ecf;" horiz-adv-x="490" 
d="M245 -13q-99 0 -153 59q-57 62 -57 182q0 121 57 182q52 58 153 58q210 0 210 -240q0 -241 -210 -241zM245 410q-145 0 -145 -182q0 -183 145 -183t145 183q0 182 -145 182zM242 603l6 6l7 6l7 4l7 5q17 10 24 19q10 10 10 26q0 31 -40 31q-37 0 -37 -35q0 -8 -6 -14
t-15 -6q-8 0 -14 6t-6 14q0 35 21 54q20 19 57 19t58 -18q22 -18 22 -51q0 -41 -41 -70l-7 -4l-6 -5l-7 -4l-5 -4q-8 -8 -8 -12q0 -6 4 -10q4 -5 4 -13q0 -9 -7 -15q-7 -5 -14 -5q-8 0 -14 6q-14 14 -14 37q0 19 14 33z" />
    <glyph glyph-name="uni1ED0" unicode="&#x1ed0;" horiz-adv-x="779" 
d="M356 48q-242 0 -242 288q0 289 242 289t242 -289q0 -288 -242 -288zM668 336q0 173 -83 264q-79 87 -229 87q-149 0 -229 -87q-83 -91 -83 -264q0 -172 83 -263q81 -87 229 -87t229 87q83 91 83 263zM359 793l-81 -68l-2 -2l-3 -2q-6 -2 -11 -2q-24 0 -24 24q0 12 9 19
l96 79q8 6 16 6q9 0 16 -6l96 -79q9 -7 9 -19q0 -24 -24 -24l-6 1l-5 1l-3 2l-2 2zM564 942q16 19 38 0q21 -20 3 -38l-97 -98q-15 -15 -30 -2q-16 14 -3 30z" />
    <glyph glyph-name="uni1ED1" unicode="&#x1ed1;" horiz-adv-x="490" 
d="M245 410q-145 0 -145 -182q0 -183 145 -183t145 183q0 182 -145 182zM245 -13q-99 0 -153 59q-57 62 -57 182q0 121 57 182q52 58 153 58q210 0 210 -240q0 -241 -210 -241zM453 739q15 20 38 0q21 -20 3 -38l-97 -98q-15 -15 -30 -2q-16 14 -3 30zM245 596l-81 -68
l-2 -2l-3 -2q-6 -2 -11 -2q-24 0 -24 24q0 12 9 19l96 79q8 6 16 6q9 0 16 -6l96 -79q9 -7 9 -19q0 -24 -24 -24l-6 1l-5 1l-3 2l-2 2z" />
    <glyph glyph-name="uni1ED2" unicode="&#x1ed2;" horiz-adv-x="779" 
d="M356 48q-242 0 -242 288q0 289 242 289t242 -289q0 -288 -242 -288zM668 336q0 173 -83 264q-79 87 -229 87q-149 0 -229 -87q-83 -91 -83 -264q0 -172 83 -263q81 -87 229 -87t229 87q83 91 83 263zM359 793l-81 -68l-2 -2l-3 -2q-6 -2 -11 -2q-24 0 -24 24q0 12 9 19
l96 79q8 6 16 6q9 0 16 -6l96 -79q9 -7 9 -19q0 -24 -24 -24l-6 1l-5 1l-3 2l-2 2zM114 906q-18 18 3 38q23 20 38 0l89 -108q14 -16 -3 -30q-15 -13 -30 2z" />
    <glyph glyph-name="uni1ED3" unicode="&#x1ed3;" horiz-adv-x="490" 
d="M235 410q-145 0 -145 -182q0 -183 145 -183t145 183q0 182 -145 182zM235 -13q-99 0 -153 59q-57 62 -57 182q0 121 57 182q52 58 153 58q210 0 210 -240q0 -241 -210 -241zM-3 708q-18 18 3 38q23 20 38 0l89 -108q14 -16 -3 -30q-15 -13 -30 2zM235 596l-81 -68l-2 -2
l-3 -2q-6 -2 -11 -2q-24 0 -24 24q0 12 9 19l96 79q8 6 16 6q9 0 16 -6l96 -79q9 -7 9 -19q0 -24 -24 -24l-6 1l-5 1l-3 2l-2 2z" />
    <glyph glyph-name="uni1ED4" unicode="&#x1ed4;" horiz-adv-x="779" 
d="M356 48q-242 0 -242 288q0 289 242 289t242 -289q0 -288 -242 -288zM668 336q0 173 -83 264q-79 87 -229 87q-149 0 -229 -87q-83 -91 -83 -264q0 -172 83 -263q81 -87 229 -87t229 87q83 91 83 263zM359 793l-81 -68l-2 -2l-3 -2q-6 -2 -11 -2q-24 0 -24 24q0 12 9 19
l96 79q8 6 16 6q9 0 16 -6l96 -79q9 -7 9 -19q0 -24 -24 -24l-6 1l-5 1l-3 2l-2 2zM481 877l6 6l7 6l7 4l7 5q17 10 24 19q10 10 10 26q0 31 -40 31q-37 0 -37 -35q0 -8 -6 -14t-15 -6q-8 0 -14 6t-6 14q0 35 21 54q20 19 57 19t58 -18q22 -18 22 -51q0 -41 -41 -70l-7 -4
l-6 -5l-7 -4l-5 -4q-8 -8 -8 -12q0 -6 4 -10q4 -5 4 -13q0 -9 -7 -15q-7 -5 -14 -5q-8 0 -14 6q-14 14 -14 37q0 19 14 33z" />
    <glyph glyph-name="uni1ED5" unicode="&#x1ed5;" horiz-adv-x="572" 
d="M245 410q-145 0 -145 -182q0 -183 145 -183t145 183q0 182 -145 182zM245 -13q-99 0 -153 59q-57 62 -57 182q0 121 57 182q52 58 153 58q210 0 210 -240q0 -241 -210 -241zM377 671q3 4 13 12l7 4l7 5q17 10 24 19q10 10 10 26q0 31 -40 31q-37 0 -37 -35q0 -8 -6 -14
t-15 -6q-8 0 -14 6t-6 14q0 35 21 54q20 19 57 19t58 -18q22 -18 22 -51q0 -41 -41 -70l-7 -4l-6 -5l-7 -4l-5 -4q-8 -8 -8 -12q0 -6 4 -10q4 -5 4 -13q0 -9 -7 -15q-7 -5 -14 -5q-8 0 -14 6q-14 14 -14 37q0 19 14 33zM249 596l-81 -68l-2 -2l-3 -2l-5 -1l-6 -1
q-24 0 -24 24q0 12 9 19l96 79q8 6 16 6q9 0 16 -6l96 -79q9 -7 9 -19q0 -24 -24 -24q-5 0 -11 2l-3 2l-2 2z" />
    <glyph glyph-name="uni1ED6" unicode="&#x1ed6;" horiz-adv-x="779" 
d="M356 48q-242 0 -242 288q0 289 242 289t242 -289q0 -288 -242 -288zM668 336q0 173 -83 264q-79 87 -229 87q-149 0 -229 -87q-83 -91 -83 -264q0 -172 83 -263q81 -87 229 -87t229 87q83 91 83 263zM359 793l-81 -68l-2 -2l-3 -2q-6 -2 -11 -2q-24 0 -24 24q0 12 9 19
l96 79q8 6 16 6q9 0 16 -6l96 -79q9 -7 9 -19q0 -24 -24 -24l-6 1l-5 1l-3 2l-2 2zM392 928l13 -6q15 -6 29 -6q25 0 46 28l3 3l4 4q5 4 13 4q24 0 24 -24q0 -6 -3 -12q-25 -52 -87 -52q-17 0 -34 6q-7 3 -12 6q-8 3 -16 8q-35 19 -56 19q-25 0 -46 -28l-3 -3l-4 -4
q-5 -4 -13 -4q-24 0 -24 24q0 6 3 12q25 52 87 52q27 0 62 -19z" />
    <glyph glyph-name="uni1ED7" unicode="&#x1ed7;" horiz-adv-x="490" 
d="M245 410q-145 0 -145 -182q0 -183 145 -183t145 183q0 182 -145 182zM245 -13q-99 0 -153 59q-57 62 -57 182q0 121 57 182q52 58 153 58q210 0 210 -240q0 -241 -210 -241zM284 738l13 -6q15 -6 29 -6q25 0 46 28l3 3l4 4q5 4 13 4q24 0 24 -24q0 -6 -3 -12
q-25 -52 -87 -52q-17 0 -34 6q-7 3 -12 6q-8 3 -16 8q-35 19 -56 19q-25 0 -46 -28l-3 -3l-4 -4q-5 -4 -13 -4q-24 0 -24 24q0 6 3 12q25 52 87 52q27 0 62 -19zM245 596l-81 -68l-2 -2l-3 -2q-6 -2 -11 -2q-24 0 -24 24q0 12 9 19l96 79q8 6 16 6q9 0 16 -6l96 -79
q9 -7 9 -19q0 -24 -24 -24l-6 1l-5 1l-3 2l-2 2z" />
    <glyph glyph-name="uni1ED8" unicode="&#x1ed8;" horiz-adv-x="712" 
d="M356 48q242 0 242 288q0 289 -242 289t-242 -289q0 -288 242 -288zM44 336q0 173 83 264q80 87 229 87q150 0 229 -87q83 -91 83 -264q0 -172 -83 -263q-81 -87 -229 -87t-229 87q-83 91 -83 263zM359 -79q47 0 47 -48q0 -47 -47 -47t-47 47q0 48 47 48zM356 815l-81 -68
l-2 -2l-3 -2q-6 -2 -11 -2q-24 0 -24 24q0 12 9 19l96 79q8 6 16 6q9 0 16 -6l96 -79q9 -7 9 -19q0 -24 -24 -24l-6 1l-5 1l-3 2l-2 2z" />
    <glyph glyph-name="uni1ED9" unicode="&#x1ed9;" horiz-adv-x="490" 
d="M245 410q-145 0 -145 -182q0 -183 145 -183t145 183q0 182 -145 182zM245 -13q-99 0 -153 59q-57 62 -57 182q0 121 57 182q52 58 153 58q210 0 210 -240q0 -241 -210 -241zM247 -79q47 0 47 -48q0 -47 -47 -47t-47 47q0 48 47 48zM245 596l-81 -68l-2 -2l-3 -2
q-6 -2 -11 -2q-24 0 -24 24q0 12 9 19l96 79q8 6 16 6q9 0 16 -6l96 -79q9 -7 9 -19q0 -24 -24 -24l-6 1l-5 1l-3 2l-2 2z" />
    <glyph glyph-name="uni1EDA" unicode="&#x1eda;" horiz-adv-x="704" 
d="M356 48q242 0 242 288q0 289 -242 289t-242 -289q0 -288 242 -288zM668 336q0 -172 -83 -263q-81 -87 -229 -87t-229 87q-83 91 -83 263q0 173 83 264q80 87 229 87q150 0 229 -87l10 -12l10 -13q9 23 9 41q0 20 -18 42q-18 23 -18 44q0 48 47 48q49 0 49 -64
q0 -84 -46 -148q40 -80 40 -202zM406 877q16 19 38 0q21 -20 3 -38l-97 -98q-15 -15 -30 -2q-16 14 -3 30z" />
    <glyph glyph-name="uni1EDB" unicode="&#x1edb;" horiz-adv-x="502" 
d="M245 410q-145 0 -145 -182q0 -183 145 -183t145 183q0 182 -145 182zM455 228q0 -241 -210 -241q-99 0 -153 59q-57 62 -57 182q0 121 57 182q52 58 153 58q133 0 183 -98q9 20 9 38q0 14 -14 33q-15 20 -15 36q0 38 38 38q39 0 39 -51q0 -71 -44 -127q14 -48 14 -109z
M284 658q16 19 38 0q21 -20 3 -38l-97 -98q-15 -15 -30 -2q-16 14 -3 30z" />
    <glyph glyph-name="uni1EDC" unicode="&#x1edc;" horiz-adv-x="704" 
d="M356 48q242 0 242 288q0 289 -242 289t-242 -289q0 -288 242 -288zM668 336q0 -172 -83 -263q-81 -87 -229 -87t-229 87q-83 91 -83 263q0 173 83 264q80 87 229 87q150 0 229 -87l10 -12l10 -13q9 23 9 41q0 20 -18 42q-18 23 -18 44q0 48 47 48q49 0 49 -64
q0 -84 -46 -148q40 -80 40 -202zM271 839q-18 18 3 38q22 19 38 0l89 -108q14 -16 -3 -30q-15 -13 -30 2z" />
    <glyph glyph-name="uni1EDD" unicode="&#x1edd;" horiz-adv-x="502" 
d="M245 410q-145 0 -145 -182q0 -183 145 -183t145 183q0 182 -145 182zM455 228q0 -241 -210 -241q-99 0 -153 59q-57 62 -57 182q0 121 57 182q52 58 153 58q133 0 183 -98q9 20 9 38q0 14 -14 33q-15 20 -15 36q0 38 38 38q39 0 39 -51q0 -71 -44 -127q14 -48 14 -109z
M123 620q-18 18 3 38q22 19 38 0l89 -108q14 -16 -3 -30q-15 -13 -30 2z" />
    <glyph glyph-name="uni1EDE" unicode="&#x1ede;" horiz-adv-x="705" 
d="M356 48q242 0 242 288q0 289 -242 289t-242 -289q0 -288 242 -288zM668 336q0 -172 -83 -263q-81 -87 -229 -87t-229 87q-83 91 -83 263q0 173 83 264q80 87 229 87q150 0 229 -87l10 -12l10 -13q9 23 9 41q0 20 -18 42q-18 23 -18 44q0 48 47 48q49 0 49 -64
q0 -84 -46 -148q40 -80 40 -202zM356 822l6 6l7 6l7 4l7 5q17 10 24 19q10 10 10 26q0 31 -40 31q-37 0 -37 -35q0 -8 -6 -14t-15 -6q-8 0 -14 6t-6 14q0 35 21 54q20 19 57 19t58 -18q22 -18 22 -51q0 -41 -41 -70l-7 -4l-6 -5l-7 -4l-5 -4q-8 -8 -8 -12q0 -6 4 -10
q4 -5 4 -13q0 -9 -7 -15q-7 -5 -14 -5q-8 0 -14 6q-14 14 -14 37q0 19 14 33z" />
    <glyph glyph-name="uni1EDF" unicode="&#x1edf;" horiz-adv-x="504" 
d="M245 410q-145 0 -145 -182q0 -183 145 -183t145 183q0 182 -145 182zM455 228q0 -241 -210 -241q-99 0 -153 59q-57 62 -57 182q0 121 57 182q52 58 153 58q133 0 183 -98q9 20 9 38q0 14 -14 33q-15 20 -15 36q0 38 38 38q39 0 39 -51q0 -71 -44 -127q14 -48 14 -109z
M240 603q3 4 13 12l7 4l7 5q17 10 24 19q10 10 10 26q0 31 -40 31q-37 0 -37 -35q0 -8 -6 -14t-15 -6q-8 0 -14 6t-6 14q0 35 21 54q20 19 57 19t58 -18q22 -18 22 -51q0 -41 -41 -70l-7 -4l-6 -5l-7 -4l-5 -4q-8 -8 -8 -12q0 -6 4 -10q4 -5 4 -13q0 -9 -7 -15q-7 -5 -14 -5
q-8 0 -14 6q-14 14 -14 37q0 19 14 33z" />
    <glyph glyph-name="uni1EE0" unicode="&#x1ee0;" horiz-adv-x="701" 
d="M356 48q242 0 242 288q0 289 -242 289t-242 -289q0 -288 242 -288zM668 336q0 -172 -83 -263q-81 -87 -229 -87t-229 87q-83 91 -83 263q0 173 83 264q80 87 229 87q150 0 229 -87l10 -12l10 -13q9 23 9 41q0 20 -18 42q-18 23 -18 44q0 48 47 48q49 0 49 -64
q0 -84 -46 -148q40 -80 40 -202zM376 809l13 -6q15 -6 29 -6q25 0 46 28l3 3l4 4q5 4 13 4q24 0 24 -24q0 -6 -3 -12q-25 -52 -87 -52q-17 0 -34 6q-7 3 -12 6q-8 3 -16 8q-35 19 -56 19q-25 0 -46 -28l-3 -3l-4 -4q-5 -4 -13 -4q-24 0 -24 24q0 6 3 12q25 52 87 52
q27 0 62 -19z" />
    <glyph glyph-name="uni1EE1" unicode="&#x1ee1;" horiz-adv-x="502" 
d="M245 410q-145 0 -145 -182q0 -183 145 -183t145 183q0 182 -145 182zM455 228q0 -241 -210 -241q-99 0 -153 59q-57 62 -57 182q0 121 57 182q52 58 153 58q133 0 183 -98q9 20 9 38q0 14 -14 33q-15 20 -15 36q0 38 38 38q39 0 39 -51q0 -71 -44 -127q14 -48 14 -109z
M269 590l13 -6q15 -6 29 -6q25 0 46 28l3 3l4 4q5 4 13 4q24 0 24 -24q0 -6 -3 -12q-25 -52 -87 -52q-17 0 -34 6q-7 3 -12 6q-8 3 -16 8q-35 19 -56 19q-25 0 -46 -28l-3 -3l-4 -4q-5 -4 -13 -4q-24 0 -24 24q0 6 3 12q25 52 87 52q27 0 62 -19z" />
    <glyph glyph-name="uni1EE2" unicode="&#x1ee2;" horiz-adv-x="704" 
d="M356 48q242 0 242 288q0 289 -242 289t-242 -289q0 -288 242 -288zM668 336q0 -172 -83 -263q-81 -87 -229 -87t-229 87q-83 91 -83 263q0 173 83 264q80 87 229 87q150 0 229 -87l10 -12l10 -13q9 23 9 41q0 20 -18 42q-18 23 -18 44q0 48 47 48q49 0 49 -64
q0 -84 -46 -148q40 -80 40 -202zM359 -79q47 0 47 -48q0 -47 -47 -47t-47 47q0 48 47 48z" />
    <glyph glyph-name="uni1EE3" unicode="&#x1ee3;" horiz-adv-x="502" 
d="M245 410q-145 0 -145 -182q0 -183 145 -183t145 183q0 182 -145 182zM455 228q0 -241 -210 -241q-99 0 -153 59q-57 62 -57 182q0 121 57 182q52 58 153 58q133 0 183 -98q9 20 9 38q0 14 -14 33q-15 20 -15 36q0 38 38 38q39 0 39 -51q0 -71 -44 -127q14 -48 14 -109z
M255 -71q47 0 47 -48q0 -47 -47 -47t-47 47q0 48 47 48z" />
    <glyph glyph-name="uni1EE4" unicode="&#x1ee4;" horiz-adv-x="624" 
d="M80 647q0 34 34 34t34 -34v-442q0 -155 167 -155q166 0 166 155v442q0 34 34 34t34 -34v-442q0 -219 -234 -219q-235 0 -235 219v442zM315 -79q47 0 47 -48q0 -47 -47 -47t-47 47q0 48 47 48z" />
    <glyph glyph-name="uni1EE5" unicode="&#x1ee5;" horiz-adv-x="482" 
d="M119 430v-261q0 -121 122 -121t122 121v261q0 32 33 32q31 0 31 -32v-261q0 -182 -186 -182t-186 182v261q0 32 32 32q13 0 22 -9q10 -10 10 -23zM241 -79q47 0 47 -48q0 -47 -47 -47t-47 47q0 48 47 48z" />
    <glyph glyph-name="uni1EE6" unicode="&#x1ee6;" horiz-adv-x="624" 
d="M80 647q0 34 34 34t34 -34v-442q0 -155 167 -155q166 0 166 155v442q0 34 34 34t34 -34v-442q0 -219 -234 -219q-235 0 -235 219v442zM312 822q3 4 13 12l7 4l7 5q17 10 24 19q10 10 10 26q0 31 -40 31q-37 0 -37 -35q0 -8 -6 -14t-15 -6q-8 0 -14 6t-6 14q0 35 21 54
q20 19 57 19t58 -18q22 -18 22 -51q0 -41 -41 -70l-7 -4l-6 -5l-7 -4l-5 -4q-8 -8 -8 -12q0 -6 4 -10q4 -5 4 -13q0 -9 -7 -15q-7 -5 -14 -5q-8 0 -14 6q-14 14 -14 37q0 19 14 33z" />
    <glyph glyph-name="uni1EE7" unicode="&#x1ee7;" horiz-adv-x="482" 
d="M119 430v-261q0 -121 122 -121t122 121v261q0 32 33 32q31 0 31 -32v-261q0 -182 -186 -182t-186 182v261q0 32 32 32q13 0 22 -9q10 -10 10 -23zM238 603q3 4 13 12l7 4l7 5q17 10 24 19q10 10 10 26q0 31 -40 31q-37 0 -37 -35q0 -8 -6 -14t-15 -6q-8 0 -14 6t-6 14
q0 35 21 54q20 19 57 19t58 -18q22 -18 22 -51q0 -41 -41 -70l-7 -4l-6 -5l-7 -4l-5 -4q-8 -8 -8 -12q0 -6 4 -10q4 -5 4 -13q0 -9 -7 -15q-7 -5 -14 -5q-8 0 -14 6q-14 14 -14 37q0 19 14 33z" />
    <glyph glyph-name="uni1EE8" unicode="&#x1ee8;" horiz-adv-x="639" 
d="M549 205q0 -219 -234 -219q-235 0 -235 219v442q0 34 34 34t34 -34v-442q0 -155 167 -155q166 0 166 155v442q0 34 34 34t34 -34v-30q9 23 9 42q0 20 -18 42q-18 23 -18 44q0 48 47 48q49 0 49 -64q0 -102 -69 -176v-348zM396 877q16 19 38 0q21 -20 3 -38l-97 -98
q-15 -15 -30 -2q-16 14 -3 30z" />
    <glyph glyph-name="uni1EE9" unicode="&#x1ee9;" horiz-adv-x="515" 
d="M427 169q0 -182 -186 -182t-186 182v261q0 32 32 32q13 0 22 -9q10 -10 10 -23v-261q0 -121 122 -121t122 121v261q0 32 33 32q31 0 31 -32q4 12 4 25q0 14 -14 33q-15 20 -15 36q0 38 38 38q39 0 39 -51q0 -79 -52 -137v-205zM310 658q16 19 38 0q21 -20 3 -38l-97 -98
q-15 -15 -30 -2q-16 14 -3 30z" />
    <glyph glyph-name="uni1EEA" unicode="&#x1eea;" horiz-adv-x="644" 
d="M549 205q0 -219 -234 -219q-235 0 -235 219v442q0 34 34 34t34 -34v-442q0 -155 167 -155q166 0 166 155v442q0 34 34 34t34 -34v-30q9 23 9 42q0 20 -18 42q-18 23 -18 44q0 48 47 48q49 0 49 -64q0 -102 -69 -176v-348zM261 839q-18 18 3 38q22 19 38 0l89 -108
q14 -16 -3 -30q-15 -13 -30 2z" />
    <glyph glyph-name="uni1EEB" unicode="&#x1eeb;" horiz-adv-x="515" 
d="M427 169q0 -182 -186 -182t-186 182v261q0 32 32 32q13 0 22 -9q10 -10 10 -23v-261q0 -121 122 -121t122 121v261q0 32 33 32q31 0 31 -32q4 12 4 25q0 14 -14 33q-15 20 -15 36q0 38 38 38q39 0 39 -51q0 -79 -52 -137v-205zM147 620q-18 18 3 38q22 19 38 0l89 -108
q14 -16 -3 -30q-15 -13 -30 2z" />
    <glyph glyph-name="uni1EEC" unicode="&#x1eec;" horiz-adv-x="647" 
d="M549 205q0 -219 -234 -219q-235 0 -235 219v442q0 34 34 34t34 -34v-442q0 -155 167 -155q166 0 166 155v442q0 34 34 34t34 -34v-30q9 23 9 42q0 20 -18 42q-18 23 -18 44q0 48 47 48q49 0 49 -64q0 -102 -69 -176v-348zM346 822l6 6l7 6l7 4l7 5q17 10 24 19
q10 10 10 26q0 31 -40 31q-37 0 -37 -35q0 -8 -6 -14t-15 -6q-8 0 -14 6t-6 14q0 35 21 54q20 19 57 19t58 -18q22 -18 22 -51q0 -41 -41 -70l-7 -4l-6 -5l-7 -4l-5 -4q-8 -8 -8 -12q0 -6 4 -10q4 -5 4 -13q0 -9 -7 -15q-7 -5 -14 -5q-8 0 -14 6q-14 14 -14 37q0 19 14 33z
" />
    <glyph glyph-name="uni1EED" unicode="&#x1eed;" horiz-adv-x="510" 
d="M427 169q0 -182 -186 -182t-186 182v261q0 32 32 32q13 0 22 -9q10 -10 10 -23v-261q0 -121 122 -121t122 121v261q0 32 33 32q31 0 31 -32q4 12 4 25q0 14 -14 33q-15 20 -15 36q0 38 38 38q39 0 39 -51q0 -79 -52 -137v-205zM259 603q3 4 13 12l7 4l7 5q17 10 24 19
q10 10 10 26q0 31 -40 31q-37 0 -37 -35q0 -8 -6 -14t-15 -6q-8 0 -14 6t-6 14q0 35 21 54q20 19 57 19t58 -18q22 -18 22 -51q0 -41 -41 -70l-7 -4l-6 -5l-7 -4l-5 -4q-8 -8 -8 -12q0 -6 4 -10q4 -5 4 -13q0 -9 -7 -15q-7 -5 -14 -5q-8 0 -14 6q-14 14 -14 37q0 19 14 33z
" />
    <glyph glyph-name="uni1EEE" unicode="&#x1eee;" horiz-adv-x="645" 
d="M549 205q0 -219 -234 -219q-235 0 -235 219v442q0 34 34 34t34 -34v-442q0 -155 167 -155q166 0 166 155v442q0 34 34 34t34 -34v-30q9 23 9 42q0 20 -18 42q-18 23 -18 44q0 48 47 48q49 0 49 -64q0 -102 -69 -176v-348zM331 809l13 -6q15 -6 29 -6q25 0 46 28l3 3l4 4
q5 4 13 4q24 0 24 -24q0 -6 -3 -12q-25 -52 -87 -52q-17 0 -34 6q-7 3 -12 6q-8 3 -16 8q-35 19 -56 19q-25 0 -46 -28l-3 -3l-4 -4q-5 -4 -13 -4q-24 0 -24 24q0 6 3 12q25 52 87 52q27 0 62 -19z" />
    <glyph glyph-name="uni1EEF" unicode="&#x1eef;" horiz-adv-x="507" 
d="M427 169q0 -182 -186 -182t-186 182v261q0 32 32 32q13 0 22 -9q10 -10 10 -23v-261q0 -121 122 -121t122 121v261q0 32 33 32q31 0 31 -32q4 12 4 25q0 14 -14 33q-15 20 -15 36q0 38 38 38q39 0 39 -51q0 -79 -52 -137v-205zM238 590l13 -6q15 -6 29 -6q25 0 46 28l3 3
l4 4q5 4 13 4q24 0 24 -24q0 -6 -3 -12q-25 -52 -87 -52q-17 0 -34 6q-7 3 -12 6q-8 3 -16 8q-35 19 -56 19q-25 0 -46 -28l-3 -3l-4 -4q-5 -4 -13 -4q-24 0 -24 24q0 6 3 12q25 52 87 52q27 0 62 -19z" />
    <glyph glyph-name="uni1EF0" unicode="&#x1ef0;" horiz-adv-x="639" 
d="M549 205q0 -219 -234 -219q-235 0 -235 219v442q0 34 34 34t34 -34v-442q0 -155 167 -155q166 0 166 155v442q0 34 34 34t34 -34v-30q9 23 9 42q0 20 -18 42q-18 23 -18 44q0 48 47 48q49 0 49 -64q0 -102 -69 -176v-348zM349 -79q47 0 47 -48q0 -47 -47 -47t-47 47
q0 48 47 48z" />
    <glyph glyph-name="uni1EF1" unicode="&#x1ef1;" horiz-adv-x="513" 
d="M427 169q0 -182 -186 -182t-186 182v261q0 32 32 32q13 0 22 -9q10 -10 10 -23v-261q0 -121 122 -121t122 121v261q0 32 33 32q31 0 31 -32q4 12 4 25q0 14 -14 33q-15 20 -15 36q0 38 38 38q39 0 39 -51q0 -79 -52 -137v-205zM250 -79q47 0 47 -48q0 -47 -47 -47t-47 47
q0 48 47 48z" />
    <glyph glyph-name="Ygrave" unicode="&#x1ef2;" 
d="M225 313l-201 316q-5 8 -5 18q0 34 34 34q19 0 29 -16l177 -284l177 284q10 16 29 16q34 0 34 -34q0 -10 -5 -18l-201 -316v-287q0 -34 -34 -34t-34 34v287zM179 824q-18 18 3 38q22 19 38 0l89 -108q14 -16 -3 -30q-15 -13 -30 2z" />
    <glyph glyph-name="ygrave" unicode="&#x1ef3;" horiz-adv-x="438" 
d="M186 19l-167 397l-1 2l-1 4q-1 3 -1 8q0 32 32 32q13 0 20 -7q5 -4 10 -14l141 -345l141 345q5 10 10 14q7 7 20 7q32 0 32 -32q0 -5 -1 -8l-1 -4l-1 -2l-197 -469q-31 -75 -73 -111q-44 -37 -114 -37q-30 0 -30 30t30 30q59 0 93 42q20 26 58 118zM132 620q-18 18 3 38
q22 19 38 0l89 -108q14 -16 -3 -30q-15 -13 -30 2z" />
    <glyph glyph-name="uni1EF4" unicode="&#x1ef4;" 
d="M225 313l-201 316q-5 8 -5 18q0 34 34 34q19 0 29 -16l177 -284l177 284q10 16 29 16q34 0 34 -34q0 -10 -5 -18l-201 -316v-287q0 -34 -34 -34t-34 34v287zM259 -79q47 0 47 -48q0 -47 -47 -47t-47 47q0 48 47 48z" />
    <glyph glyph-name="uni1EF5" unicode="&#x1ef5;" horiz-adv-x="438" 
d="M186 19l-167 397l-1 2l-1 4q-1 3 -1 8q0 32 32 32q13 0 20 -7q5 -4 10 -14l141 -345l141 345q5 10 10 14q7 7 20 7q32 0 32 -32q0 -5 -1 -8l-1 -4l-1 -2l-197 -469q-31 -75 -73 -111q-44 -37 -114 -37q-30 0 -30 30t30 30q59 0 93 42q20 26 58 118zM312 -79q47 0 47 -48
q0 -47 -47 -47t-47 47q0 48 47 48z" />
    <glyph glyph-name="uni1EF6" unicode="&#x1ef6;" 
d="M225 313l-201 316q-5 8 -5 18q0 34 34 34q19 0 29 -16l177 -284l177 284q10 16 29 16q34 0 34 -34q0 -10 -5 -18l-201 -316v-287q0 -34 -34 -34t-34 34v287zM253 794l6 6l7 6l7 4l7 5q17 10 24 19q10 10 10 26q0 31 -40 31q-37 0 -37 -35q0 -8 -6 -14t-15 -6q-8 0 -14 6
t-6 14q0 35 21 54q20 19 57 19t58 -18q22 -18 22 -51q0 -41 -41 -70l-7 -4l-6 -5l-7 -4l-5 -4q-8 -8 -8 -12q0 -6 4 -10q4 -5 4 -13q0 -9 -7 -15q-7 -5 -14 -5q-8 0 -14 6q-14 14 -14 37q0 19 14 33z" />
    <glyph glyph-name="uni1EF7" unicode="&#x1ef7;" horiz-adv-x="438" 
d="M186 19l-167 397l-1 2l-1 4q-1 3 -1 8q0 32 32 32q13 0 20 -7q5 -4 10 -14l141 -345l141 345q5 10 10 14q7 7 20 7q32 0 32 -32q0 -5 -1 -8l-1 -4l-1 -2l-197 -469q-31 -75 -73 -111q-44 -37 -114 -37q-30 0 -30 30t30 30q59 0 93 42q20 26 58 118zM206 576q4 4 14 12
l7 4l7 5q8 5 14 10t10 9q9 11 9 26q0 31 -39 31q-38 0 -38 -35q0 -8 -6 -14t-14 -6q-9 0 -15 6t-6 14q0 35 21 54q20 19 58 19q37 0 58 -18q22 -18 22 -51q0 -41 -41 -70l-7 -4l-7 -5l-6 -4l-5 -4q-8 -8 -8 -12q0 -5 3 -10q4 -5 4 -13q0 -9 -6 -15q-7 -5 -14 -5q-9 0 -15 6
q-14 14 -14 37q0 19 14 33z" />
    <glyph glyph-name="Ytilde" unicode="&#x1ef8;" 
d="M225 313l-201 316q-5 8 -5 18q0 34 34 34q19 0 29 -16l177 -284l177 284q10 16 29 16q34 0 34 -34q0 -10 -5 -18l-201 -316v-287q0 -34 -34 -34t-34 34v287zM276 809l13 -6q15 -6 29 -6q25 0 46 28l3 3l4 4q5 4 13 4q24 0 24 -24q0 -6 -3 -12q-25 -52 -87 -52
q-17 0 -34 6q-7 3 -12 6q-8 3 -16 8q-35 19 -56 19q-25 0 -46 -28l-3 -3l-4 -4q-5 -4 -13 -4q-24 0 -24 24q0 6 3 12q25 52 87 52q27 0 62 -19z" />
    <glyph glyph-name="ytilde" unicode="&#x1ef9;" horiz-adv-x="438" 
d="M186 19l-167 397l-1 2l-1 4q-1 3 -1 8q0 32 32 32q13 0 20 -7q5 -4 10 -14l141 -345l141 345q5 10 10 14q7 7 20 7q32 0 32 -32q0 -5 -1 -8l-1 -4l-1 -2l-197 -469q-31 -75 -73 -111q-44 -37 -114 -37q-30 0 -30 30t30 30q59 0 93 42q20 26 58 118zM231 590l13 -6
q15 -6 29 -6q25 0 46 28l3 3l4 4q5 4 13 4q24 0 24 -24q0 -6 -3 -12q-25 -52 -87 -52q-17 0 -34 6q-7 3 -12 6q-8 3 -16 8q-35 19 -56 19q-25 0 -46 -28l-3 -3l-4 -4q-5 -4 -13 -4q-24 0 -24 24q0 6 3 12q25 52 87 52q27 0 62 -19z" />
    <glyph glyph-name="uni2009" unicode="&#x2009;" horiz-adv-x="14" 
 />
    <glyph glyph-name="endash" unicode="&#x2013;" horiz-adv-x="584" 
d="M130 255q-27 0 -27 27t27 27h324q27 0 27 -27t-27 -27h-324z" />
    <glyph glyph-name="emdash" unicode="&#x2014;" horiz-adv-x="918" 
d="M130 255q-27 0 -27 27t27 27h658q27 0 27 -27t-27 -27h-658z" />
    <glyph glyph-name="quoteleft" unicode="&#x2018;" horiz-adv-x="154" 
d="M114 681q15 0 15 -15q0 -4 -3 -9q-37 -50 -37 -91q0 -19 18 -42q18 -22 18 -44q0 -48 -47 -48q-49 0 -49 64q0 104 72 179q6 6 13 6z" />
    <glyph glyph-name="quoteright" unicode="&#x2019;" horiz-adv-x="154" 
d="M40 432q-15 0 -15 15q0 5 3 9q37 50 37 91q0 20 -18 42q-18 23 -18 44q0 48 47 48q49 0 49 -64q0 -104 -72 -179q-6 -6 -13 -6z" />
    <glyph glyph-name="quotesinglbase" unicode="&#x201a;" horiz-adv-x="179" 
d="M44 -162q-15 0 -15 15q0 5 3 9q37 50 37 91q0 20 -18 42q-8 10 -12 19q-6 11 -6 25q0 48 47 48q49 0 49 -64q0 -104 -72 -179q-6 -6 -13 -6z" />
    <glyph glyph-name="quotedblleft" unicode="&#x201c;" horiz-adv-x="292" 
d="M114 681q15 0 15 -15q0 -4 -3 -9q-37 -50 -37 -91q0 -19 18 -42q18 -22 18 -44q0 -48 -47 -48q-49 0 -49 64q0 104 72 179q6 6 13 6zM252 681q15 0 15 -15q0 -4 -3 -9q-37 -50 -37 -91q0 -19 18 -42q18 -22 18 -44q0 -48 -47 -48q-49 0 -49 64q0 104 72 179q6 6 13 6z
" />
    <glyph glyph-name="quotedblright" unicode="&#x201d;" horiz-adv-x="292" 
d="M178 432q-15 0 -15 15q0 5 3 9q37 50 37 91q0 20 -18 42q-18 23 -18 44q0 48 47 48q49 0 49 -64q0 -104 -72 -179q-6 -6 -13 -6zM40 432q-15 0 -15 15q0 5 3 9q37 50 37 91q0 20 -18 42q-18 23 -18 44q0 48 47 48q49 0 49 -64q0 -104 -72 -179q-6 -6 -13 -6z" />
    <glyph glyph-name="quotedblbase" unicode="&#x201e;" horiz-adv-x="313" 
d="M178 -162q-15 0 -15 15q0 5 3 9q37 50 37 91q0 14 -6 24l-5 9l-7 9q-18 23 -18 44q0 48 47 48q49 0 49 -64q0 -104 -72 -179q-6 -6 -13 -6zM40 -162q-15 0 -15 15q0 5 3 9q37 50 37 91q0 14 -6 24l-5 9l-7 9q-18 23 -18 44q0 48 47 48q49 0 49 -64q0 -104 -72 -179
q-6 -6 -13 -6z" />
    <glyph glyph-name="dagger" unicode="&#x2020;" horiz-adv-x="438" 
d="M194 467h-113q-20 0 -20 24q0 25 20 25h113l-2 171q0 25 27 25t27 -25l-2 -171h113q20 0 20 -25q0 -24 -20 -24h-113l-5 -600q0 -17 -20 -17t-20 17z" />
    <glyph glyph-name="daggerdbl" unicode="&#x2021;" horiz-adv-x="438" 
d="M81 467q-20 0 -20 24q0 25 20 25h113l-2 171q0 25 27 25t27 -25l-2 -171h113q20 0 20 -25q0 -24 -20 -24h-113l-3 -211l3 -211h113q20 0 20 -24q0 -25 -20 -25h-113l2 -171q0 -25 -27 -25t-27 25l2 171h-113q-20 0 -20 25q0 24 20 24h113l3 211l-3 211h-113z" />
    <glyph glyph-name="bullet" unicode="&#x2022;" horiz-adv-x="418" 
d="M209 415q130 0 130 -136q0 -130 -130 -130t-130 130q0 136 130 136z" />
    <glyph glyph-name="perthousand" unicode="&#x2030;" horiz-adv-x="1077" 
d="M558 646l-326 -641q-6 -13 -22 -13q-25 0 -25 25q0 4 2 10l326 641q2 3 8 9q5 4 14 4q25 0 25 -25q0 -4 -2 -10zM188 641q-96 0 -96 -117t96 -117q97 0 97 117t-97 117zM188 361q-146 0 -146 163t146 163q147 0 147 -163t-147 -163zM558 267q-96 0 -96 -117t96 -117
q97 0 97 117t-97 117zM558 -13q-146 0 -146 163t146 163q147 0 147 -163t-147 -163zM889 267q-96 0 -96 -117t96 -117q97 0 97 117t-97 117zM889 -13q-146 0 -146 163t146 163q147 0 147 -163t-147 -163z" />
    <glyph glyph-name="guilsinglleft" unicode="&#x2039;" horiz-adv-x="367" 
d="M247 422q8 9 18 9q24 0 24 -24q0 -10 -7 -17l-153 -178l153 -178q7 -7 7 -17q0 -24 -24 -24q-10 0 -18 9l-163 192q-7 8 -7 18t7 18z" />
    <glyph glyph-name="guilsinglright" unicode="&#x203a;" horiz-adv-x="367" 
d="M120 2q-7 -9 -18 -9q-24 0 -24 24q0 10 7 17l153 178l-153 178q-7 7 -7 17q0 24 24 24q11 0 18 -9l163 -192q7 -8 7 -18t-7 -18z" />
    <glyph glyph-name="fraction" unicode="&#x2044;" horiz-adv-x="313" 
d="M255 665q1 5 7 11q8 5 17 5q27 0 27 -27v-2l-1 -3q0 -4 -1 -5l-245 -634q0 -1 -2 -5l-2 -3l-2 -3q-7 -7 -19 -7q-27 0 -27 27v4l1 3l1 3z" />
    <glyph glyph-name="uni2070" unicode="&#x2070;" horiz-adv-x="298" 
d="M149 683q-71 0 -71 -109q0 -108 71 -108t71 108q0 109 -71 109zM149 730q124 0 124 -156q0 -155 -124 -155t-124 155q0 156 124 156z" />
    <glyph glyph-name="uni2074" unicode="&#x2074;" horiz-adv-x="260" 
d="M220 537q24 0 24 -24t-24 -24h-16v-41q0 -26 -26 -26t-26 26v41h-111q-24 0 -24 24q0 9 6 16l134 187q9 11 21 11q26 0 26 -26v-164h16zM152 537v96l-67 -96h67z" />
    <glyph glyph-name="uni2075" unicode="&#x2075;" horiz-adv-x="261" 
d="M206 444q-31 -26 -81 -26q-39 0 -68 18q-25 15 -39 39q-5 8 -5 15q0 23 23 23q13 0 22 -14q21 -33 67 -33q59 0 59 54q0 55 -59 55q-27 0 -58 -14l-9 -4q-6 -2 -10 -2q-23 0 -23 23q0 2 2 14l19 108q4 22 25 22h133q25 0 25 -25t-25 -25h-114l-10 -59q19 8 45 8
q112 0 112 -101q0 -49 -31 -76z" />
    <glyph glyph-name="uni2076" unicode="&#x2076;" horiz-adv-x="275" 
d="M250 523q0 -52 -32 -79q-28 -25 -78 -25q-115 0 -115 149q0 162 122 162q49 0 74 -21q9 -7 9 -19q0 -23 -23 -23q-4 0 -16 5q-24 11 -44 11q-30 0 -49 -22q-23 -26 -23 -73q11 14 26 21q19 10 45 10q46 0 74 -24q30 -25 30 -72zM183 561q-16 13 -43 13q-45 0 -60 -42
q0 -27 12 -44q16 -22 48 -22q60 0 60 57q0 23 -17 38z" />
    <glyph glyph-name="uni2077" unicode="&#x2077;" horiz-adv-x="234" 
d="M119 602l10 12q11 11 19 21q18 23 18 37h-131q-25 0 -25 25t25 25h161q25 0 25 -25q0 -54 -59 -119q-60 -64 -60 -131q0 -27 -25 -27q-27 0 -27 27q0 76 58 143z" />
    <glyph glyph-name="uni2078" unicode="&#x2078;" horiz-adv-x="271" 
d="M70 587q-14 7 -25 21q-12 17 -12 38q0 84 102 84t102 -84q0 -21 -12 -38q-11 -14 -25 -21q48 -21 48 -73q0 -95 -113 -95t-113 95q0 52 48 73zM135 608q51 0 51 38q0 37 -51 37t-51 -37q0 -38 51 -38zM135 466q60 0 60 48q0 49 -60 49t-60 -49q0 -48 60 -48z" />
    <glyph glyph-name="uni2079" unicode="&#x2079;" horiz-adv-x="275" 
d="M25 626q0 52 32 79q28 25 78 25q115 0 115 -149q0 -162 -122 -162q-48 0 -74 21q-9 8 -9 19q0 23 23 23q4 0 16 -5q24 -11 44 -11q30 0 49 22q23 26 23 73q-11 -14 -26 -21q-19 -10 -45 -10q-45 0 -74 24q-30 26 -30 72zM92 589q17 -14 43 -14q45 0 60 42q0 28 -12 44
q-16 22 -48 22q-60 0 -60 -57q0 -23 17 -37z" />
    <glyph glyph-name="zero.sinf" unicode="&#x2080;" horiz-adv-x="298" 
d="M149 207q-71 0 -71 -109q0 -108 71 -108t71 108q0 109 -71 109zM149 254q124 0 124 -156q0 -155 -124 -155t-124 155q0 156 124 156z" />
    <glyph glyph-name="one.sinf" unicode="&#x2081;" horiz-adv-x="196" 
d="M69 161q-8 -7 -18 -7q-25 0 -25 25q0 14 12 21l72 48q8 5 15 5q26 0 26 -26v-253q0 -26 -26 -26t-26 26v208z" />
    <glyph glyph-name="two.sinf" unicode="&#x2082;" horiz-adv-x="266" 
d="M210 231q30 -24 30 -66q0 -53 -80 -100l-16 -9l-14 -8l-8 -5l-7 -4q-8 -5 -11 -7q-25 -18 -25 -35h135q24 0 24 -24t-24 -24h-167q-24 0 -24 24q0 64 83 112l15 9l15 8q7 4 15 10l6 4l5 4q26 20 26 45q0 42 -56 42q-37 0 -57 -29q-7 -10 -19 -10q-23 0 -23 23q0 4 2 10
q23 53 97 53q49 0 78 -23z" />
    <glyph glyph-name="three.sinf" unicode="&#x2083;" horiz-adv-x="257" 
d="M144 135q46 0 70 -29q20 -26 20 -63q0 -100 -116 -100q-70 0 -101 58q-4 7 -4 14q0 23 23 23q14 0 21 -13q19 -34 61 -34q63 0 63 52q0 48 -60 48h-22q-24 0 -24 24q0 9 6 16l62 67h-93q-25 0 -25 25t25 25h144q25 0 25 -25q0 -12 -7 -18z" />
    <glyph glyph-name="four.sinf" unicode="&#x2084;" horiz-adv-x="260" 
d="M220 63q24 0 24 -24t-24 -24h-16v-41q0 -26 -26 -26t-26 26v41h-111q-24 0 -24 24q0 9 6 16l134 187q9 11 21 11q26 0 26 -26v-164h16zM152 63v96l-67 -96h67z" />
    <glyph glyph-name="five.sinf" unicode="&#x2085;" horiz-adv-x="262" 
d="M206 -32q-31 -26 -81 -26q-39 0 -68 18q-25 15 -39 39q-5 8 -5 15q0 23 23 23q13 0 22 -14q21 -33 67 -33q59 0 59 54q0 55 -59 55q-27 0 -58 -14q-13 -6 -19 -6q-23 0 -23 23q0 2 2 14l19 108q4 22 25 22h133q25 0 25 -25t-25 -25h-114l-10 -59q8 3 18 6q18 2 27 2
q112 0 112 -101q0 -49 -31 -76z" />
    <glyph glyph-name="six.sinf" unicode="&#x2086;" horiz-adv-x="275" 
d="M250 47q0 -52 -32 -79q-28 -25 -78 -25q-115 0 -115 149q0 162 122 162q49 0 74 -21q9 -7 9 -19q0 -23 -23 -23q-4 0 -16 5q-24 11 -44 11q-30 0 -49 -22q-23 -26 -23 -73q11 14 26 21q19 10 45 10q46 0 74 -24q30 -25 30 -72zM183 85q-16 13 -43 13q-45 0 -60 -42
q0 -27 12 -44q16 -22 48 -22q60 0 60 57q0 23 -17 38z" />
    <glyph glyph-name="seven.sinf" unicode="&#x2087;" horiz-adv-x="234" 
d="M119 128l10 12q11 11 19 21q18 23 18 37h-131q-25 0 -25 25t25 25h161q25 0 25 -25q0 -54 -59 -119q-60 -64 -60 -131q0 -27 -25 -27q-27 0 -27 27q0 76 58 143z" />
    <glyph glyph-name="eight.sinf" unicode="&#x2088;" horiz-adv-x="271" 
d="M70 111q-14 7 -25 21q-12 17 -12 38q0 84 102 84t102 -84q0 -21 -12 -38q-11 -14 -25 -21q48 -21 48 -73q0 -95 -113 -95t-113 95q0 52 48 73zM135 132q51 0 51 38q0 37 -51 37t-51 -37q0 -38 51 -38zM135 -10q60 0 60 48q0 49 -60 49t-60 -49q0 -48 60 -48z" />
    <glyph glyph-name="nine.sinf" unicode="&#x2089;" horiz-adv-x="275" 
d="M25 150q0 52 32 79q28 25 78 25q115 0 115 -149q0 -162 -122 -162q-48 0 -74 21q-9 8 -9 19q0 23 23 23q4 0 16 -5q24 -11 44 -11q30 0 49 22q23 26 23 73q-11 -14 -26 -21q-19 -10 -45 -10q-45 0 -74 24q-30 26 -30 72zM92 113q17 -14 43 -14q45 0 60 42q0 28 -12 44
q-16 22 -48 22q-60 0 -60 -57q0 -23 17 -37z" />
    <glyph glyph-name="Euro" unicode="&#x20ac;" horiz-adv-x="631" 
d="M122 239q35 -191 234 -191q117 0 174 82q4 6 13 10q6 3 13 3q32 0 32 -32q0 -10 -6 -19q-33 -48 -95 -77q-63 -29 -131 -29q-265 0 -305 253h-34q-27 0 -27 27t27 27h28q-1 9 -1 43v19l1 18h-28q-27 0 -27 27t27 27h34q41 260 305 260q149 0 225 -106q7 -10 7 -21
q0 -32 -32 -32q-16 0 -26 13q-61 84 -174 84q-197 0 -235 -198h162q27 0 27 -27t-27 -27h-168q-1 -8 -1 -37q0 -34 1 -43h168q27 0 27 -27t-27 -27h-161z" />
    <glyph glyph-name="numero" unicode="&#x2116;" horiz-adv-x="1066" 
d="M656 648v-623q0 -13 -10 -23q-9 -10 -23 -10q-16 0 -26 13l-454 551v-531q0 -13 -10 -23q-9 -10 -23 -10q-13 0 -23 10t-10 23v623q0 14 10 23q10 10 23 10q9 0 16 -4l6 -4l2 -2l1 -2l455 -552v531q0 14 10 23q10 10 23 10q14 0 23 -10q10 -9 10 -23zM877 547
q-90 0 -90 -118t90 -118t90 118t-90 118zM877 187q38 0 38 -40q0 -37 -38 -37t-38 37q0 40 38 40zM877 601q150 0 150 -172t-150 -172t-150 172t150 172z" />
    <glyph glyph-name="trademark" unicode="&#x2122;" horiz-adv-x="404" 
d="M166 652q17 0 17 -17t-17 -17h-42v-132q0 -19 -19 -19t-19 19v132h-43q-17 0 -17 17t17 17h123zM247 570v-85q0 -18 -18 -18t-18 18v152q0 18 18 18q8 0 12 -4l3 -4l2 -3l48 -86l48 86l2 3l4 4q4 4 11 4q18 0 18 -18v-152q0 -18 -18 -18t-18 18v85l-32 -55q-5 -8 -15 -8
t-15 8z" />
    <glyph glyph-name="minus" unicode="&#x2212;" horiz-adv-x="454" 
d="M27 191q-27 0 -27 27t27 27h400q27 0 27 -27t-27 -27h-400z" />
    <glyph glyph-name="radical" unicode="&#x221a;" horiz-adv-x="539" 
d="M271 -153q-4 -18 -27 -18q-18 0 -26 17l-171 388l-1 3l-1 3v4q0 29 28 29q19 0 26 -16l140 -331l198 765q2 8 9 14q7 7 18 7q29 0 29 -29q0 -5 -1 -8z" />
    <glyph glyph-name="notequal" unicode="&#x2260;" horiz-adv-x="454" 
d="M175 114l-29 -43q-5 -8 -14 -8q-16 0 -16 16q0 2 2 8l18 27h-109q-27 0 -27 27t27 27h146l68 99h-214q-27 0 -27 27t27 27h251l31 44q5 8 14 8q16 0 16 -16q0 -2 -2 -8l-20 -28h110q27 0 27 -27t-27 -27h-147l-68 -99h215q27 0 27 -27t-27 -27h-252z" />
    <glyph glyph-name="lessequal" unicode="&#x2264;" horiz-adv-x="337" 
d="M27 0q-27 0 -27 27t27 27h283q27 0 27 -27t-27 -27h-283zM324 139q13 -7 13 -23q0 -27 -27 -27q-8 0 -16 5l-281 170q-13 9 -13 23t13 23l281 170q8 5 16 5q27 0 27 -27q0 -16 -13 -23l-258 -148z" />
    <glyph glyph-name="greaterequal" unicode="&#x2265;" horiz-adv-x="337" 
d="M310 54q27 0 27 -27t-27 -27h-283q-27 0 -27 27t27 27h283zM271 287l-258 148q-13 7 -13 23q0 27 27 27q8 0 16 -5l281 -170q13 -9 13 -23t-13 -23l-281 -170q-8 -5 -16 -5q-27 0 -27 27q0 16 13 23z" />
    <glyph glyph-name="uniF6C3" unicode="&#xf6c3;" horiz-adv-x="141" 
d="M63 -235q-6 -6 -13 -6q-6 0 -11 5q-4 5 -2 14q11 36 11 55q0 21 -9 43q-9 23 -9 35q0 47 39 47q40 0 40 -58q0 -29 -12 -67q-13 -41 -34 -68z" />
    <glyph glyph-name="s_t" unicode="&#xfb06;" horiz-adv-x="684" 
d="M159 289q17 -9 42 -18l24 -9l25 -8q63 -23 90 -46q41 -35 41 -88q0 -66 -49 -100q-47 -32 -121 -32q-56 0 -106 24q-42 19 -65 48q-7 10 -7 19q0 29 29 29q12 0 22 -10q49 -49 127 -49q106 0 106 71q0 33 -41 56q-16 8 -42 18l-24 8l-24 8q-64 24 -91 46q-41 35 -41 90
q0 61 45 92q41 29 108 29q44 0 84 -15q-55 58 -55 114q0 52 41 87q40 34 105 34q90 0 136 -54q41 -50 41 -135v-44h65q30 0 30 -30t-30 -30h-65v-276q0 -66 58 -66q31 0 31 -30t-31 -30q-58 0 -91 36q-31 34 -31 90v276h-39q-30 0 -30 30t30 30h39v42q0 137 -115 137
q-46 0 -75 -24q-28 -22 -28 -58q0 -39 24 -75q8 -13 26 -35l15 -18l17 -20q7 -8 7 -19q0 -29 -29 -29h-4l-5 2q-6 1 -12 7q-43 42 -109 42q-89 0 -89 -60q0 -34 41 -57z" />
    <glyph glyph-name="zero.1" horiz-adv-x="592" 
d="M477 337q0 153 -44 223q-43 67 -137 67t-137 -67q-44 -70 -44 -223t44 -223q44 -68 137 -68t137 68q44 70 44 223zM543 337q0 -179 -60 -265q-62 -86 -187 -86q-126 0 -186 86q-61 85 -61 265t61 265q60 85 186 85t187 -85q60 -85 60 -265z" />
    <glyph glyph-name="one.1" horiz-adv-x="592" 
d="M146 465q-9 -6 -19 -6q-13 0 -22 10q-10 9 -10 22q0 18 14 27l210 156q10 7 20 7q14 0 23 -10q10 -9 10 -23v-623q0 -13 -10 -23q-9 -10 -23 -10q-13 0 -23 10t-10 23v564z" />
    <glyph glyph-name="two.1" horiz-adv-x="592" 
d="M454 633q57 -52 57 -141q0 -82 -58 -152q-43 -50 -127 -108l-35 -23l-34 -21q-41 -28 -59 -42q-58 -45 -58 -84h349q31 0 31 -31t-31 -31h-386q-31 0 -31 31q0 73 58 134q31 34 128 98l35 22l33 24q36 25 60 50q58 61 58 133q0 60 -38 96q-40 39 -109 39q-100 0 -142 -92
q-9 -20 -29 -20q-31 0 -31 31v4l1 3l1 4q43 130 200 130q100 0 157 -54z" />
    <glyph glyph-name="three.1" horiz-adv-x="592" 
d="M309 408q212 0 212 -216q0 -100 -58 -152q-60 -54 -173 -54q-147 0 -215 113q-5 8 -5 17q0 30 30 30q17 0 27 -16q51 -84 163 -84q165 0 165 146q0 156 -151 156h-70q-30 0 -30 30q0 10 8 21l184 214h-258q-30 0 -30 30t30 30h326q30 0 30 -30q0 -11 -8 -21l-187 -214h10
z" />
    <glyph glyph-name="four.1" horiz-adv-x="592" 
d="M503 217q32 0 32 -30q0 -32 -32 -32h-57v-130q0 -13 -10 -23q-9 -10 -23 -10q-13 0 -23 10t-10 23v130h-292q-31 0 -31 31q0 10 7 20l322 460q11 14 27 14q14 0 23 -10q10 -9 10 -23v-430h57zM380 217v336l-234 -336h234z" />
    <glyph glyph-name="five.1" horiz-adv-x="592" 
d="M529 217q0 -116 -65 -175q-61 -56 -167 -56q-166 0 -231 135q-4 7 -4 15q0 31 31 31q17 0 28 -17q31 -53 73 -78q41 -24 103 -24q166 0 166 169q0 84 -47 128q-43 40 -119 40q-99 0 -160 -61l-5 -5l-5 -4q-7 -4 -17 -4q-31 0 -31 31q0 1 1 5v3l1 5l58 294q1 8 9 16
q10 8 21 8h304q31 0 31 -31t-31 -31h-282l-40 -205q56 40 146 40q108 0 167 -55q65 -60 65 -174z" />
    <glyph glyph-name="six.1" horiz-adv-x="592" 
d="M531 211q0 -225 -233 -225q-120 0 -181 94q-56 86 -56 241q0 366 251 366q55 0 101 -18q41 -15 60 -37q10 -10 10 -23q0 -31 -31 -31q-10 0 -21 8q-56 41 -119 41q-185 0 -185 -282q25 35 66 59q52 29 111 29q103 0 163 -54q64 -58 64 -168zM418 335q-43 38 -114 38
q-111 0 -172 -109q0 -97 42 -156q45 -62 124 -62q167 0 167 165q0 82 -47 124z" />
    <glyph glyph-name="seven.1" horiz-adv-x="592" 
d="M331 416l26 29q28 32 45 56q44 62 44 110h-337q-31 0 -31 31t31 31h373q31 0 31 -31q0 -75 -45 -146q-16 -28 -45 -63l-26 -31l-26 -31q-69 -84 -98 -144q-45 -93 -45 -203q0 -32 -32 -32t-32 32q0 188 141 360z" />
    <glyph glyph-name="eight.1" horiz-adv-x="592" 
d="M62 190q0 133 118 178q-88 46 -88 145q0 87 57 132q53 42 147 42q95 0 147 -42q57 -45 57 -132q0 -99 -88 -145q118 -45 118 -178q0 -99 -65 -153q-61 -51 -169 -51q-107 0 -169 51q-65 54 -65 153zM296 395q138 0 138 118q0 114 -138 114t-138 -114q0 -118 138 -118z
M296 46q168 0 168 144q0 145 -168 145t-168 -145q0 -144 168 -144z" />
    <glyph glyph-name="nine.1" horiz-adv-x="592" 
d="M61 462q0 225 233 225q120 0 181 -94q56 -86 56 -241q0 -366 -251 -366q-54 0 -101 18q-41 15 -60 37q-10 10 -10 23q0 31 31 31q10 0 21 -8q56 -41 119 -41q185 0 185 282q-25 -35 -66 -59q-52 -29 -111 -29q-103 0 -163 54q-64 58 -64 168zM174 338q43 -38 114 -38
q111 0 172 109q0 98 -42 156q-45 62 -124 62q-167 0 -167 -165q0 -82 47 -124z" />
    <glyph glyph-name="A.ornm" horiz-adv-x="732" 
d="M699 571q0 -58 -45 -93q-43 -32 -109 -32q-36 0 -68 6q-21 -32 -56 -47q60 0 98 -31q39 -31 39 -84q0 -64 -44 -93q-29 -20 -97 -31l-26 -3l-26 -4q-26 -4 -45 -11q-44 -17 -44 -58q0 -46 49 -46q28 0 40 33q14 33 40 33q44 0 44 -45q0 -39 -41 -59q-33 -14 -78 -14
q-122 0 -194 106q-59 89 -59 195q0 79 40 134q46 61 126 61q63 0 104 -44q-80 -52 -114 -98q-42 -58 -42 -142v-20l1 -10l1 -10q1 -16 12 -16q9 0 9 17v19q-1 6 -1 12v8q0 69 38 122q30 41 100 85q46 28 67 55q-39 11 -84 36l-9 5l-9 6q-11 7 -19 12l-16 11l-15 11
q-5 3 -14 11l-9 7l-10 8l-17 15l-17 14q-40 33 -70 33q-40 0 -40 -41q0 -39 40 -39q12 0 20 7l7 7l6 6q8 6 17 6q26 0 26 -26q0 -22 -28 -38q-26 -14 -52 -14q-38 0 -65 27t-27 64q0 38 27 66q27 27 65 27q34 0 68 -18q24 -15 54 -40q40 58 113 58q58 0 100 -42t42 -100
q0 -9 -2 -25q-1 -6 -5 -18q20 -4 50 -4q40 0 65 16q33 20 33 57q0 26 -18 44q-20 20 -47 20q-11 0 -25 -6q-12 -6 -19 -6q-26 0 -26 26q0 14 11 22q20 16 59 16q52 0 86 -33q35 -33 35 -83zM424 606q-26 29 -64 29q-48 0 -71 -42q73 -58 151 -83q6 17 6 35q0 35 -22 61z" />
    <glyph glyph-name="uni2070.1" horiz-adv-x="610" 
d="M305 492q-186 0 -186 -222q0 -223 186 -223t186 223q0 222 -186 222zM556 270q0 -139 -68 -213q-64 -70 -183 -70t-183 70q-68 74 -68 213q0 138 68 212q64 70 183 70t183 -70q68 -74 68 -212z" />
    <glyph glyph-name="onesuperior.1" horiz-adv-x="364" 
d="M86 379q-8 -5 -17 -5q-30 0 -30 30q0 16 13 25l158 109q13 8 22 8q32 0 32 -32v-490q0 -32 -32 -32t-32 32v434z" />
    <glyph glyph-name="twosuperior.1" horiz-adv-x="508" 
d="M414 505q50 -44 50 -117q0 -63 -55 -115q-39 -37 -120 -77l-33 -16l-31 -16q-35 -18 -56 -32q-55 -34 -55 -72h331q30 0 30 -30t-30 -30h-368q-30 0 -30 30q0 72 55 124q40 38 122 77l32 16l32 16q38 19 57 34q55 40 55 91q0 45 -35 74q-37 30 -103 30q-97 0 -138 -87
q-7 -18 -28 -18q-30 0 -30 30v4l1 4l1 3q46 124 194 124q97 0 152 -47z" />
    <glyph glyph-name="threesuperior.1" horiz-adv-x="532" 
d="M271 273q212 0 212 -216q0 -100 -58 -152q-60 -54 -173 -54q-147 0 -215 113q-5 8 -5 17q0 30 30 30q17 0 27 -16q51 -84 163 -84q165 0 165 146q0 156 -151 156h-70q-30 0 -30 30q0 10 8 21l184 214h-258q-30 0 -30 30t30 30h326q30 0 30 -30q0 -11 -8 -21l-187 -214h10
z" />
    <glyph glyph-name="uni2074.1" horiz-adv-x="532" 
d="M469 87q30 0 30 -30t-30 -30h-57v-137q0 -33 -32 -33q-13 0 -23 10t-10 23v137h-293q-30 0 -30 30q0 10 7 20l322 455q11 14 27 14q32 0 32 -33v-426h57zM347 87v335l-237 -335h237z" />
    <glyph glyph-name="uni2075.1" horiz-adv-x="558" 
d="M514 82q0 -116 -65 -175q-61 -56 -167 -56q-166 0 -231 135q-4 7 -4 15q0 31 31 31q17 0 28 -17q31 -53 73 -78q41 -24 103 -24q166 0 166 169q0 84 -47 128q-43 40 -119 40q-99 0 -160 -61l-5 -5l-5 -4q-7 -4 -17 -4q-31 0 -31 31q0 1 1 5v3l1 5l58 294q1 8 9 16
q10 8 21 8h304q31 0 31 -31t-31 -31h-282l-40 -205q56 40 146 40q108 0 167 -55q65 -60 65 -174z" />
    <glyph glyph-name="uni2076.1" horiz-adv-x="566" 
d="M518 209q0 -223 -233 -223q-121 0 -181 92q-56 86 -56 239q0 364 251 364q55 0 101 -18q41 -15 60 -37q10 -10 10 -23q0 -31 -31 -31q-10 0 -21 8q-56 41 -119 41q-185 0 -185 -280q25 35 66 59q52 29 111 29q102 0 163 -53q64 -57 64 -167zM405 332q-40 37 -114 37
q-111 0 -172 -109q0 -97 42 -154q44 -60 124 -60q167 0 167 163q0 82 -47 123z" />
    <glyph glyph-name="uni2077.1" horiz-adv-x="483" 
d="M278 281l26 29q28 32 45 56q44 62 44 110h-337q-31 0 -31 31t31 31h373q31 0 31 -31q0 -75 -45 -146q-16 -28 -45 -63l-26 -31l-26 -31q-69 -84 -98 -144q-45 -93 -45 -203q0 -32 -32 -32t-32 32q0 188 141 360z" />
    <glyph glyph-name="uni2078.1" horiz-adv-x="550" 
d="M41 188q0 132 118 177q-88 46 -88 143q0 87 57 130q53 42 147 42q95 0 147 -42q57 -43 57 -130q0 -97 -88 -143q118 -45 118 -177q0 -99 -65 -152q-62 -50 -169 -50t-169 50q-65 53 -65 152zM275 392q138 0 138 116q0 112 -138 112t-138 -112q0 -116 138 -116zM275 46
q168 0 168 142q0 144 -168 144t-168 -144q0 -142 168 -142z" />
    <glyph glyph-name="uni2079.1" horiz-adv-x="566" 
d="M48 329q0 223 233 223q121 0 181 -92q56 -86 56 -239q0 -364 -251 -364q-54 0 -101 18q-41 15 -60 37q-10 10 -10 23q0 31 31 31q10 0 21 -8q56 -41 119 -41q185 0 185 280q-25 -35 -66 -59q-52 -29 -111 -29q-102 0 -163 53q-64 57 -64 167zM161 206q40 -37 114 -37
q111 0 172 109q0 97 -42 154q-43 60 -124 60q-167 0 -167 -163q0 -82 47 -123z" />
    <glyph glyph-name="hyphen.1" horiz-adv-x="364" 
d="M82 310q-27 0 -27 27t27 27h200q27 0 27 -27t-27 -27h-200z" />
    <glyph glyph-name="parenleft.1" horiz-adv-x="294" 
d="M230 776q8 3 13 3q28 0 28 -28q0 -18 -18 -26q-85 -40 -111 -137q-18 -67 -18 -251q0 -183 18 -251q26 -97 111 -137q18 -7 18 -26q0 -28 -28 -28q-5 0 -13 3q-96 42 -133 136q-37 95 -37 303t37 303q37 94 133 136z" />
    <glyph glyph-name="parenright.1" horiz-adv-x="294" 
d="M64 -102q-7 -3 -13 -3q-28 0 -28 28q0 19 18 26q85 40 111 137q18 68 18 251q0 184 -18 251q-26 97 -111 137q-18 8 -18 26q0 28 28 28q6 0 13 -3q96 -42 133 -136q37 -95 37 -303t-37 -303q-37 -94 -133 -136z" />
    <glyph glyph-name="bracketleft.1" horiz-adv-x="259" 
d="M112 -105q-32 0 -32 32v820q0 32 32 32h101q26 0 26 -26t-26 -26h-69v-780h69q26 0 26 -26t-26 -26h-101z" />
    <glyph glyph-name="bracketright.1" horiz-adv-x="259" 
d="M115 -53v780h-69q-26 0 -26 26t26 26h101q32 0 32 -32v-820q0 -32 -32 -32h-101q-26 0 -26 26t26 26h69z" />
    <glyph glyph-name="braceleft.1" horiz-adv-x="338" 
d="M176 -68q-33 32 -33 80q0 26 6 104t6 106q0 53 -29 76q-22 16 -71 16h-7q-23 0 -23 23t23 23h7q48 0 71 17q29 21 29 76q0 15 -2 49l-2 22l-2 23q-6 62 -6 116q0 48 33 79q37 37 108 37q28 0 28 -28t-28 -28q-74 0 -74 -73q0 -13 1 -34q1 -26 3 -58q4 -61 4 -97
q0 -55 -30 -88q-33 -36 -91 -36q58 0 91 -35q30 -34 30 -89q0 -14 -1 -36q-1 -26 -3 -59q-2 -32 -3 -59q-1 -22 -1 -35q0 -73 74 -73q28 0 28 -28t-28 -28q-71 0 -108 37z" />
    <glyph glyph-name="braceright.1" horiz-adv-x="338" 
d="M128 24q0 13 -1 35q-1 27 -3 59q-2 33 -3 59q-1 22 -1 36q0 55 31 89q32 35 90 35q-58 0 -90 36q-31 32 -31 88q0 36 4 97q2 32 3 58q1 21 1 34q0 73 -74 73q-28 0 -28 28t28 28q71 0 108 -37q33 -31 33 -79q0 -54 -6 -116l-2 -23l-2 -22q-2 -34 -2 -49q0 -55 29 -76
q23 -17 71 -17h7q23 0 23 -23t-23 -23h-7q-49 0 -71 -16q-29 -23 -29 -76q0 -28 6 -106t6 -104q0 -48 -33 -80q-37 -37 -108 -37q-28 0 -28 28t28 28q74 0 74 73z" />
    <glyph glyph-name="guillemotleft.1" horiz-adv-x="522" 
d="M248 547q8 9 18 9q24 0 24 -24q0 -10 -7 -17l-153 -178l153 -178q7 -7 7 -17q0 -24 -24 -24q-10 0 -18 9l-163 192q-7 8 -7 18t7 18zM402 547q8 9 18 9q24 0 24 -24q0 -10 -7 -17l-153 -178l153 -178q7 -7 7 -17q0 -24 -24 -24q-10 0 -18 9l-163 192q-7 8 -7 18t7 18z
" />
    <glyph glyph-name="guillemotright.1" horiz-adv-x="522" 
d="M274 127q-7 -9 -18 -9q-24 0 -24 24q0 10 7 17l153 178l-153 178q-7 7 -7 17q0 24 24 24q11 0 18 -9l163 -192q7 -8 7 -18t-7 -18zM120 127q-7 -9 -18 -9q-24 0 -24 24q0 10 7 17l153 178l-153 178q-7 7 -7 17q0 24 24 24q11 0 18 -9l163 -192q7 -8 7 -18t-7 -18z" />
    <glyph glyph-name="guilsinglleft.1" horiz-adv-x="367" 
d="M247 547q8 9 18 9q24 0 24 -24q0 -10 -7 -17l-153 -178l153 -178q7 -7 7 -17q0 -24 -24 -24q-10 0 -18 9l-163 192q-7 8 -7 18t7 18z" />
    <glyph glyph-name="guilsinglright.1" horiz-adv-x="367" 
d="M120 127q-7 -9 -18 -9q-24 0 -24 24q0 10 7 17l153 178l-153 178q-7 7 -7 17q0 24 24 24q11 0 18 -9l163 -192q7 -8 7 -18t-7 -18z" />
    <glyph glyph-name="endash.1" horiz-adv-x="584" 
d="M130 310q-27 0 -27 27t27 27h324q27 0 27 -27t-27 -27h-324z" />
    <glyph glyph-name="emdash.1" horiz-adv-x="918" 
d="M130 310q-27 0 -27 27t27 27h658q27 0 27 -27t-27 -27h-658z" />
    <glyph glyph-name="periodcentered.1" horiz-adv-x="164" 
d="M82 375q47 0 47 -48q0 -47 -47 -47t-47 47q0 48 47 48z" />
    <glyph glyph-name="questiondown.1" horiz-adv-x="461" 
d="M275 353q-11 -11 -33 -28l-19 -13l-19 -13q-52 -33 -72 -57q-33 -37 -33 -87q0 -110 134 -110q128 0 128 120q0 14 10 23q10 10 23 10q14 0 23 -10q10 -9 10 -23q0 -84 -51 -131q-51 -48 -143 -48t-145 44t-53 125q0 100 103 173l19 13l19 12q23 15 33 24q32 27 32 53
q0 18 -14 40q-8 13 -8 22q0 15 11 24t22 9q14 0 24 -10q32 -32 32 -85q0 -42 -33 -77zM256 586q-47 0 -47 48q0 47 47 47t47 -47q0 -48 -47 -48z" />
    <glyph glyph-name="exclamdown.1" horiz-adv-x="208" 
d="M84 498q0 18 20 18t20 -18l15 -471q2 -35 -35 -35t-35 35zM104 586q-47 0 -47 48q0 47 47 47t47 -47q0 -48 -47 -48z" />
    <glyph glyph-name="bullet.1" horiz-adv-x="418" 
d="M209 473q130 0 130 -136q0 -130 -130 -130t-130 130q0 136 130 136z" />
    <glyph glyph-name="dollar.1" horiz-adv-x="473" 
d="M143 500q-28 -22 -28 -59q0 -46 49 -74q20 -10 51 -24l29 -10l29 -11q74 -27 109 -57q49 -43 49 -113q0 -71 -46 -114q-46 -44 -126 -49v-77q0 -26 -26 -26t-26 26v76q-115 10 -175 102l-4 8q-2 6 -2 10q0 31 31 31q17 0 27 -16q48 -75 143 -75q140 0 140 104
q0 49 -50 81q-19 12 -50 25l-29 10l-29 11q-79 28 -109 55q-50 41 -50 107q0 68 51 105q43 32 106 38v61q0 26 26 26t26 -26v-61q42 -4 81 -23q49 -22 75 -64q5 -8 5 -17q0 -31 -31 -31q-9 0 -16 4q-6 4 -10 10q-47 62 -130 62q-59 0 -90 -25z" />
    <glyph glyph-name="cent.1" horiz-adv-x="502" 
d="M243 612q0 26 26 26t26 -26v-68q65 -5 111 -34q14 -9 29 -24l5 -4l5 -5l3 -4l2 -3q7 -10 7 -21q0 -12 -9 -21t-21 -9q-14 0 -23 10q-20 23 -48 37q-36 18 -83 18q-173 0 -173 -216q0 -220 173 -220q47 0 84 17q27 12 45 33q10 13 25 13q30 0 30 -29q0 -11 -7 -21l-2 -3
l-3 -4l-9 -9q-12 -10 -30 -22q-47 -29 -111 -35v-76q0 -26 -26 -26t-26 26v77q-93 4 -149 73q-59 74 -59 206q0 253 208 275v69z" />
    <glyph glyph-name="sterling.1" horiz-adv-x="501" 
d="M176 252q12 -31 12 -71q0 -67 -45 -112q24 12 54 12q24 0 75 -17q51 -18 74 -18q43 0 73 39q9 12 24 12q30 0 30 -30q0 -8 -4 -17q-32 -65 -123 -65q-30 0 -83 19t-84 19q-42 0 -88 -28q-10 -6 -20 -6q-13 0 -22 9q-7 8 -7 20q0 16 14 25q29 18 50 55q19 34 19 70
q0 48 -16 84h-44q-30 0 -30 30t30 30h13q-32 58 -32 110q0 67 49 113q54 51 147 51q74 0 126 -34q48 -32 67 -81q3 -7 3 -16q0 -30 -30 -30q-19 0 -28 19q-37 82 -138 82q-61 0 -96 -29t-35 -75q0 -48 36 -110h133q30 0 30 -30t-30 -30h-104z" />
    </font>
</defs>
</svg>
