<?xml version="1.0" standalone="no"?>
<!DOCTYPE svg PUBLIC "-//W3C//DTD SVG 1.1//EN" "http://www.w3.org/Graphics/SVG/1.1/DTD/svg11.dtd" >
<svg xmlns="http://www.w3.org/2000/svg" xmlns:xlink="http://www.w3.org/1999/xlink" version="1.1">
<metadata>
Created by FontForge 20161013 at Mon Feb 13 10:42:15 2017
 By ,,,
Zenze Media (c) 2011
</metadata>
<defs>
<font id="SVN-Servetica-Medium" horiz-adv-x="278" >
  <font-face 
    font-family="SVN-Servetica Medium"
    font-weight="400"
    font-stretch="normal"
    units-per-em="1000"
    panose-1="2 11 6 4 2 2 2 2 2 4"
    ascent="714"
    descent="-286"
    x-height="517"
    cap-height="714"
    bbox="-165 -223 1067 1106"
    underline-thickness="50"
    underline-position="-150"
    unicode-range="U+0020-FB02"
  />
<missing-glyph horiz-adv-x="512" 
d="M222 117v67h56v-67h-56zM225 234l-2 17q0 56 13 81q14 27 46 59q50 48 50 83t-23 61q-22 24 -53 24q-71 0 -82 -95l-50 8q14 137 135 137q55 0 89 -36q35 -37 35 -95q0 -61 -63 -120q-37 -33 -43 -52t-6 -72h-46zM462 50v617h-412v-617h412zM512 718v-718h-512v718h512z
" />
    <glyph glyph-name="uniFB01" unicode="fi" horiz-adv-x="556" 
d="M378 714h114v-108h-114v108zM9 517h85v43q0 89 44 127q33 27 99 27q58 0 80 -7v-89q-22 6 -53 6q-56 0 -56 -54v-53h97v-85h-97v-432h-114v432h-85v85zM378 517h114v-517h-114v517z" />
    <glyph glyph-name="uniFB02" unicode="fl" horiz-adv-x="556" 
d="M378 714h114v-714h-114v714zM9 517h85v43q0 89 44 127q33 27 99 27q58 0 80 -7v-89q-22 6 -53 6q-56 0 -56 -54v-53h97v-85h-97v-432h-114v432h-85v85z" />
    <glyph glyph-name=".notdef" horiz-adv-x="512" 
d="M222 117v67h56v-67h-56zM225 234l-2 17q0 56 13 81q14 27 46 59q50 48 50 83t-23 61q-22 24 -53 24q-71 0 -82 -95l-50 8q14 137 135 137q55 0 89 -36q35 -37 35 -95q0 -61 -63 -120q-37 -33 -43 -52t-6 -72h-46zM462 50v617h-412v-617h412zM512 718v-718h-512v718h512z
" />
    <glyph glyph-name=".null" horiz-adv-x="0" 
 />
    <glyph glyph-name="nonmarkingreturn" horiz-adv-x="333" 
 />
    <glyph glyph-name="glyph232" horiz-adv-x="500" 
 />
    <glyph glyph-name="glyph232" horiz-adv-x="500" 
 />
    <glyph glyph-name="space" unicode=" " 
 />
    <glyph glyph-name="exclam" unicode="!" 
d="M72 125h134v-125h-134v125zM77 714h125v-206l-33 -309h-59l-33 309v206z" />
    <glyph glyph-name="quotedbl" unicode="&#x22;" horiz-adv-x="444" 
d="M259 714h102v-282h-102v282zM83 714h102v-282h-102v282z" />
    <glyph glyph-name="numbersign" unicode="#" horiz-adv-x="556" 
d="M467 698l-30 -209h86v-75h-96l-18 -130h85v-75h-95l-30 -209h-80l29 209h-110l-29 -209h-80l29 209h-94v75h295l18 130h-111l-9 -69h-80l10 69h-94v75h104l29 209h80l-30 -209h111l29 209h81z" />
    <glyph glyph-name="dollar" unicode="$" horiz-adv-x="556" 
d="M303 430q111 -30 164 -69q73 -55 73 -153q0 -179 -176 -217v96q62 29 62 105q0 82 -122 114v-401h-44v78q-112 2 -176 63q-67 63 -66 171h114q-1 -139 128 -144v242q-105 29 -154 66q-73 55 -73 154q0 77 49 127q45 48 119 63v-93q-54 -21 -54 -89q0 -76 113 -102v368h43
v-78q97 0 155 -48q64 -52 64 -147h-114q-4 105 -105 105v-211z" />
    <glyph glyph-name="percent" unicode="%" horiz-adv-x="1000" 
d="M649 724h76l-387 -748h-78zM724 -11q-70 9 -106 66q-32 50 -32 129q0 87 39 139q44 59 127 59q82 0 126 -59q40 -52 40 -139q0 -79 -31 -128q-35 -56 -103 -67v71q44 27 44 124q0 133 -77 133q-76 0 -76 -133q0 -105 49 -127v-68zM221 320q-70 9 -106 66q-32 50 -32 129
q0 87 39 139q44 59 127 59q82 0 126 -59q40 -52 40 -139q0 -79 -31 -128q-35 -56 -103 -67v71q44 27 44 124q0 133 -77 133q-76 0 -76 -133q0 -105 49 -127v-68z" />
    <glyph glyph-name="ampersand" unicode="&#x26;" horiz-adv-x="648" 
d="M257 329q-32 -19 -51 -31q-18 -12 -20 -14q-40 -34 -40 -89q0 -57 33 -89q32 -32 83 -32q58 0 95 33l57 -72q-64 -51 -156 -51q-101 0 -163 56q-63 59 -63 157q0 112 135 191l125 59q84 57 84 117q0 35 -20 58q-21 24 -53 24q-33 0 -55 -22t-22 -57q0 -32 27 -70l-91 -46
q-38 58 -38 110q0 76 51 124q49 46 125 46q74 0 123 -42q55 -46 55 -129q0 -111 -129 -182l111 -134q18 54 22 96h100q-11 -104 -56 -175l138 -167h-141l-126 157z" />
    <glyph glyph-name="quotesingle" unicode="'" 
d="M88 714h102v-282h-102v282z" />
    <glyph glyph-name="parenleft" unicode="(" 
d="M193 -191q-144 233 -144 461q0 241 144 461h93q-123 -220 -123 -461q0 -252 123 -461h-93z" />
    <glyph glyph-name="parenright" unicode=")" 
d="M85 731q144 -229 144 -462q0 -241 -144 -460h-93q123 221 123 460q0 251 -123 462h93z" />
    <glyph glyph-name="asterisk" unicode="*" horiz-adv-x="370" 
d="M19 572l22 65l110 -43v120h68v-120l109 43l24 -65l-114 -38l70 -94l-53 -39l-71 98l-68 -98l-56 39l70 94z" />
    <glyph glyph-name="plus" unicode="+" horiz-adv-x="600" 
d="M249 506h102v-202h201v-102h-201v-202h-102v202h-201v102h201v202z" />
    <glyph glyph-name="comma" unicode="," 
d="M69 135h139v-135q-2 -62 -38 -104t-97 -54v61q67 16 65 97h-69v135z" />
    <glyph glyph-name="hyphen" unicode="-" horiz-adv-x="389" 
d="M49 326h291v-108h-291v108z" />
    <glyph glyph-name="period" unicode="." 
d="M69 135h139v-135h-139v135z" />
    <glyph glyph-name="slash" unicode="/" horiz-adv-x="352" 
d="M265 731h109l-287 -748h-109z" />
    <glyph glyph-name="zero" unicode="0" horiz-adv-x="556" 
d="M277 -12q-134 0 -196 122q-45 92 -45 241q0 141 41 232l86 -86q-13 -56 -13 -146q0 -268 127 -268q128 0 128 268t-128 268q-60 0 -92 -60l-76 77q62 78 168 78q134 0 196 -122q46 -91 46 -241t-46 -241q-62 -122 -196 -122z" />
    <glyph glyph-name="one" unicode="1" horiz-adv-x="440" 
d="M42 584q181 0 204 116h93v-700h-125v494h-172v90z" />
    <glyph glyph-name="two" unicode="2" horiz-adv-x="556" 
d="M517 0h-478q1 162 154 265q4 3 24 17l10 6l11 8l26 18q43 29 68 50q71 62 72 131q0 124 -118 124q-116 0 -120 -175h-114q0 119 62 193q65 77 179 77q115 0 177 -74q48 -58 48 -141q0 -128 -157 -236l-60 -40q-35 -22 -56 -38q-57 -44 -69 -83h341v-102z" />
    <glyph glyph-name="three" unicode="3" horiz-adv-x="556" 
d="M228 410q66 -3 106 22q49 28 49 88q0 45 -30 72q-31 27 -79 27q-56 0 -89 -44q-28 -40 -27 -99h-114q5 105 65 170q65 68 167 68q89 0 151 -47q70 -52 70 -140q0 -115 -99 -150v-2q59 -12 94 -59q33 -46 33 -116q0 -96 -74 -156q-70 -58 -174 -58q-119 0 -183 67
q-61 65 -63 177h114q-2 -67 32 -106q34 -43 100 -43q59 0 96 33q38 35 38 92q0 125 -183 119v85z" />
    <glyph glyph-name="four" unicode="4" horiz-adv-x="556" 
d="M432 701v-384h-109v248h-2l-210 -309h212v1h109v-1h90v-90h-90v-166h-109v166h-300v113l300 422h109z" />
    <glyph glyph-name="five" unicode="5" horiz-adv-x="556" 
d="M123 700h362v-102h-277l-36 -178l2 -2q47 53 129 53q102 0 162 -67q57 -64 57 -167q0 -96 -56 -167q-67 -84 -186 -84q-105 0 -171 54q-69 56 -74 159h114q10 -118 129 -118q130 0 130 154q0 61 -32 102q-36 44 -101 44q-88 0 -113 -64h-114z" />
    <glyph glyph-name="six" unicode="6" horiz-adv-x="556" 
d="M301 460q101 0 163 -68q58 -64 58 -167q0 -104 -64 -171q-65 -68 -169 -68q-143 0 -204 106q-51 89 -51 260q0 147 58 244q70 118 206 118q83 0 145 -53q62 -54 66 -138h-114q-4 44 -30 69q-28 27 -72 27q-118 0 -140 -193q-2 -12 -4 -38l-1 -9q-7 -122 16 -194
q10 -46 40 -74q33 -30 81 -30q59 0 93 45q30 41 30 101t-30 100q-34 43 -93 43q-46 0 -78 -27q2 62 8 97q40 20 86 20z" />
    <glyph glyph-name="seven" unicode="7" horiz-adv-x="556" 
d="M35 700h479v-95q-235 -265 -261 -605h-125q22 319 270 598h-363v102z" />
    <glyph glyph-name="eight" unicode="8" horiz-adv-x="556" 
d="M402 376q57 -16 90 -60q33 -45 33 -109q0 -100 -70 -161q-67 -58 -177 -58q-109 0 -176 58q-70 61 -70 161q0 85 55 133l106 -35q-47 -35 -47 -98q0 -60 38 -95q35 -34 94 -34q60 0 95 34q38 35 38 95q0 93 -88 117l-163 55v1q-99 38 -99 144q0 90 56 140q58 50 161 50
t161 -50q57 -49 57 -140q0 -60 -36 -101l-96 26q24 27 24 69q0 49 -32 79q-30 27 -78 27q-47 0 -77 -27q-32 -30 -32 -79q0 -78 71 -98z" />
    <glyph glyph-name="nine" unicode="9" horiz-adv-x="556" 
d="M254 241q-101 0 -163 68q-58 64 -58 168q0 103 64 170q65 69 169 69q143 0 205 -107q51 -87 51 -260q0 -145 -59 -243q-71 -119 -206 -119q-83 0 -145 53q-61 54 -66 138h114q5 -44 31 -69q27 -27 71 -27q119 0 141 193l2 19l2 20l1 8l-1 1q7 124 -15 193q-11 48 -40 74
q-32 31 -82 31q-59 0 -92 -45q-31 -40 -31 -101q0 -62 31 -100q33 -44 92 -44q48 0 79 27q-1 -55 -9 -97q-38 -20 -86 -20z" />
    <glyph glyph-name="colon" unicode=":" 
d="M69 135h139v-135h-139v135zM69 506h139v-135h-139v135z" />
    <glyph glyph-name="semicolon" unicode=";" 
d="M69 506h139v-135h-139v135zM69 135h139v-135q-2 -62 -38 -104t-97 -54v61q67 16 65 97h-69v135z" />
    <glyph glyph-name="less" unicode="&#x3c;" horiz-adv-x="600" 
d="M554 -8l-508 225v72l508 225v-102l-374 -159l374 -159v-102z" />
    <glyph glyph-name="equal" unicode="=" horiz-adv-x="600" 
d="M552 101h-504v102h504v-102zM552 303h-504v102h504v-102z" />
    <glyph glyph-name="greater" unicode="&#x3e;" horiz-adv-x="600" 
d="M420 253l-374 159v102l508 -225v-72l-508 -225v102z" />
    <glyph glyph-name="question" unicode="?" horiz-adv-x="556" 
d="M208 125h134v-125h-134v125zM49 487q0 110 65 177q64 67 175 67q94 0 155 -53q63 -55 63 -149q0 -64 -28 -104q-14 -22 -60 -62q-49 -41 -63 -65q-25 -38 -25 -104h-108q0 137 78 203q48 42 56 53q25 31 25 75q0 55 -36 86q-28 25 -62 25q-121 0 -121 -149h-114z" />
    <glyph glyph-name="at" unicode="@" horiz-adv-x="800" 
d="M417 732q137 0 234 -82q101 -86 101 -211q0 -136 -88 -224q-74 -74 -148 -74q-39 0 -54 35l35 193q2 18 2 26q0 36 -23 62q-24 26 -56 26q-58 0 -100 -59q-38 -55 -38 -116q0 -40 22 -65q23 -26 58 -26q25 0 49 15l-13 -76q-30 -14 -55 -14q-62 0 -104 47q-42 45 -42 110
q0 101 60 177q64 82 159 82q78 0 112 -72l18 57h70l-72 -263q-9 -28 -9 -46q0 -23 19 -23q49 0 88 62q42 65 42 154q0 109 -78 176q-74 64 -189 64q-126 0 -207 -87q-80 -86 -80 -213q0 -144 85 -232q83 -86 211 -86q140 0 225 99h70q-101 -164 -299 -164q-156 0 -263 108
q-109 109 -109 279q0 150 109 256q108 105 258 105z" />
    <glyph glyph-name="A" unicode="A" horiz-adv-x="667" 
d="M401 714l275 -714h-134l-67 189h-285l-67 -189h-129l110 284h338l-107 307h-3l-86 -245h-119l141 368h133z" />
    <glyph glyph-name="B" unicode="B" horiz-adv-x="704" 
d="M203 0h-125v714h347q98 0 154 -44q58 -46 58 -133q0 -108 -102 -152v-2q134 -29 134 -184q0 -89 -62 -142q-69 -57 -201 -57h-143v102h161q56 0 88 29q32 30 32 84q0 53 -32 82q-31 28 -88 28h-161v90h144q47 0 75 25q30 27 30 74q0 98 -105 98h-204v-612z" />
    <glyph glyph-name="C" unicode="C" horiz-adv-x="722" 
d="M558 487q-36 142 -178 142q-108 0 -166 -85q-51 -73 -51 -187q0 -113 51 -187q58 -85 166 -85q80 0 129 55q44 50 53 132h122q-7 -129 -91 -209q-85 -80 -213 -80q-155 0 -251 110q-91 104 -91 264q0 159 91 263q96 111 251 111q124 0 206 -64q85 -67 97 -180h-125z" />
    <glyph glyph-name="D" unicode="D" horiz-adv-x="722" 
d="M201 0h-125v713h296q156 0 239 -104q75 -94 75 -253q0 -157 -75 -252q-83 -104 -239 -104h-114v102h66q137 0 192 73q45 60 45 181q0 122 -45 182q-55 73 -192 73h-123v-611z" />
    <glyph glyph-name="E" unicode="E" horiz-adv-x="630" 
d="M76 714h514v-108h-389v-187h360v-102h-360v-209h396v-108h-521v714z" />
    <glyph glyph-name="F" unicode="F" horiz-adv-x="593" 
d="M76 714h493v-108h-368v-187h323v-102h-323v-317h-125v714z" />
    <glyph glyph-name="G" unicode="G" horiz-adv-x="759" 
d="M699 0h-80l-19 84q-89 -101 -215 -101q-155 0 -251 110q-91 104 -91 264q0 159 91 263q96 111 251 111q121 0 204 -62q88 -66 102 -182h-122q-9 67 -63 106q-49 36 -121 36q-108 0 -166 -85q-51 -73 -51 -187q0 -113 51 -187q58 -85 166 -85q95 -2 147 52q52 52 53 144
h-190v95h304v-376z" />
    <glyph glyph-name="H" unicode="H" horiz-adv-x="722" 
d="M647 713v-715h-125v322h-265v109h265v284h125zM199 713v-715h-125v715h125z" />
    <glyph glyph-name="I" unicode="I" 
d="M76 714h125v-714h-125v714z" />
    <glyph glyph-name="J" unicode="J" horiz-adv-x="537" 
d="M461 230q0 -112 -41 -170q-56 -77 -194 -77q-107 0 -163 65q-50 61 -50 164v38h125v-37q0 -64 21 -94q22 -34 77 -34q58 0 80 36q20 31 20 102v491h125v-484z" />
    <glyph glyph-name="K" unicode="K" horiz-adv-x="685" 
d="M692 0h-154l-197 287l85 88zM671 713l-471 -473v-240h-125v713h125v-325l317 325h154z" />
    <glyph glyph-name="L" unicode="L" horiz-adv-x="574" 
d="M76 714h125v-606h363v-108h-488v714z" />
    <glyph glyph-name="M" unicode="M" horiz-adv-x="889" 
d="M816 714v-713h-119v304h1v409h118zM250 714l196 -558h2l188 545v-309l-141 -391h-102l-198 550h-2v-550h-119v713h176z" />
    <glyph glyph-name="N" unicode="N" horiz-adv-x="722" 
d="M204 713l271 -437v-206l-281 454h-3v-524h-119v713h132zM652 713v-713h-119v713h119z" />
    <glyph glyph-name="O" unicode="O" horiz-adv-x="760" 
d="M724 357q0 -161 -94 -267l-86 75q55 74 55 192q0 115 -51 188q-58 85 -166 85q-109 0 -167 -85q-51 -73 -51 -188q0 -113 51 -187q58 -85 167 -85q70 0 120 37l84 -73q-87 -66 -204 -66q-156 0 -252 110q-91 104 -91 264q0 158 91 264q96 111 252 111q155 0 251 -111
q91 -106 91 -264z" />
    <glyph glyph-name="P" unicode="P" horiz-adv-x="667" 
d="M392 714q136 0 198 -77q45 -55 45 -144q0 -87 -45 -143q-61 -76 -198 -76h-126v102h119q51 0 83 25q42 32 42 93q0 118 -123 118h-185v-612h-125v714h315z" />
    <glyph glyph-name="Q" unicode="Q" horiz-adv-x="760" 
d="M380 732q155 0 251 -111q91 -104 91 -263q0 -137 -64 -229l-92 80q31 63 31 149q0 114 -51 187q-58 85 -166 85t-166 -85q-51 -73 -51 -187q0 -113 51 -187q58 -85 166 -85q44 0 80 17l-72 63l59 68l265 -231l-60 -67l-104 91q-73 -43 -168 -43q-155 0 -251 110
q-91 104 -91 264q0 159 91 263q96 111 251 111z" />
    <glyph glyph-name="R" unicode="R" horiz-adv-x="704" 
d="M417 714q116 0 177 -51q59 -50 59 -142q0 -141 -118 -180v-2q40 -4 69 -35q37 -40 37 -116q0 -146 39 -188h-134q-19 31 -19 105q0 104 -28 144q-31 45 -114 45h-124v95h145q122 0 122 114q0 63 -38 89q-29 20 -86 20h-203v-612h-125v714h341z" />
    <glyph glyph-name="S" unicode="S" horiz-adv-x="648" 
d="M158 238q0 -78 53 -117q47 -36 128 -36q77 0 117 34q34 28 34 74q0 65 -59 88q-6 2 -58 16q-63 18 -155 43q-158 41 -158 181q0 101 82 159q74 51 179 51q117 0 193 -58q81 -63 81 -170h-125q-10 126 -154 126q-53 0 -87 -19q-44 -26 -44 -74q0 -67 85 -92q-10 3 93 -24
q100 -27 113 -31q67 -21 104 -73q35 -50 35 -109q0 -112 -89 -172q-76 -52 -195 -52q-130 0 -209 61q-88 68 -89 194h125z" />
    <glyph glyph-name="T" unicode="T" horiz-adv-x="593" 
d="M11 711h576v-108h-576v108zM236 541h125v-541h-125v541z" />
    <glyph glyph-name="U" unicode="U" horiz-adv-x="722" 
d="M68 714h125v-416q0 -96 23 -139q38 -68 145 -68t145 68q23 43 23 139v416h125v-457q0 -134 -80 -206q-77 -68 -213 -68q-135 0 -212 68q-81 72 -81 206v457z" />
    <glyph glyph-name="V" unicode="V" horiz-adv-x="611" 
d="M127 713l179 -564l46 -149h-117l-238 713h130zM491 715h125l-219 -641l-56 179z" />
    <glyph glyph-name="W" unicode="W" horiz-adv-x="944" 
d="M707 288l104 426h127l-177 -644zM537 714l181 -712h-104l-142 544h-2l-146 -544h-129l-187 712h127l128 -544h2l144 544h128z" />
    <glyph glyph-name="X" unicode="X" horiz-adv-x="648" 
d="M633 714l-236 -344l253 -370h-152l-178 273l-181 -273h-120l305 462l169 252h140zM162 713l126 -196l-69 -104l-206 300h149z" />
    <glyph glyph-name="Y" unicode="Y" horiz-adv-x="648" 
d="M139 713l155 -263l-66 -117l-235 380h146zM650 711l-265 -431v-278h-124v274l108 190l142 245h139z" />
    <glyph glyph-name="Z" unicode="Z" horiz-adv-x="630" 
d="M450 715l-93 -107h-303v107h396zM597 714v-95l-415 -510h425v-108h-584v102l380 461l131 150h63z" />
    <glyph glyph-name="bracketleft" unicode="[" horiz-adv-x="296" 
d="M72 731h223v-90h-115v-742h115v-90h-223v922z" />
    <glyph glyph-name="backslash" unicode="\" horiz-adv-x="352" 
d="M374 -17h-109l-287 748h109z" />
    <glyph glyph-name="bracketright" unicode="]" horiz-adv-x="296" 
d="M224 -191h-223v90h115v742h-115v90h223v-922z" />
    <glyph glyph-name="asciicircum" unicode="^" horiz-adv-x="600" 
d="M84 335l180 365h72l180 -365h-102l-114 247l-114 -247h-102z" />
    <glyph glyph-name="underscore" unicode="_" horiz-adv-x="500" 
d="M0 -125v50h500v-50h-500z" />
    <glyph glyph-name="grave" unicode="`" horiz-adv-x="241" 
d="M105 732l91 -143h-83l-142 143h134z" />
    <glyph glyph-name="a" unicode="a" horiz-adv-x="556" 
d="M209 -15q-74 0 -124 38q-54 41 -54 114q0 86 64 125q42 26 136 36q18 4 59 9q40 5 50 8q46 13 46 56q0 71 -107 71t-115 -83h-114q6 94 78 137q59 36 158 36q87 0 142 -34q66 -40 66 -117v-16q-4 -31 -44 -66q-34 -28 -71 -42q-38 -18 -140 -29q-94 -15 -94 -86
q0 -35 38 -53q30 -14 68 -14q46 0 83 22q45 29 45 77v17q73 29 115 65v-142q0 -20 5 -30q6 -9 22 -9h12l16 2v-79q-36 -13 -72 -13q-77 0 -89 63q-64 -63 -179 -63z" />
    <glyph glyph-name="b" unicode="b" horiz-adv-x="611" 
d="M180 450q53 81 154 81q116 0 181 -80q60 -73 60 -194q0 -113 -54 -188q-61 -82 -168 -82q-74 0 -121 26v94q36 -30 87 -30q73 0 110 57q32 50 32 125q0 74 -36 126q-41 56 -106 56q-72 0 -109 -49q-36 -48 -36 -133v-258h-110v713h114v-264h2z" />
    <glyph glyph-name="c" unicode="c" horiz-adv-x="556" 
d="M409 344q-13 97 -118 97q-56 0 -93 -35q-49 -48 -49 -153q0 -74 31 -121q38 -56 106 -56q107 0 123 118h114q-31 -208 -237 -208q-118 0 -186 77q-65 73 -65 190q0 124 64 198q68 80 191 80q96 0 157 -46q69 -50 76 -141h-114z" />
    <glyph glyph-name="d" unicode="d" horiz-adv-x="611" 
d="M259 531q123 0 172 -81h2v264h113v-713h-109v251h-1l1 7q0 86 -39 134q-37 48 -104 48q-74 0 -113 -59q-32 -50 -32 -129q0 -74 34 -121q39 -55 109 -55q51 0 85 30v-96q-43 -24 -100 -24q-117 0 -182 80q-60 74 -60 195q0 134 70 205q61 64 154 64z" />
    <glyph glyph-name="e" unicode="e" horiz-adv-x="556" 
d="M522 164q-17 -84 -84 -130q-62 -46 -149 -46q-121 0 -188 76q-65 74 -65 196q0 21 3 46h111v-1h265q-5 58 -37 96q-38 41 -92 41q-86 0 -122 -76h-110q27 75 86 119q62 47 146 47q119 0 189 -93q69 -89 54 -208h-379q0 -67 34 -107q37 -46 105 -46q95 0 125 86h108z" />
    <glyph glyph-name="f" unicode="f" horiz-adv-x="315" 
d="M9 517h85v43q0 89 44 127q33 27 99 27q58 0 80 -7v-89q-22 6 -53 6q-56 0 -56 -54v-53h97v-85h-97v-432h-114v432h-85v85z" />
    <glyph glyph-name="g" unicode="g" horiz-adv-x="593" 
d="M540 26q0 -232 -255 -232q-89 0 -150 35q-73 44 -81 126h114q16 -76 124 -76q134 0 134 132v79h-2q-52 -91 -156 -91q-115 0 -177 81q-55 71 -55 192q0 108 62 182q66 77 172 77q53 0 94 -23v-90q-32 23 -78 23q-70 0 -106 -58q-30 -48 -30 -122q0 -70 33 -118
q38 -54 103 -54q71 0 108 57q32 50 32 124v247h114v-491z" />
    <glyph glyph-name="h" unicode="h" horiz-adv-x="574" 
d="M60 714h114v-265h2q49 82 155 82q85 0 134 -44q49 -46 49 -132v-355h-114v325q-5 116 -101 116q-56 0 -91 -39q-34 -38 -34 -97v-305h-114v714z" />
    <glyph glyph-name="i" unicode="i" horiz-adv-x="241" 
d="M63 714h114v-108h-114v108zM63 517h114v-517h-114v517z" />
    <glyph glyph-name="j" unicode="j" horiz-adv-x="241" 
d="M63 714h114v-108h-114v108zM63 517h114v-561q0 -161 -148 -161q-34 0 -51 4v90q17 -4 39 -4q29 0 38 19q8 16 8 57v556z" />
    <glyph glyph-name="k" unicode="k" horiz-adv-x="537" 
d="M63 714h114v-406l206 209h140l-198 -190l217 -327h-139l-158 251l-68 -66v-185h-114v714z" />
    <glyph glyph-name="l" unicode="l" horiz-adv-x="241" 
d="M63 714h114v-714h-114v714z" />
    <glyph glyph-name="m" unicode="m" horiz-adv-x="870" 
d="M60 517h108v-72h3q59 86 159 86q110 0 145 -86q63 86 162 86q173 0 173 -174v-357h-114v302q0 73 -14 101q-20 38 -80 38q-110 0 -110 -138v-303h-114v332q0 56 -20 82q-21 27 -71 27q-47 0 -79 -35q-34 -37 -34 -99v-307h-114v517z" />
    <glyph glyph-name="n" unicode="n" horiz-adv-x="574" 
d="M60 517h108v-76l2 -2q56 92 161 92q85 0 134 -44q49 -46 49 -132v-355h-114v325q-5 116 -101 116q-56 0 -91 -39q-34 -38 -34 -97v-305h-114v517z" />
    <glyph glyph-name="o" unicode="o" horiz-adv-x="593" 
d="M420 153q24 47 24 106q0 74 -35 124q-40 58 -112 58t-112 -58q-35 -50 -35 -124q0 -75 35 -125q40 -58 112 -58q49 0 86 29l72 -72q-65 -47 -158 -47q-121 0 -192 77q-69 74 -69 196q0 120 69 195q71 77 192 77t192 -77q69 -75 69 -195q0 -111 -59 -185z" />
    <glyph glyph-name="p" unicode="p" horiz-adv-x="611" 
d="M172 518v-260q0 -80 38 -130q40 -52 108 -52q72 0 111 57q32 50 32 125t-36 127q-40 57 -107 57q-53 0 -87 -28v94q44 24 102 24q118 0 182 -81q60 -73 60 -195q0 -113 -54 -188q-62 -83 -169 -83q-125 0 -174 82h-2v-259h-114v710h110z" />
    <glyph glyph-name="q" unicode="q" horiz-adv-x="611" 
d="M431 -189v258h-2q-52 -81 -172 -81q-108 0 -169 82q-54 74 -54 187q0 120 60 195q65 80 182 80q59 0 103 -26v-92q-34 28 -88 28q-66 0 -107 -56q-36 -52 -36 -127q0 -74 32 -124q38 -57 111 -57q71 0 109 50q35 47 35 131v259h110v-707h-114z" />
    <glyph glyph-name="r" unicode="r" horiz-adv-x="352" 
d="M60 517h107v-100h2q11 44 55 78q47 36 96 36q10 0 43 -3v-110q-30 5 -49 5q-60 0 -99 -45q-41 -50 -41 -132v-246h-114v517z" />
    <glyph glyph-name="s" unicode="s" horiz-adv-x="519" 
d="M146 166q9 -90 117 -90q118 0 115 68q-1 38 -54 58q-7 3 -115 28q-77 16 -114 44q-52 37 -52 109q0 77 73 116q59 32 143 32q88 0 143 -36q64 -40 73 -123h-119q-13 69 -105 69q-94 0 -94 -53q0 -36 53 -56q17 -6 115 -27q76 -18 115 -44q52 -37 52 -107q0 -85 -75 -130
q-64 -38 -156 -38q-101 0 -162 44q-66 49 -67 136h114z" />
    <glyph glyph-name="t" unicode="t" horiz-adv-x="333" 
d="M8 517h86v155h114v-155h103v-85h-103v-276q0 -39 8 -53q11 -18 47 -18q33 0 48 4v-88q-49 -6 -74 -6q-84 0 -115 34q-27 28 -28 98v305h-86v85z" />
    <glyph glyph-name="u" unicode="u" horiz-adv-x="574" 
d="M514 0h-112v72h-2q-47 -86 -147 -86q-193 0 -193 203v328h114v-317q0 -124 99 -124q127 0 127 141v300h114v-517z" />
    <glyph glyph-name="v" unicode="v" horiz-adv-x="519" 
d="M9 517h124l131 -397h2l126 397h118l-185 -517h-128z" />
    <glyph glyph-name="w" unicode="w" horiz-adv-x="778" 
d="M13 517h121l101 -386h2l97 386h115l93 -386h2l105 386h116l-162 -517h-117l-96 384h-2l-95 -384h-120z" />
    <glyph glyph-name="x" unicode="x" horiz-adv-x="537" 
d="M199 272l-179 245h138l108 -159l113 159h132l-176 -239l198 -278h-137l-131 191l-127 -191h-134z" />
    <glyph glyph-name="y" unicode="y" horiz-adv-x="519" 
d="M3 517h125l135 -386h2l131 386h119l-201 -545q-37 -94 -60 -123q-43 -54 -123 -54q-40 0 -79 6v96q41 -7 54 -7q59 0 80 72l13 40z" />
    <glyph glyph-name="z" unicode="z" horiz-adv-x="500" 
d="M42 517h420v-80l-296 -347h311v-90h-455v80l286 347h-266v90z" />
    <glyph glyph-name="braceleft" unicode="{" horiz-adv-x="296" 
d="M-4 315q31 0 57 14q37 19 37 59v206q0 64 48 104q39 33 80 33h91v-90h-55q-56 0 -56 -70v-195q0 -53 -40 -81q-28 -21 -64 -24v-2q104 -11 104 -111v-189q0 -70 56 -70h55v-90h-91q-41 0 -80 33q-48 41 -48 104v198q0 43 -37 65q-26 16 -57 16v90z" />
    <glyph glyph-name="bar" unicode="|" horiz-adv-x="222" 
d="M60 786h102v-1000h-102v1000z" />
    <glyph glyph-name="braceright" unicode="}" horiz-adv-x="296" 
d="M300 225q-31 0 -58 -15q-36 -19 -36 -58v-206q0 -63 -48 -104q-39 -33 -80 -33h-91v90h55q56 0 56 70v195q0 88 104 105v2q-104 11 -104 111v189q0 70 -56 70h-55v90h91q41 0 80 -33q48 -40 48 -104v-198q0 -42 36 -65q26 -16 58 -16v-90z" />
    <glyph glyph-name="asciitilde" unicode="~" horiz-adv-x="600" 
d="M531 254q-59 -86 -125 -86q-45 0 -102 33q-59 35 -115 35q-49 0 -84 -68l-36 84q42 86 125 86q36 0 111 -32q83 -36 102 -36q38 0 88 68z" />
    <glyph glyph-name="uni00A0" unicode="&#xa0;" 
 />
    <glyph glyph-name="exclamdown" unicode="&#xa1;" 
d="M206 406h-134v125h134v-125zM202 -183h-125v204l33 311h59l33 -311v-204z" />
    <glyph glyph-name="cent" unicode="&#xa2;" horiz-adv-x="556" 
d="M311 77q91 16 103 118h114q-37 -207 -217 -207v-90h-42v90h-1v89h1v364h-1v90h1v90h42v-90q84 0 145 -50q62 -53 68 -136h-114q-4 43 -32 69q-27 27 -67 27v-364zM38 255q0 104 47 178q47 71 124 92v-107q-57 -49 -57 -163q0 -100 57 -150v-109q-80 21 -126 94
q-45 71 -45 165z" />
    <glyph glyph-name="sterling" unicode="&#xa3;" horiz-adv-x="556" 
d="M31 384h63q-47 56 -47 141q0 90 73 150q70 56 161 56q116 0 183 -62q67 -64 68 -185h-114q-9 152 -135 152q-48 0 -78 -30q-33 -31 -33 -87q0 -50 46 -135h147v-65h-123q16 -28 16 -67q0 -89 -101 -164l2 -2q71 27 92 27q30 0 81 -17q47 -18 74 -18q53 0 97 38l51 -77
q-67 -56 -160 -56q6 0 -99 15q-62 20 -105 20q-61 0 -101 -34l-53 81q108 74 108 162q0 49 -21 92h-92v65z" />
    <glyph glyph-name="currency" unicode="&#xa4;" horiz-adv-x="556" 
d="M536 551l-56 -58q47 -50 47 -143q0 -89 -48 -146l55 -59l-55 -55l-57 58q-41 -39 -110 -48v104q47 12 77 53t30 93q0 61 -40 104q-41 44 -99 44q-62 0 -104 -44q-41 -44 -41 -106q0 -54 33 -95t84 -50v-104q-76 8 -120 48l-56 -58l-56 56l57 61q-50 56 -50 142
q0 97 50 144l-57 61l57 57l57 -56q53 46 146 46q85 0 137 -45l58 57z" />
    <glyph glyph-name="yen" unicode="&#xa5;" horiz-adv-x="556" 
d="M221 165h-137v65h137v68h-137v65h98l-187 351h127l156 -320l159 320h124l-188 -351h99v-65h-137v-68h137v-65h-137v-165h-114v165z" />
    <glyph glyph-name="brokenbar" unicode="&#xa6;" horiz-adv-x="222" 
d="M60 661h102v-250h-102v250zM60 161h102v-250h-102v250z" />
    <glyph glyph-name="section" unicode="&#xa7;" horiz-adv-x="556" 
d="M201 567q0 -41 52 -77q19 -13 115 -62q80 -42 114 -74q52 -49 52 -114q0 -63 -50 -111l-70 55q13 19 13 45q0 45 -70 82l-166 95q-61 -18 -61 -80q0 -46 55 -77l171 -97l73 -56q55 -48 55 -128t-61 -128q-55 -43 -137 -43q-94 0 -153 53q-62 56 -63 152h108
q7 -115 105 -115q87 0 87 81q0 48 -54 87q-15 12 -118 67q-176 86 -176 191q0 104 108 149q-43 46 -43 101q0 75 62 125q59 44 135 44q88 0 143 -51q58 -52 58 -138h-108q-3 44 -27 71q-25 28 -67 28q-31 0 -57 -20q-25 -22 -25 -55z" />
    <glyph glyph-name="dieresis" unicode="&#xa8;" horiz-adv-x="241" 
d="M-23 602v108h114v-108h-114zM263 710v-108h-114v108h114z" />
    <glyph glyph-name="copyright" unicode="&#xa9;" horiz-adv-x="800" 
d="M521 285q-6 -39 -35 -64q-28 -25 -73 -25q-59 0 -97 48q-35 47 -35 113t33 106q36 44 97 44q90 0 110 -86h68q-11 73 -60 113q-47 38 -118 38q-96 0 -155 -62q-55 -59 -55 -153q0 -99 58 -161q59 -65 154 -65q65 0 115 41q50 42 62 113h-69zM401 732q151 0 257 -103
q110 -108 110 -272q0 -158 -104 -265q-99 -102 -244 -109v65q116 8 190 92q78 87 78 217q0 135 -84 223q-81 87 -203 87q-123 0 -206 -87q-83 -88 -83 -223q0 -119 66 -205q67 -87 181 -102v-66q-144 15 -236 119q-91 103 -91 254q0 165 110 272q106 103 259 103z" />
    <glyph glyph-name="ordfeminine" unicode="&#xaa;" horiz-adv-x="380" 
d="M331 470q0 -24 17 -22h7q7 0 9 1v-68q-24 -8 -47 -8q-53 0 -62 49q-31 -49 -117 -49q-50 0 -85 24q-37 25 -37 69q0 51 44 74q26 15 91 26q53 8 66 12q27 9 27 26q0 45 -60 45q-65 0 -70 -42h-85q11 107 160 107q59 0 97 -22q45 -25 45 -71v-151zM244 535q-2 -2 -85 -18
q-56 -12 -56 -46q0 -33 56 -33q85 0 85 53v44z" />
    <glyph glyph-name="guillemotleft" unicode="&#xab;" horiz-adv-x="463" 
d="M248 216v112l155 123v-103l-95 -76l95 -76v-103zM50 216v112l155 123v-103l-95 -76l95 -76v-103z" />
    <glyph glyph-name="logicalnot" unicode="&#xac;" horiz-adv-x="600" 
d="M450 303h-402v102h504v-297h-102v195z" />
    <glyph glyph-name="uni00AD" unicode="&#xad;" horiz-adv-x="389" 
d="M49 326h291v-108h-291v108z" />
    <glyph glyph-name="registered" unicode="&#xae;" horiz-adv-x="800" 
d="M401 732q151 0 257 -103q110 -108 110 -272q0 -158 -104 -265q-99 -102 -244 -109v65q116 8 190 92q78 87 78 217q0 135 -84 223q-81 87 -203 87q-123 0 -206 -87q-83 -88 -83 -223q0 -119 66 -205q67 -87 181 -102v-66q-144 15 -236 119q-91 103 -91 254q0 165 110 272
q106 103 259 103zM403 377q48 0 67 10q29 15 29 55q0 34 -30 47q-19 9 -60 9h-81v-93h-1v-136h1v-126h-68v413h156q76 0 113 -28q38 -29 38 -91q0 -100 -108 -112l116 -182h-77l-107 177v57h12z" />
    <glyph glyph-name="macron" unicode="&#xaf;" horiz-adv-x="241" 
d="M-23 624v65h288v-65h-288z" />
    <glyph glyph-name="degree" unicode="&#xb0;" horiz-adv-x="400" 
d="M200 470q39 0 67 28q27 27 27 66t-27 67q-28 27 -67 27t-66 -27q-28 -28 -28 -67t28 -66q27 -28 66 -28zM200 714q62 0 106 -44t44 -106t-44 -106t-106 -44t-106 44t-44 106t44 106t106 44z" />
    <glyph glyph-name="plusminus" unicode="&#xb1;" horiz-adv-x="600" 
d="M48 102h504v-102h-504v102zM249 506h102v-125h201v-102h-201v-125h-102v125h-201v102h201v125z" />
    <glyph glyph-name="uni00B2" unicode="&#xb2;" horiz-adv-x="360" 
d="M336 273h-315q2 108 100 171q4 3 46 30q31 20 44 30q47 36 48 78q0 62 -73 62q-67 0 -73 -93h-87q0 75 44 119t120 44q68 0 110 -30q46 -34 46 -100q0 -76 -102 -141q-113 -74 -121 -100h213v-70z" />
    <glyph glyph-name="uni00B3" unicode="&#xb3;" horiz-adv-x="360" 
d="M146 533q42 -1 69 12q32 17 32 49q0 24 -23 38q-19 12 -46 12q-33 0 -54 -21q-21 -22 -19 -55h-80q3 68 44 108q41 38 110 38q62 0 102 -26q46 -31 46 -90q0 -68 -64 -90v-2q82 -13 82 -105q0 -63 -48 -101q-46 -36 -117 -36q-159 0 -164 155h80q-2 -37 20 -60
q22 -25 64 -25q37 0 60 19q25 19 25 52q0 76 -119 70v58z" />
    <glyph glyph-name="acute" unicode="&#xb4;" horiz-adv-x="241" 
d="M135 732h135l-142 -143h-83z" />
    <glyph glyph-name="mu" unicode="&#xb5;" horiz-adv-x="574" 
d="M514 0h-112v72h-2q-21 -38 -62 -62q-37 -24 -74 -24q-58 0 -90 36v-213h-114v708h114v-317q0 -124 99 -124q127 0 127 141v300h114v-517z" />
    <glyph glyph-name="paragraph" unicode="&#xb6;" horiz-adv-x="600" 
d="M246 344q-97 0 -156 52q-59 50 -59 130q0 188 233 188h259v-874h-80v809h-117v-809h-80v504z" />
    <glyph glyph-name="periodcentered" unicode="&#xb7;" 
d="M139 376q31 0 53 -22t22 -52q0 -31 -22 -53q-23 -23 -53 -23t-53 23q-22 22 -22 53q0 29 23 52q22 22 52 22z" />
    <glyph glyph-name="cedilla" unicode="&#xb8;" horiz-adv-x="241" 
d="M27 -160q33 -16 65 -16q61 0 61 41q0 38 -46 38q-23 0 -39 -10l-22 19l66 88h48l-46 -59l1 -1q9 4 33 4q33 0 57 -18q28 -21 28 -57q0 -45 -39 -71q-33 -21 -82 -21q-60 0 -103 23z" />
    <glyph glyph-name="uni00B9" unicode="&#xb9;" horiz-adv-x="360" 
d="M36 635q120 0 138 70h70v-432h-87v304h-121v58z" />
    <glyph glyph-name="ordmasculine" unicode="&#xba;" horiz-adv-x="380" 
d="M193 373q-87 0 -133 46q-45 45 -45 124t45 124q47 47 133 47t133 -47q45 -45 45 -124t-45 -124q-46 -46 -133 -46zM193 649q-44 0 -69 -34q-22 -29 -22 -72t22 -71q25 -34 69 -34q85 0 91 105q0 41 -23 72q-25 34 -68 34z" />
    <glyph glyph-name="guillemotright" unicode="&#xbb;" horiz-adv-x="463" 
d="M413 328v-112l-155 -123v103l95 76l-95 76v103zM215 328v-112l-155 -123v103l95 76l-95 76v103z" />
    <glyph glyph-name="onequarter" unicode="&#xbc;" horiz-adv-x="834" 
d="M560 724h78l-418 -748h-79zM37 635q120 0 138 70h70v-432h-87v304h-121v58zM632 330h-2l-117 -158h119v158zM719 0h-87v97h-195v81l185 250h97v-256h47v-75h-47v-97z" />
    <glyph glyph-name="onehalf" unicode="&#xbd;" horiz-adv-x="834" 
d="M788 0h-315q0 111 119 183q73 46 82 53q37 31 37 73q0 31 -21 50q-20 17 -52 17q-67 0 -73 -98h-87q0 80 43 123q44 45 121 45q68 0 110 -33q46 -36 46 -102q0 -73 -102 -141q-111 -67 -121 -100h213v-70zM36 635q120 0 138 70h70v-432h-87v304h-121v58zM556 724h78
l-418 -748h-79z" />
    <glyph glyph-name="threequarters" unicode="&#xbe;" horiz-adv-x="834" 
d="M146 532q41 -1 69 12q32 17 32 50q0 24 -23 38q-19 12 -46 12q-33 0 -54 -21q-21 -22 -19 -55h-80q3 68 44 108q41 38 110 38q62 0 102 -26q46 -31 46 -90q0 -68 -64 -90v-2q82 -13 82 -105q0 -63 -48 -101q-46 -36 -117 -36q-159 0 -164 155h80q-2 -37 20 -60
q22 -25 64 -25q37 0 60 19q25 19 25 52q0 75 -119 69v58zM615 724h78l-418 -748h-79zM669 330h-2l-117 -158h119v158zM756 0h-87v97h-195v81l183 250h99v-256h47v-75h-47v-97z" />
    <glyph glyph-name="questiondown" unicode="&#xbf;" horiz-adv-x="556" 
d="M344 531v-125h-134v125h134zM507 39q0 -108 -64 -172q-66 -67 -176 -67q-94 0 -155 52q-63 54 -63 145q0 94 88 166q49 41 63 65q25 38 25 104h108q0 -137 -78 -203q-49 -43 -57 -53q-24 -31 -24 -75q0 -51 35 -81q28 -25 63 -25q121 0 121 144h114z" />
    <glyph glyph-name="Agrave" unicode="&#xc0;" horiz-adv-x="667" 
d="M401 714l275 -714h-134l-67 189h-285l-67 -189h-129l110 284h338l-107 307h-3l-86 -245h-119l141 368h133zM309 905l91 -143h-83l-142 143h134z" />
    <glyph glyph-name="Aacute" unicode="&#xc1;" horiz-adv-x="667" 
d="M401 714l275 -714h-134l-67 189h-285l-67 -189h-129l110 284h338l-107 307h-3l-86 -245h-119l141 368h133zM358 906h135l-142 -143h-83z" />
    <glyph glyph-name="Acircumflex" unicode="&#xc2;" horiz-adv-x="667" 
d="M401 714l275 -714h-134l-67 189h-285l-67 -189h-129l110 284h338l-107 307h-3l-86 -245h-119l141 368h133zM267 762h-96l114 143h97l115 -143h-97l-67 79z" />
    <glyph glyph-name="Atilde" unicode="&#xc3;" horiz-adv-x="667" 
d="M401 714l275 -714h-134l-67 189h-285l-67 -189h-129l110 284h338l-107 307h-3l-86 -245h-119l141 368h133zM512 881q-9 -55 -33 -81q-28 -34 -78 -34q-32 0 -74 19q-43 18 -68 18q-35 0 -43 -41h-57q8 46 32 76q30 37 72 37q32 0 81 -20q42 -18 62 -18q39 0 50 44h56z
" />
    <glyph glyph-name="AE" unicode="&#xc6;" horiz-adv-x="963" 
d="M924 714v-108h-348v-187h326v-102h-326v-209h354v-108h-473v606h-36l-157 -328h133v-95h-179l-86 -183h-139l355 714h576z" />
    <glyph glyph-name="Egrave" unicode="&#xc8;" horiz-adv-x="630" 
d="M76 714h514v-108h-389v-187h360v-102h-360v-209h396v-108h-521v714zM316 905l91 -143h-83l-142 143h134z" />
    <glyph glyph-name="Eacute" unicode="&#xc9;" horiz-adv-x="630" 
d="M76 714h514v-108h-389v-187h360v-102h-360v-209h396v-108h-521v714zM354 906h135l-142 -143h-83z" />
    <glyph glyph-name="Ecircumflex" unicode="&#xca;" horiz-adv-x="630" 
d="M76 714h514v-108h-389v-187h360v-102h-360v-209h396v-108h-521v714zM267 762h-96l114 143h97l115 -143h-97l-67 79z" />
    <glyph glyph-name="Igrave" unicode="&#xcc;" 
d="M76 714h125v-714h-125v714zM108 905l91 -143h-83l-142 143h134z" />
    <glyph glyph-name="Iacute" unicode="&#xcd;" 
d="M76 714h125v-714h-125v714zM166 906h135l-142 -143h-83z" />
    <glyph glyph-name="Eth" unicode="&#xd0;" horiz-adv-x="722" 
d="M201 419h195v-102h-195v-215h123q136 0 193 74q45 59 45 181t-45 182q-57 73 -193 73h-123v-193zM76 317h-67v102h67v295h296q158 0 240 -105q75 -94 75 -252q0 -157 -75 -252q-82 -105 -240 -105h-296v317z" />
    <glyph glyph-name="Ograve" unicode="&#xd2;" horiz-adv-x="760" 
d="M724 357q0 -161 -94 -267l-86 75q55 74 55 192q0 115 -51 188q-58 85 -166 85q-109 0 -167 -85q-51 -73 -51 -188q0 -113 51 -187q58 -85 167 -85q70 0 120 37l84 -73q-87 -66 -204 -66q-156 0 -252 110q-91 104 -91 264q0 158 91 264q96 111 252 111q155 0 251 -111
q91 -106 91 -264zM374 915l91 -143h-83l-142 143h134z" />
    <glyph glyph-name="Oacute" unicode="&#xd3;" horiz-adv-x="760" 
d="M724 357q0 -161 -94 -267l-86 75q55 74 55 192q0 115 -51 188q-58 85 -166 85q-109 0 -167 -85q-51 -73 -51 -188q0 -113 51 -187q58 -85 167 -85q70 0 120 37l84 -73q-87 -66 -204 -66q-156 0 -252 110q-91 104 -91 264q0 158 91 264q96 111 252 111q155 0 251 -111
q91 -106 91 -264zM387 916h135l-142 -143h-83z" />
    <glyph glyph-name="Ocircumflex" unicode="&#xd4;" horiz-adv-x="760" 
d="M724 357q0 -161 -94 -267l-86 75q55 74 55 192q0 115 -51 188q-58 85 -166 85q-109 0 -167 -85q-51 -73 -51 -188q0 -113 51 -187q58 -85 167 -85q70 0 120 37l84 -73q-87 -66 -204 -66q-156 0 -252 110q-91 104 -91 264q0 158 91 264q96 111 252 111q155 0 251 -111
q91 -106 91 -264zM315 772h-96l114 143h97l115 -143h-97l-67 79z" />
    <glyph glyph-name="Otilde" unicode="&#xd5;" horiz-adv-x="760" 
d="M724 357q0 -161 -94 -267l-86 75q55 74 55 192q0 115 -51 188q-58 85 -166 85q-109 0 -167 -85q-51 -73 -51 -188q0 -113 51 -187q58 -85 167 -85q70 0 120 37l84 -73q-87 -66 -204 -66q-156 0 -252 110q-91 104 -91 264q0 158 91 264q96 111 252 111q155 0 251 -111
q91 -106 91 -264zM559 891q-9 -55 -33 -81q-28 -34 -78 -34q-32 0 -74 19q-43 18 -68 18q-35 0 -43 -41h-57q8 46 32 76q30 37 72 37q32 0 81 -20q42 -18 62 -18q39 0 50 44h56z" />
    <glyph glyph-name="multiply" unicode="&#xd7;" horiz-adv-x="600" 
d="M55 427l86 56l158 -159l160 159l86 -56l-175 -174l175 -174l-86 -56l-160 160l-158 -160l-86 56l174 174z" />
    <glyph glyph-name="Oslash" unicode="&#xd8;" horiz-adv-x="760" 
d="M641 607q81 -106 81 -253q0 -160 -91 -264q-96 -110 -252 -110q-96 0 -171 45l71 82q43 -25 100 -25q109 0 167 85q51 74 51 187q0 98 -37 162l-329 -371l-74 -83l-76 -85l-42 36l79 90q-81 105 -81 251q0 158 91 264q96 111 251 111q96 0 172 -44l-72 -82
q-42 24 -100 24q-108 0 -166 -85q-51 -73 -51 -188q0 -93 36 -161l330 371l74 84l75 84l43 -36z" />
    <glyph glyph-name="Ugrave" unicode="&#xd9;" horiz-adv-x="722" 
d="M68 714h125v-416q0 -96 23 -139q38 -68 145 -68t145 68q23 43 23 139v416h125v-457q0 -134 -80 -206q-77 -68 -213 -68q-135 0 -212 68q-81 72 -81 206v457zM338 905l91 -143h-83l-142 143h134z" />
    <glyph glyph-name="Uacute" unicode="&#xda;" horiz-adv-x="722" 
d="M68 714h125v-416q0 -96 23 -139q38 -68 145 -68t145 68q23 43 23 139v416h125v-457q0 -134 -80 -206q-77 -68 -213 -68q-135 0 -212 68q-81 72 -81 206v457zM382 906h135l-142 -143h-83z" />
    <glyph glyph-name="Yacute" unicode="&#xdd;" horiz-adv-x="648" 
d="M139 713l155 -263l-66 -117l-235 380h146zM650 711l-265 -431v-278h-124v274l108 190l142 245h139zM349 906h135l-142 -143h-83z" />
    <glyph glyph-name="Thorn" unicode="&#xde;" horiz-adv-x="667" 
d="M201 268h183q50 0 84 25q41 32 41 93q0 118 -123 118h-185v-236zM76 714h125v-108h190q136 0 198 -77q45 -55 45 -144q0 -87 -45 -143q-61 -76 -198 -76h-190v-166h-125v714z" />
    <glyph glyph-name="germandbls" unicode="&#xdf;" horiz-adv-x="574" 
d="M63 523q0 96 62 153q59 55 157 55q85 0 147 -47q66 -51 66 -133q0 -119 -102 -151v-2q61 -7 99 -59q35 -49 35 -112q0 -105 -62 -173q-63 -68 -167 -68q-27 0 -56 3v90q11 -3 39 -3q132 0 132 156q0 67 -55 98q-38 25 -115 25v75q70 0 99 26q39 32 39 84q0 101 -101 101
q-103 0 -103 -130v-511h-114v523z" />
    <glyph glyph-name="agrave" unicode="&#xe0;" horiz-adv-x="556" 
d="M209 -15q-74 0 -124 38q-54 41 -54 114q0 86 64 125q42 26 136 36q18 4 59 9q40 5 50 8q46 13 46 56q0 71 -107 71t-115 -83h-114q6 94 78 137q59 36 158 36q87 0 142 -34q66 -40 66 -117v-16q-4 -31 -44 -66q-34 -28 -71 -42q-38 -18 -140 -29q-94 -15 -94 -86
q0 -35 38 -53q30 -14 68 -14q46 0 83 22q45 29 45 77v17q73 29 115 65v-142q0 -20 5 -30q6 -9 22 -9h12l16 2v-79q-36 -13 -72 -13q-77 0 -89 63q-64 -63 -179 -63zM286 724l91 -143h-83l-142 143h134z" />
    <glyph glyph-name="aacute" unicode="&#xe1;" horiz-adv-x="556" 
d="M209 -15q-74 0 -124 38q-54 41 -54 114q0 86 64 125q42 26 136 36q18 4 59 9q40 5 50 8q46 13 46 56q0 71 -107 71t-115 -83h-114q6 94 78 137q59 36 158 36q87 0 142 -34q66 -40 66 -117v-16q-4 -31 -44 -66q-34 -28 -71 -42q-38 -18 -140 -29q-94 -15 -94 -86
q0 -35 38 -53q30 -14 68 -14q46 0 83 22q45 29 45 77v17q73 29 115 65v-142q0 -20 5 -30q6 -9 22 -9h12l16 2v-79q-36 -13 -72 -13q-77 0 -89 63q-64 -63 -179 -63zM312 725h135l-142 -143h-83z" />
    <glyph glyph-name="acircumflex" unicode="&#xe2;" horiz-adv-x="556" 
d="M209 -15q-74 0 -124 38q-54 41 -54 114q0 86 64 125q42 26 136 36q18 4 59 9q40 5 50 8q46 13 46 56q0 71 -107 71t-115 -83h-114q6 94 78 137q59 36 158 36q87 0 142 -34q66 -40 66 -117v-16q-4 -31 -44 -66q-34 -28 -71 -42q-38 -18 -140 -29q-94 -15 -94 -86
q0 -35 38 -53q30 -14 68 -14q46 0 83 22q45 29 45 77v17q73 29 115 65v-142q0 -20 5 -30q6 -9 22 -9h12l16 2v-79q-36 -13 -72 -13q-77 0 -89 63q-64 -63 -179 -63zM218 582h-96l114 143h97l115 -143h-97l-67 79z" />
    <glyph glyph-name="atilde" unicode="&#xe3;" horiz-adv-x="556" 
d="M209 -15q-74 0 -124 38q-54 41 -54 114q0 86 64 125q42 26 136 36q18 4 59 9q40 5 50 8q46 13 46 56q0 71 -107 71t-115 -83h-114q6 94 78 137q59 36 158 36q87 0 142 -34q66 -40 66 -117v-16q-4 -31 -44 -66q-34 -28 -71 -42q-38 -18 -140 -29q-94 -15 -94 -86
q0 -35 38 -53q30 -14 68 -14q46 0 83 22q45 29 45 77v17q73 29 115 65v-142q0 -20 5 -30q6 -9 22 -9h12l16 2v-79q-36 -13 -72 -13q-77 0 -89 63q-64 -63 -179 -63zM463 701q-9 -55 -33 -81q-28 -34 -78 -34q-32 0 -74 19q-43 18 -68 18q-35 0 -43 -41h-57q8 46 32 76
q30 37 72 37q32 0 81 -20q42 -18 62 -18q39 0 50 44h56z" />
    <glyph glyph-name="ae" unicode="&#xe6;" horiz-adv-x="889" 
d="M621 532q128 0 191 -87q59 -80 50 -216h-316v75h202q0 63 -34 100q-35 38 -98 38q-58 0 -94 -41q-31 -37 -36 -97v-75q0 -64 32 -107q36 -47 103 -47q92 0 123 88h114q-23 -84 -85 -131q-64 -47 -150 -47q-137 0 -191 95q-63 -95 -215 -95q-83 0 -133 38q-55 40 -55 114
q0 86 64 125q42 26 136 36q8 2 21 4l12 2l14 2q30 5 42 6v-75l-7 -1l-8 -1q-13 -1 -25 -2l-12 -1l-11 -2q-13 -2 -17 -2q-44 -7 -67 -24q-28 -21 -28 -62q0 -36 35 -53q28 -14 70 -14q51 0 88 27q41 29 41 78l1 51v149q-6 62 -101 62q-107 0 -115 -83h-114q6 94 78 137
q59 36 155 36q127 0 176 -70q52 70 164 70z" />
    <glyph glyph-name="egrave" unicode="&#xe8;" horiz-adv-x="556" 
d="M522 164q-17 -84 -84 -130q-62 -46 -149 -46q-121 0 -188 76q-65 74 -65 196q0 21 3 46h111v-1h265q-5 58 -37 96q-38 41 -92 41q-86 0 -122 -76h-110q27 75 86 119q62 47 146 47q119 0 189 -93q69 -89 54 -208h-379q0 -67 34 -107q37 -46 105 -46q95 0 125 86h108z
M278 724l91 -143h-83l-142 143h134z" />
    <glyph glyph-name="eacute" unicode="&#xe9;" horiz-adv-x="556" 
d="M522 164q-17 -84 -84 -130q-62 -46 -149 -46q-121 0 -188 76q-65 74 -65 196q0 21 3 46h111v-1h265q-5 58 -37 96q-38 41 -92 41q-86 0 -122 -76h-110q27 75 86 119q62 47 146 47q119 0 189 -93q69 -89 54 -208h-379q0 -67 34 -107q37 -46 105 -46q95 0 125 86h108z
M292 725h135l-142 -143h-83z" />
    <glyph glyph-name="ecircumflex" unicode="&#xea;" horiz-adv-x="556" 
d="M522 164q-17 -84 -84 -130q-62 -46 -149 -46q-121 0 -188 76q-65 74 -65 196q0 21 3 46h111v-1h265q-5 58 -37 96q-38 41 -92 41q-86 0 -122 -76h-110q27 75 86 119q62 47 146 47q119 0 189 -93q69 -89 54 -208h-379q0 -67 34 -107q37 -46 105 -46q95 0 125 86h108z
M218 582h-96l114 143h97l115 -143h-97l-67 79z" />
    <glyph glyph-name="igrave" unicode="&#xec;" horiz-adv-x="241" 
d="M63 517h114v-517h-114v517zM85 724l91 -143h-83l-142 143h134z" />
    <glyph glyph-name="iacute" unicode="&#xed;" horiz-adv-x="241" 
d="M63 517h114v-517h-114v517zM152 725h135l-142 -143h-83z" />
    <glyph glyph-name="eth" unicode="&#xf0;" horiz-adv-x="593" 
d="M144 590l96 46q-68 28 -85 34l76 61q49 -15 104 -50l105 50l49 -49l-94 -45q155 -129 155 -328q0 -145 -61 -228q-71 -95 -208 -95q-111 0 -176 75q-63 72 -63 191q0 103 60 176q63 78 163 78q81 0 143 -44h2q-28 63 -108 131l-108 -52zM188 126q35 -50 100 -50t109 53
q39 50 39 116q0 71 -32 118q-38 53 -105 53q-143 0 -143 -171q0 -72 32 -119z" />
    <glyph glyph-name="ograve" unicode="&#xf2;" horiz-adv-x="593" 
d="M420 153q24 47 24 106q0 74 -35 124q-40 58 -112 58t-112 -58q-35 -50 -35 -124q0 -75 35 -125q40 -58 112 -58q49 0 86 29l72 -72q-65 -47 -158 -47q-121 0 -192 77q-69 74 -69 196q0 120 69 195q71 77 192 77t192 -77q69 -75 69 -195q0 -111 -59 -185zM287 724l91 -143
h-83l-142 143h134z" />
    <glyph glyph-name="oacute" unicode="&#xf3;" horiz-adv-x="593" 
d="M420 153q24 47 24 106q0 74 -35 124q-40 58 -112 58t-112 -58q-35 -50 -35 -124q0 -75 35 -125q40 -58 112 -58q49 0 86 29l72 -72q-65 -47 -158 -47q-121 0 -192 77q-69 74 -69 196q0 120 69 195q71 77 192 77t192 -77q69 -75 69 -195q0 -111 -59 -185zM303 725h135
l-142 -143h-83z" />
    <glyph glyph-name="ocircumflex" unicode="&#xf4;" horiz-adv-x="593" 
d="M420 153q24 47 24 106q0 74 -35 124q-40 58 -112 58t-112 -58q-35 -50 -35 -124q0 -75 35 -125q40 -58 112 -58q49 0 86 29l72 -72q-65 -47 -158 -47q-121 0 -192 77q-69 74 -69 196q0 120 69 195q71 77 192 77t192 -77q69 -75 69 -195q0 -111 -59 -185zM232 582h-96
l114 143h97l115 -143h-97l-67 79z" />
    <glyph glyph-name="otilde" unicode="&#xf5;" horiz-adv-x="593" 
d="M420 153q24 47 24 106q0 74 -35 124q-40 58 -112 58t-112 -58q-35 -50 -35 -124q0 -75 35 -125q40 -58 112 -58q49 0 86 29l72 -72q-65 -47 -158 -47q-121 0 -192 77q-69 74 -69 196q0 120 69 195q71 77 192 77t192 -77q69 -75 69 -195q0 -111 -59 -185zM474 701
q-9 -55 -33 -81q-28 -34 -78 -34q-32 0 -74 19q-43 18 -68 18q-35 0 -43 -41h-57q8 46 32 76q30 37 72 37q32 0 81 -20q42 -18 62 -18q39 0 50 44h56z" />
    <glyph glyph-name="divide" unicode="&#xf7;" horiz-adv-x="600" 
d="M228 47q0 30 21 51q23 21 51 21q29 0 51 -21q21 -22 21 -51q0 -27 -22 -49q-21 -23 -49 -23t-51 21q-22 22 -22 51zM228 459q0 30 21 51q23 21 51 21q29 0 51 -21q21 -22 21 -51q0 -27 -22 -49q-21 -23 -49 -23t-51 21q-22 22 -22 51zM48 202v102h504v-102h-504z" />
    <glyph glyph-name="oslash" unicode="&#xf8;" horiz-adv-x="593" 
d="M396 399q-37 42 -99 42q-72 0 -112 -58q-35 -50 -35 -124q0 -58 23 -104zM32 0l65 72q-61 73 -61 187q0 120 69 195q71 77 192 77q103 0 170 -55l63 69l32 -28l-65 -71q61 -73 61 -187q0 -122 -69 -196q-71 -77 -192 -77q-101 0 -169 56l-64 -70zM198 118q38 -42 99 -42
q72 0 112 58q35 50 35 125q0 57 -23 103z" />
    <glyph glyph-name="ugrave" unicode="&#xf9;" horiz-adv-x="574" 
d="M514 0h-112v72h-2q-47 -86 -147 -86q-193 0 -193 203v328h114v-317q0 -124 99 -124q127 0 127 141v300h114v-517zM275 724l91 -143h-83l-142 143h134z" />
    <glyph glyph-name="uacute" unicode="&#xfa;" horiz-adv-x="574" 
d="M514 0h-112v72h-2q-47 -86 -147 -86q-193 0 -193 203v328h114v-317q0 -124 99 -124q127 0 127 141v300h114v-517zM302 725h135l-142 -143h-83z" />
    <glyph glyph-name="yacute" unicode="&#xfd;" horiz-adv-x="519" 
d="M3 517h125l135 -386h2l131 386h119l-201 -545q-37 -94 -60 -123q-43 -54 -123 -54q-40 0 -79 6v96q41 -7 54 -7q59 0 80 72l13 40zM285 725h135l-142 -143h-83z" />
    <glyph glyph-name="thorn" unicode="&#xfe;" horiz-adv-x="611" 
d="M318 441q-70 0 -108 -50q-37 -47 -37 -133q0 -80 38 -130q40 -52 107 -52q72 0 111 57q32 50 32 125t-36 126q-40 57 -107 57zM63 714h114v-264h2q53 81 154 81q117 0 182 -80q60 -75 60 -195q0 -113 -54 -187q-62 -83 -169 -83q-125 0 -173 81h-2v-258h-114v905z" />
    <glyph glyph-name="Abreve" unicode="&#x102;" horiz-adv-x="667" 
d="M401 714l275 -714h-134l-67 189h-285l-67 -189h-129l110 284h338l-107 307h-3l-86 -245h-119l141 368h133zM248 894q26 -62 96 -59q64 -1 90 59h51q-13 -132 -149 -132q-129 0 -140 132h52z" />
    <glyph glyph-name="abreve" unicode="&#x103;" horiz-adv-x="556" 
d="M209 -15q-74 0 -124 38q-54 41 -54 114q0 86 64 125q42 26 136 36q18 4 59 9q40 5 50 8q46 13 46 56q0 71 -107 71t-115 -83h-114q6 94 78 137q59 36 158 36q87 0 142 -34q66 -40 66 -117v-16q-4 -31 -44 -66q-34 -28 -71 -42q-38 -18 -140 -29q-94 -15 -94 -86
q0 -35 38 -53q30 -14 68 -14q46 0 83 22q45 29 45 77v17q73 29 115 65v-142q0 -20 5 -30q6 -9 22 -9h12l16 2v-79q-36 -13 -72 -13q-77 0 -89 63q-64 -63 -179 -63zM199 712q26 -62 96 -59q64 -1 90 59h51q-13 -132 -149 -132q-129 0 -140 132h52z" />
    <glyph glyph-name="Dcroat" unicode="&#x110;" horiz-adv-x="722" 
d="M20 405h56v308h296q156 0 239 -104q75 -94 75 -253q0 -157 -75 -252q-83 -104 -239 -104h-114v102h66q137 0 192 73q45 60 45 181q0 122 -45 182q-55 73 -192 73h-123v-206h126v-108h-126v-297h-125v297h-56v108z" />
    <glyph glyph-name="dcroat" unicode="&#x111;" horiz-adv-x="611" 
d="M318 655h115v59h113v-59h63v-90h-63v-564h-109v251h-1l1 7q0 86 -39 134q-37 48 -104 48q-74 0 -113 -59q-32 -50 -32 -129q0 -74 34 -121q39 -55 109 -55q51 0 85 30v-96q-43 -24 -100 -24q-117 0 -182 80q-60 74 -60 195q0 134 70 205q61 64 154 64q123 0 172 -81h2
v115h-115v90z" />
    <glyph glyph-name="Itilde" unicode="&#x128;" 
d="M76 714h125v-714h-125v714zM321 881q-9 -55 -33 -81q-28 -34 -78 -34q-32 0 -74 19q-43 18 -68 18q-35 0 -43 -41h-57q8 46 32 76q30 37 72 37q32 0 81 -20q42 -18 62 -18q39 0 50 44h56z" />
    <glyph glyph-name="itilde" unicode="&#x129;" horiz-adv-x="241" 
d="M63 517h114v-517h-114v517zM301 701q-9 -55 -33 -81q-28 -34 -78 -34q-32 0 -74 19q-43 18 -68 18q-35 0 -43 -41h-57q8 46 32 76q30 37 72 37q32 0 81 -20q42 -18 62 -18q39 0 50 44h56z" />
    <glyph glyph-name="dotlessi" unicode="&#x131;" horiz-adv-x="241" 
d="M63 0v517h114v-517h-114z" />
    <glyph glyph-name="Ldot" unicode="&#x13f;" horiz-adv-x="574" 
d="M76 714h125v-606h363v-108h-488v714zM322 409v108h114v-108h-114z" />
    <glyph glyph-name="ldot" unicode="&#x140;" horiz-adv-x="363" 
d="M63 714h114v-714h-114v714zM231 409v108h114v-108h-114z" />
    <glyph glyph-name="Lslash" unicode="&#x141;" horiz-adv-x="574" 
d="M76 714h125v-306l200 142v-93l-200 -142v-207h363v-108h-488v227l-76 -54v90l76 54v397z" />
    <glyph glyph-name="lslash" unicode="&#x142;" horiz-adv-x="241" 
d="M63 319l-68 -53v71l68 53v324h114v-235l68 54v-72l-68 -54v-407h-114v319z" />
    <glyph glyph-name="OE" unicode="&#x152;" horiz-adv-x="1093" 
d="M671 108h380v-108h-499v485q0 60 -43 100q-47 44 -128 44q-105 0 -164 -87q-51 -75 -51 -186t51 -185q59 -86 164 -86q65 0 111 33v-105q-55 -30 -123 -30q-153 0 -244 112q-84 104 -84 259q0 158 88 264q95 113 248 113q115 0 180 -74v57h487v-108h-373v-187h342v-102
h-342v-209zM671 317q-1 2 0 3v-3z" />
    <glyph glyph-name="oe" unicode="&#x153;" horiz-adv-x="907" 
d="M409 229v75h359q-8 137 -134 137q-82 0 -116 -76h-126q-34 76 -112 76q-68 0 -102 -58q-30 -49 -30 -121q0 -79 27 -127q35 -59 105 -59q90 0 120 94h112q28 -94 127 -94q46 0 78 22q38 24 45 66h114q-21 -86 -83 -133q-61 -45 -152 -45q-138 0 -185 95q-51 -95 -184 -95
q-114 0 -179 81q-59 76 -59 193q0 114 65 191q68 80 182 80q132 0 181 -87q56 87 181 87q126 0 187 -91q52 -76 52 -211h-473z" />
    <glyph glyph-name="Utilde" unicode="&#x168;" horiz-adv-x="722" 
d="M68 714h125v-416q0 -96 23 -139q38 -68 145 -68t145 68q23 43 23 139v416h125v-457q0 -134 -80 -206q-77 -68 -213 -68q-135 0 -212 68q-81 72 -81 206v457zM540 881q-9 -55 -33 -81q-28 -34 -78 -34q-32 0 -74 19q-43 18 -68 18q-35 0 -43 -41h-57q8 46 32 76
q30 37 72 37q32 0 81 -20q42 -18 62 -18q39 0 50 44h56z" />
    <glyph glyph-name="utilde" unicode="&#x169;" horiz-adv-x="574" 
d="M514 0h-112v72h-2q-47 -86 -147 -86q-193 0 -193 203v328h114v-317q0 -124 99 -124q127 0 127 141v300h114v-517zM470 701q-9 -55 -33 -81q-28 -34 -78 -34q-32 0 -74 19q-43 18 -68 18q-35 0 -43 -41h-57q8 46 32 76q30 37 72 37q32 0 81 -20q42 -18 62 -18q39 0 50 44
h56z" />
    <glyph glyph-name="florin" unicode="&#x192;" horiz-adv-x="556" 
d="M131 438h92l32 168q32 125 176 125q28 0 73 -5l-17 -90q-28 5 -41 5q-39 0 -58 -17q-16 -14 -25 -56l-25 -130h102l-15 -85h-102l-73 -381q-12 -58 -60 -99q-49 -43 -111 -43q-29 0 -79 5l15 90q30 -5 48 -5q58 0 69 56l75 377h-91z" />
    <glyph glyph-name="Ohorn" unicode="&#x1a0;" horiz-adv-x="760" 
d="M724 357q0 -161 -94 -267l-86 75q55 74 55 192q0 115 -51 188q-58 85 -166 85q-109 0 -167 -85q-51 -73 -51 -188q0 -113 51 -187q58 -85 167 -85q70 0 120 37l84 -73q-87 -66 -204 -66q-156 0 -252 110q-91 104 -91 264q0 158 91 264q96 111 252 111q74 0 134 -25h36
q35 3 35 34q0 21 -19 74h108q12 -53 12 -75q0 -89 -55 -119q91 -106 91 -264z" />
    <glyph glyph-name="ohorn" unicode="&#x1a1;" horiz-adv-x="593" 
d="M420 153q24 47 24 106q0 74 -35 124q-40 58 -112 58t-112 -58q-35 -50 -35 -124q0 -75 35 -125q40 -58 112 -58q49 0 86 29l72 -72q-65 -47 -158 -47q-121 0 -192 77q-69 74 -69 196q0 120 69 195q71 77 192 77q54 0 102 -17h35q33 2 33 32q0 19 -18 69h102
q11 -52 11 -70q0 -85 -55 -114q51 -70 51 -172q0 -111 -59 -185z" />
    <glyph glyph-name="Uhorn" unicode="&#x1af;" horiz-adv-x="828" 
d="M68 714h125v-416q0 -96 23 -139q38 -68 145 -68t145 68q23 43 23 139v416h123q27 6 27 33q0 21 -19 74h108q12 -53 12 -75q0 -129 -126 -138v-351q0 -134 -80 -206q-77 -68 -213 -68q-135 0 -212 68q-81 72 -81 206v457z" />
    <glyph glyph-name="uhorn" unicode="&#x1b0;" horiz-adv-x="656" 
d="M514 0h-112v72h-2q-47 -86 -147 -86q-193 0 -193 203v328h114v-317q0 -124 99 -124q127 0 127 141v300h108q18 8 18 29q0 19 -18 69h102q11 -52 11 -70q0 -116 -107 -129v-416z" />
    <glyph glyph-name="circumflex" unicode="&#x2c6;" horiz-adv-x="241" 
d="M50 589h-92l107 143h111l108 -143h-93l-71 90z" />
    <glyph glyph-name="caron" unicode="&#x2c7;" horiz-adv-x="241" 
d="M175 589h-111l-107 143h92l70 -89l71 89h93z" />
    <glyph glyph-name="uni02C9" unicode="&#x2c9;" horiz-adv-x="241" 
d="M-23 624v65h288v-65h-288z" />
    <glyph glyph-name="breve" unicode="&#x2d8;" horiz-adv-x="241" 
d="M17 731q15 -76 107 -76q85 0 101 76h57q-16 -141 -166 -141q-145 0 -157 141h58z" />
    <glyph glyph-name="dotaccent" unicode="&#x2d9;" horiz-adv-x="241" 
d="M64 602v108h114v-108h-114z" />
    <glyph glyph-name="ring" unicode="&#x2da;" horiz-adv-x="241" 
d="M121 613q26 0 43 17q17 19 17 44q0 27 -17 44t-43 17q-25 0 -42 -17q-18 -16 -18 -44q0 -26 18 -44q17 -17 42 -17zM17 674q0 45 31 75q29 28 73 28t73 -28q31 -30 31 -75q0 -46 -31 -74q-31 -29 -73 -29q-44 0 -73 29q-31 28 -31 74z" />
    <glyph glyph-name="ogonek" unicode="&#x2db;" horiz-adv-x="241" 
d="M216 0q-94 -73 -94 -129q0 -44 39 -44q31 0 52 34l41 -9q-19 -75 -105 -75q-33 0 -58 13q-43 22 -43 77q0 66 114 133h54z" />
    <glyph glyph-name="tilde" unicode="&#x2dc;" horiz-adv-x="241" 
d="M297 720q-9 -55 -33 -81q-28 -34 -78 -34q-32 0 -74 19q-43 18 -68 18q-35 0 -43 -41h-57q8 46 32 76q30 37 72 37q32 0 81 -20q42 -18 62 -18q39 0 50 44h56z" />
    <glyph glyph-name="hungarumlaut" unicode="&#x2dd;" horiz-adv-x="241" 
d="M254 732h136l-144 -143h-82zM55 732h136l-144 -143h-82z" />
    <glyph glyph-name="uni0394" unicode="&#x394;" horiz-adv-x="683" 
d="M334 588l-180 -490h370zM9 0l272 712h110l284 -712h-666z" />
    <glyph glyph-name="uni03A9" unicode="&#x3a9;" horiz-adv-x="757" 
d="M426 0v188q75 15 119 75q41 58 41 137q0 93 -59 157q-62 65 -154 65q-93 0 -155 -65q-59 -65 -59 -159q0 -172 158 -210v-188h-271v91h183v47q-183 60 -183 268q0 136 96 227q92 88 230 88q137 0 231 -86q95 -89 95 -226q0 -97 -45 -168q-49 -76 -139 -103v-47h184v-91
h-272z" />
    <glyph glyph-name="uni03BC" unicode="&#x3bc;" horiz-adv-x="574" 
d="M514 0h-112v72h-2q-21 -38 -62 -62q-37 -24 -74 -24q-58 0 -90 36v-213h-114v708h114v-317q0 -124 99 -124q127 0 127 141v300h114v-517z" />
    <glyph glyph-name="pi" unicode="&#x3c0;" horiz-adv-x="589" 
d="M566 13q-45 -20 -83 -20q-60 0 -83 38q-17 29 -17 92v264h-211v-387h-101v387h-70v96h562v-96h-79v-249q0 -59 38 -59q24 0 44 10v-76z" />
    <glyph glyph-name="uni1EA0" unicode="&#x1ea0;" horiz-adv-x="667" 
d="M272 -174h123v119h-123v-119zM401 714l275 -714h-134l-67 189h-285l-67 -189h-129l110 284h338l-107 307h-3l-86 -245h-119l141 368h133z" />
    <glyph glyph-name="uni1EA1" unicode="&#x1ea1;" horiz-adv-x="556" 
d="M219 -171h106v103h-106v-103zM209 -15q-74 0 -124 38q-54 41 -54 114q0 86 64 125q42 26 136 36q18 4 59 9q40 5 50 8q46 13 46 56q0 71 -107 71t-115 -83h-114q6 94 78 137q59 36 158 36q87 0 142 -34q66 -40 66 -117v-16q-4 -31 -44 -66q-34 -28 -71 -42
q-38 -18 -140 -29q-94 -15 -94 -86q0 -35 38 -53q30 -14 68 -14q46 0 83 22q45 29 45 77v17q73 29 115 65v-142q0 -20 5 -30q6 -9 22 -9h12l16 2v-79q-36 -13 -72 -13q-77 0 -89 63q-64 -63 -179 -63z" />
    <glyph glyph-name="uni1EA2" unicode="&#x1ea2;" horiz-adv-x="667" 
d="M233 859q0 51 22 80q27 35 80 35q37 0 61 -17q34 -30 34 -75q0 -44 -37 -72l-4 -4q-15 -15 -18 -21q-4 -7 -3 -23h-65q-3 50 42 89q20 13 20 31q0 13 -10 20q-9 5 -22 5q-19 0 -29 -9q-8 -7 -8 -39h-63zM401 714l275 -714h-134l-67 189h-285l-67 -189h-129l110 284h338
l-107 307h-3l-86 -245h-119l141 368h133z" />
    <glyph glyph-name="uni1EA3" unicode="&#x1ea3;" horiz-adv-x="556" 
d="M191 679q0 51 22 80q27 35 80 35q37 0 61 -17q34 -30 34 -75q0 -44 -37 -72l-4 -4q-15 -15 -18 -21q-4 -7 -3 -23h-65q-3 50 42 89q20 13 20 31q0 13 -10 20q-9 5 -22 5q-19 0 -29 -9q-8 -7 -8 -39h-63zM209 -15q-74 0 -124 38q-54 41 -54 114q0 86 64 125q42 26 136 36
q18 4 59 9q40 5 50 8q46 13 46 56q0 71 -107 71t-115 -83h-114q6 94 78 137q59 36 158 36q87 0 142 -34q66 -40 66 -117v-16q-4 -31 -44 -66q-34 -28 -71 -42q-38 -18 -140 -29q-94 -15 -94 -86q0 -35 38 -53q30 -14 68 -14q46 0 83 22q45 29 45 77v17q73 29 115 65v-142
q0 -20 5 -30q6 -9 22 -9h12l16 2v-79q-36 -13 -72 -13q-77 0 -89 63q-64 -63 -179 -63z" />
    <glyph glyph-name="uni1EA4" unicode="&#x1ea4;" horiz-adv-x="667" 
d="M401 714l275 -714h-134l-67 189h-285l-67 -189h-129l110 284h338l-107 307h-3l-86 -245h-119l141 368h133zM267 762h-96l114 143h97l115 -143h-97l-67 79zM541 1015h135l-142 -143h-83z" />
    <glyph glyph-name="uni1EA5" unicode="&#x1ea5;" horiz-adv-x="556" 
d="M209 -15q-74 0 -124 38q-54 41 -54 114q0 86 64 125q42 26 136 36q18 4 59 9q40 5 50 8q46 13 46 56q0 71 -107 71t-115 -83h-114q6 94 78 137q59 36 158 36q87 0 142 -34q66 -40 66 -117v-16q-4 -31 -44 -66q-34 -28 -71 -42q-38 -18 -140 -29q-94 -15 -94 -86
q0 -35 38 -53q30 -14 68 -14q46 0 83 22q45 29 45 77v17q73 29 115 65v-142q0 -20 5 -30q6 -9 22 -9h12l16 2v-79q-36 -13 -72 -13q-77 0 -89 63q-64 -63 -179 -63zM218 582h-96l114 143h97l115 -143h-97l-67 79zM492 835h135l-142 -143h-83z" />
    <glyph glyph-name="uni1EA6" unicode="&#x1ea6;" horiz-adv-x="667" 
d="M401 714l275 -714h-134l-67 189h-285l-67 -189h-129l110 284h338l-107 307h-3l-86 -245h-119l141 368h133zM267 762h-96l114 143h97l115 -143h-97l-67 79zM481 1014l91 -143h-83l-142 143h134z" />
    <glyph glyph-name="uni1EA7" unicode="&#x1ea7;" horiz-adv-x="556" 
d="M209 -15q-74 0 -124 38q-54 41 -54 114q0 86 64 125q42 26 136 36q18 4 59 9q40 5 50 8q46 13 46 56q0 71 -107 71t-115 -83h-114q6 94 78 137q59 36 158 36q87 0 142 -34q66 -40 66 -117v-16q-4 -31 -44 -66q-34 -28 -71 -42q-38 -18 -140 -29q-94 -15 -94 -86
q0 -35 38 -53q30 -14 68 -14q46 0 83 22q45 29 45 77v17q73 29 115 65v-142q0 -20 5 -30q6 -9 22 -9h12l16 2v-79q-36 -13 -72 -13q-77 0 -89 63q-64 -63 -179 -63zM218 582h-96l114 143h97l115 -143h-97l-67 79zM432 834l91 -143h-83l-142 143h134z" />
    <glyph glyph-name="uni1EA8" unicode="&#x1ea8;" horiz-adv-x="667" 
d="M401 714l275 -714h-134l-67 189h-285l-67 -189h-129l110 284h338l-107 307h-3l-86 -245h-119l141 368h133zM333 841l67 -79h97l-115 143h-97l-114 -143h96zM378 968q0 51 22 80q27 35 80 35q37 0 61 -17q34 -30 34 -75q0 -44 -37 -72l-4 -4q-15 -15 -18 -21q-4 -7 -3 -23
h-65q-3 50 42 89q20 13 20 31q0 13 -10 20q-9 5 -22 5q-19 0 -29 -9q-8 -7 -8 -39h-63z" />
    <glyph glyph-name="uni1EA9" unicode="&#x1ea9;" horiz-adv-x="556" 
d="M209 -15q-74 0 -124 38q-54 41 -54 114q0 86 64 125q42 26 136 36q18 4 59 9q40 5 50 8q46 13 46 56q0 71 -107 71t-115 -83h-114q6 94 78 137q59 36 158 36q87 0 142 -34q66 -40 66 -117v-16q-4 -31 -44 -66q-34 -28 -71 -42q-38 -18 -140 -29q-94 -15 -94 -86
q0 -35 38 -53q30 -14 68 -14q46 0 83 22q45 29 45 77v17q73 29 115 65v-142q0 -20 5 -30q6 -9 22 -9h12l16 2v-79q-36 -13 -72 -13q-77 0 -89 63q-64 -63 -179 -63zM284 661l67 -79h97l-115 143h-97l-114 -143h96zM329 788q0 51 22 80q27 35 80 35q37 0 61 -17
q34 -30 34 -75q0 -44 -37 -72l-4 -4q-15 -15 -18 -21q-4 -7 -3 -23h-65q-3 50 42 89q20 13 20 31q0 13 -10 20q-9 5 -22 5q-19 0 -29 -9q-8 -7 -8 -39h-63z" />
    <glyph glyph-name="uni1EAA" unicode="&#x1eaa;" horiz-adv-x="667" 
d="M401 714l275 -714h-134l-67 189h-285l-67 -189h-129l110 284h338l-107 307h-3l-86 -245h-119l141 368h133zM267 762h-96l114 143h97l115 -143h-97l-67 79zM512 1061q-9 -55 -33 -81q-28 -34 -78 -34q-32 0 -74 19q-43 18 -68 18q-35 0 -43 -41h-57q8 46 32 76
q30 37 72 37q32 0 81 -20q42 -18 62 -18q39 0 50 44h56z" />
    <glyph glyph-name="uni1EAB" unicode="&#x1eab;" horiz-adv-x="556" 
d="M209 -15q-74 0 -124 38q-54 41 -54 114q0 86 64 125q42 26 136 36q18 4 59 9q40 5 50 8q46 13 46 56q0 71 -107 71t-115 -83h-114q6 94 78 137q59 36 158 36q87 0 142 -34q66 -40 66 -117v-16q-4 -31 -44 -66q-34 -28 -71 -42q-38 -18 -140 -29q-94 -15 -94 -86
q0 -35 38 -53q30 -14 68 -14q46 0 83 22q45 29 45 77v17q73 29 115 65v-142q0 -20 5 -30q6 -9 22 -9h12l16 2v-79q-36 -13 -72 -13q-77 0 -89 63q-64 -63 -179 -63zM218 582h-96l114 143h97l115 -143h-97l-67 79zM463 881q-9 -55 -33 -81q-28 -34 -78 -34q-32 0 -74 19
q-43 18 -68 18q-35 0 -43 -41h-57q8 46 32 76q30 37 72 37q32 0 81 -20q42 -18 62 -18q39 0 50 44h56z" />
    <glyph glyph-name="uni1EAC" unicode="&#x1eac;" horiz-adv-x="667" 
d="M401 714l275 -714h-134l-67 189h-285l-67 -189h-129l110 284h338l-107 307h-3l-86 -245h-119l141 368h133zM267 762h-96l114 143h97l115 -143h-97l-67 79zM272 -55h123v-119h-123v119z" />
    <glyph glyph-name="uni1EAD" unicode="&#x1ead;" horiz-adv-x="556" 
d="M209 -15q-74 0 -124 38q-54 41 -54 114q0 86 64 125q42 26 136 36q18 4 59 9q40 5 50 8q46 13 46 56q0 71 -107 71t-115 -83h-114q6 94 78 137q59 36 158 36q87 0 142 -34q66 -40 66 -117v-16q-4 -31 -44 -66q-34 -28 -71 -42q-38 -18 -140 -29q-94 -15 -94 -86
q0 -35 38 -53q30 -14 68 -14q46 0 83 22q45 29 45 77v17q73 29 115 65v-142q0 -20 5 -30q6 -9 22 -9h12l16 2v-79q-36 -13 -72 -13q-77 0 -89 63q-64 -63 -179 -63zM218 582h-96l114 143h97l115 -143h-97l-67 79zM219 -68h106v-103h-106v103z" />
    <glyph glyph-name="uni1EAE" unicode="&#x1eae;" horiz-adv-x="667" 
d="M401 714l275 -714h-134l-67 189h-285l-67 -189h-129l110 284h338l-107 307h-3l-86 -245h-119l141 368h133zM248 894q26 -62 96 -59q64 -1 90 59h51q-13 -132 -149 -132q-129 0 -140 132h52zM372 1037h135l-142 -143h-83z" />
    <glyph glyph-name="uni1EAF" unicode="&#x1eaf;" horiz-adv-x="556" 
d="M209 -15q-74 0 -124 38q-54 41 -54 114q0 86 64 125q42 26 136 36q18 4 59 9q40 5 50 8q46 13 46 56q0 71 -107 71t-115 -83h-114q6 94 78 137q59 36 158 36q87 0 142 -34q66 -40 66 -117v-16q-4 -31 -44 -66q-34 -28 -71 -42q-38 -18 -140 -29q-94 -15 -94 -86
q0 -35 38 -53q30 -14 68 -14q46 0 83 22q45 29 45 77v17q73 29 115 65v-142q0 -20 5 -30q6 -9 22 -9h12l16 2v-79q-36 -13 -72 -13q-77 0 -89 63q-64 -63 -179 -63zM199 712q26 -62 96 -59q64 -1 90 59h51q-13 -132 -149 -132q-129 0 -140 132h52zM323 855h135l-142 -143
h-83z" />
    <glyph glyph-name="uni1EB0" unicode="&#x1eb0;" horiz-adv-x="667" 
d="M401 714l275 -714h-134l-67 189h-285l-67 -189h-129l110 284h338l-107 307h-3l-86 -245h-119l141 368h133zM248 894q26 -62 96 -59q64 -1 90 59h51q-13 -132 -149 -132q-129 0 -140 132h52zM311 1037l91 -143h-83l-142 143h134z" />
    <glyph glyph-name="uni1EB1" unicode="&#x1eb1;" horiz-adv-x="556" 
d="M209 -15q-74 0 -124 38q-54 41 -54 114q0 86 64 125q42 26 136 36q18 4 59 9q40 5 50 8q46 13 46 56q0 71 -107 71t-115 -83h-114q6 94 78 137q59 36 158 36q87 0 142 -34q66 -40 66 -117v-16q-4 -31 -44 -66q-34 -28 -71 -42q-38 -18 -140 -29q-94 -15 -94 -86
q0 -35 38 -53q30 -14 68 -14q46 0 83 22q45 29 45 77v17q73 29 115 65v-142q0 -20 5 -30q6 -9 22 -9h12l16 2v-79q-36 -13 -72 -13q-77 0 -89 63q-64 -63 -179 -63zM199 712q26 -62 96 -59q64 -1 90 59h51q-13 -132 -149 -132q-129 0 -140 132h52zM262 855l91 -143h-83
l-142 143h134z" />
    <glyph glyph-name="uni1EB2" unicode="&#x1eb2;" horiz-adv-x="667" 
d="M401 714l275 -714h-134l-67 189h-285l-67 -189h-129l110 284h338l-107 307h-3l-86 -245h-119l141 368h133zM196 894q11 -132 140 -132q136 0 149 132h-51q-26 -60 -90 -59q-70 -3 -96 59h-52zM240 991q0 51 22 80q27 35 80 35q37 0 61 -17q34 -30 34 -75q0 -44 -37 -72
l-4 -4q-15 -15 -18 -21q-4 -7 -3 -23h-65q-3 50 42 89q20 13 20 31q0 13 -10 20q-9 5 -22 5q-19 0 -29 -9q-8 -7 -8 -39h-63z" />
    <glyph glyph-name="uni1EB3" unicode="&#x1eb3;" horiz-adv-x="556" 
d="M209 -15q-74 0 -124 38q-54 41 -54 114q0 86 64 125q42 26 136 36q18 4 59 9q40 5 50 8q46 13 46 56q0 71 -107 71t-115 -83h-114q6 94 78 137q59 36 158 36q87 0 142 -34q66 -40 66 -117v-16q-4 -31 -44 -66q-34 -28 -71 -42q-38 -18 -140 -29q-94 -15 -94 -86
q0 -35 38 -53q30 -14 68 -14q46 0 83 22q45 29 45 77v17q73 29 115 65v-142q0 -20 5 -30q6 -9 22 -9h12l16 2v-79q-36 -13 -72 -13q-77 0 -89 63q-64 -63 -179 -63zM147 712q11 -132 140 -132q136 0 149 132h-51q-26 -60 -90 -59q-70 -3 -96 59h-52zM191 809q0 51 22 80
q27 35 80 35q37 0 61 -17q34 -30 34 -75q0 -44 -37 -72l-4 -4q-15 -15 -18 -21q-4 -7 -3 -23h-65q-3 50 42 89q20 13 20 31q0 13 -10 20q-9 5 -22 5q-19 0 -29 -9q-8 -7 -8 -39h-63z" />
    <glyph glyph-name="uni1EB4" unicode="&#x1eb4;" horiz-adv-x="667" 
d="M401 714l275 -714h-134l-67 189h-285l-67 -189h-129l110 284h338l-107 307h-3l-86 -245h-119l141 368h133zM248 894q26 -62 96 -59q64 -1 90 59h51q-13 -132 -149 -132q-129 0 -140 132h52zM517 1047q-9 -55 -33 -81q-28 -34 -78 -34q-32 0 -74 19q-43 18 -68 18
q-35 0 -43 -41h-57q8 46 32 76q30 37 72 37q32 0 81 -20q42 -18 62 -18q39 0 50 44h56z" />
    <glyph glyph-name="uni1EB5" unicode="&#x1eb5;" horiz-adv-x="556" 
d="M209 -15q-74 0 -124 38q-54 41 -54 114q0 86 64 125q42 26 136 36q18 4 59 9q40 5 50 8q46 13 46 56q0 71 -107 71t-115 -83h-114q6 94 78 137q59 36 158 36q87 0 142 -34q66 -40 66 -117v-16q-4 -31 -44 -66q-34 -28 -71 -42q-38 -18 -140 -29q-94 -15 -94 -86
q0 -35 38 -53q30 -14 68 -14q46 0 83 22q45 29 45 77v17q73 29 115 65v-142q0 -20 5 -30q6 -9 22 -9h12l16 2v-79q-36 -13 -72 -13q-77 0 -89 63q-64 -63 -179 -63zM199 712q26 -62 96 -59q64 -1 90 59h51q-13 -132 -149 -132q-129 0 -140 132h52zM468 865q-9 -55 -33 -81
q-28 -34 -78 -34q-32 0 -74 19q-43 18 -68 18q-35 0 -43 -41h-57q8 46 32 76q30 37 72 37q32 0 81 -20q42 -18 62 -18q39 0 50 44h56z" />
    <glyph glyph-name="uni1EB6" unicode="&#x1eb6;" horiz-adv-x="667" 
d="M401 714l275 -714h-134l-67 189h-285l-67 -189h-129l110 284h338l-107 307h-3l-86 -245h-119l141 368h133zM248 894q26 -62 96 -59q64 -1 90 59h51q-13 -132 -149 -132q-129 0 -140 132h52zM272 -55h123v-119h-123v119z" />
    <glyph glyph-name="uni1EB7" unicode="&#x1eb7;" horiz-adv-x="556" 
d="M209 -15q-74 0 -124 38q-54 41 -54 114q0 86 64 125q42 26 136 36q18 4 59 9q40 5 50 8q46 13 46 56q0 71 -107 71t-115 -83h-114q6 94 78 137q59 36 158 36q87 0 142 -34q66 -40 66 -117v-16q-4 -31 -44 -66q-34 -28 -71 -42q-38 -18 -140 -29q-94 -15 -94 -86
q0 -35 38 -53q30 -14 68 -14q46 0 83 22q45 29 45 77v17q73 29 115 65v-142q0 -20 5 -30q6 -9 22 -9h12l16 2v-79q-36 -13 -72 -13q-77 0 -89 63q-64 -63 -179 -63zM199 712q26 -62 96 -59q64 -1 90 59h51q-13 -132 -149 -132q-129 0 -140 132h52zM219 -68h106v-103h-106
v103z" />
    <glyph glyph-name="uni1EB8" unicode="&#x1eb8;" horiz-adv-x="630" 
d="M272 -55h123v-119h-123v119zM76 714h514v-108h-389v-187h360v-102h-360v-209h396v-108h-521v714z" />
    <glyph glyph-name="uni1EB9" unicode="&#x1eb9;" horiz-adv-x="556" 
d="M238 -171h106v103h-106v-103zM522 164q-17 -84 -84 -130q-62 -46 -149 -46q-121 0 -188 76q-65 74 -65 196q0 21 3 46h111v-1h265q-5 58 -37 96q-38 41 -92 41q-86 0 -122 -76h-110q27 75 86 119q62 47 146 47q119 0 189 -93q69 -89 54 -208h-379q0 -67 34 -107
q37 -46 105 -46q95 0 125 86h108z" />
    <glyph glyph-name="uni1EBA" unicode="&#x1eba;" horiz-adv-x="630" 
d="M233 859q0 51 22 80q27 35 80 35q37 0 61 -17q34 -30 34 -75q0 -44 -37 -72l-4 -4q-15 -15 -18 -21q-4 -7 -3 -23h-65q-3 50 42 89q20 13 20 31q0 13 -10 20q-9 5 -22 5q-19 0 -29 -9q-8 -7 -8 -39h-63zM76 0h521v108h-396v209h360v102h-360v187h389v108h-514v-714z" />
    <glyph glyph-name="uni1EBB" unicode="&#x1ebb;" horiz-adv-x="556" 
d="M184 679q0 51 22 80q27 35 80 35q37 0 61 -17q34 -30 34 -75q0 -44 -37 -72l-4 -4q-15 -15 -18 -21q-4 -7 -3 -23h-65q-3 50 42 89q20 13 20 31q0 13 -10 20q-9 5 -22 5q-19 0 -29 -9q-8 -7 -8 -39h-63zM522 164q-17 -84 -84 -130q-62 -46 -149 -46q-121 0 -188 76
q-65 74 -65 196q0 21 3 46h111v-1h265q-5 58 -37 96q-38 41 -92 41q-86 0 -122 -76h-110q27 75 86 119q62 47 146 47q119 0 189 -93q69 -89 54 -208h-379q0 -67 34 -107q37 -46 105 -46q95 0 125 86h108z" />
    <glyph glyph-name="uni1EBC" unicode="&#x1ebc;" horiz-adv-x="630" 
d="M509 881q-9 -55 -33 -81q-28 -34 -78 -34q-32 0 -74 19q-43 18 -68 18q-35 0 -43 -41h-57q8 46 32 76q30 37 72 37q32 0 81 -20q42 -18 62 -18q39 0 50 44h56zM76 714h514v-108h-389v-187h360v-102h-360v-209h396v-108h-521v714z" />
    <glyph glyph-name="uni1EBD" unicode="&#x1ebd;" horiz-adv-x="556" 
d="M464 701q-9 -55 -33 -81q-28 -34 -78 -34q-32 0 -74 19q-43 18 -68 18q-35 0 -43 -41h-57q8 46 32 76q30 37 72 37q32 0 81 -20q42 -18 62 -18q39 0 50 44h56zM522 164q-17 -84 -84 -130q-62 -46 -149 -46q-121 0 -188 76q-65 74 -65 196q0 21 3 46h111v-1h265
q-5 58 -37 96q-38 41 -92 41q-86 0 -122 -76h-110q27 75 86 119q62 47 146 47q119 0 189 -93q69 -89 54 -208h-379q0 -67 34 -107q37 -46 105 -46q95 0 125 86h108z" />
    <glyph glyph-name="uni1EBE" unicode="&#x1ebe;" horiz-adv-x="630" 
d="M76 714h514v-108h-389v-187h360v-102h-360v-209h396v-108h-521v714zM267 762h-96l114 143h97l115 -143h-97l-67 79zM541 1015h135l-142 -143h-83z" />
    <glyph glyph-name="uni1EBF" unicode="&#x1ebf;" horiz-adv-x="556" 
d="M522 164q-17 -84 -84 -130q-62 -46 -149 -46q-121 0 -188 76q-65 74 -65 196q0 21 3 46h111v-1h265q-5 58 -37 96q-38 41 -92 41q-86 0 -122 -76h-110q27 75 86 119q62 47 146 47q119 0 189 -93q69 -89 54 -208h-379q0 -67 34 -107q37 -46 105 -46q95 0 125 86h108z
M218 582h-96l114 143h97l115 -143h-97l-67 79zM492 835h135l-142 -143h-83z" />
    <glyph glyph-name="uni1EC0" unicode="&#x1ec0;" horiz-adv-x="630" 
d="M76 714h514v-108h-389v-187h360v-102h-360v-209h396v-108h-521v714zM267 762h-96l114 143h97l115 -143h-97l-67 79zM481 1014l91 -143h-83l-142 143h134z" />
    <glyph glyph-name="uni1EC1" unicode="&#x1ec1;" horiz-adv-x="556" 
d="M522 164q-17 -84 -84 -130q-62 -46 -149 -46q-121 0 -188 76q-65 74 -65 196q0 21 3 46h111v-1h265q-5 58 -37 96q-38 41 -92 41q-86 0 -122 -76h-110q27 75 86 119q62 47 146 47q119 0 189 -93q69 -89 54 -208h-379q0 -67 34 -107q37 -46 105 -46q95 0 125 86h108z
M218 582h-96l114 143h97l115 -143h-97l-67 79zM432 834l91 -143h-83l-142 143h134z" />
    <glyph glyph-name="uni1EC2" unicode="&#x1ec2;" horiz-adv-x="630" 
d="M76 0h521v108h-396v209h360v102h-360v187h389v108h-514v-714zM333 841l67 -79h97l-115 143h-97l-114 -143h96zM378 968q0 51 22 80q27 35 80 35q37 0 61 -17q34 -30 34 -75q0 -44 -37 -72l-4 -4q-15 -15 -18 -21q-4 -7 -3 -23h-65q-3 50 42 89q20 13 20 31q0 13 -10 20
q-9 5 -22 5q-19 0 -29 -9q-8 -7 -8 -39h-63z" />
    <glyph glyph-name="uni1EC3" unicode="&#x1ec3;" horiz-adv-x="556" 
d="M522 164q-17 -84 -84 -130q-62 -46 -149 -46q-121 0 -188 76q-65 74 -65 196q0 21 3 46h111v-1h265q-5 58 -37 96q-38 41 -92 41q-86 0 -122 -76h-110q27 75 86 119q62 47 146 47q119 0 189 -93q69 -89 54 -208h-379q0 -67 34 -107q37 -46 105 -46q95 0 125 86h108z
M284 661l67 -79h97l-115 143h-97l-114 -143h96zM329 788q0 51 22 80q27 35 80 35q37 0 61 -17q34 -30 34 -75q0 -44 -37 -72l-4 -4q-15 -15 -18 -21q-4 -7 -3 -23h-65q-3 50 42 89q20 13 20 31q0 13 -10 20q-9 5 -22 5q-19 0 -29 -9q-8 -7 -8 -39h-63z" />
    <glyph glyph-name="uni1EC4" unicode="&#x1ec4;" horiz-adv-x="630" 
d="M76 714h514v-108h-389v-187h360v-102h-360v-209h396v-108h-521v714zM267 762h-96l114 143h97l115 -143h-97l-67 79zM512 1061q-9 -55 -33 -81q-28 -34 -78 -34q-32 0 -74 19q-43 18 -68 18q-35 0 -43 -41h-57q8 46 32 76q30 37 72 37q32 0 81 -20q42 -18 62 -18
q39 0 50 44h56z" />
    <glyph glyph-name="uni1EC5" unicode="&#x1ec5;" horiz-adv-x="556" 
d="M522 164q-17 -84 -84 -130q-62 -46 -149 -46q-121 0 -188 76q-65 74 -65 196q0 21 3 46h111v-1h265q-5 58 -37 96q-38 41 -92 41q-86 0 -122 -76h-110q27 75 86 119q62 47 146 47q119 0 189 -93q69 -89 54 -208h-379q0 -67 34 -107q37 -46 105 -46q95 0 125 86h108z
M218 582h-96l114 143h97l115 -143h-97l-67 79zM463 881q-9 -55 -33 -81q-28 -34 -78 -34q-32 0 -74 19q-43 18 -68 18q-35 0 -43 -41h-57q8 46 32 76q30 37 72 37q32 0 81 -20q42 -18 62 -18q39 0 50 44h56z" />
    <glyph glyph-name="uni1EC6" unicode="&#x1ec6;" horiz-adv-x="630" 
d="M76 714h514v-108h-389v-187h360v-102h-360v-209h396v-108h-521v714zM267 762h-96l114 143h97l115 -143h-97l-67 79zM272 -55h123v-119h-123v119z" />
    <glyph glyph-name="uni1EC7" unicode="&#x1ec7;" horiz-adv-x="556" 
d="M522 164q-17 -84 -84 -130q-62 -46 -149 -46q-121 0 -188 76q-65 74 -65 196q0 21 3 46h111v-1h265q-5 58 -37 96q-38 41 -92 41q-86 0 -122 -76h-110q27 75 86 119q62 47 146 47q119 0 189 -93q69 -89 54 -208h-379q0 -67 34 -107q37 -46 105 -46q95 0 125 86h108z
M218 582h-96l114 143h97l115 -143h-97l-67 79zM238 -68h106v-103h-106v103z" />
    <glyph glyph-name="uni1EC8" unicode="&#x1ec8;" 
d="M37 859q0 51 22 80q27 35 80 35q37 0 61 -17q34 -30 34 -75q0 -44 -37 -72l-4 -4q-15 -15 -18 -21q-4 -7 -3 -23h-65q-3 50 42 89q20 13 20 31q0 13 -10 20q-9 5 -22 5q-19 0 -29 -9q-8 -7 -8 -39h-63zM76 0h125v714h-125v-714z" />
    <glyph glyph-name="uni1EC9" unicode="&#x1ec9;" horiz-adv-x="241" 
d="M63 0h114v517h-114v-517zM17 679q0 51 22 80q27 35 80 35q37 0 61 -17q34 -30 34 -75q0 -44 -37 -72l-4 -4q-15 -15 -18 -21q-4 -7 -3 -23h-65q-3 50 42 89q20 13 20 31q0 13 -10 20q-9 5 -22 5q-19 0 -29 -9q-8 -7 -8 -39h-63z" />
    <glyph glyph-name="uni1ECA" unicode="&#x1eca;" 
d="M85 -55h106v-103h-106v103zM76 714h125v-714h-125v714z" />
    <glyph glyph-name="uni1ECB" unicode="&#x1ecb;" horiz-adv-x="241" 
d="M68 -68h106v-103h-106v103zM63 714h114v-108h-114v108zM63 517h114v-517h-114v517z" />
    <glyph glyph-name="uni1ECC" unicode="&#x1ecc;" horiz-adv-x="760" 
d="M321 -183h123v119h-123v-119zM724 357q0 -161 -94 -267l-86 75q55 74 55 192q0 115 -51 188q-58 85 -166 85q-109 0 -167 -85q-51 -73 -51 -188q0 -113 51 -187q58 -85 167 -85q70 0 120 37l84 -73q-87 -66 -204 -66q-156 0 -252 110q-91 104 -91 264q0 158 91 264
q96 111 252 111q155 0 251 -111q91 -106 91 -264z" />
    <glyph glyph-name="uni1ECD" unicode="&#x1ecd;" horiz-adv-x="593" 
d="M246 -171h106v103h-106v-103zM420 153q24 47 24 106q0 74 -35 124q-40 58 -112 58t-112 -58q-35 -50 -35 -124q0 -75 35 -125q40 -58 112 -58q49 0 86 29l72 -72q-65 -47 -158 -47q-121 0 -192 77q-69 74 -69 196q0 120 69 195q71 77 192 77t192 -77q69 -75 69 -195
q0 -111 -59 -185z" />
    <glyph glyph-name="uni1ECE" unicode="&#x1ece;" horiz-adv-x="760" 
d="M724 357q0 -161 -94 -267l-86 75q55 74 55 192q0 115 -51 188q-58 85 -166 85q-109 0 -167 -85q-51 -73 -51 -188q0 -113 51 -187q58 -85 167 -85q70 0 120 37l84 -73q-87 -66 -204 -66q-156 0 -252 110q-91 104 -91 264q0 158 91 264q96 111 252 111q155 0 251 -111
q91 -106 91 -264zM280 869q0 51 22 80q27 35 80 35q37 0 61 -17q34 -30 34 -75q0 -44 -37 -72l-4 -4q-15 -15 -18 -21q-4 -7 -3 -23h-65q-3 50 42 89q20 13 20 31q0 13 -10 20q-9 5 -22 5q-19 0 -29 -9q-8 -7 -8 -39h-63z" />
    <glyph glyph-name="uni1ECF" unicode="&#x1ecf;" horiz-adv-x="593" 
d="M420 153q24 47 24 106q0 74 -35 124q-40 58 -112 58t-112 -58q-35 -50 -35 -124q0 -75 35 -125q40 -58 112 -58q49 0 86 29l72 -72q-65 -47 -158 -47q-121 0 -192 77q-69 74 -69 196q0 120 69 195q71 77 192 77t192 -77q69 -75 69 -195q0 -111 -59 -185zM193 679
q0 51 22 80q27 35 80 35q37 0 61 -17q34 -30 34 -75q0 -44 -37 -72l-4 -4q-15 -15 -18 -21q-4 -7 -3 -23h-65q-3 50 42 89q20 13 20 31q0 13 -10 20q-9 5 -22 5q-19 0 -29 -9q-8 -7 -8 -39h-63z" />
    <glyph glyph-name="uni1ED0" unicode="&#x1ed0;" horiz-adv-x="760" 
d="M724 357q0 -161 -94 -267l-86 75q55 74 55 192q0 115 -51 188q-58 85 -166 85q-109 0 -167 -85q-51 -73 -51 -188q0 -113 51 -187q58 -85 167 -85q70 0 120 37l84 -73q-87 -66 -204 -66q-156 0 -252 110q-91 104 -91 264q0 158 91 264q96 111 252 111q155 0 251 -111
q91 -106 91 -264zM315 772h-96l114 143h97l115 -143h-97l-67 79zM589 1025h135l-142 -143h-83z" />
    <glyph glyph-name="uni1ED1" unicode="&#x1ed1;" horiz-adv-x="593" 
d="M420 153q24 47 24 106q0 74 -35 124q-40 58 -112 58t-112 -58q-35 -50 -35 -124q0 -75 35 -125q40 -58 112 -58q49 0 86 29l72 -72q-65 -47 -158 -47q-121 0 -192 77q-69 74 -69 196q0 120 69 195q71 77 192 77t192 -77q69 -75 69 -195q0 -111 -59 -185zM232 582h-96
l114 143h97l115 -143h-97l-67 79zM506 835h135l-142 -143h-83z" />
    <glyph glyph-name="uni1ED2" unicode="&#x1ed2;" horiz-adv-x="760" 
d="M724 357q0 -161 -94 -267l-86 75q55 74 55 192q0 115 -51 188q-58 85 -166 85q-109 0 -167 -85q-51 -73 -51 -188q0 -113 51 -187q58 -85 167 -85q70 0 120 37l84 -73q-87 -66 -204 -66q-156 0 -252 110q-91 104 -91 264q0 158 91 264q96 111 252 111q155 0 251 -111
q91 -106 91 -264zM315 772h-96l114 143h97l115 -143h-97l-67 79zM529 1024l91 -143h-83l-142 143h134z" />
    <glyph glyph-name="uni1ED3" unicode="&#x1ed3;" horiz-adv-x="593" 
d="M420 153q24 47 24 106q0 74 -35 124q-40 58 -112 58t-112 -58q-35 -50 -35 -124q0 -75 35 -125q40 -58 112 -58q49 0 86 29l72 -72q-65 -47 -158 -47q-121 0 -192 77q-69 74 -69 196q0 120 69 195q71 77 192 77t192 -77q69 -75 69 -195q0 -111 -59 -185zM232 582h-96
l114 143h97l115 -143h-97l-67 79zM446 834l91 -143h-83l-142 143h134z" />
    <glyph glyph-name="uni1ED4" unicode="&#x1ed4;" horiz-adv-x="760" 
d="M724 357q0 -161 -94 -267l-86 75q55 74 55 192q0 115 -51 188q-58 85 -166 85q-109 0 -167 -85q-51 -73 -51 -188q0 -113 51 -187q58 -85 167 -85q70 0 120 37l84 -73q-87 -66 -204 -66q-156 0 -252 110q-91 104 -91 264q0 158 91 264q96 111 252 111q155 0 251 -111
q91 -106 91 -264zM381 851l67 -79h97l-115 143h-97l-114 -143h96zM426 978q0 51 22 80q27 35 80 35q37 0 61 -17q34 -30 34 -75q0 -44 -37 -72l-4 -4q-15 -15 -18 -21q-4 -7 -3 -23h-65q-3 50 42 89q20 13 20 31q0 13 -10 20q-9 5 -22 5q-19 0 -29 -9q-8 -7 -8 -39h-63z" />
    <glyph glyph-name="uni1ED5" unicode="&#x1ed5;" horiz-adv-x="593" 
d="M420 153q24 47 24 106q0 74 -35 124q-40 58 -112 58t-112 -58q-35 -50 -35 -124q0 -75 35 -125q40 -58 112 -58q49 0 86 29l72 -72q-65 -47 -158 -47q-121 0 -192 77q-69 74 -69 196q0 120 69 195q71 77 192 77t192 -77q69 -75 69 -195q0 -111 -59 -185zM298 661l67 -79
h97l-115 143h-97l-114 -143h96zM343 788q0 51 22 80q27 35 80 35q37 0 61 -17q34 -30 34 -75q0 -44 -37 -72l-4 -4q-15 -15 -18 -21q-4 -7 -3 -23h-65q-3 50 42 89q20 13 20 31q0 13 -10 20q-9 5 -22 5q-19 0 -29 -9q-8 -7 -8 -39h-63z" />
    <glyph glyph-name="uni1ED6" unicode="&#x1ed6;" horiz-adv-x="760" 
d="M724 357q0 -161 -94 -267l-86 75q55 74 55 192q0 115 -51 188q-58 85 -166 85q-109 0 -167 -85q-51 -73 -51 -188q0 -113 51 -187q58 -85 167 -85q70 0 120 37l84 -73q-87 -66 -204 -66q-156 0 -252 110q-91 104 -91 264q0 158 91 264q96 111 252 111q155 0 251 -111
q91 -106 91 -264zM315 772h-96l114 143h97l115 -143h-97l-67 79zM560 1071q-9 -55 -33 -81q-28 -34 -78 -34q-32 0 -74 19q-43 18 -68 18q-35 0 -43 -41h-57q8 46 32 76q30 37 72 37q32 0 81 -20q42 -18 62 -18q39 0 50 44h56z" />
    <glyph glyph-name="uni1ED7" unicode="&#x1ed7;" horiz-adv-x="593" 
d="M420 153q24 47 24 106q0 74 -35 124q-40 58 -112 58t-112 -58q-35 -50 -35 -124q0 -75 35 -125q40 -58 112 -58q49 0 86 29l72 -72q-65 -47 -158 -47q-121 0 -192 77q-69 74 -69 196q0 120 69 195q71 77 192 77t192 -77q69 -75 69 -195q0 -111 -59 -185zM232 582h-96
l114 143h97l115 -143h-97l-67 79zM477 881q-9 -55 -33 -81q-28 -34 -78 -34q-32 0 -74 19q-43 18 -68 18q-35 0 -43 -41h-57q8 46 32 76q30 37 72 37q32 0 81 -20q42 -18 62 -18q39 0 50 44h56z" />
    <glyph glyph-name="uni1ED8" unicode="&#x1ed8;" horiz-adv-x="760" 
d="M724 357q0 -161 -94 -267l-86 75q55 74 55 192q0 115 -51 188q-58 85 -166 85q-109 0 -167 -85q-51 -73 -51 -188q0 -113 51 -187q58 -85 167 -85q70 0 120 37l84 -73q-87 -66 -204 -66q-156 0 -252 110q-91 104 -91 264q0 158 91 264q96 111 252 111q155 0 251 -111
q91 -106 91 -264zM315 772h-96l114 143h97l115 -143h-97l-67 79zM321 -64h123v-119h-123v119z" />
    <glyph glyph-name="uni1ED9" unicode="&#x1ed9;" horiz-adv-x="593" 
d="M420 153q24 47 24 106q0 74 -35 124q-40 58 -112 58t-112 -58q-35 -50 -35 -124q0 -75 35 -125q40 -58 112 -58q49 0 86 29l72 -72q-65 -47 -158 -47q-121 0 -192 77q-69 74 -69 196q0 120 69 195q71 77 192 77t192 -77q69 -75 69 -195q0 -111 -59 -185zM232 582h-96
l114 143h97l115 -143h-97l-67 79zM246 -68h106v-103h-106v103z" />
    <glyph glyph-name="uni1EDA" unicode="&#x1eda;" horiz-adv-x="760" 
d="M724 357q0 -161 -94 -267l-86 75q55 74 55 192q0 115 -51 188q-58 85 -166 85q-109 0 -167 -85q-51 -73 -51 -188q0 -113 51 -187q58 -85 167 -85q70 0 120 37l84 -73q-87 -66 -204 -66q-156 0 -252 110q-91 104 -91 264q0 158 91 264q96 111 252 111q74 0 134 -25h36
q35 3 35 34q0 21 -19 74h108q12 -53 12 -75q0 -89 -55 -119q91 -106 91 -264zM387 916h135l-142 -143h-83z" />
    <glyph glyph-name="uni1EDB" unicode="&#x1edb;" horiz-adv-x="593" 
d="M420 153q24 47 24 106q0 74 -35 124q-40 58 -112 58t-112 -58q-35 -50 -35 -124q0 -75 35 -125q40 -58 112 -58q49 0 86 29l72 -72q-65 -47 -158 -47q-121 0 -192 77q-69 74 -69 196q0 120 69 195q71 77 192 77q54 0 102 -17h35q33 2 33 32q0 19 -18 69h102
q11 -52 11 -70q0 -85 -55 -114q51 -70 51 -172q0 -111 -59 -185zM303 725h135l-142 -143h-83z" />
    <glyph glyph-name="uni1EDC" unicode="&#x1edc;" horiz-adv-x="760" 
d="M724 357q0 -161 -94 -267l-86 75q55 74 55 192q0 115 -51 188q-58 85 -166 85q-109 0 -167 -85q-51 -73 -51 -188q0 -113 51 -187q58 -85 167 -85q70 0 120 37l84 -73q-87 -66 -204 -66q-156 0 -252 110q-91 104 -91 264q0 158 91 264q96 111 252 111q74 0 134 -25h36
q35 3 35 34q0 21 -19 74h108q12 -53 12 -75q0 -89 -55 -119q91 -106 91 -264zM374 915l91 -143h-83l-142 143h134z" />
    <glyph glyph-name="uni1EDD" unicode="&#x1edd;" horiz-adv-x="593" 
d="M420 153q24 47 24 106q0 74 -35 124q-40 58 -112 58t-112 -58q-35 -50 -35 -124q0 -75 35 -125q40 -58 112 -58q49 0 86 29l72 -72q-65 -47 -158 -47q-121 0 -192 77q-69 74 -69 196q0 120 69 195q71 77 192 77q54 0 102 -17h35q33 2 33 32q0 19 -18 69h102
q11 -52 11 -70q0 -85 -55 -114q51 -70 51 -172q0 -111 -59 -185zM287 724l91 -143h-83l-142 143h134z" />
    <glyph glyph-name="uni1EDE" unicode="&#x1ede;" horiz-adv-x="760" 
d="M724 357q0 -161 -94 -267l-86 75q55 74 55 192q0 115 -51 188q-58 85 -166 85q-109 0 -167 -85q-51 -73 -51 -188q0 -113 51 -187q58 -85 167 -85q70 0 120 37l84 -73q-87 -66 -204 -66q-156 0 -252 110q-91 104 -91 264q0 158 91 264q96 111 252 111q74 0 134 -25h36
q35 3 35 34q0 21 -19 74h108q12 -53 12 -75q0 -89 -55 -119q91 -106 91 -264zM280 869q0 51 22 80q27 35 80 35q37 0 61 -17q34 -30 34 -75q0 -44 -37 -72l-4 -4q-15 -15 -18 -21q-4 -7 -3 -23h-65q-3 50 42 89q20 13 20 31q0 13 -10 20q-9 5 -22 5q-19 0 -29 -9
q-8 -7 -8 -39h-63z" />
    <glyph glyph-name="uni1EDF" unicode="&#x1edf;" horiz-adv-x="593" 
d="M420 153q24 47 24 106q0 74 -35 124q-40 58 -112 58t-112 -58q-35 -50 -35 -124q0 -75 35 -125q40 -58 112 -58q49 0 86 29l72 -72q-65 -47 -158 -47q-121 0 -192 77q-69 74 -69 196q0 120 69 195q71 77 192 77q54 0 102 -17h35q33 2 33 32q0 19 -18 69h102
q11 -52 11 -70q0 -85 -55 -114q51 -70 51 -172q0 -111 -59 -185zM193 679q0 51 22 80q27 35 80 35q37 0 61 -17q34 -30 34 -75q0 -44 -37 -72l-4 -4q-15 -15 -18 -21q-4 -7 -3 -23h-65q-3 50 42 89q20 13 20 31q0 13 -10 20q-9 5 -22 5q-19 0 -29 -9q-8 -7 -8 -39h-63z" />
    <glyph glyph-name="uni1EE0" unicode="&#x1ee0;" horiz-adv-x="760" 
d="M724 357q0 -161 -94 -267l-86 75q55 74 55 192q0 115 -51 188q-58 85 -166 85q-109 0 -167 -85q-51 -73 -51 -188q0 -113 51 -187q58 -85 167 -85q70 0 120 37l84 -73q-87 -66 -204 -66q-156 0 -252 110q-91 104 -91 264q0 158 91 264q96 111 252 111q74 0 134 -25h36
q35 3 35 34q0 21 -19 74h108q12 -53 12 -75q0 -89 -55 -119q91 -106 91 -264zM559 891q-9 -55 -33 -81q-28 -34 -78 -34q-32 0 -74 19q-43 18 -68 18q-35 0 -43 -41h-57q8 46 32 76q30 37 72 37q32 0 81 -20q42 -18 62 -18q39 0 50 44h56z" />
    <glyph glyph-name="uni1EE1" unicode="&#x1ee1;" horiz-adv-x="593" 
d="M420 153q24 47 24 106q0 74 -35 124q-40 58 -112 58t-112 -58q-35 -50 -35 -124q0 -75 35 -125q40 -58 112 -58q49 0 86 29l72 -72q-65 -47 -158 -47q-121 0 -192 77q-69 74 -69 196q0 120 69 195q71 77 192 77q54 0 102 -17h35q33 2 33 32q0 19 -18 69h102
q11 -52 11 -70q0 -85 -55 -114q51 -70 51 -172q0 -111 -59 -185zM457 701q-7 -55 -30 -81q-25 -34 -72 -34q-29 0 -68 19q-39 18 -62 18q-32 0 -40 -41h-52q6 44 29 76q28 37 66 37q30 0 75 -20q38 -18 57 -18q35 0 46 44h51z" />
    <glyph glyph-name="uni1EE2" unicode="&#x1ee2;" horiz-adv-x="760" 
d="M724 357q0 -161 -94 -267l-86 75q55 74 55 192q0 115 -51 188q-58 85 -166 85q-109 0 -167 -85q-51 -73 -51 -188q0 -113 51 -187q58 -85 167 -85q70 0 120 37l84 -73q-87 -66 -204 -66q-156 0 -252 110q-91 104 -91 264q0 158 91 264q96 111 252 111q74 0 134 -25h36
q35 3 35 34q0 21 -19 74h108q12 -53 12 -75q0 -89 -55 -119q91 -106 91 -264zM321 -183h123v119h-123v-119z" />
    <glyph glyph-name="uni1EE3" unicode="&#x1ee3;" horiz-adv-x="593" 
d="M420 153q24 47 24 106q0 74 -35 124q-40 58 -112 58t-112 -58q-35 -50 -35 -124q0 -75 35 -125q40 -58 112 -58q49 0 86 29l72 -72q-65 -47 -158 -47q-121 0 -192 77q-69 74 -69 196q0 120 69 195q71 77 192 77q54 0 102 -17h35q33 2 33 32q0 19 -18 69h102
q11 -52 11 -70q0 -85 -55 -114q51 -70 51 -172q0 -111 -59 -185zM246 -171h106v103h-106v-103z" />
    <glyph glyph-name="uni1EE4" unicode="&#x1ee4;" horiz-adv-x="722" 
d="M299 -55h123v-119h-123v119zM68 714h125v-416q0 -96 23 -139q38 -68 145 -68t145 68q23 43 23 139v416h125v-457q0 -134 -80 -206q-77 -68 -213 -68q-135 0 -212 68q-81 72 -81 206v457z" />
    <glyph glyph-name="uni1EE5" unicode="&#x1ee5;" horiz-adv-x="574" 
d="M229 -68h106v-103h-106v103zM514 0h-112v72h-2q-47 -86 -147 -86q-193 0 -193 203v328h114v-317q0 -124 99 -124q127 0 127 141v300h114v-517z" />
    <glyph glyph-name="uni1EE6" unicode="&#x1ee6;" horiz-adv-x="722" 
d="M263 869q0 51 22 80q27 35 80 35q37 0 61 -17q34 -30 34 -75q0 -44 -37 -72l-4 -4q-15 -15 -18 -21q-4 -7 -3 -23h-65q-3 50 42 89q20 13 20 31q0 13 -10 20q-9 5 -22 5q-19 0 -29 -9q-8 -7 -8 -39h-63zM68 257q0 -134 81 -206q77 -68 212 -68q136 0 213 68q80 72 80 206
v457h-125v-416q0 -96 -23 -139q-38 -68 -145 -68t-145 68q-23 43 -23 139v416h-125v-457z" />
    <glyph glyph-name="uni1EE7" unicode="&#x1ee7;" horiz-adv-x="574" 
d="M188 679q0 51 22 80q27 35 80 35q37 0 61 -17q34 -30 34 -75q0 -44 -37 -72l-4 -4q-15 -15 -18 -21q-4 -7 -3 -23h-65q-3 50 42 89q20 13 20 31q0 13 -10 20q-9 5 -22 5q-19 0 -29 -9q-8 -7 -8 -39h-63zM514 517h-114v-300q0 -141 -127 -141q-99 0 -99 124v317h-114v-328
q0 -203 193 -203q100 0 147 86h2v-72h112v517z" />
    <glyph glyph-name="uni1EE8" unicode="&#x1ee8;" horiz-adv-x="828" 
d="M68 714h125v-416q0 -96 23 -139q38 -68 145 -68t145 68q23 43 23 139v416h123q27 6 27 33q0 21 -19 74h108q12 -53 12 -75q0 -129 -126 -138v-351q0 -134 -80 -206q-77 -68 -213 -68q-135 0 -212 68q-81 72 -81 206v457zM382 906h135l-142 -143h-83z" />
    <glyph glyph-name="uni1EE9" unicode="&#x1ee9;" horiz-adv-x="656" 
d="M514 0h-112v72h-2q-47 -86 -147 -86q-193 0 -193 203v328h114v-317q0 -124 99 -124q127 0 127 141v300h108q18 8 18 29q0 19 -18 69h102q11 -52 11 -70q0 -116 -107 -129v-416zM302 725h135l-142 -143h-83z" />
    <glyph glyph-name="uni1EEA" unicode="&#x1eea;" horiz-adv-x="828" 
d="M68 714h125v-416q0 -96 23 -139q38 -68 145 -68t145 68q23 43 23 139v416h123q27 6 27 33q0 21 -19 74h108q12 -53 12 -75q0 -129 -126 -138v-351q0 -134 -80 -206q-77 -68 -213 -68q-135 0 -212 68q-81 72 -81 206v457zM338 905l91 -143h-83l-142 143h134z" />
    <glyph glyph-name="uni1EEB" unicode="&#x1eeb;" horiz-adv-x="656" 
d="M514 0h-112v72h-2q-47 -86 -147 -86q-193 0 -193 203v328h114v-317q0 -124 99 -124q127 0 127 141v300h108q18 8 18 29q0 19 -18 69h102q11 -52 11 -70q0 -116 -107 -129v-416zM275 724l91 -143h-83l-142 143h134z" />
    <glyph glyph-name="uni1EEC" unicode="&#x1eec;" horiz-adv-x="828" 
d="M68 257q0 -134 81 -206q77 -68 212 -68q136 0 213 68q80 72 80 206v351q126 9 126 138q0 22 -12 75h-108q19 -53 19 -74q0 -27 -27 -33h-123v-416q0 -96 -23 -139q-38 -68 -145 -68t-145 68q-23 43 -23 139v416h-125v-457zM263 869q0 51 22 80q27 35 80 35q37 0 61 -17
q34 -30 34 -75q0 -44 -37 -72l-4 -4q-15 -15 -18 -21q-4 -7 -3 -23h-65q-3 50 42 89q20 13 20 31q0 13 -10 20q-9 5 -22 5q-19 0 -29 -9q-8 -7 -8 -39h-63z" />
    <glyph glyph-name="uni1EED" unicode="&#x1eed;" horiz-adv-x="656" 
d="M514 416q107 13 107 129q0 18 -11 70h-102q18 -50 18 -69q0 -21 -18 -29h-108v-300q0 -141 -127 -141q-99 0 -99 124v317h-114v-328q0 -203 193 -203q100 0 147 86h2v-72h112v416zM188 679q0 51 22 80q27 35 80 35q37 0 61 -17q34 -30 34 -75q0 -44 -37 -72l-4 -4
q-15 -15 -18 -21q-4 -7 -3 -23h-65q-3 50 42 89q20 13 20 31q0 13 -10 20q-9 5 -22 5q-19 0 -29 -9q-8 -7 -8 -39h-63z" />
    <glyph glyph-name="uni1EEE" unicode="&#x1eee;" horiz-adv-x="828" 
d="M68 714h125v-416q0 -96 23 -139q38 -68 145 -68t145 68q23 43 23 139v416h123q27 6 27 33q0 21 -19 74h108q12 -53 12 -75q0 -129 -126 -138v-351q0 -134 -80 -206q-77 -68 -213 -68q-135 0 -212 68q-81 72 -81 206v457zM540 881q-9 -55 -33 -81q-28 -34 -78 -34
q-32 0 -74 19q-43 18 -68 18q-35 0 -43 -41h-57q8 46 32 76q30 37 72 37q32 0 81 -20q42 -18 62 -18q39 0 50 44h56z" />
    <glyph glyph-name="uni1EEF" unicode="&#x1eef;" horiz-adv-x="656" 
d="M514 0h-112v72h-2q-47 -86 -147 -86q-193 0 -193 203v328h114v-317q0 -124 99 -124q127 0 127 141v300h108q18 8 18 29q0 19 -18 69h102q11 -52 11 -70q0 -116 -107 -129v-416zM470 701q-9 -55 -33 -81q-28 -34 -78 -34q-32 0 -74 19q-43 18 -68 18q-35 0 -43 -41h-57
q8 46 32 76q30 37 72 37q32 0 81 -20q42 -18 62 -18q39 0 50 44h56z" />
    <glyph glyph-name="uni1EF0" unicode="&#x1ef0;" horiz-adv-x="828" 
d="M68 714h125v-416q0 -96 23 -139q38 -68 145 -68t145 68q23 43 23 139v416h123q27 6 27 33q0 21 -19 74h108q12 -53 12 -75q0 -129 -126 -138v-351q0 -134 -80 -206q-77 -68 -213 -68q-135 0 -212 68q-81 72 -81 206v457zM299 -55h123v-119h-123v119z" />
    <glyph glyph-name="uni1EF1" unicode="&#x1ef1;" horiz-adv-x="656" 
d="M514 0h-112v72h-2q-47 -86 -147 -86q-193 0 -193 203v328h114v-317q0 -124 99 -124q127 0 127 141v300h108q18 8 18 29q0 19 -18 69h102q11 -52 11 -70q0 -116 -107 -129v-416zM229 -68h106v-103h-106v103z" />
    <glyph glyph-name="Ygrave" unicode="&#x1ef2;" horiz-adv-x="648" 
d="M310 905l91 -143h-83l-142 143h134zM139 713l155 -263l-66 -117l-235 380h146zM650 711l-265 -431v-278h-124v274l108 190l142 245h139z" />
    <glyph glyph-name="ygrave" unicode="&#x1ef3;" horiz-adv-x="519" 
d="M240 724l91 -143h-83l-142 143h134zM3 517h125l135 -386h2l131 386h119l-201 -545q-37 -94 -60 -123q-43 -54 -123 -54q-40 0 -79 6v96q41 -7 54 -7q59 0 80 72l13 40z" />
    <glyph glyph-name="uni1EF4" unicode="&#x1ef4;" horiz-adv-x="648" 
d="M262 -174h123v119h-123v-119zM139 713l155 -263l-66 -117l-235 380h146zM650 711l-265 -431v-278h-124v274l108 190l142 245h139z" />
    <glyph glyph-name="uni1EF5" unicode="&#x1ef5;" horiz-adv-x="519" 
d="M341 -68h106v-103h-106v103zM3 517h125l135 -386h2l131 386h119l-201 -545q-37 -94 -60 -123q-43 -54 -123 -54q-40 0 -79 6v96q41 -7 54 -7q59 0 80 72l13 40z" />
    <glyph glyph-name="uni1EF6" unicode="&#x1ef6;" horiz-adv-x="648" 
d="M229 869q0 51 22 80q27 35 80 35q37 0 61 -17q34 -30 34 -75q0 -44 -37 -72l-4 -4q-15 -15 -18 -21q-4 -7 -3 -23h-65q-3 50 42 89q20 13 20 31q0 13 -10 20q-9 5 -22 5q-19 0 -29 -9q-8 -7 -8 -39h-63zM139 713l155 -263l-66 -117l-235 380h146zM650 711l-265 -431v-278
h-124v274l108 190l142 245h139z" />
    <glyph glyph-name="uni1EF7" unicode="&#x1ef7;" horiz-adv-x="519" 
d="M164 679q0 51 22 80q27 35 80 35q37 0 61 -17q34 -30 34 -75q0 -44 -37 -72l-4 -4q-15 -15 -18 -21q-4 -7 -3 -23h-65q-3 50 42 89q20 13 20 31q0 13 -10 20q-9 5 -22 5q-19 0 -29 -9q-8 -7 -8 -39h-63zM199 2l-13 -40q-21 -72 -80 -72q-13 0 -54 7v-96q39 -6 79 -6
q80 0 123 54q23 29 60 123l201 545h-119l-131 -386h-2l-135 386h-125z" />
    <glyph glyph-name="uni1EF8" unicode="&#x1ef8;" horiz-adv-x="648" 
d="M502 881q-9 -55 -33 -81q-28 -34 -78 -34q-32 0 -74 19q-43 18 -68 18q-35 0 -43 -41h-57q8 46 32 76q30 37 72 37q32 0 81 -20q42 -18 62 -18q39 0 50 44h56zM139 713l155 -263l-66 -117l-235 380h146zM650 711l-265 -431v-278h-124v274l108 190l142 245h139z" />
    <glyph glyph-name="uni1EF9" unicode="&#x1ef9;" horiz-adv-x="519" 
d="M442 701q-9 -55 -33 -81q-28 -34 -78 -34q-32 0 -74 19q-43 18 -68 18q-35 0 -43 -41h-57q8 46 32 76q30 37 72 37q32 0 81 -20q42 -18 62 -18q39 0 50 44h56zM3 517h125l135 -386h2l131 386h119l-201 -545q-37 -94 -60 -123q-43 -54 -123 -54q-40 0 -79 6v96
q41 -7 54 -7q59 0 80 72l13 40z" />
    <glyph glyph-name="endash" unicode="&#x2013;" horiz-adv-x="500" 
d="M0 326h500v-108h-500v108z" />
    <glyph glyph-name="emdash" unicode="&#x2014;" horiz-adv-x="1000" 
d="M130 326h740v-108h-740v108z" />
    <glyph glyph-name="quoteleft" unicode="&#x2018;" 
d="M202 656q-61 -22 -61 -89h61v-135h-125v135q0 108 125 147v-58z" />
    <glyph glyph-name="quoteright" unicode="&#x2019;" 
d="M77 490q61 9 61 89h-61v135h125v-135q0 -58 -34 -98q-36 -42 -91 -49v58z" />
    <glyph glyph-name="quotesinglbase" unicode="&#x201a;" 
d="M77 -89q61 22 61 89h-61v135h125v-135q0 -55 -37 -95q-36 -39 -88 -52v58z" />
    <glyph glyph-name="quotedblleft" unicode="&#x201c;" horiz-adv-x="444" 
d="M384 656q-61 -22 -61 -89h61v-135h-125v135q0 108 125 147v-58zM185 656q-61 -22 -61 -89h61v-135h-125v135q0 108 125 147v-58z" />
    <glyph glyph-name="quotedblright" unicode="&#x201d;" horiz-adv-x="444" 
d="M259 490q61 22 61 89h-61v135h125v-135q0 -55 -37 -95q-36 -39 -88 -52v58zM60 490q61 22 61 89h-61v135h125v-135q0 -55 -37 -95q-36 -39 -88 -52v58z" />
    <glyph glyph-name="quotedblbase" unicode="&#x201e;" horiz-adv-x="444" 
d="M259 -89q61 22 61 89h-61v135h125v-135q0 -55 -37 -95q-36 -39 -88 -52v58zM60 -89q61 22 61 89h-61v135h125v-135q0 -55 -37 -95q-36 -39 -88 -52v58z" />
    <glyph glyph-name="dagger" unicode="&#x2020;" horiz-adv-x="556" 
d="M221 422h-191v95h191v197h114v-197h191v-95h-191v-582h-114v582z" />
    <glyph glyph-name="daggerdbl" unicode="&#x2021;" horiz-adv-x="556" 
d="M221 37h-191v95h191v290h-191v95h191v197h114v-197h191v-95h-191v-290h191v-95h-191v-197h-114v197z" />
    <glyph glyph-name="bullet" unicode="&#x2022;" horiz-adv-x="500" 
d="M250 535q75 0 127 -52t52 -126q0 -75 -52 -127t-127 -52q-74 0 -126 52t-52 127q0 74 52 126t126 52z" />
    <glyph glyph-name="ellipsis" unicode="&#x2026;" horiz-adv-x="1000" 
d="M763 135h139v-135h-139v135zM430 135h139v-135h-139v135zM97 135h139v-135h-139v135z" />
    <glyph glyph-name="perthousand" unicode="&#x2030;" horiz-adv-x="1148" 
d="M563 724h73l-400 -748h-71zM201 374q-61 11 -93 60q-26 43 -26 101q0 77 35 126q41 53 114 53q74 0 113 -53q36 -48 36 -126q0 -58 -26 -101q-31 -49 -93 -60v65q34 19 34 93q0 122 -64 122t-64 -122q0 -74 34 -93v-65zM545 -10q-61 11 -93 60q-26 43 -26 101
q0 77 35 126q41 53 114 53q74 0 113 -53q36 -48 36 -126q0 -58 -26 -101q-31 -49 -93 -60v65q34 19 34 93q0 122 -64 122t-64 -122q0 -74 34 -93v-65zM887 -10q-61 10 -92 61q-26 43 -26 100q0 77 35 126q41 53 114 53q72 0 113 -53q36 -48 36 -126q0 -57 -27 -101
q-31 -49 -93 -60v65q35 20 35 93q0 122 -64 122t-64 -122q0 -73 33 -93v-65z" />
    <glyph glyph-name="guilsinglleft" unicode="&#x2039;" horiz-adv-x="259" 
d="M50 216v112l155 123v-103l-95 -76l95 -76v-103z" />
    <glyph glyph-name="guilsinglright" unicode="&#x203a;" horiz-adv-x="259" 
d="M209 328v-112l-155 -123v103l95 76l-95 76v103z" />
    <glyph glyph-name="fraction" unicode="&#x2044;" horiz-adv-x="167" 
d="M254 724h78l-418 -748h-79z" />
    <glyph glyph-name="Euro" unicode="&#x20ac;" horiz-adv-x="556" 
d="M521 561q-64 64 -140 64q-67 0 -112 -53q-37 -46 -51 -117h264l-26 -64h-245q-1 -2 -1 -14v-23q0 -29 1 -31h231l-25 -63h-201q12 -81 51 -127q45 -57 122 -57q52 0 83 16q30 15 68 50v-111q-68 -44 -151 -44q-134 0 -209 82q-65 71 -81 191h-77l27 63h45q-2 24 -2 32
l2 36h-72l26 64h53q25 115 91 182q77 77 197 77q86 0 178 -62z" />
    <glyph glyph-name="uni2113" unicode="&#x2113;" horiz-adv-x="500" 
d="M440 48q-71 -62 -155 -62q-69 0 -110 38q-40 37 -40 101v70l-57 -53h-2l-39 60l97 85v246q0 84 46 136q45 52 115 52q61 0 97 -39q37 -38 37 -103q0 -143 -183 -310v-126q0 -75 66 -75q41 0 88 38h2zM294 646q-48 0 -48 -92v-190q92 101 92 208q0 32 -12 53
q-13 21 -32 21z" />
    <glyph glyph-name="trademark" unicode="&#x2122;" horiz-adv-x="990" 
d="M704 422l112 292h115v-412h-75v322h-2l-123 -322h-56l-123 322h-2v-322h-75v412h116zM391 649h-126v-347h-80v347h-126v65h332v-65z" />
    <glyph glyph-name="Omega" unicode="&#x2126;" horiz-adv-x="757" 
d="M426 0v188q75 15 119 75q41 58 41 137q0 93 -59 157q-62 65 -154 65q-93 0 -155 -65q-59 -65 -59 -159q0 -172 158 -210v-188h-271v91h183v47q-183 60 -183 268q0 136 96 227q92 88 230 88q137 0 231 -86q95 -89 95 -226q0 -97 -45 -168q-49 -76 -139 -103v-47h184v-91
h-272z" />
    <glyph glyph-name="estimated" unicode="&#x212e;" horiz-adv-x="600" 
d="M157 259v-181q59 -59 145 -59q123 0 193 120l35 -21q-87 -135 -228 -135q-114 0 -188 80q-70 77 -70 196q0 120 70 196q72 80 188 80q115 0 187 -77q70 -76 72 -199h-404zM448 295v145q-63 60 -147 60t-144 -60v-145h291z" />
    <glyph glyph-name="partialdiff" unicode="&#x2202;" horiz-adv-x="548" 
d="M396 287q-57 67 -129 67q-59 0 -94 -44q-31 -40 -31 -101q0 -60 28 -97q32 -44 89 -44q65 0 106 68q35 59 32 128zM98 54q-59 64 -59 161q0 95 58 156q59 63 154 63q80 0 147 -58l1 30q3 88 -32 153q-43 79 -125 79q-56 0 -118 -48l-57 66q83 65 171 65q140 0 211 -116
q58 -94 58 -246q0 -371 -252 -371q-97 0 -157 66z" />
    <glyph glyph-name="Delta" unicode="&#x2206;" horiz-adv-x="683" 
d="M334 588l-180 -490h370zM9 0l272 712h110l284 -712h-666z" />
    <glyph glyph-name="product" unicode="&#x220f;" horiz-adv-x="737" 
d="M566 -214v902h-396v-902h-107v1000h611v-1000h-108z" />
    <glyph glyph-name="summation" unicode="&#x2211;" horiz-adv-x="643" 
d="M25 -214v86l306 419l-293 411v84h567v-98h-424l279 -396l-297 -409h455v-97h-593z" />
    <glyph glyph-name="minus" unicode="&#x2212;" horiz-adv-x="600" 
d="M48 202v102h504v-102h-504z" />
    <glyph glyph-name="uni2215" unicode="&#x2215;" horiz-adv-x="167" 
d="M254 724h78l-418 -748h-79z" />
    <glyph glyph-name="uni2219" unicode="&#x2219;" 
d="M139 376q31 0 53 -22t22 -52q0 -31 -22 -53q-23 -23 -53 -23t-53 23q-22 22 -22 53q0 29 23 52q22 22 52 22z" />
    <glyph glyph-name="radical" unicode="&#x221a;" horiz-adv-x="531" 
d="M332 -214h-101l-153 319l-50 -23l-40 85l143 65l133 -281l170 835h109z" />
    <glyph glyph-name="infinity" unicode="&#x221e;" horiz-adv-x="806" 
d="M151 318q-21 -24 -21 -59q0 -37 21 -60q23 -23 60 -23q68 0 137 82q-86 86 -140 86q-34 0 -57 -26zM595 345q-49 0 -137 -88q76 -82 140 -82q36 0 57 24q20 25 20 60q0 39 -21 61q-22 25 -59 25zM596 83q-91 0 -193 112q-110 -110 -192 -110q-75 0 -122 50
q-45 50 -45 125t44 125q47 51 120 51q93 0 195 -118q104 119 194 119q73 0 120 -50q44 -50 44 -125q0 -78 -43 -127q-46 -52 -122 -52z" />
    <glyph glyph-name="integral" unicode="&#x222b;" horiz-adv-x="600" 
d="M423 664q-33 0 -48 33q-15 32 -23 32q-19 0 -19 -32l2 -133l1 -524q0 -119 -16 -166q-30 -88 -125 -88q-38 0 -67 17q-35 20 -35 55q0 49 48 49q34 0 47 -33q15 -34 23 -34q19 0 19 49l-3 97v535q0 128 14 173q29 92 128 92q37 0 69 -17q36 -19 36 -56q0 -21 -15 -35
q-16 -14 -36 -14z" />
    <glyph glyph-name="approxequal" unicode="&#x2248;" horiz-adv-x="593" 
d="M563 241q-17 -167 -145 -167q-41 0 -137 35q-93 34 -120 34q-54 0 -65 -69h-68q8 72 39 115q38 53 104 53q44 0 132 -33q89 -34 129 -34q51 0 64 66h67zM565 444q-17 -167 -145 -167q-41 0 -137 35q-93 34 -120 34q-51 0 -65 -69h-68q17 168 143 168q42 0 132 -33
q90 -34 129 -34q50 0 63 66h68z" />
    <glyph glyph-name="notequal" unicode="&#x2260;" horiz-adv-x="593" 
d="M271 99l-78 -152l-89 46l55 106h-122v102h173l61 117h-234v101h285l77 152l89 -45l-54 -107h122v-101h-174l-60 -117h234v-102h-285z" />
    <glyph glyph-name="lessequal" unicode="&#x2264;" horiz-adv-x="593" 
d="M37 -35v101h519v-101h-519zM37 272v103l519 179v-107l-381 -123l381 -117v-107z" />
    <glyph glyph-name="greaterequal" unicode="&#x2265;" horiz-adv-x="593" 
d="M37 -35v101h519v-101h-519zM37 100v107l380 117l-380 123v107l519 -179v-103z" />
    <glyph glyph-name="lozenge" unicode="&#x25ca;" horiz-adv-x="593" 
d="M295 646l-119 -290l119 -291l122 291zM343 -35h-95l-176 391l176 391h95l177 -391z" />
    <glyph glyph-name="uniF004" unicode="&#xf004;" 
d="M73 -50h131v-89q0 -79 -116 -84v38q41 6 45 36h-60v99z" />
    <glyph glyph-name="uniF004" unicode="&#xf6c3;" 
d="M73 -50h131v-89q0 -79 -116 -84v38q41 6 45 36h-60v99z" />
    <glyph glyph-name="uniF8FF" unicode="&#xf8ff;" horiz-adv-x="512" 
d="M222 117v67h56v-67h-56zM225 234l-2 17q0 56 13 81q14 27 46 59q50 48 50 83t-23 61q-22 24 -53 24q-71 0 -82 -95l-50 8q14 137 135 137q55 0 89 -36q35 -37 35 -95q0 -61 -63 -120q-37 -33 -43 -52t-6 -72h-46zM462 50v617h-412v-617h412zM512 718v-718h-512v718h512z
" />
    <glyph glyph-name="glyph171" 
 />
    <glyph glyph-name="glyph172" 
 />
    <glyph glyph-name="glyph173" 
 />
    <glyph glyph-name="glyph174" 
 />
    <glyph glyph-name="glyph175" 
 />
    <glyph glyph-name="glyph176" 
 />
    <glyph glyph-name="glyph177" 
 />
    <glyph glyph-name="glyph178" 
 />
    <glyph glyph-name="glyph179" 
 />
    <glyph glyph-name="glyph180" 
 />
    <glyph glyph-name="glyph181" 
 />
    <glyph glyph-name="glyph182" 
 />
    <glyph glyph-name="glyph183" 
 />
    <glyph glyph-name="glyph184" 
 />
    <glyph glyph-name="glyph185" 
 />
    <glyph glyph-name="glyph186" 
 />
    <glyph glyph-name="glyph187" 
 />
    <glyph glyph-name="glyph188" 
 />
    <glyph glyph-name="glyph189" 
 />
    <glyph glyph-name="glyph190" 
 />
    <glyph glyph-name="glyph191" 
 />
    <glyph glyph-name="glyph192" 
 />
    <glyph glyph-name="glyph193" 
 />
    <glyph glyph-name="glyph194" 
 />
    <glyph glyph-name="glyph195" 
 />
    <glyph glyph-name="glyph196" 
 />
    <glyph glyph-name="glyph197" 
 />
    <glyph glyph-name="glyph198" 
 />
    <glyph glyph-name="glyph199" 
 />
    <glyph glyph-name="glyph200" 
 />
    <glyph glyph-name="glyph201" 
 />
    <glyph glyph-name="glyph202" 
 />
    <glyph glyph-name="glyph218" 
d="M205 615h-131v89q0 79 116 84v-38q-40 -6 -45 -36h60v-99z" />
    <glyph glyph-name="glyph222" horiz-adv-x="241" 
d="M102 714h125l-81 -143h-76z" />
    <glyph glyph-name="glyph223" 
 />
    <glyph glyph-name="glyph224" 
 />
    <glyph glyph-name="glyph225" 
 />
    <glyph glyph-name="glyph226" 
 />
    <glyph glyph-name="glyph227" 
 />
    <glyph glyph-name="glyph228" 
 />
    <glyph glyph-name="glyph229" 
 />
    <glyph glyph-name="glyph233" horiz-adv-x="0" 
 />
    <glyph glyph-name="grave.aalt" horiz-adv-x="241" 
d="M105 926l91 -143h-83l-142 143h134z" />
    <glyph glyph-name="glyph236" 
 />
    <glyph glyph-name="acute.aalt" horiz-adv-x="241" 
d="M135 926h135l-142 -143h-83z" />
    <glyph glyph-name="circumflex.aalt" horiz-adv-x="241" 
d="M50 783h-92l107 143h111l108 -143h-93l-71 90z" />
    <glyph glyph-name="caron.aalt" horiz-adv-x="241" 
d="M175 783h-111l-107 143h92l70 -89l71 89h93z" />
    <glyph glyph-name="tilde.aalt" horiz-adv-x="241" 
d="M297 914q-9 -55 -33 -81q-28 -34 -78 -34q-32 0 -74 19q-43 18 -68 18q-35 0 -43 -41h-57q8 46 32 76q30 37 72 37q32 0 81 -20q42 -18 62 -18q39 0 50 44h56z" />
    <glyph glyph-name="dieresis.aalt" horiz-adv-x="241" 
d="M-23 796v108h114v-108h-114zM263 904v-108h-114v108h114z" />
    <glyph glyph-name="macron.aalt" horiz-adv-x="241" 
d="M-23 818v65h288v-65h-288z" />
    <glyph glyph-name="breve.aalt" horiz-adv-x="241" 
d="M17 925q15 -76 107 -76q85 0 101 76h57q-16 -141 -166 -141q-145 0 -157 141h58z" />
    <glyph glyph-name="ring.aalt" horiz-adv-x="241" 
d="M121 793q26 0 43 17q17 19 17 44q0 27 -17 44t-43 17q-25 0 -42 -17q-18 -16 -18 -44q0 -26 18 -44q17 -17 42 -17zM17 854q0 45 31 75q29 28 73 28t73 -28q31 -30 31 -75q0 -46 -31 -74q-31 -29 -73 -29q-44 0 -73 29q-31 28 -31 74z" />
    <glyph glyph-name="hungarumlaut.aalt" horiz-adv-x="241" 
d="M254 926h136l-144 -143h-82zM55 926h136l-144 -143h-82z" />
    <glyph glyph-name="dotaccent.aalt" horiz-adv-x="241" 
d="M64 796v108h114v-108h-114z" />
    </font>
</defs>
</svg>
